<?xml version="1.0" encoding="UTF-8" standalone="no"?>
<!-- Created with Inkscape (http://www.inkscape.org/) -->

<svg
   xmlns:dc="http://purl.org/dc/elements/1.1/"
   xmlns:cc="http://creativecommons.org/ns#"
   xmlns:rdf="http://www.w3.org/1999/02/22-rdf-syntax-ns#"
   xmlns:svg="http://www.w3.org/2000/svg"
   xmlns="http://www.w3.org/2000/svg"
   xmlns:sodipodi="http://sodipodi.sourceforge.net/DTD/sodipodi-0.dtd"
   xmlns:inkscape="http://www.inkscape.org/namespaces/inkscape"
   width="744.09448819"
   height="1052.3622047"
   id="svg3069"
   version="1.1"
   inkscape:version="0.48.1 r9760"
   sodipodi:docname="New document 2">
  <defs
     id="defs3071">
    <clipPath
       id="clip_white">
      <path
         inkscape:connector-curvature="0"
         id="path2767"
         d="M 0,0 -10,-5 V 5 z m 0,0 0.1,-10 h 8 z" />
    </clipPath>
    <clipPath
       id="clip_color">
      <path
         inkscape:connector-curvature="0"
         id="path2770"
         d="M 0,0 -10,-10 V 10 z M 0,0 V -10 H 10 z" />
    </clipPath>
    <clipPath
       id="clipPath3100">
      <path
         inkscape:connector-curvature="0"
         id="path3102"
         d="M 0,0 -10,-5 V 5 z m 0,0 0.1,-10 h 8 z" />
    </clipPath>
    <clipPath
       id="clipPath3104">
      <path
         inkscape:connector-curvature="0"
         id="path3106"
         d="M 0,0 -10,-10 V 10 z M 0,0 V -10 H 10 z" />
    </clipPath>
  </defs>
  <sodipodi:namedview
     id="base"
     pagecolor="#ffffff"
     bordercolor="#666666"
     borderopacity="1.0"
     inkscape:pageopacity="0.0"
     inkscape:pageshadow="2"
     inkscape:zoom="5.6"
     inkscape:cx="251.45834"
     inkscape:cy="818.56446"
     inkscape:document-units="px"
     inkscape:current-layer="layer1"
     showgrid="false"
     inkscape:window-width="1416"
     inkscape:window-height="823"
     inkscape:window-x="0"
     inkscape:window-y="24"
     inkscape:window-maximized="1" />
  <metadata
     id="metadata3074">
    <rdf:RDF>
      <cc:Work
         rdf:about="">
        <dc:format>image/svg+xml</dc:format>
        <dc:type
           rdf:resource="http://purl.org/dc/dcmitype/StillImage" />
        <dc:title></dc:title>
      </cc:Work>
    </rdf:RDF>
  </metadata>
  <g
     inkscape:label="Layer 1"
     inkscape:groupmode="layer"
     id="layer1">
    <g
       style="fill:none;stroke:#ffffff;stroke-width:1"
       id="g2774"
       transform="matrix(1.7277136,0,0,1.7277136,275.08928,195.34819)">
      <circle
         style="stroke-width:1.39999998"
         sodipodi:ry="5"
         sodipodi:rx="5"
         sodipodi:cy="5"
         sodipodi:cx="-6"
         cx="-6"
         cy="5"
         r="5"
         id="circle2776"
         d="m -1,5 c 0,2.7614237 -2.2385763,5 -5,5 -2.7614237,0 -5,-2.2385763 -5,-5 0,-2.7614237 2.2385763,-5 5,-5 2.7614237,0 5,2.2385763 5,5 z" />
      <circle
         style="stroke-width:1.39999998"
         sodipodi:ry="5"
         sodipodi:rx="5"
         sodipodi:cy="5"
         sodipodi:cx="6"
         cx="6"
         cy="5"
         r="5"
         id="circle2778"
         d="M 11,5 C 11,7.7614237 8.7614237,10 6,10 3.2385763,10 1,7.7614237 1,5 1,2.2385763 3.2385763,0 6,0 c 2.7614237,0 5,2.2385763 5,5 z" />
      <circle
         style="stroke:#f4c300"
         sodipodi:ry="5"
         sodipodi:rx="5"
         sodipodi:cy="5"
         sodipodi:cx="-6"
         cx="-6"
         cy="5"
         r="5"
         id="circle2780"
         d="m -1,5 c 0,2.7614237 -2.2385763,5 -5,5 -2.7614237,0 -5,-2.2385763 -5,-5 0,-2.7614237 2.2385763,-5 5,-5 2.7614237,0 5,2.2385763 5,5 z" />
      <circle
         style="stroke:#009f3d"
         sodipodi:ry="5"
         sodipodi:rx="5"
         sodipodi:cy="5"
         sodipodi:cx="6"
         cx="6"
         cy="5"
         r="5"
         id="circle2782"
         d="M 11,5 C 11,7.7614237 8.7614237,10 6,10 3.2385763,10 1,7.7614237 1,5 1,2.2385763 3.2385763,0 6,0 c 2.7614237,0 5,2.2385763 5,5 z" />
      <circle
         style="stroke-width:1.39999998"
         sodipodi:ry="5"
         sodipodi:rx="5"
         sodipodi:cy="0"
         sodipodi:cx="-12"
         cx="-12"
         cy="0"
         r="5"
         id="circle2784"
         d="m -7,0 c 0,2.7614237 -2.2385763,5 -5,5 -2.761424,0 -5,-2.2385763 -5,-5 0,-2.7614237 2.238576,-5 5,-5 2.7614237,0 5,2.2385763 5,5 z" />
      <circle
         style="stroke-width:1.39999998"
         sodipodi:ry="5"
         sodipodi:rx="5"
         sodipodi:cy="0"
         sodipodi:cx="0"
         cx="0"
         cy="0"
         r="5"
         id="circle2786"
         d="M 5,0 C 5,2.7614237 2.7614237,5 0,5 -2.7614237,5 -5,2.7614237 -5,0 c 0,-2.7614237 2.2385763,-5 5,-5 2.7614237,0 5,2.2385763 5,5 z" />
      <circle
         style="stroke-width:1.39999998"
         sodipodi:ry="5"
         sodipodi:rx="5"
         sodipodi:cy="0"
         sodipodi:cx="12"
         cx="12"
         cy="0"
         r="5"
         id="circle2788"
         d="M 17,0 C 17,2.7614237 14.761424,5 12,5 9.2385763,5 7,2.7614237 7,0 c 0,-2.7614237 2.2385763,-5 5,-5 2.761424,0 5,2.2385763 5,5 z" />
      <circle
         style="stroke:#0085c7"
         sodipodi:ry="5"
         sodipodi:rx="5"
         sodipodi:cy="0"
         sodipodi:cx="-12"
         cx="-12"
         cy="0"
         r="5"
         id="circle2790"
         d="m -7,0 c 0,2.7614237 -2.2385763,5 -5,5 -2.761424,0 -5,-2.2385763 -5,-5 0,-2.7614237 2.238576,-5 5,-5 2.7614237,0 5,2.2385763 5,5 z" />
      <circle
         style="stroke:#000000"
         sodipodi:ry="5"
         sodipodi:rx="5"
         sodipodi:cy="0"
         sodipodi:cx="0"
         cx="0"
         cy="0"
         r="5"
         id="circle2792"
         d="M 5,0 C 5,2.7614237 2.7614237,5 0,5 -2.7614237,5 -5,2.7614237 -5,0 c 0,-2.7614237 2.2385763,-5 5,-5 2.7614237,0 5,2.2385763 5,5 z" />
      <circle
         style="stroke:#df0024"
         sodipodi:ry="5"
         sodipodi:rx="5"
         sodipodi:cy="0"
         sodipodi:cx="12"
         cx="12"
         cy="0"
         r="5"
         id="circle2794"
         d="M 17,0 C 17,2.7614237 14.761424,5 12,5 9.2385763,5 7,2.7614237 7,0 c 0,-2.7614237 2.2385763,-5 5,-5 2.761424,0 5,2.2385763 5,5 z" />
      <g
         transform="translate(-6,5)"
         id="g2796">
        <circle
           style="stroke-width:1.39999998"
           sodipodi:ry="5"
           sodipodi:rx="5"
           sodipodi:cy="0"
           sodipodi:cx="0"
           cy="0"
           cx="0"
           r="5"
           clip-path="url(#clip_white)"
           id="circle2798"
           d="M 5,0 C 5,2.7614237 2.7614237,5 0,5 -2.7614237,5 -5,2.7614237 -5,0 c 0,-2.7614237 2.2385763,-5 5,-5 2.7614237,0 5,2.2385763 5,5 z" />
        <circle
           style="stroke:#f4c300"
           sodipodi:ry="5"
           sodipodi:rx="5"
           sodipodi:cy="0"
           sodipodi:cx="0"
           cy="0"
           cx="0"
           r="5"
           clip-path="url(#clip_color)"
           id="circle2800"
           d="M 5,0 C 5,2.7614237 2.7614237,5 0,5 -2.7614237,5 -5,2.7614237 -5,0 c 0,-2.7614237 2.2385763,-5 5,-5 2.7614237,0 5,2.2385763 5,5 z" />
      </g>
      <g
         transform="translate(6,5)"
         id="g2802">
        <circle
           style="stroke-width:1.39999998"
           sodipodi:ry="5"
           sodipodi:rx="5"
           sodipodi:cy="0"
           sodipodi:cx="0"
           cy="0"
           cx="0"
           r="5"
           clip-path="url(#clip_white)"
           id="circle2804"
           d="M 5,0 C 5,2.7614237 2.7614237,5 0,5 -2.7614237,5 -5,2.7614237 -5,0 c 0,-2.7614237 2.2385763,-5 5,-5 2.7614237,0 5,2.2385763 5,5 z" />
        <circle
           style="stroke:#009f3d"
           sodipodi:ry="5"
           sodipodi:rx="5"
           sodipodi:cy="0"
           sodipodi:cx="0"
           cy="0"
           cx="0"
           r="5"
           clip-path="url(#clip_color)"
           id="circle2806"
           d="M 5,0 C 5,2.7614237 2.7614237,5 0,5 -2.7614237,5 -5,2.7614237 -5,0 c 0,-2.7614237 2.2385763,-5 5,-5 2.7614237,0 5,2.2385763 5,5 z" />
      </g>
    </g>
    <rect
       style="fill:#000000;fill-opacity:0;stroke:#000000;stroke-width:2;stroke-miterlimit:4;stroke-opacity:1;stroke-dasharray:none"
       id="rect3180"
       width="134.28572"
       height="101.96429"
       x="190.35715"
       y="181.64789" />
    <text
       xml:space="preserve"
       style="font-size:20px;font-style:normal;font-weight:normal;line-height:125%;letter-spacing:0px;word-spacing:0px;fill:#000000;fill-opacity:1;stroke:none;font-family:Bitstream Vera Sans"
       x="-251.97411"
       y="212.12259"
       id="text3950"
       sodipodi:linespacing="125%"
       transform="matrix(2.2614125e-4,-0.99999997,0.99999997,2.2614125e-4,0,0)"><tspan
         sodipodi:role="line"
         id="tspan3952"
         x="-251.97411"
         y="212.12259">Title</tspan></text>
    <text
       xml:space="preserve"
       style="font-size:20px;font-style:normal;font-weight:normal;line-height:125%;letter-spacing:0px;word-spacing:0px;fill:#000000;fill-opacity:1;stroke:none;font-family:Bitstream Vera Sans"
       x="197.32143"
       y="260.93359"
       id="text3954"
       sodipodi:linespacing="125%"><tspan
         sodipodi:role="line"
         id="tspan3956"
         x="197.32143"
         y="260.93359"
         style="font-size:4px">Find out what </tspan><tspan
         sodipodi:role="line"
         x="197.32143"
         y="265.93359"
         style="font-size:4px"
         id="tspan3960">the public</tspan><tspan
         sodipodi:role="line"
         x="197.32143"
         y="270.93359"
         id="tspan3958"
         style="font-size:4px">thinks about </tspan><tspan
         sodipodi:role="line"
         x="197.32143"
         y="275.93359"
         style="font-size:4px"
         id="tspan3962">the Olympics</tspan></text>
    <text
       xml:space="preserve"
       style="font-size:6.79049492px;font-style:normal;font-weight:normal;line-height:125%;letter-spacing:0px;word-spacing:0px;fill:#000000;fill-opacity:1;stroke:none;font-family:Bitstream Vera Sans"
       x="197.58328"
       y="197.43219"
       id="text3964"
       sodipodi:linespacing="125%"><tspan
         sodipodi:role="line"
         id="tspan3966"
         x="197.58328"
         y="197.43219">Economy</tspan></text>
  </g>
</svg>
