<?xml version="1.0" encoding="UTF-8" standalone="no"?>
<!-- Created with Inkscape (http://www.inkscape.org/) -->

<svg
   xmlns:dc="http://purl.org/dc/elements/1.1/"
   xmlns:cc="http://creativecommons.org/ns#"
   xmlns:rdf="http://www.w3.org/1999/02/22-rdf-syntax-ns#"
   xmlns:svg="http://www.w3.org/2000/svg"
   xmlns="http://www.w3.org/2000/svg"
   xmlns:sodipodi="http://sodipodi.sourceforge.net/DTD/sodipodi-0.dtd"
   xmlns:inkscape="http://www.inkscape.org/namespaces/inkscape"
   width="32.843002"
   height="77.639"
   id="svg3536"
   version="1.1"
   inkscape:version="0.48.1 r9760"
   sodipodi:docname="New document 24">
  <defs
     id="defs3538" />
  <sodipodi:namedview
     id="base"
     pagecolor="#ffffff"
     bordercolor="#666666"
     borderopacity="1.0"
     inkscape:pageopacity="0.0"
     inkscape:pageshadow="2"
     inkscape:zoom="0.35"
     inkscape:cx="68.56436"
     inkscape:cy="-289.75193"
     inkscape:document-units="px"
     inkscape:current-layer="layer1"
     showgrid="false"
     fit-margin-top="0"
     fit-margin-left="0"
     fit-margin-right="0"
     fit-margin-bottom="0"
     inkscape:window-width="433"
     inkscape:window-height="421"
     inkscape:window-x="50"
     inkscape:window-y="353"
     inkscape:window-maximized="0" />
  <metadata
     id="metadata3541">
    <rdf:RDF>
      <cc:Work
         rdf:about="">
        <dc:format>image/svg+xml</dc:format>
        <dc:type
           rdf:resource="http://purl.org/dc/dcmitype/StillImage" />
        <dc:title></dc:title>
      </cc:Work>
    </rdf:RDF>
  </metadata>
  <g
     inkscape:label="Layer 1"
     inkscape:groupmode="layer"
     id="layer1"
     transform="translate(-306.43564,-164.97125)">
    <g
       transform="translate(107.35964,145.88525)"
       id="g45">
      <path
         style="fill:#6598cb"
         inkscape:connector-curvature="0"
         d="m 206.597,33.813 c -3.994,0 -6.521,3.995 -6.521,6.833 0,2.84 -1,21.207 -1,21.207 0,1.51 1.225,2.735 2.734,2.735 1.508,0 2.732,-1.226 2.732,-2.735 0,0 1,-15.526 1,-17 0,-1.473 1.584,-1.26 1.584,-0.418 0,0.837 -1,21.765 -1,21.765 0,0 0,19.979 0,26.607 0,0.165 0.012,0.315 0.041,0.463 0.232,1.868 1.807,3.323 3.742,3.323 2,0 3.619,-1.562 3.758,-3.529 0.02,-0.086 0.02,-0.173 0.02,-0.257 0,-2.63 0,-27.134 0,-28.219 0,-0.445 0.219,-0.532 0.428,-0.59 h 0.07 c 0.209,0.058 0.428,0.145 0.428,0.59 0,1.085 0,25.589 0,28.219 0,0.084 0,0.171 0.02,0.257 0.139,1.967 1.758,3.529 3.758,3.529 1.936,0 3.51,-1.455 3.742,-3.323 0.029,-0.147 0.041,-0.298 0.041,-0.463 0,-6.628 0,-26.607 0,-26.607 0,0 1,-20.928 1,-21.765 0,-0.842 1.584,-1.054 1.584,0.418 0,1.474 -1,17 -1,17 0,1.51 1.225,2.735 2.732,2.735 1.51,0 2.734,-1.226 2.734,-2.735 0,0 1,-18.366 1,-21.207 0,-2.838 -2.527,-6.833 -6.521,-6.833 h -17.106 z"
         id="path47" />
      <g
         id="g49">
        <path
           style="fill:#6598cb"
           inkscape:connector-curvature="0"
           d="m 221.669,25.61 c 0,3.6 -2.916,6.517 -6.512,6.517 -3.605,0 -6.527,-2.917 -6.527,-6.517 0,-3.602 2.922,-6.524 6.527,-6.524 3.596,0 6.512,2.923 6.512,6.524 z"
           id="path51" />
        <path
           style="fill:#6598cb"
           inkscape:connector-curvature="0"
           d="m 210.511,21.03 c -1.35,0 -2.962,1.105 -2.803,3.307 0.241,3.338 2.004,0.901 2.004,0.901 0,0 1.584,-4.208 0.799,-4.208 z"
           id="path53" />
        <path
           style="fill:#6598cb"
           inkscape:connector-curvature="0"
           d="m 219.708,21.03 c 1.35,0 2.962,1.105 2.803,3.307 -0.241,3.338 -2.004,0.901 -2.004,0.901 0,0 -1.584,-4.208 -0.799,-4.208 z"
           id="path55" />
      </g>
    </g>
    <g
       transform="translate(107.35964,145.88525)"
       id="g57">
      <path
         style="fill:#6598cb"
         inkscape:connector-curvature="0"
         d="m 230.927,96.599 c -0.428,0 -0.86,-0.32 -0.86,-0.932 v -32.92 c 0,-1.277 -1.04,-2.317 -2.317,-2.317 -1.277,0 -2.317,1.04 -2.317,2.317 0,0.638 -0.415,0.923 -0.825,0.923 -0.438,0 -0.904,-0.323 -0.904,-0.923 0,-2.231 1.815,-4.047 4.047,-4.047 2.232,0 4.047,1.815 4.047,4.047 v 32.92 c 0,0.283 -0.094,0.523 -0.271,0.694 -0.161,0.153 -0.373,0.238 -0.6,0.238 l 0,0 z"
         id="path59" />
      <path
         style="fill:#ffffff"
         inkscape:connector-curvature="0"
         d="m 227.749,58.826 c 2.166,0 3.922,1.756 3.922,3.922 0,0 0,31.956 0,32.92 0,0.536 -0.373,0.807 -0.744,0.807 -0.368,0 -0.735,-0.268 -0.735,-0.807 0,-1.083 0,-32.92 0,-32.92 0,-1.349 -1.094,-2.442 -2.442,-2.442 -1.348,0 -2.442,1.094 -2.442,2.442 0,0.549 -0.344,0.798 -0.7,0.798 -0.383,0 -0.779,-0.287 -0.779,-0.798 -0.002,-2.166 1.754,-3.922 3.92,-3.922 m 0,-0.25 c -2.301,0 -4.172,1.871 -4.172,4.172 0,0.656 0.523,1.048 1.029,1.048 0.457,0 0.95,-0.328 0.95,-1.048 0,-1.209 0.983,-2.192 2.192,-2.192 1.209,0 2.192,0.983 2.192,2.192 v 32.92 c 0,0.693 0.496,1.057 0.985,1.057 0.494,0 0.994,-0.363 0.994,-1.057 v -32.92 c 0.002,-2.301 -1.869,-4.172 -4.17,-4.172 l 0,0 z"
         id="path61" />
    </g>
  </g>
</svg>
