<?xml version="1.0" encoding="UTF-8" standalone="no"?>
<!-- Created with Inkscape (http://www.inkscape.org/) -->

<svg
   xmlns:dc="http://purl.org/dc/elements/1.1/"
   xmlns:cc="http://creativecommons.org/ns#"
   xmlns:rdf="http://www.w3.org/1999/02/22-rdf-syntax-ns#"
   xmlns:svg="http://www.w3.org/2000/svg"
   xmlns="http://www.w3.org/2000/svg"
   xmlns:sodipodi="http://sodipodi.sourceforge.net/DTD/sodipodi-0.dtd"
   xmlns:inkscape="http://www.inkscape.org/namespaces/inkscape"
   width="39.143162"
   height="77.639"
   id="svg3613"
   version="1.1"
   inkscape:version="0.48.1 r9760"
   sodipodi:docname="New document 27">
  <defs
     id="defs3615" />
  <sodipodi:namedview
     id="base"
     pagecolor="#ffffff"
     bordercolor="#666666"
     borderopacity="1.0"
     inkscape:pageopacity="0.0"
     inkscape:pageshadow="2"
     inkscape:zoom="0.35"
     inkscape:cx="19.571582"
     inkscape:cy="38.819497"
     inkscape:document-units="px"
     inkscape:current-layer="layer1"
     showgrid="false"
     fit-margin-top="0"
     fit-margin-left="0"
     fit-margin-right="0"
     fit-margin-bottom="0"
     inkscape:window-width="433"
     inkscape:window-height="421"
     inkscape:window-x="50"
     inkscape:window-y="353"
     inkscape:window-maximized="0" />
  <metadata
     id="metadata3618">
    <rdf:RDF>
      <cc:Work
         rdf:about="">
        <dc:format>image/svg+xml</dc:format>
        <dc:type
           rdf:resource="http://purl.org/dc/dcmitype/StillImage" />
        <dc:title></dc:title>
      </cc:Work>
    </rdf:RDF>
  </metadata>
  <g
     inkscape:label="Layer 1"
     inkscape:groupmode="layer"
     id="layer1"
     transform="translate(-355.42842,-493.54268)">
    <g
       transform="translate(108.10558,474.45668)"
       id="g63">
      <g
         id="g65">
        <path
           style="fill:#6598cb"
           inkscape:connector-curvature="0"
           d="m 271.938,25.61 c 0,3.6 -2.917,6.517 -6.513,6.517 -3.605,0 -6.527,-2.917 -6.527,-6.517 0,-3.602 2.922,-6.524 6.527,-6.524 3.596,0 6.513,2.923 6.513,6.524 z"
           id="path67" />
      </g>
      <g
         id="g69">
        <path
           style="fill:#6598cb"
           inkscape:connector-curvature="0"
           d="m 283.294,57.669 c -1.375,-4.25 -4.688,-15.188 -5.75,-18.688 -1.062,-3.5 -5.188,-5.169 -6.688,-5.169 -1.5,0 -5.438,0 -5.438,0 0,0 -3.938,0 -5.438,0 -1.5,0 -5.625,1.669 -6.688,5.169 -1.063,3.5 -4.375,14.438 -5.75,18.688 -1.375,4.25 4.125,5.812 5.25,1.875 1.125,-3.937 4.804,-15.645 5.038,-16.348 0.234,-0.703 1.399,-0.464 1.218,0.146 -0.087,0.294 -2.062,8.318 -4.086,16.561 -2.181,8.88 -3.42,18.016 -3.42,18.016 h 7.062 v 15.562 h 0.002 c 0,0.008 -0.002,0.016 -0.002,0.023 0,1.639 1.33,2.969 2.969,2.969 1.639,0 2.969,-1.33 2.969,-2.969 0,-0.008 -0.002,-0.016 -0.002,-0.023 h 0.002 V 77.919 h 1.75 v 15.562 h 0.002 c 0,0.008 -0.002,0.016 -0.002,0.023 0,1.639 1.33,2.969 2.969,2.969 1.639,0 2.969,-1.33 2.969,-2.969 0,-0.008 -0.002,-0.016 -0.002,-0.023 h 0.002 V 77.919 h 7.062 c 0,0 -1.247,-9.172 -3.432,-18.069 -2.021,-8.224 -3.987,-16.214 -4.074,-16.507 -0.182,-0.611 0.983,-0.85 1.218,-0.146 0.235,0.704 3.913,12.411 5.038,16.348 1.125,3.937 6.627,2.374 5.252,-1.876 z"
           id="path71" />
        <g
           id="g73">
          <circle
             style="fill:#ffffff"
             sodipodi:ry="0.52100003"
             sodipodi:rx="0.52100003"
             sodipodi:cy="34.743"
             sodipodi:cx="261.72299"
             d="m 262.24399,34.743 c 0,0.28774 -0.23326,0.521 -0.521,0.521 -0.28774,0 -0.521,-0.23326 -0.521,-0.521 0,-0.28774 0.23326,-0.521 0.521,-0.521 0.28774,0 0.521,0.23326 0.521,0.521 z"
             cx="261.72299"
             cy="34.743"
             r="0.52100003"
             id="circle75" />
          <circle
             style="fill:#ffffff"
             sodipodi:ry="0.52100003"
             sodipodi:rx="0.52100003"
             sodipodi:cy="36.080002"
             sodipodi:cx="262.24399"
             d="m 262.76499,36.080002 c 0,0.28774 -0.23326,0.521 -0.521,0.521 -0.28774,0 -0.521,-0.23326 -0.521,-0.521 0,-0.287741 0.23326,-0.521 0.521,-0.521 0.28774,0 0.521,0.233259 0.521,0.521 z"
             cx="262.24399"
             cy="36.080002"
             r="0.52100003"
             id="circle77" />
          <circle
             style="fill:#ffffff"
             sodipodi:ry="0.52100003"
             sodipodi:rx="0.52100003"
             sodipodi:cy="37.285999"
             sodipodi:cx="263.28699"
             d="m 263.80799,37.285999 c 0,0.287741 -0.23326,0.521 -0.521,0.521 -0.28774,0 -0.521,-0.233259 -0.521,-0.521 0,-0.28774 0.23326,-0.521 0.521,-0.521 0.28774,0 0.521,0.23326 0.521,0.521 z"
             cx="263.28699"
             cy="37.285999"
             r="0.52100003"
             id="circle79" />
          <circle
             style="fill:#ffffff"
             sodipodi:ry="0.52100003"
             sodipodi:rx="0.52100003"
             sodipodi:cy="38.099998"
             sodipodi:cx="264.62299"
             d="m 265.14399,38.099998 c 0,0.287741 -0.23326,0.521001 -0.521,0.521001 -0.28774,0 -0.521,-0.23326 -0.521,-0.521001 0,-0.28774 0.23326,-0.521 0.521,-0.521 0.28774,0 0.521,0.23326 0.521,0.521 z"
             cx="264.62299"
             cy="38.099998"
             r="0.52100003"
             id="circle81" />
          <circle
             style="fill:#ffffff"
             sodipodi:ry="0.52100003"
             sodipodi:rx="0.52100003"
             sodipodi:cy="34.743"
             sodipodi:cx="269.11301"
             d="m 269.63401,34.743 c 0,0.28774 -0.23326,0.521 -0.521,0.521 -0.28774,0 -0.521,-0.23326 -0.521,-0.521 0,-0.28774 0.23326,-0.521 0.521,-0.521 0.28774,0 0.521,0.23326 0.521,0.521 z"
             cx="269.11301"
             cy="34.743"
             r="0.52100003"
             id="circle83" />
          <circle
             style="fill:#ffffff"
             sodipodi:ry="0.52100003"
             sodipodi:rx="0.52100003"
             sodipodi:cy="36.080002"
             sodipodi:cx="268.59201"
             d="m 269.11301,36.080002 c 0,0.28774 -0.23326,0.521 -0.521,0.521 -0.28774,0 -0.521,-0.23326 -0.521,-0.521 0,-0.287741 0.23326,-0.521 0.521,-0.521 0.28774,0 0.521,0.233259 0.521,0.521 z"
             cx="268.59201"
             cy="36.080002"
             r="0.52100003"
             id="circle85" />
          <circle
             style="fill:#ffffff"
             sodipodi:ry="0.52100003"
             sodipodi:rx="0.52100003"
             sodipodi:cy="37.285999"
             sodipodi:cx="267.54901"
             d="m 268.07001,37.285999 c 0,0.287741 -0.23326,0.521 -0.521,0.521 -0.28774,0 -0.521,-0.233259 -0.521,-0.521 0,-0.28774 0.23326,-0.521 0.521,-0.521 0.28774,0 0.521,0.23326 0.521,0.521 z"
             cx="267.54901"
             cy="37.285999"
             r="0.52100003"
             id="circle87" />
          <circle
             style="fill:#ffffff"
             sodipodi:ry="0.52100003"
             sodipodi:rx="0.52100003"
             sodipodi:cy="38.099998"
             sodipodi:cx="266.21301"
             d="m 266.73401,38.099998 c 0,0.287741 -0.23326,0.521001 -0.521,0.521001 -0.28774,0 -0.521,-0.23326 -0.521,-0.521001 0,-0.28774 0.23326,-0.521 0.521,-0.521 0.28774,0 0.521,0.23326 0.521,0.521 z"
             cx="266.21301"
             cy="38.099998"
             r="0.52100003"
             id="circle89" />
        </g>
      </g>
      <g
         id="g91">
        <path
           style="fill:#6598cb"
           inkscape:connector-curvature="0"
           d="m 285.474,96.599 c -0.428,0 -0.86,-0.32 -0.86,-0.932 V 61.866 c 0,-1.277 -1.04,-2.317 -2.317,-2.317 -1.277,0 -2.317,1.04 -2.317,2.317 0,0.638 -0.415,0.923 -0.825,0.923 -0.438,0 -0.904,-0.323 -0.904,-0.923 0,-2.231 1.815,-4.047 4.047,-4.047 2.232,0 4.047,1.815 4.047,4.047 v 33.802 c 0,0.283 -0.094,0.523 -0.271,0.694 -0.161,0.152 -0.373,0.237 -0.6,0.237 l 0,0 z"
           id="path93" />
        <path
           style="fill:#ffffff"
           inkscape:connector-curvature="0"
           d="m 282.296,57.944 c 2.166,0 3.922,1.756 3.922,3.922 0,0 0,32.838 0,33.802 0,0.536 -0.373,0.807 -0.744,0.807 -0.368,0 -0.735,-0.268 -0.735,-0.807 0,-1.083 0,-33.802 0,-33.802 0,-1.349 -1.094,-2.442 -2.442,-2.442 -1.348,0 -2.442,1.094 -2.442,2.442 0,0.549 -0.344,0.798 -0.7,0.798 -0.383,0 -0.779,-0.287 -0.779,-0.798 -0.002,-2.166 1.754,-3.922 3.92,-3.922 m 0,-0.25 c -2.301,0 -4.172,1.871 -4.172,4.172 0,0.656 0.523,1.048 1.029,1.048 0.457,0 0.95,-0.328 0.95,-1.048 0,-1.209 0.983,-2.192 2.192,-2.192 1.209,0 2.192,0.983 2.192,2.192 v 33.802 c 0,0.693 0.496,1.057 0.985,1.057 0.494,0 0.994,-0.363 0.994,-1.057 V 61.866 c 0.002,-2.301 -1.869,-4.172 -4.17,-4.172 l 0,0 z"
           id="path95" />
      </g>
    </g>
  </g>
</svg>
