<?xml version="1.0" encoding="UTF-8" standalone="no"?>
<!-- Generator: Adobe Illustrator 14.0.0, SVG Export Plug-In . SVG Version: 6.00 Build 43363)  -->

<svg
   xmlns:dc="http://purl.org/dc/elements/1.1/"
   xmlns:cc="http://creativecommons.org/ns#"
   xmlns:rdf="http://www.w3.org/1999/02/22-rdf-syntax-ns#"
   xmlns:svg="http://www.w3.org/2000/svg"
   xmlns="http://www.w3.org/2000/svg"
   xmlns:sodipodi="http://sodipodi.sourceforge.net/DTD/sodipodi-0.dtd"
   xmlns:inkscape="http://www.inkscape.org/namespaces/inkscape"
   version="1.1"
   id="Layer_1"
   x="0px"
   y="0px"
   width="248.69598"
   height="196.92505"
   viewBox="0 0 248.69599 196.92505"
   enable-background="new 0 0 322.718 112.821"
   xml:space="preserve"
   inkscape:version="0.48.1 r9760"
   sodipodi:docname="Demographic_icons.svg.2011_11_13_01_32_06.1.svg"><metadata
   id="metadata101"><rdf:RDF><cc:Work
       rdf:about=""><dc:format>image/svg+xml</dc:format><dc:type
         rdf:resource="http://purl.org/dc/dcmitype/StillImage" /><dc:title></dc:title></cc:Work></rdf:RDF></metadata><defs
   id="defs99" /><sodipodi:namedview
   pagecolor="#ffffff"
   bordercolor="#666666"
   borderopacity="1"
   objecttolerance="10"
   gridtolerance="10"
   guidetolerance="10"
   inkscape:pageopacity="0"
   inkscape:pageshadow="2"
   inkscape:window-width="1280"
   inkscape:window-height="776"
   id="namedview97"
   showgrid="false"
   showguides="false"
   inkscape:guide-bbox="true"
   inkscape:snap-nodes="false"
   inkscape:snap-global="true"
   fit-margin-top="0"
   fit-margin-left="0"
   fit-margin-right="0"
   fit-margin-bottom="0"
   inkscape:zoom="1.5834258"
   inkscape:cx="122.81901"
   inkscape:cy="124.81282"
   inkscape:window-x="0"
   inkscape:window-y="24"
   inkscape:window-maximized="1"
   inkscape:current-layer="Layer_1"><sodipodi:guide
     orientation="1,0"
     position="127.55558,197.86844"
     id="guide4448" /><sodipodi:guide
     orientation="1,0"
     position="174.60546,76.928142"
     id="guide4450" /><sodipodi:guide
     orientation="0,1"
     position="88.399966,80.085852"
     id="guide4453" /><sodipodi:guide
     orientation="0,1"
     position="58.401721,172.92253"
     id="guide4455" /><sodipodi:guide
     orientation="1,0"
     position="77.347986,122.0834"
     id="guide4457" /><sodipodi:guide
     orientation="0,1"
     position="-11.699447,94.611319"
     id="guide4459" /><sodipodi:guide
     orientation="0,1"
     position="37.560833,0.51155402"
     id="guide4461" /><sodipodi:guide
     orientation="1,0"
     position="-38.539984,174.50138"
     id="guide4467" /></sodipodi:namedview>
<g
   id="g3"
   transform="translate(-9.373938,10.968858)">
	
	<path
   id="path7"
   style="fill:#6598cb;fill-opacity:1"
   d="m 156.47314,122.1762 c -3.994,0 -6.521,3.995 -6.521,6.833 0,2.84 0,21.207 0,21.207 0,1.51 1.225,2.735 2.734,2.735 1.508,0 2.732,-1.226 2.732,-2.735 0,0 0,-15.526 0,-17 0,-1.473 1.584,-1.26 1.584,-0.418 0,0.837 0,22.765 0,22.765 0,0 0,19.979 0,26.607 0,0.165 0.012,0.315 0.041,0.463 0.232,1.868 1.807,3.323 3.742,3.323 2,0 3.619,-1.562 3.758,-3.529 0.02,-0.086 0.02,-0.173 0.02,-0.257 0,-2.63 0,-27.134 0,-28.219 0,-0.445 0.219,-0.532 0.428,-0.59 h 0.07 c 0.209,0.058 0.428,0.145 0.428,0.59 0,1.085 0,25.589 0,28.219 0,0.084 0,0.171 0.02,0.257 0.139,1.967 1.758,3.529 3.758,3.529 1.936,0 3.51,-1.455 3.742,-3.323 0.029,-0.147 0.041,-0.298 0.041,-0.463 0,-6.628 0,-26.607 0,-26.607 0,0 0,-21.928 0,-22.765 0,-0.842 1.584,-1.054 1.584,0.418 0,1.474 0,17 0,17 0,1.51 1.225,2.735 2.732,2.735 1.51,0 2.734,-1.226 2.734,-2.735 0,0 0,-18.366 0,-21.207 0,-2.838 -2.527,-6.833 -6.521,-6.833 h -17.106 z m 15.072,-8.203 c 0,3.6 -2.916,6.517 -6.512,6.517 -3.605,0 -6.527,-2.917 -6.527,-6.517 0,-3.602 2.922,-6.524 6.527,-6.524 3.596,0 6.512,2.923 6.512,6.524 z"
   inkscape:connector-curvature="0" />
</g>
<g
   id="g9"
   transform="translate(-10.074798,5.9165172)">
	<g
   id="g11">
		<path
   d="m 172.247,24.61 c 0,3.6 -2.917,6.517 -6.513,6.517 -3.605,0 -6.527,-2.917 -6.527,-6.517 0,-3.602 2.922,-6.524 6.527,-6.524 3.596,0 6.513,2.923 6.513,6.524 z"
   id="path13"
   inkscape:connector-curvature="0"
   style="fill:#6598cb" />
	</g>
	<path
   d="m 183.603,56.669 c -1.375,-4.25 -4.688,-15.188 -5.75,-18.688 -1.062,-3.5 -5.188,-5.169 -6.688,-5.169 -1.5,0 -5.438,0 -5.438,0 0,0 -3.938,0 -5.438,0 -1.5,0 -5.625,1.669 -6.688,5.169 -1.063,3.5 -4.375,14.438 -5.75,18.688 -1.375,4.25 4.125,5.812 5.25,1.875 1.125,-3.937 4.804,-15.645 5.038,-16.348 0.234,-0.703 1.399,-0.464 1.218,0.146 -0.181,0.61 -8.506,28.577 -8.506,28.577 h 8.062 v 22.562 h 0.002 c 0,0.008 -0.002,0.016 -0.002,0.023 0,1.639 1.33,2.969 2.969,2.969 1.639,0 2.969,-1.33 2.969,-2.969 0,-0.008 -0.002,-0.016 -0.002,-0.023 h 0.002 V 70.919 h 0.875 0.875 v 22.562 h 0.002 c 0,0.008 -0.002,0.016 -0.002,0.023 0,1.639 1.33,2.969 2.969,2.969 1.639,0 2.969,-1.33 2.969,-2.969 0,-0.008 -0.002,-0.016 -0.002,-0.023 h 0.002 V 70.919 h 8.062 c 0,0 -8.324,-27.966 -8.506,-28.577 -0.182,-0.611 0.983,-0.85 1.218,-0.146 0.235,0.704 3.913,12.411 5.038,16.348 1.125,3.937 6.627,2.375 5.252,-1.875 z"
   id="path15"
   inkscape:connector-curvature="0"
   style="fill:#6598cb" />
</g>
<g
   id="g17"
   transform="translate(1.9169893,5.9554899)">
	<g
   id="g19">
		<path
   d="m 80.11,44.839 c 0,2.586 -2.096,4.682 -4.679,4.682 -2.591,0 -4.69,-2.096 -4.69,-4.682 0,-2.588 2.099,-4.688 4.69,-4.688 2.583,0 4.679,2.1 4.679,4.688 z"
   id="path21"
   inkscape:connector-curvature="0"
   style="fill:#6598cb" />
	</g>
	<path
   d="M 88.27,67.874 C 87.283,64.82 84.902,56.962 84.138,54.447 c -0.764,-2.515 -3.727,-3.714 -4.805,-3.714 -1.078,0 -3.907,0 -3.907,0 0,0 -2.829,0 -3.907,0 -1.078,0 -4.042,1.199 -4.805,3.714 -0.764,2.515 -3.144,10.374 -4.132,13.427 -0.988,3.054 2.964,4.177 3.772,1.348 0.808,-2.83 3.452,-11.241 3.62,-11.747 0.168,-0.505 1.006,-0.333 0.875,0.105 -0.13,0.439 -6.111,20.533 -6.111,20.533 h 5.793 v 16.211 h 10e-4 c 0,0.006 -10e-4,0.012 -10e-4,0.018 0,1.177 0.956,2.133 2.133,2.133 1.177,0 2.133,-0.956 2.133,-2.133 0,-0.006 -10e-4,-0.012 -10e-4,-0.018 h 10e-4 V 78.113 h 0.629 0.628 v 16.211 h 0.001 c 0,0.006 -0.001,0.012 -0.001,0.018 0,1.177 0.956,2.133 2.133,2.133 1.177,0 2.133,-0.956 2.133,-2.133 0,-0.006 -10e-4,-0.012 -10e-4,-0.018 H 80.32 V 78.113 h 5.793 c 0,0 -5.982,-20.094 -6.112,-20.533 -0.13,-0.438 0.707,-0.61 0.875,-0.105 0.169,0.505 2.812,8.917 3.62,11.747 0.81,2.828 4.761,1.705 3.774,-1.348 z"
   id="path23"
   inkscape:connector-curvature="0"
   style="fill:#6598cb" />
	<path
   d="m 72.382,41.398 c -0.669,-0.417 -2.468,-1.34 -3.344,0.13 -0.764,1.282 0.536,5.94 -3.002,4.934 0,0 0.531,1.427 1.669,1.703 2.13,0.518 3.865,-2.538 3.24,-4.256 -0.468,-1.288 -0.044,-1.596 0.433,-1.432 0.159,0.054 1.166,-0.978 1.004,-1.079 z"
   id="path25"
   inkscape:connector-curvature="0"
   style="fill:#6598cb" />
	<path
   d="m 78.429,41.398 c 0.669,-0.417 2.468,-1.34 3.344,0.13 0.764,1.282 -0.536,5.94 3.002,4.934 0,0 -0.531,1.427 -1.668,1.703 -2.131,0.518 -3.865,-2.538 -3.241,-4.256 0.468,-1.288 0.044,-1.596 -0.433,-1.432 -0.16,0.054 -1.167,-0.978 -1.004,-1.079 z"
   id="path27"
   inkscape:connector-curvature="0"
   style="fill:#6598cb" />
</g>
<g
   id="g29"
   transform="translate(39.139689,100.0126)">
	<path
   d="m 43.077,44.839 c 0,2.586 -2.095,4.682 -4.679,4.682 -2.591,0 -4.69,-2.096 -4.69,-4.682 0,-2.588 2.1,-4.688 4.69,-4.688 2.584,0 4.679,2.1 4.679,4.688 z"
   id="path31"
   inkscape:connector-curvature="0"
   style="fill:#6598cb" />
	<path
   d="m 32.248,50.732 c -2.87,0 -4.686,2.87 -4.686,4.909 0,2.041 0,15.238 0,15.238 0,1.085 0.88,1.965 1.965,1.965 1.083,0 1.963,-0.88 1.963,-1.965 0,0 0,-11.156 0,-12.215 0,-1.058 1.138,-0.905 1.138,-0.301 0,0.602 0,16.272 0,16.272 0,0 0,14.355 0,19.118 0,0.118 0.009,0.227 0.03,0.332 0.167,1.343 1.298,2.388 2.688,2.388 1.437,0 2.601,-1.122 2.7,-2.536 0.014,-0.062 0.014,-0.124 0.014,-0.184 0,-1.89 0,-19.497 0,-20.276 0,-0.319 0.157,-0.382 0.307,-0.424 h 0.051 c 0.15,0.042 0.307,0.104 0.307,0.424 0,0.779 0,18.387 0,20.276 0,0.06 0,0.122 0.014,0.184 0.1,1.414 1.263,2.536 2.7,2.536 1.391,0 2.521,-1.045 2.688,-2.388 0.021,-0.105 0.03,-0.214 0.03,-0.332 0,-4.763 0,-19.118 0,-19.118 0,0 0,-15.671 0,-16.272 0,-0.604 1.138,-0.757 1.138,0.301 0,1.059 0,12.215 0,12.215 0,1.085 0.88,1.965 1.963,1.965 1.085,0 1.965,-0.88 1.965,-1.965 0,0 0,-13.197 0,-15.238 0,-2.039 -1.816,-4.909 -4.686,-4.909 H 32.248 z"
   id="path33"
   inkscape:connector-curvature="0"
   style="fill:#6598cb" />
	<g
   id="g35">
		<polygon
   points="29.911,70.669 29.347,70.024 25.942,73 22.338,73.267 22.954,73.972 26.312,73.816 "
   id="polygon37"
   style="fill:#6598cb" />
		<polygon
   points="29.347,70.024 29.912,70.669 26.507,73.646 25.761,77.183 25.145,76.478 25.748,73.171 "
   id="polygon39"
   style="fill:#6598cb" />
	</g>
	<path
   d="m 25.413,76.786 c -0.779,0.779 -1.945,1.237 -1.945,1.904 0,0.589 -0.172,0.745 -0.469,0.745 -0.208,0 -0.367,-0.131 -0.367,-0.495 0,-0.364 -0.081,-0.458 -0.581,-1.458 -0.5,-1 -0.474,-2.422 0.661,-3.959"
   id="path41"
   inkscape:connector-curvature="0"
   style="fill:none;stroke:#6598cb;stroke-width:0.25" />
	<polygon
   points="25.145,76.478 25.761,77.183 26.507,73.646 29.912,70.669 29.347,70.024 25.942,73 22.338,73.267 22.954,73.972 25.625,73.848 "
   id="polygon43"
   style="fill:#6598cb;stroke:#ffffff;stroke-width:0.25" />
</g>
<g
   id="g45"
   transform="translate(9.3402867,99.9636)">
	<path
   d="m 206.597,33.813 c -3.994,0 -6.521,3.995 -6.521,6.833 0,2.84 -1,21.207 -1,21.207 0,1.51 1.225,2.735 2.734,2.735 1.508,0 2.732,-1.226 2.732,-2.735 0,0 1,-15.526 1,-17 0,-1.473 1.584,-1.26 1.584,-0.418 0,0.837 -1,21.765 -1,21.765 0,0 0,19.979 0,26.607 0,0.165 0.012,0.315 0.041,0.463 0.232,1.868 1.807,3.323 3.742,3.323 2,0 3.619,-1.562 3.758,-3.529 0.02,-0.086 0.02,-0.173 0.02,-0.257 0,-2.63 0,-27.134 0,-28.219 0,-0.445 0.219,-0.532 0.428,-0.59 h 0.07 c 0.209,0.058 0.428,0.145 0.428,0.59 0,1.085 0,25.589 0,28.219 0,0.084 0,0.171 0.02,0.257 0.139,1.967 1.758,3.529 3.758,3.529 1.936,0 3.51,-1.455 3.742,-3.323 0.029,-0.147 0.041,-0.298 0.041,-0.463 0,-6.628 0,-26.607 0,-26.607 0,0 1,-20.928 1,-21.765 0,-0.842 1.584,-1.054 1.584,0.418 0,1.474 -1,17 -1,17 0,1.51 1.225,2.735 2.732,2.735 1.51,0 2.734,-1.226 2.734,-2.735 0,0 1,-18.366 1,-21.207 0,-2.838 -2.527,-6.833 -6.521,-6.833 h -17.106 z"
   id="path47"
   inkscape:connector-curvature="0"
   style="fill:#6598cb" />
	<g
   id="g49">
		<path
   d="m 221.669,25.61 c 0,3.6 -2.916,6.517 -6.512,6.517 -3.605,0 -6.527,-2.917 -6.527,-6.517 0,-3.602 2.922,-6.524 6.527,-6.524 3.596,0 6.512,2.923 6.512,6.524 z"
   id="path51"
   inkscape:connector-curvature="0"
   style="fill:#6598cb" />
		<path
   d="m 210.511,21.03 c -1.35,0 -2.962,1.105 -2.803,3.307 0.241,3.338 2.004,0.901 2.004,0.901 0,0 1.584,-4.208 0.799,-4.208 z"
   id="path53"
   inkscape:connector-curvature="0"
   style="fill:#6598cb" />
		<path
   d="m 219.708,21.03 c 1.35,0 2.962,1.105 2.803,3.307 -0.241,3.338 -2.004,0.901 -2.004,0.901 0,0 -1.584,-4.208 -0.799,-4.208 z"
   id="path55"
   inkscape:connector-curvature="0"
   style="fill:#6598cb" />
	</g>
</g>
<g
   id="g57"
   transform="translate(9.3402867,99.9636)">
	<path
   d="m 230.927,96.599 c -0.428,0 -0.86,-0.32 -0.86,-0.932 v -32.92 c 0,-1.277 -1.04,-2.317 -2.317,-2.317 -1.277,0 -2.317,1.04 -2.317,2.317 0,0.638 -0.415,0.923 -0.825,0.923 -0.438,0 -0.904,-0.323 -0.904,-0.923 0,-2.231 1.815,-4.047 4.047,-4.047 2.232,0 4.047,1.815 4.047,4.047 v 32.92 c 0,0.283 -0.094,0.523 -0.271,0.694 -0.161,0.153 -0.373,0.238 -0.6,0.238 l 0,0 z"
   id="path59"
   inkscape:connector-curvature="0"
   style="fill:#6598cb" />
	<path
   d="m 227.749,58.826 c 2.166,0 3.922,1.756 3.922,3.922 0,0 0,31.956 0,32.92 0,0.536 -0.373,0.807 -0.744,0.807 -0.368,0 -0.735,-0.268 -0.735,-0.807 0,-1.083 0,-32.92 0,-32.92 0,-1.349 -1.094,-2.442 -2.442,-2.442 -1.348,0 -2.442,1.094 -2.442,2.442 0,0.549 -0.344,0.798 -0.7,0.798 -0.383,0 -0.779,-0.287 -0.779,-0.798 -0.002,-2.166 1.754,-3.922 3.92,-3.922 m 0,-0.25 c -2.301,0 -4.172,1.871 -4.172,4.172 0,0.656 0.523,1.048 1.029,1.048 0.457,0 0.95,-0.328 0.95,-1.048 0,-1.209 0.983,-2.192 2.192,-2.192 1.209,0 2.192,0.983 2.192,2.192 v 32.92 c 0,0.693 0.496,1.057 0.985,1.057 0.494,0 0.994,-0.363 0.994,-1.057 v -32.92 c 0.002,-2.301 -1.869,-4.172 -4.17,-4.172 l 0,0 z"
   id="path61"
   inkscape:connector-curvature="0"
   style="fill:#ffffff" />
</g>
<g
   id="g63"
   transform="translate(-40.927713,6.1796017)">
	<g
   id="g65">
		<path
   d="m 271.938,25.61 c 0,3.6 -2.917,6.517 -6.513,6.517 -3.605,0 -6.527,-2.917 -6.527,-6.517 0,-3.602 2.922,-6.524 6.527,-6.524 3.596,0 6.513,2.923 6.513,6.524 z"
   id="path67"
   inkscape:connector-curvature="0"
   style="fill:#6598cb" />
	</g>
	<g
   id="g69">
		<path
   d="m 283.294,57.669 c -1.375,-4.25 -4.688,-15.188 -5.75,-18.688 -1.062,-3.5 -5.188,-5.169 -6.688,-5.169 -1.5,0 -5.438,0 -5.438,0 0,0 -3.938,0 -5.438,0 -1.5,0 -5.625,1.669 -6.688,5.169 -1.063,3.5 -4.375,14.438 -5.75,18.688 -1.375,4.25 4.125,5.812 5.25,1.875 1.125,-3.937 4.804,-15.645 5.038,-16.348 0.234,-0.703 1.399,-0.464 1.218,0.146 -0.087,0.294 -2.062,8.318 -4.086,16.561 -2.181,8.88 -3.42,18.016 -3.42,18.016 h 7.062 v 15.562 h 0.002 c 0,0.008 -0.002,0.016 -0.002,0.023 0,1.639 1.33,2.969 2.969,2.969 1.639,0 2.969,-1.33 2.969,-2.969 0,-0.008 -0.002,-0.016 -0.002,-0.023 h 0.002 V 77.919 h 1.75 v 15.562 h 0.002 c 0,0.008 -0.002,0.016 -0.002,0.023 0,1.639 1.33,2.969 2.969,2.969 1.639,0 2.969,-1.33 2.969,-2.969 0,-0.008 -0.002,-0.016 -0.002,-0.023 h 0.002 V 77.919 h 7.062 c 0,0 -1.247,-9.172 -3.432,-18.069 -2.021,-8.224 -3.987,-16.214 -4.074,-16.507 -0.182,-0.611 0.983,-0.85 1.218,-0.146 0.235,0.704 3.913,12.411 5.038,16.348 1.125,3.937 6.627,2.374 5.252,-1.876 z"
   id="path71"
   inkscape:connector-curvature="0"
   style="fill:#6598cb" />
		<g
   id="g73">
			<circle
   cx="261.72299"
   cy="34.743"
   r="0.52100003"
   id="circle75"
   d="m 262.24399,34.743 c 0,0.28774 -0.23326,0.521 -0.521,0.521 -0.28774,0 -0.521,-0.23326 -0.521,-0.521 0,-0.28774 0.23326,-0.521 0.521,-0.521 0.28774,0 0.521,0.23326 0.521,0.521 z"
   sodipodi:cx="261.72299"
   sodipodi:cy="34.743"
   sodipodi:rx="0.52100003"
   sodipodi:ry="0.52100003"
   style="fill:#ffffff" />
			<circle
   cx="262.24399"
   cy="36.080002"
   r="0.52100003"
   id="circle77"
   d="m 262.76499,36.080002 c 0,0.28774 -0.23326,0.521 -0.521,0.521 -0.28774,0 -0.521,-0.23326 -0.521,-0.521 0,-0.287741 0.23326,-0.521 0.521,-0.521 0.28774,0 0.521,0.233259 0.521,0.521 z"
   sodipodi:cx="262.24399"
   sodipodi:cy="36.080002"
   sodipodi:rx="0.52100003"
   sodipodi:ry="0.52100003"
   style="fill:#ffffff" />
			<circle
   cx="263.28699"
   cy="37.285999"
   r="0.52100003"
   id="circle79"
   d="m 263.80799,37.285999 c 0,0.287741 -0.23326,0.521 -0.521,0.521 -0.28774,0 -0.521,-0.233259 -0.521,-0.521 0,-0.28774 0.23326,-0.521 0.521,-0.521 0.28774,0 0.521,0.23326 0.521,0.521 z"
   sodipodi:cx="263.28699"
   sodipodi:cy="37.285999"
   sodipodi:rx="0.52100003"
   sodipodi:ry="0.52100003"
   style="fill:#ffffff" />
			<circle
   cx="264.62299"
   cy="38.099998"
   r="0.52100003"
   id="circle81"
   d="m 265.14399,38.099998 c 0,0.287741 -0.23326,0.521001 -0.521,0.521001 -0.28774,0 -0.521,-0.23326 -0.521,-0.521001 0,-0.28774 0.23326,-0.521 0.521,-0.521 0.28774,0 0.521,0.23326 0.521,0.521 z"
   sodipodi:cx="264.62299"
   sodipodi:cy="38.099998"
   sodipodi:rx="0.52100003"
   sodipodi:ry="0.52100003"
   style="fill:#ffffff" />
			<circle
   cx="269.11301"
   cy="34.743"
   r="0.52100003"
   id="circle83"
   d="m 269.63401,34.743 c 0,0.28774 -0.23326,0.521 -0.521,0.521 -0.28774,0 -0.521,-0.23326 -0.521,-0.521 0,-0.28774 0.23326,-0.521 0.521,-0.521 0.28774,0 0.521,0.23326 0.521,0.521 z"
   sodipodi:cx="269.11301"
   sodipodi:cy="34.743"
   sodipodi:rx="0.52100003"
   sodipodi:ry="0.52100003"
   style="fill:#ffffff" />
			<circle
   cx="268.59201"
   cy="36.080002"
   r="0.52100003"
   id="circle85"
   d="m 269.11301,36.080002 c 0,0.28774 -0.23326,0.521 -0.521,0.521 -0.28774,0 -0.521,-0.23326 -0.521,-0.521 0,-0.287741 0.23326,-0.521 0.521,-0.521 0.28774,0 0.521,0.233259 0.521,0.521 z"
   sodipodi:cx="268.59201"
   sodipodi:cy="36.080002"
   sodipodi:rx="0.52100003"
   sodipodi:ry="0.52100003"
   style="fill:#ffffff" />
			<circle
   cx="267.54901"
   cy="37.285999"
   r="0.52100003"
   id="circle87"
   d="m 268.07001,37.285999 c 0,0.287741 -0.23326,0.521 -0.521,0.521 -0.28774,0 -0.521,-0.233259 -0.521,-0.521 0,-0.28774 0.23326,-0.521 0.521,-0.521 0.28774,0 0.521,0.23326 0.521,0.521 z"
   sodipodi:cx="267.54901"
   sodipodi:cy="37.285999"
   sodipodi:rx="0.52100003"
   sodipodi:ry="0.52100003"
   style="fill:#ffffff" />
			<circle
   cx="266.21301"
   cy="38.099998"
   r="0.52100003"
   id="circle89"
   d="m 266.73401,38.099998 c 0,0.287741 -0.23326,0.521001 -0.521,0.521001 -0.28774,0 -0.521,-0.23326 -0.521,-0.521001 0,-0.28774 0.23326,-0.521 0.521,-0.521 0.28774,0 0.521,0.23326 0.521,0.521 z"
   sodipodi:cx="266.21301"
   sodipodi:cy="38.099998"
   sodipodi:rx="0.52100003"
   sodipodi:ry="0.52100003"
   style="fill:#ffffff" />
		</g>
	</g>
	<g
   id="g91">
		<path
   d="m 285.474,96.599 c -0.428,0 -0.86,-0.32 -0.86,-0.932 V 61.866 c 0,-1.277 -1.04,-2.317 -2.317,-2.317 -1.277,0 -2.317,1.04 -2.317,2.317 0,0.638 -0.415,0.923 -0.825,0.923 -0.438,0 -0.904,-0.323 -0.904,-0.923 0,-2.231 1.815,-4.047 4.047,-4.047 2.232,0 4.047,1.815 4.047,4.047 v 33.802 c 0,0.283 -0.094,0.523 -0.271,0.694 -0.161,0.152 -0.373,0.237 -0.6,0.237 l 0,0 z"
   id="path93"
   inkscape:connector-curvature="0"
   style="fill:#6598cb" />
		<path
   d="m 282.296,57.944 c 2.166,0 3.922,1.756 3.922,3.922 0,0 0,32.838 0,33.802 0,0.536 -0.373,0.807 -0.744,0.807 -0.368,0 -0.735,-0.268 -0.735,-0.807 0,-1.083 0,-33.802 0,-33.802 0,-1.349 -1.094,-2.442 -2.442,-2.442 -1.348,0 -2.442,1.094 -2.442,2.442 0,0.549 -0.344,0.798 -0.7,0.798 -0.383,0 -0.779,-0.287 -0.779,-0.798 -0.002,-2.166 1.754,-3.922 3.92,-3.922 m 0,-0.25 c -2.301,0 -4.172,1.871 -4.172,4.172 0,0.656 0.523,1.048 1.029,1.048 0.457,0 0.95,-0.328 0.95,-1.048 0,-1.209 0.983,-2.192 2.192,-2.192 1.209,0 2.192,0.983 2.192,2.192 v 33.802 c 0,0.693 0.496,1.057 0.985,1.057 0.494,0 0.994,-0.363 0.994,-1.057 V 61.866 c 0.002,-2.301 -1.869,-4.172 -4.17,-4.172 l 0,0 z"
   id="path95"
   inkscape:connector-curvature="0"
   style="fill:#ffffff" />
	</g>
</g>
<text
   xml:space="preserve"
   style="font-size:13.00000127px;font-style:normal;font-variant:normal;font-weight:200;font-stretch:normal;text-align:start;line-height:125%;letter-spacing:0px;word-spacing:0px;writing-mode:lr;text-anchor:start;fill:#000000;fill-opacity:1;stroke:none;font-family:DejaVu Sans;-inkscape-font-specification:DejaVu Sans Ultra-Light"
   x="-0.647461"
   y="70.621338"
   id="text4463"
   sodipodi:linespacing="125%"><tspan
     sodipodi:role="line"
     id="tspan4465"
     x="-0.647461"
     y="70.621338">Male</tspan></text>

<text
   xml:space="preserve"
   style="font-size:13.00000127px;font-style:normal;font-variant:normal;font-weight:200;font-stretch:normal;text-align:start;line-height:125%;letter-spacing:0px;word-spacing:0px;writing-mode:lr;text-anchor:start;fill:#000000;fill-opacity:1;stroke:none;font-family:DejaVu Sans;-inkscape-font-specification:DejaVu Sans Ultra-Light"
   x="-0.647461"
   y="162.50356"
   id="text4463-6"
   sodipodi:linespacing="125%"><tspan
     sodipodi:role="line"
     id="tspan4465-3"
     x="-0.647461"
     y="162.50356">Female</tspan></text>

<text
   xml:space="preserve"
   style="font-size:13.00000127px;font-style:normal;font-variant:normal;font-weight:200;font-stretch:normal;text-align:start;line-height:125%;letter-spacing:0px;word-spacing:0px;writing-mode:lr;text-anchor:start;fill:#000000;fill-opacity:1;stroke:none;font-family:DejaVu Sans;-inkscape-font-specification:DejaVu Sans Ultra-Light"
   x="63.459366"
   y="10.108592"
   id="text4490"
   sodipodi:linespacing="125%"><tspan
     sodipodi:role="line"
     id="tspan4492"
     x="63.459366"
     y="10.108592">18-34</tspan></text>

<text
   xml:space="preserve"
   style="font-size:13.00000127px;font-style:normal;font-variant:normal;font-weight:200;font-stretch:normal;text-align:start;line-height:125%;letter-spacing:0px;word-spacing:0px;writing-mode:lr;text-anchor:start;fill:#000000;fill-opacity:1;stroke:none;font-family:DejaVu Sans;-inkscape-font-specification:DejaVu Sans Ultra-Light"
   x="135.76561"
   y="10.108592"
   id="text4490-1"
   sodipodi:linespacing="125%"><tspan
     sodipodi:role="line"
     id="tspan4492-0"
     x="135.76561"
     y="10.108592">35-54</tspan></text>

<text
   xml:space="preserve"
   style="font-size:13.00000127px;font-style:normal;font-variant:normal;font-weight:200;font-stretch:normal;text-align:start;line-height:125%;letter-spacing:0px;word-spacing:0px;writing-mode:lr;text-anchor:start;fill:#000000;fill-opacity:1;stroke:none;font-family:DejaVu Sans;-inkscape-font-specification:DejaVu Sans Ultra-Light"
   x="210.93843"
   y="9.4770498"
   id="text4490-1-5"
   sodipodi:linespacing="125%"><tspan
     sodipodi:role="line"
     id="tspan4492-0-8"
     x="210.93843"
     y="9.4770498">55+</tspan></text>
</svg>