<?xml version="1.0" encoding="UTF-8" standalone="no"?>
<!-- Created with Inkscape (http://www.inkscape.org/) -->

<svg
   xmlns:dc="http://purl.org/dc/elements/1.1/"
   xmlns:cc="http://creativecommons.org/ns#"
   xmlns:rdf="http://www.w3.org/1999/02/22-rdf-syntax-ns#"
   xmlns:svg="http://www.w3.org/2000/svg"
   xmlns="http://www.w3.org/2000/svg"
   xmlns:sodipodi="http://sodipodi.sourceforge.net/DTD/sodipodi-0.dtd"
   xmlns:inkscape="http://www.inkscape.org/namespaces/inkscape"
   width="61.11787"
   height="28.291309"
   id="svg4023"
   version="1.1"
   inkscape:version="0.48.1 r9760"
   sodipodi:docname="logo_black.svg">
  <defs
     id="defs4025">
    <clipPath
       id="clip_white">
      <path
         inkscape:connector-curvature="0"
         id="path2767"
         d="M 0,0 -10,-5 V 5 z m 0,0 0.1,-10 h 8 z" />
    </clipPath>
    <clipPath
       id="clip_color">
      <path
         inkscape:connector-curvature="0"
         id="path2770"
         d="M 0,0 -10,-10 V 10 z M 0,0 V -10 H 10 z" />
    </clipPath>
    <clipPath
       id="clipPath3998">
      <path
         inkscape:connector-curvature="0"
         id="path4000"
         d="M 0,0 -10,-5 V 5 z m 0,0 0.1,-10 h 8 z" />
    </clipPath>
    <clipPath
       id="clipPath4002">
      <path
         inkscape:connector-curvature="0"
         id="path4004"
         d="M 0,0 -10,-10 V 10 z M 0,0 V -10 H 10 z" />
    </clipPath>
  </defs>
  <sodipodi:namedview
     id="base"
     pagecolor="#ffffff"
     bordercolor="#666666"
     borderopacity="1.0"
     inkscape:pageopacity="0.0"
     inkscape:pageshadow="2"
     inkscape:zoom="31.678384"
     inkscape:cx="29.77154"
     inkscape:cy="18.537268"
     inkscape:document-units="px"
     inkscape:current-layer="layer1"
     showgrid="false"
     fit-margin-top="0"
     fit-margin-left="0"
     fit-margin-right="0"
     fit-margin-bottom="0"
     inkscape:window-width="1416"
     inkscape:window-height="823"
     inkscape:window-x="0"
     inkscape:window-y="24"
     inkscape:window-maximized="1" />
  <metadata
     id="metadata4028">
    <rdf:RDF>
      <cc:Work
         rdf:about="">
        <dc:format>image/svg+xml</dc:format>
        <dc:type
           rdf:resource="http://purl.org/dc/dcmitype/StillImage" />
        <dc:title />
      </cc:Work>
    </rdf:RDF>
  </metadata>
  <g
     inkscape:label="Layer 1"
     inkscape:groupmode="layer"
     id="layer1"
     transform="translate(-140.15536,-67.502242)">
    <g
       style="fill:none;stroke:#ffffff;stroke-width:1"
       id="g2774"
       transform="matrix(1.7277136,0,0,1.7277136,170.71429,77.328613)">
      <circle
         style="stroke-width:1.39999998"
         sodipodi:ry="5"
         sodipodi:rx="5"
         sodipodi:cy="5"
         sodipodi:cx="-6"
         cx="-6"
         cy="5"
         r="5"
         id="circle2776"
         d="m -1,5 c 0,2.7614237 -2.2385763,5 -5,5 -2.7614237,0 -5,-2.2385763 -5,-5 0,-2.7614237 2.2385763,-5 5,-5 2.7614237,0 5,2.2385763 5,5 z" />
      <circle
         style="stroke-width:1.39999998"
         sodipodi:ry="5"
         sodipodi:rx="5"
         sodipodi:cy="5"
         sodipodi:cx="6"
         cx="6"
         cy="5"
         r="5"
         id="circle2778"
         d="M 11,5 C 11,7.7614237 8.7614237,10 6,10 3.2385763,10 1,7.7614237 1,5 1,2.2385763 3.2385763,0 6,0 c 2.7614237,0 5,2.2385763 5,5 z" />
      <circle
         style="stroke:#f4c300"
         sodipodi:ry="5"
         sodipodi:rx="5"
         sodipodi:cy="5"
         sodipodi:cx="-6"
         cx="-6"
         cy="5"
         r="5"
         id="circle2780"
         d="m -1,5 c 0,2.7614237 -2.2385763,5 -5,5 -2.7614237,0 -5,-2.2385763 -5,-5 0,-2.7614237 2.2385763,-5 5,-5 2.7614237,0 5,2.2385763 5,5 z" />
      <circle
         style="stroke:#009f3d"
         sodipodi:ry="5"
         sodipodi:rx="5"
         sodipodi:cy="5"
         sodipodi:cx="6"
         cx="6"
         cy="5"
         r="5"
         id="circle2782"
         d="M 11,5 C 11,7.7614237 8.7614237,10 6,10 3.2385763,10 1,7.7614237 1,5 1,2.2385763 3.2385763,0 6,0 c 2.7614237,0 5,2.2385763 5,5 z" />
      <circle
         style="stroke-width:1.39999998"
         sodipodi:ry="5"
         sodipodi:rx="5"
         sodipodi:cy="0"
         sodipodi:cx="-12"
         cx="-12"
         cy="0"
         r="5"
         id="circle2784"
         d="m -7,0 c 0,2.7614237 -2.2385763,5 -5,5 -2.761424,0 -5,-2.2385763 -5,-5 0,-2.7614237 2.238576,-5 5,-5 2.7614237,0 5,2.2385763 5,5 z" />
      <circle
         style="stroke-width:1.39999998"
         sodipodi:ry="5"
         sodipodi:rx="5"
         sodipodi:cy="0"
         sodipodi:cx="0"
         cx="0"
         cy="0"
         r="5"
         id="circle2786"
         d="M 5,0 C 5,2.7614237 2.7614237,5 0,5 -2.7614237,5 -5,2.7614237 -5,0 c 0,-2.7614237 2.2385763,-5 5,-5 2.7614237,0 5,2.2385763 5,5 z" />
      <circle
         style="stroke-width:1.39999998"
         sodipodi:ry="5"
         sodipodi:rx="5"
         sodipodi:cy="0"
         sodipodi:cx="12"
         cx="12"
         cy="0"
         r="5"
         id="circle2788"
         d="M 17,0 C 17,2.7614237 14.761424,5 12,5 9.2385763,5 7,2.7614237 7,0 c 0,-2.7614237 2.2385763,-5 5,-5 2.761424,0 5,2.2385763 5,5 z" />
      <circle
         style="stroke:#0085c7"
         sodipodi:ry="5"
         sodipodi:rx="5"
         sodipodi:cy="0"
         sodipodi:cx="-12"
         cx="-12"
         cy="0"
         r="5"
         id="circle2790"
         d="m -7,0 c 0,2.7614237 -2.2385763,5 -5,5 -2.761424,0 -5,-2.2385763 -5,-5 0,-2.7614237 2.238576,-5 5,-5 2.7614237,0 5,2.2385763 5,5 z" />
      <circle
         style="stroke:#000000"
         sodipodi:ry="5"
         sodipodi:rx="5"
         sodipodi:cy="0"
         sodipodi:cx="0"
         cx="0"
         cy="0"
         r="5"
         id="circle2792"
         d="M 5,0 C 5,2.7614237 2.7614237,5 0,5 -2.7614237,5 -5,2.7614237 -5,0 c 0,-2.7614237 2.2385763,-5 5,-5 2.7614237,0 5,2.2385763 5,5 z" />
      <circle
         style="stroke:#df0024"
         sodipodi:ry="5"
         sodipodi:rx="5"
         sodipodi:cy="0"
         sodipodi:cx="12"
         cx="12"
         cy="0"
         r="5"
         id="circle2794"
         d="M 17,0 C 17,2.7614237 14.761424,5 12,5 9.2385763,5 7,2.7614237 7,0 c 0,-2.7614237 2.2385763,-5 5,-5 2.761424,0 5,2.2385763 5,5 z" />
      <g
         transform="translate(-6,5)"
         id="g2796">
        <circle
           style="stroke-width:1.39999998"
           sodipodi:ry="5"
           sodipodi:rx="5"
           sodipodi:cy="0"
           sodipodi:cx="0"
           cy="0"
           cx="0"
           r="5"
           clip-path="url(#clip_white)"
           id="circle2798"
           d="M 5,0 C 5,2.7614237 2.7614237,5 0,5 -2.7614237,5 -5,2.7614237 -5,0 c 0,-2.7614237 2.2385763,-5 5,-5 2.7614237,0 5,2.2385763 5,5 z" />
        <circle
           style="stroke:#f4c300"
           sodipodi:ry="5"
           sodipodi:rx="5"
           sodipodi:cy="0"
           sodipodi:cx="0"
           cy="0"
           cx="0"
           r="5"
           clip-path="url(#clip_color)"
           id="circle2800"
           d="M 5,0 C 5,2.7614237 2.7614237,5 0,5 -2.7614237,5 -5,2.7614237 -5,0 c 0,-2.7614237 2.2385763,-5 5,-5 2.7614237,0 5,2.2385763 5,5 z" />
      </g>
      <g
         transform="translate(6,5)"
         id="g2802">
        <circle
           style="stroke-width:1.39999998"
           sodipodi:ry="5"
           sodipodi:rx="5"
           sodipodi:cy="0"
           sodipodi:cx="0"
           cy="0"
           cx="0"
           r="5"
           clip-path="url(#clip_white)"
           id="circle2804"
           d="M 5,0 C 5,2.7614237 2.7614237,5 0,5 -2.7614237,5 -5,2.7614237 -5,0 c 0,-2.7614237 2.2385763,-5 5,-5 2.7614237,0 5,2.2385763 5,5 z" />
        <circle
           style="stroke:#009f3d"
           sodipodi:ry="5"
           sodipodi:rx="5"
           sodipodi:cy="0"
           sodipodi:cx="0"
           cy="0"
           cx="0"
           r="5"
           clip-path="url(#clip_color)"
           id="circle2806"
           d="M 5,0 C 5,2.7614237 2.7614237,5 0,5 -2.7614237,5 -5,2.7614237 -5,0 c 0,-2.7614237 2.2385763,-5 5,-5 2.7614237,0 5,2.2385763 5,5 z" />
      </g>
    </g>
    <path
       sodipodi:type="arc"
       style="opacity:0.66796875;fill:#000000;fill-opacity:1;stroke:#000000;stroke-width:0;stroke-miterlimit:4;stroke-opacity:0;stroke-dasharray:none"
       id="path4107"
       sodipodi:cx="12.153398"
       sodipodi:cy="12.160436"
       sodipodi:rx="8.3653259"
       sodipodi:ry="8.0496531"
       d="m 20.518723,12.160436 a 8.3653259,8.0496531 0 1 1 -16.7306514,0 8.3653259,8.0496531 0 1 1 16.7306514,0 z"
       transform="matrix(1.1305216,0,0,1.1756196,157.01738,62.992235)" />
  </g>
</svg>
