<?xml version="1.0" encoding="UTF-8" standalone="no"?>
<!-- Created with Inkscape (http://www.inkscape.org/) -->

<svg
   xmlns:dc="http://purl.org/dc/elements/1.1/"
   xmlns:cc="http://creativecommons.org/ns#"
   xmlns:rdf="http://www.w3.org/1999/02/22-rdf-syntax-ns#"
   xmlns:svg="http://www.w3.org/2000/svg"
   xmlns="http://www.w3.org/2000/svg"
   xmlns:sodipodi="http://sodipodi.sourceforge.net/DTD/sodipodi-0.dtd"
   xmlns:inkscape="http://www.inkscape.org/namespaces/inkscape"
   width="27.621"
   height="21.353527"
   id="svg3737"
   version="1.1"
   inkscape:version="0.48.1 r9760"
   sodipodi:docname="New document 15">
  <defs
     id="defs3739" />
  <sodipodi:namedview
     id="base"
     pagecolor="#ffffff"
     bordercolor="#666666"
     borderopacity="1.0"
     inkscape:pageopacity="0.0"
     inkscape:pageshadow="2"
     inkscape:zoom="0.35"
     inkscape:cx="-368.33236"
     inkscape:cy="224.96248"
     inkscape:document-units="px"
     inkscape:current-layer="layer1"
     showgrid="false"
     fit-margin-top="0"
     fit-margin-left="0"
     fit-margin-right="0"
     fit-margin-bottom="0"
     inkscape:window-width="433"
     inkscape:window-height="421"
     inkscape:window-x="50"
     inkscape:window-y="24"
     inkscape:window-maximized="0" />
  <metadata
     id="metadata3742">
    <rdf:RDF>
      <cc:Work
         rdf:about="">
        <dc:format>image/svg+xml</dc:format>
        <dc:type
           rdf:resource="http://purl.org/dc/dcmitype/StillImage" />
        <dc:title></dc:title>
      </cc:Work>
    </rdf:RDF>
  </metadata>
  <g
     inkscape:label="Layer 1"
     inkscape:groupmode="layer"
     id="layer1"
     transform="translate(-743.33236,-735.97113)">
    <g
       transform="translate(418.32636,209.40466)"
       id="London">
      <path
         style="fill:#39d8aa"
         inkscape:connector-curvature="0"
         d="m 350.865,532.151 0.234,0.558 0.024,0.188 0.692,-0.085 0.064,0.269 0.033,0.165 0.112,0.043 0.033,0.101 0.109,0.112 0.066,-0.023 0.099,0.089 0.072,0.268 0.099,-0.005 0.125,0.256 c -0.028,0.098 -0.138,0.104 -0.138,0.104 l -0.011,-0.113 -0.975,0.164 -0.123,0.062 0.021,0.123 -0.848,0.115 -0.207,0.052 0.029,0.429 -0.045,0.372 -0.352,-0.004 -0.126,-0.588 -0.13,0.132 0.04,0.082 -0.04,0.084 -0.103,-0.062 -0.06,0.188 0.13,0.052 -0.02,0.097 -0.225,-0.046 c 0,0 0.252,0.579 0.107,0.635 -0.259,-0.023 -0.492,0.099 -0.492,0.099 l 0.108,0.282 -0.136,0.127 -0.265,0.077 c -0.064,0.045 -0.154,0.352 -0.154,0.352 l 10e-4,0.053 v 0.166 l 0.41,0.216 -0.076,0.084 -0.099,0.028 -0.077,0.023 c 0.062,0.143 -0.167,0.23 -0.167,0.23 l -0.082,0.274 0.08,0.141 c -0.009,0.094 -0.005,0.169 0.014,0.229 l -0.298,0.271 -0.068,0.236 -0.098,0.138 c -0.114,0.049 -0.228,0.208 -0.228,0.208 l -0.319,0.296 -0.142,-0.085 c -0.095,0.075 -0.132,0.158 -0.111,0.252 l -0.114,0.189 -0.073,0.362 -0.239,-0.135 -0.083,0.173 c 0.021,0.298 -0.074,0.376 -0.074,0.376 l 0.116,0.101 c 0,0 -0.094,0.089 -0.145,0.244 -0.051,0.157 0.129,0.137 0.129,0.137 l -0.051,0.165 -0.099,-0.038 -0.025,0.066 0.159,0.074 0.244,0.736 -0.397,-0.002 0.034,0.193 0.077,0.401 c -0.095,0.045 0.09,0.153 0.09,0.153 l -0.064,0.315 c 0.04,0.126 -0.091,0.328 -0.091,0.328 -0.149,0.209 -0.058,0.424 -0.058,0.424 -0.106,0.162 -0.096,0.305 -0.096,0.305 l -0.17,0.453 -0.182,-0.083 c -0.517,-0.028 -0.492,0.264 -0.492,0.264 l 0.067,0.008 0.101,0.347 -0.227,0.343 -0.131,-0.028 -0.031,0.11 c -0.227,-0.166 -0.52,0.354 -0.52,0.354 l -0.219,0.068 -0.112,0.161 0.078,0.491 -0.092,0.035 0.291,0.491 -0.092,0.147 -0.319,0.124 c -0.186,-0.012 -0.402,0.029 -0.648,0.12 l -0.088,-0.16 -0.072,0.047 c -0.1,-0.114 -0.224,-0.127 -0.374,-0.037 l 0.062,-0.337 -0.051,-0.134 -0.349,-0.265 c -0.252,0.115 -0.397,0.565 -0.397,0.565 l -0.023,0.22 -0.136,-10e-4 -0.221,-0.864 0.032,-0.414 -0.143,0.034 -0.149,-0.701 -0.099,0.028 c -0.078,-0.267 -0.335,-0.288 -0.335,-0.288 l -0.14,0.274 -0.119,-0.175 0.039,-0.12 -0.105,-0.146 -0.209,-0.033 -0.231,0.043 -0.024,-0.057 -0.16,0.042 c 0,0 0.019,0.2 -0.077,0.213 -0.095,0.012 -0.285,0.073 -0.285,0.073 -0.044,0.1 0.045,0.165 0.045,0.165 0.078,0.082 0.047,0.222 0.047,0.222 -0.095,10e-4 -0.099,0.147 -0.099,0.147 -0.258,0.188 -0.599,0.223 -0.599,0.223 l -0.077,-0.13 -0.23,0.071 0.002,0.087 -0.317,0.184 0.171,0.251 -0.169,0.148 c 0.044,0.139 -0.071,0.204 -0.071,0.204 l 0.009,0.119 -0.129,0.037 -0.037,-0.054 -0.046,0.023 0.017,0.052 -0.306,0.282 -0.135,0.157 -0.139,-0.019 -0.074,0.159 0.003,0.124 -0.247,0.027 -0.071,-0.151 -0.113,-0.123 -0.15,-0.298 -0.066,-0.027 -0.036,-0.133 -0.115,0.068 -0.145,-0.046 -0.003,0.033 -0.268,-0.09 -0.066,0.023 -0.055,-0.124 0.085,-0.14 -0.087,0.012 0.081,-0.221 -0.123,0.041 0.047,-0.218 -0.056,-0.01 -0.042,-0.112 -0.093,-0.167 0.167,-0.099 -0.088,-0.147 -0.037,0.031 -0.122,-0.143 c -0.042,-0.14 0.057,-0.152 0.057,-0.152 l -0.028,-0.072 -0.316,0.053 -0.063,-0.218 -0.45,-0.373 -0.327,-0.148 -0.121,0.245 -0.393,0.093 0.057,0.228 c 0,0 -0.068,0.149 -0.068,0.158 0,0.008 -0.144,0.053 -0.144,0.053 h -0.093 l -0.375,-0.262 0.181,-0.264 0.303,-0.233 -0.107,-0.4 -0.093,0.012 0.01,-0.142 -0.033,-0.119 0.033,-0.038 -0.192,-0.384 c -0.059,-0.08 -0.162,-0.118 -0.162,-0.118 l -0.029,0.051 -0.142,-0.123 -0.072,0.05 -0.064,0.102 -0.14,-0.101 0.059,-0.325 -0.015,-0.317 -0.08,-0.061 -0.145,0.083 c -0.133,0.052 -0.325,-0.023 -0.325,-0.023 0,0.146 -0.203,0.29 -0.203,0.29 -0.137,0.059 -0.218,0.22 -0.218,0.22 l -0.35,0.334 -0.09,0.123 0.097,0.028 -0.054,0.091 -0.064,0.039 -0.066,0.113 -0.002,0.072 -0.047,0.085 -0.007,0.064 -0.203,0.216 -0.066,0.165 -0.082,0.109 -0.044,0.199 0.017,0.142 -0.186,0.232 -0.146,0.108 -0.092,0.1 -0.201,0.129 -0.087,-0.017 -0.135,-0.086 0.032,-0.308 0.003,-0.217 0.037,-0.294 -0.083,-0.242 0.038,-0.1 -0.022,-0.054 c 0,0 0.158,-0.073 0.231,-0.274 0.072,-0.2 0.12,-0.41 0.12,-0.41 l 0.066,-0.468 c 0.054,-0.207 0.268,-0.189 0.268,-0.189 l 0.016,-0.197 -0.053,-0.049 -0.007,-0.056 -0.084,-0.187 -0.08,-0.228 -0.088,-0.137 -0.051,-0.058 -0.229,0.165 c 0,0 -0.12,0.028 -0.167,-0.062 0,0 -0.178,-0.304 -0.236,-0.346 0,0 -0.069,-0.164 -0.18,-0.218 l -0.351,-0.241 -0.247,-0.11 -0.175,0.016 c 0,0 -0.267,0.109 -0.388,0.158 -0.122,0.047 -0.212,-0.008 -0.212,-0.008 l 0.019,-0.153 -0.197,0.004 -0.022,-0.205 0.115,-0.004 -0.042,-0.324 -0.138,-0.111 c -0.264,-0.112 -0.465,0.009 -0.465,0.009 l -0.103,-0.074 c -0.051,-0.236 -0.197,-0.29 -0.197,-0.29 l 0.017,-0.041 -0.121,-0.099 -0.321,0.02 -0.028,0.228 -0.158,0.014 -0.245,-0.103 0.014,-0.281 -0.199,-0.005 -0.061,-0.028 0.03,-0.238 -0.318,0.116 0.027,-0.26 -0.073,-10e-4 -0.006,-0.334 -0.133,0.008 0.002,-0.179 0.049,0.008 0.037,-0.217 -0.094,-0.028 -0.428,-0.063 -0.077,-0.082 -0.049,-0.101 -0.347,0.006 c -0.146,-0.016 -0.205,-0.197 -0.205,-0.197 -0.152,-0.173 -0.432,-0.111 -0.432,-0.111 l 0.092,-0.25 0.031,-0.294 0.038,-0.186 0.104,-0.187 0.125,-0.25 0.04,-0.106 c 0.09,-0.071 0.13,-0.177 0.13,-0.177 l 0.019,-0.166 -0.029,-0.034 0.095,-0.175 0.054,-0.184 0.077,-0.05 -0.051,-0.149 c -0.107,0.039 -0.189,-0.135 -0.189,-0.135 -0.024,-0.191 -0.075,-0.25 -0.075,-0.25 l 0.048,-0.229 -0.021,-0.122 0.011,-0.332 -0.095,-0.289 -0.081,-0.161 c -0.01,-0.056 0.091,-0.142 0.091,-0.142 0,-0.123 0.08,-0.228 0.08,-0.228 l 0.055,-0.019 0.112,-0.209 0.007,-0.056 0.109,-0.196 0.125,-0.018 c 0.054,-0.085 0.057,-0.172 0.057,-0.172 l -0.024,-0.134 -0.153,-0.014 -0.01,-0.088 -0.052,-0.021 0.039,-0.082 -0.069,-0.027 -0.075,-0.095 0.027,-0.044 -0.009,-0.229 c -0.061,-0.052 0.004,-0.129 0.004,-0.129 l -0.123,-0.081 -0.109,-0.27 -0.019,-0.104 -0.067,-0.043 -0.121,-0.312 c -0.06,-0.032 -0.073,-0.095 -0.039,-0.189 l -0.096,-0.321 0.082,-0.062 c 0.085,0.008 0.134,-0.021 0.058,-0.123 l 0.018,-0.071 -0.084,-0.133 c -0.032,-0.088 0.063,-0.617 0.063,-0.617 l -0.087,-0.076 c -0.043,-0.011 -0.062,-0.084 -0.062,-0.084 l 0.027,-0.133 c 0.006,-0.062 -0.043,-0.176 -0.043,-0.176 -0.004,-0.067 0.082,-0.179 0.082,-0.179 l 0.103,-0.047 0.129,0.064 0.099,0.154 0.354,0.267 c 0.059,0.007 0.092,0.073 0.092,0.073 l 0.162,0.151 0.098,0.045 c 0.03,0.077 0.238,0.263 0.238,0.263 l 0.129,0.038 0.209,-0.144 0.201,-0.308 0.125,0.034 0.231,0.027 0.252,0.063 0.088,0.002 0.321,0.062 0.056,0.085 0.227,0.097 0.683,-0.214 0.055,-0.083 c 0.188,0.005 0.451,-0.18 0.451,-0.18 0.117,-0.025 0.27,-0.248 0.27,-0.248 0.363,-0.051 0.568,-0.247 0.568,-0.247 l 0.196,0.057 0.123,-0.193 0.242,-0.267 0.167,-0.063 0.114,-0.148 c 0.12,0.079 0.413,0.147 0.413,0.147 l -0.029,0.07 c 0.252,0.078 0.576,-0.039 0.576,-0.039 0.362,-0.128 0.457,-0.087 0.457,-0.087 l 0.003,-0.182 0.149,-0.019 -0.005,-0.077 0.059,-0.054 c 0.067,0.012 0.333,0.175 0.333,0.175 l 0.17,-0.3 0.034,-0.099 0.051,-0.36 0.223,-0.09 0.149,-0.087 0.065,-0.014 0.017,0.04 0.148,-0.076 c -0.01,0.069 0.07,0.195 0.07,0.195 l 0.27,-0.267 0.013,0.039 0.174,-0.123 0.044,0.052 0.125,-0.074 -0.064,-0.137 -0.061,-0.061 0.07,-0.06 0.062,0.049 0.073,-0.107 0.113,0.04 -0.041,-0.121 0.064,-0.008 0.04,0.166 0.053,0.01 0.037,-0.077 0.078,0.021 -0.068,0.111 0.221,0.064 0.09,-0.183 c 0.042,-0.048 0.186,-0.043 0.186,-0.043 l 0.146,-0.186 0.132,0.01 0.31,-0.565 -0.003,-0.324 0.143,0.014 c 0,0 0.228,0.107 0.327,0.067 0.101,-0.042 0.257,-0.104 0.257,-0.104 l 0.238,-0.049 c 0.268,0.05 0.469,0.031 0.604,-0.057 0.191,-0.081 0.382,-0.093 0.57,-0.032 l 0.479,-0.015 0.279,0.09 0.342,0.185 c 0.125,0.057 0.304,0.046 0.535,-0.033 0.14,0 0.253,0.153 0.253,0.153 l 0.326,0.122 0.631,0.009 c -0.053,0.416 0.027,0.584 0.027,0.584 -0.082,0.266 0.053,0.392 0.053,0.392 0.049,0.073 -0.065,0.414 -0.065,0.414 l -0.005,0.343 0.093,0.026 0.077,-0.071 0.079,0.049 c -0.026,0.154 0.027,0.203 0.163,0.145 0.073,0.029 0.111,0.087 0.112,0.172 l 0.241,-0.013 c 0,0 0.287,0.021 0.38,-0.044 -0.019,0.243 0.21,0.265 0.002,0.647 0.137,0.046 0.259,0.182 0.259,0.182 l 0.362,0.444 0.386,-0.095 c 0.116,0.183 -0.104,0.09 -0.129,0.255 0.256,0.091 0.542,0.342 0.542,0.342 l 0.309,0.116 0.197,-0.156 0.179,0.032 0.107,0.119 0.191,-0.134 -0.065,-0.375 0.115,-0.07 0.089,0.11 0.14,-0.081 0.079,0.125 0.394,-0.202 c 0.2,0.002 0.296,-0.231 0.296,-0.231 l 0.261,-0.194 0.104,-0.027 0.408,0.011 c 0.275,-0.024 0.483,0.002 0.629,0.075 l 0.37,-0.173 0.028,-0.073 0.166,0.065 -0.012,-0.053 0.128,0.02 c 0.142,-0.08 0.345,-0.002 0.345,-0.002 l 0.344,-0.105 0.362,-0.189 0.076,-0.101 c 0,0 0.279,0.31 0.438,0.412 0.271,0.157 0.526,0.345 0.526,0.345 l 0.329,0.451 -0.186,0.101 c 0.016,0.157 -0.117,0.237 -0.117,0.237 0.143,0.106 0.539,0.116 0.539,0.116 l 0.002,0.294 0.037,0.207 0.092,0.199 0.233,0.196 0.118,0.198 0,0 z"
         id="path480" />
    </g>
  </g>
</svg>
