<?xml version="1.0" encoding="UTF-8" standalone="no"?>
<!-- Created with Inkscape (http://www.inkscape.org/) -->

<svg
   xmlns:dc="http://purl.org/dc/elements/1.1/"
   xmlns:cc="http://creativecommons.org/ns#"
   xmlns:rdf="http://www.w3.org/1999/02/22-rdf-syntax-ns#"
   xmlns:svg="http://www.w3.org/2000/svg"
   xmlns="http://www.w3.org/2000/svg"
   xmlns:sodipodi="http://sodipodi.sourceforge.net/DTD/sodipodi-0.dtd"
   xmlns:inkscape="http://www.inkscape.org/namespaces/inkscape"
   width="30.148001"
   height="78.507004"
   id="svg3425"
   version="1.1"
   inkscape:version="0.48.1 r9760"
   sodipodi:docname="man.svg">
  <defs
     id="defs3427" />
  <sodipodi:namedview
     id="base"
     pagecolor="#ffffff"
     bordercolor="#666666"
     borderopacity="1.0"
     inkscape:pageopacity="0.0"
     inkscape:pageshadow="2"
     inkscape:zoom="0.35"
     inkscape:cx="15.074"
     inkscape:cy="39.253497"
     inkscape:document-units="px"
     inkscape:current-layer="layer1"
     showgrid="false"
     inkscape:window-width="433"
     inkscape:window-height="421"
     inkscape:window-x="50"
     inkscape:window-y="353"
     inkscape:window-maximized="0"
     fit-margin-top="0"
     fit-margin-left="0"
     fit-margin-right="0"
     fit-margin-bottom="0" />
  <metadata
     id="metadata3430">
    <rdf:RDF>
      <cc:Work
         rdf:about="">
        <dc:format>image/svg+xml</dc:format>
        <dc:type
           rdf:resource="http://purl.org/dc/dcmitype/StillImage" />
        <dc:title></dc:title>
      </cc:Work>
    </rdf:RDF>
  </metadata>
  <g
     inkscape:label="Layer 1"
     inkscape:groupmode="layer"
     id="layer1"
     transform="translate(-359.926,-493.10868)">
    <g
       transform="translate(260.813,475.02268)"
       id="g3">
      <path
         style="fill:#6598cb"
         inkscape:connector-curvature="0"
         d="m 120.706,24.61 c 0,3.6 -2.916,6.517 -6.512,6.517 -3.605,0 -6.527,-2.917 -6.527,-6.517 0,-3.602 2.922,-6.524 6.527,-6.524 3.596,0 6.512,2.923 6.512,6.524 z"
         id="path5" />
      <path
         style="fill:#6598cb"
         inkscape:connector-curvature="0"
         d="m 105.634,32.813 c -3.994,0 -6.521,3.995 -6.521,6.833 0,2.84 0,21.207 0,21.207 0,1.51 1.225,2.735 2.734,2.735 1.508,0 2.732,-1.226 2.732,-2.735 0,0 0,-15.526 0,-17 0,-1.473 1.584,-1.26 1.584,-0.418 0,0.837 0,22.765 0,22.765 0,0 0,19.979 0,26.607 0,0.165 0.012,0.315 0.041,0.463 0.232,1.868 1.807,3.323 3.742,3.323 2,0 3.619,-1.562 3.758,-3.529 0.02,-0.086 0.02,-0.173 0.02,-0.257 0,-2.63 0,-27.134 0,-28.219 0,-0.445 0.219,-0.532 0.428,-0.59 h 0.07 c 0.209,0.058 0.428,0.145 0.428,0.59 0,1.085 0,25.589 0,28.219 0,0.084 0,0.171 0.02,0.257 0.139,1.967 1.758,3.529 3.758,3.529 1.936,0 3.51,-1.455 3.742,-3.323 0.029,-0.147 0.041,-0.298 0.041,-0.463 0,-6.628 0,-26.607 0,-26.607 0,0 0,-21.928 0,-22.765 0,-0.842 1.584,-1.054 1.584,0.418 0,1.474 0,17 0,17 0,1.51 1.225,2.735 2.732,2.735 1.51,0 2.734,-1.226 2.734,-2.735 0,0 0,-18.366 0,-21.207 0,-2.838 -2.527,-6.833 -6.521,-6.833 h -17.106 z"
         id="path7" />
    </g>
  </g>
</svg>
