<?xml version="1.0" encoding="UTF-8" standalone="no"?>
<!-- Created with Inkscape (http://www.inkscape.org/) -->

<svg
   xmlns:dc="http://purl.org/dc/elements/1.1/"
   xmlns:cc="http://creativecommons.org/ns#"
   xmlns:rdf="http://www.w3.org/1999/02/22-rdf-syntax-ns#"
   xmlns:svg="http://www.w3.org/2000/svg"
   xmlns="http://www.w3.org/2000/svg"
   xmlns:sodipodi="http://sodipodi.sourceforge.net/DTD/sodipodi-0.dtd"
   xmlns:inkscape="http://www.inkscape.org/namespaces/inkscape"
   width="177.4787"
   height="111.88425"
   id="svg3615"
   version="1.1"
   inkscape:version="0.48.1 r9760"
   sodipodi:docname="New document 9">
  <defs
     id="defs3617" />
  <sodipodi:namedview
     id="base"
     pagecolor="#ffffff"
     bordercolor="#666666"
     borderopacity="1.0"
     inkscape:pageopacity="0.0"
     inkscape:pageshadow="2"
     inkscape:zoom="0.35"
     inkscape:cx="-99.117797"
     inkscape:cy="167.3707"
     inkscape:document-units="px"
     inkscape:current-layer="layer1"
     showgrid="false"
     fit-margin-top="0"
     fit-margin-left="0"
     fit-margin-right="0"
     fit-margin-bottom="0"
     inkscape:window-width="433"
     inkscape:window-height="421"
     inkscape:window-x="50"
     inkscape:window-y="24"
     inkscape:window-maximized="0" />
  <metadata
     id="metadata3620">
    <rdf:RDF>
      <cc:Work
         rdf:about="">
        <dc:format>image/svg+xml</dc:format>
        <dc:type
           rdf:resource="http://purl.org/dc/dcmitype/StillImage" />
        <dc:title></dc:title>
      </cc:Work>
    </rdf:RDF>
  </metadata>
  <g
     inkscape:label="Layer 1"
     inkscape:groupmode="layer"
     id="layer1"
     transform="translate(-474.1178,-587.84863)">
    <g
       transform="translate(295.2935,156.22263)"
       id="Layer_8">
      <g
         id="g71">
        <path
           style="fill:#36dd72"
           inkscape:connector-curvature="0"
           d="m 203.361,530.861 c -0.328,-0.067 -0.7,0.037 -0.768,-0.047 -0.068,-0.085 -0.235,-0.21 -0.201,-0.083 0.037,0.127 0.206,0.509 0.389,0.645 0.336,0.229 0.563,0.136 0.69,0.025 0.125,-0.11 0.218,-0.472 -0.11,-0.54 z"
           id="path73" />
        <path
           style="fill:#36dd72"
           inkscape:connector-curvature="0"
           d="m 178.838,526.714 c -0.025,0.134 -0.017,0.159 0.034,0.198 0.101,0.093 0.771,-0.161 0.518,-0.229 -0.252,-0.068 -0.527,-0.105 -0.552,0.031 z"
           id="path75" />
        <path
           style="fill:#36dd72"
           inkscape:connector-curvature="0"
           d="m 184.93,528.152 c -0.274,0.144 -0.091,0.312 0.21,0.379 0.305,0.067 0.531,-0.354 0.717,-0.531 0.187,-0.176 -0.757,0.076 -0.927,0.152 z"
           id="path77" />
        <path
           style="fill:#36dd72"
           inkscape:connector-curvature="0"
           d="m 185.614,526.426 c -0.044,-0.076 -0.249,-0.24 -0.249,-0.24 -0.279,-0.173 -1.105,-0.321 -1.163,-0.136 -0.059,0.187 0.014,0.676 0.257,0.713 0.244,0.039 0.43,-0.028 0.653,-0.083 0.224,-0.056 0.543,-0.178 0.502,-0.254 z"
           id="path79" />
        <path
           style="fill:#36dd72"
           inkscape:connector-curvature="0"
           d="m 181.417,520.188 c 0.017,0.146 0.068,0.24 0.152,0.206 0.179,-0.118 0.281,-0.231 0.167,-0.274 -0.112,-0.042 -0.336,-0.079 -0.319,0.068 z"
           id="path81" />
        <path
           style="fill:#36dd72"
           inkscape:connector-curvature="0"
           d="m 181.737,519.176 c -0.059,0.083 -0.122,0.088 -0.249,0.159 -0.047,0.03 -0.085,0.068 -0.108,0.182 -0.027,0.114 0.323,0.039 0.454,0.005 0.132,-0.034 0.144,-0.359 0.102,-0.489 -0.043,-0.133 -0.14,0.059 -0.199,0.143 z"
           id="path83" />
        <path
           style="fill:#36dd72"
           inkscape:connector-curvature="0"
           d="m 181.492,518.1 c 0.022,0.108 -0.061,0.185 0.01,0.227 0.335,0.195 0.379,0.237 0.43,0.119 0.049,-0.119 0.223,-0.65 0.034,-0.588 -0.19,0.064 -0.495,0.132 -0.474,0.242 z"
           id="path85" />
        <path
           style="fill:#36dd72"
           inkscape:connector-curvature="0"
           d="m 183.278,519.374 c -0.186,0.252 -0.396,0.743 -0.387,0.726 0.11,0.235 0.413,0.286 0.396,0.515 -0.017,0.229 -0.117,0.54 0.211,0.312 0.328,-0.227 0.699,-0.775 0.53,-0.961 -0.167,-0.188 -0.563,-0.846 -0.75,-0.592 z"
           id="path87" />
        <path
           style="fill:#36dd72"
           inkscape:connector-curvature="0"
           d="m 199.565,476.466 c 0.051,0.122 0.335,-0.203 0.47,-0.296 0.135,-0.093 0.207,-0.097 0.345,-0.189 0.139,-0.094 0.2,-0.607 0.149,-0.794 -0.051,-0.187 -0.653,-0.296 -0.692,-0.085 -0.038,0.212 -0.134,0.418 -0.06,0.557 0.078,0.141 0.136,0.212 0.071,0.285 -0.093,0.129 -0.333,0.4 -0.283,0.522 z"
           id="path89" />
        <path
           style="fill:#36dd72"
           inkscape:connector-curvature="0"
           d="m 356.069,456.853 c 0.203,-0.337 0.234,-0.507 0.234,-0.977 0,-0.471 -0.167,-4.71 -0.841,-5.922 -0.672,-1.21 -1.244,-1.85 -1.244,-2.421 0,-0.572 -0.976,-2.322 -1.245,-2.759 -0.269,-0.438 0.034,-1.044 -0.337,-1.413 -0.369,-0.371 -0.763,-0.614 -0.697,-0.85 0.068,-0.237 -0.065,-0.44 -0.235,-0.626 -0.169,-0.185 -0.656,-0.252 -0.624,-0.489 0.034,-0.237 0.254,-0.675 -0.134,-1.113 -0.388,-0.438 -0.792,-0.93 -1.062,-0.93 -0.27,0 -0.422,0.102 -0.404,-0.051 0.017,-0.152 -0.051,-0.539 -0.286,-0.506 -0.237,0.034 -0.489,0.034 -0.489,0.034 0,0 -0.235,-0.22 -0.337,-0.102 -0.102,0.118 -0.354,0.237 -0.388,0.017 -0.033,-0.22 -0.455,-0.421 -0.388,-0.658 0.068,-0.236 -0.017,-0.355 -0.118,-0.404 -0.102,-0.051 -1.247,-0.067 -1.349,-0.288 -0.1,-0.22 0.017,-0.573 -0.1,-0.726 -0.06,-0.078 -0.611,-0.665 -1.14,-1.193 l -0.225,0.29 -0.099,0.081 -0.137,0.134 -0.005,0.047 -0.55,0.27 -0.163,-0.005 -0.035,0.07 -0.088,0.032 c 0,0 -0.056,-0.132 -0.071,-0.139 -0.017,-0.01 -0.167,0.066 -0.167,0.066 l -0.041,-0.025 -0.187,0.04 -0.229,0.183 -0.073,-0.162 -0.152,-0.189 -0.093,0.034 h -0.235 c -0.217,-0.025 -0.339,0.142 -0.281,0.336 -0.067,0.096 -0.155,0.812 -0.155,0.812 l -0.048,0.343 -0.076,-0.003 -0.252,0.256 -0.243,-0.006 0.079,0.12 -0.054,0.082 0.132,0.176 -0.52,0.397 0.174,0.229 0.122,0.086 0.448,0.432 0.068,0.154 -0.145,0.078 -0.106,0.146 h -0.047 l -0.562,0.371 -0.042,0.104 -0.206,0.203 -0.022,-0.095 -0.093,-0.045 -0.132,0.085 c -0.133,-0.014 -0.202,-0.102 -0.212,-0.271 l -0.106,0.039 -0.037,-0.075 -0.159,0.036 -0.335,-0.804 -0.044,-0.016 -0.066,-0.203 0.139,-0.208 -0.13,0.034 -0.043,-0.146 -0.201,0.067 -0.469,-0.097 0.005,-0.34 -0.074,-0.036 0.023,-0.125 -0.093,-0.044 -0.007,-0.12 -0.076,-0.125 -0.095,0.061 -0.284,-0.189 -0.274,0.078 0.108,-0.524 c 0.071,-0.051 0.058,-0.152 -0.037,-0.307 0.093,-0.104 0.123,-0.252 0.09,-0.445 l -0.229,-0.485 -0.074,-0.289 0.058,-0.18 -0.249,-0.071 0.303,-0.534 0.189,-0.336 0.358,-0.568 0.071,-0.128 -0.236,-0.395 -0.099,0.077 -0.205,-0.076 -0.102,0.119 c 0,0 -0.107,-0.019 -0.13,-0.03 -0.023,-0.014 -0.123,0.084 -0.123,0.084 l -0.076,-0.049 -0.078,0.074 -0.046,-0.088 0.032,-0.11 -0.166,-0.07 0.032,-0.134 -0.333,-0.572 -0.126,0.122 -0.146,-0.066 -0.064,0.083 -0.049,-0.021 0.081,-0.098 0.046,-0.2 -0.07,-0.074 -0.144,0.069 -0.171,-0.259 -0.067,0.061 -0.64,-0.453 0.049,-0.053 c -0.097,-0.088 -0.155,-0.176 -0.178,-0.273 l -0.104,0.065 -0.049,-0.134 -0.142,0.027 -0.075,-0.113 -0.132,0.062 0.032,0.069 -0.147,0.048 0.149,0.456 -0.022,0.114 0.117,0.255 -0.048,0.064 -0.019,0.178 -0.245,0.005 0.023,0.081 -0.386,0.628 0.023,0.036 -0.196,0.455 -0.121,0.194 0.014,0.078 -0.08,0.16 -0.313,-0.079 0.06,0.097 -0.102,0.093 -0.23,-0.012 -0.196,-0.125 -0.253,-0.011 -0.498,-0.026 -0.349,-0.075 c -0.254,-0.025 -0.455,-0.064 -0.601,-0.116 0,0 -0.143,-0.334 -0.217,-0.386 -0.074,-0.057 -0.064,-0.134 -0.064,-0.134 l -0.303,0.218 -0.09,0.202 c 0,0 -0.076,0.142 -0.147,0.183 -0.07,0.04 -0.077,0.227 -0.077,0.227 l -0.078,-0.066 -0.237,0.099 c 0,0 0,0.086 -0.109,0.083 -0.108,-0.004 -0.053,0.338 -0.053,0.338 l -0.231,0.019 -0.051,0.158 -0.207,0.035 -0.224,-0.027 -0.031,0.138 -0.175,0.236 c -0.007,0.062 0.032,0.087 0.118,0.073 l 0.623,-0.129 0.637,-0.201 0.236,-0.081 0.055,-0.095 c 0,0 0.165,0.013 0.323,0.033 0.16,0.019 0.115,0.191 0.115,0.191 l 0.184,0.354 0.053,0.009 0.185,-0.058 c 0.111,0.079 0.176,0.164 0.191,0.256 l -0.074,0.056 0.102,0.218 0.013,0.124 c -0.04,0.069 -0.035,0.148 0.019,0.238 l -0.277,0.115 -0.206,0.058 -0.235,0.127 -0.333,0.09 -0.21,0.095 c 0,0 -0.349,-0.105 -0.45,-0.092 0,0 -0.159,0.018 -0.318,0.062 -0.159,0.045 -0.376,0.213 -0.376,0.213 l 0.217,0.345 -0.044,0.239 c -0.169,0.236 -0.198,0.469 -0.09,0.693 l 0.403,0.175 0.023,0.039 -0.383,0.139 -0.501,0.155 c -0.108,0.074 -0.225,0.105 -0.35,0.092 l -0.339,0.142 -0.36,0.122 -0.432,0.104 v 0.049 l -0.626,0.127 c 0,0 -0.335,0.023 -0.521,0.051 -0.187,0.023 -0.635,0.003 -0.635,0.003 l -0.565,-0.047 c 0.105,-0.066 0.112,-0.189 0.018,-0.34 l -0.178,-0.226 0.074,-0.601 -0.064,-0.189 0.113,-0.03 -0.037,-0.117 0.097,-0.027 0.102,-0.467 c -0.108,-0.229 -0.106,-0.476 0.009,-0.739 l -0.614,-0.002 -0.41,-0.023 -0.515,0.071 -0.032,-0.046 -0.267,-0.049 c 0,0 -0.062,-0.066 -0.124,-0.071 -0.058,-0.004 -0.204,-0.049 -0.279,0.051 -0.072,0.097 -0.35,-0.066 -0.35,-0.066 l -0.341,-0.061 -0.476,-0.138 -0.106,0.519 c 0,0 -0.171,0.213 -0.199,0.377 -0.024,0.129 -0.158,0.093 -0.279,0.095 -0.122,0 -0.254,0.023 -0.259,0.171 -0.006,0.149 -0.044,0.119 -0.151,0.316 -0.103,0.198 -0.012,0.237 0.043,0.469 0.054,0.233 -0.129,0.205 -0.271,0.233 -0.144,0.029 -0.144,0.261 -0.114,0.459 0.028,0.198 -0.055,0.357 -0.055,0.357 l -0.291,0.342 -0.354,-0.149 -0.679,-0.152 -1.226,-0.235 -0.049,0.235 c -0.467,-0.03 -0.885,-0.008 -1.252,0.069 l -0.156,-0.236 0.604,-0.506 -1.062,-1.348 -0.506,0.886 -0.705,0.492 -0.075,-0.007 -0.144,0.211 0.056,0.258 c 0,0 -0.051,0.357 -0.284,0.655 l 0.055,0.074 c 0,0 -0.073,0.164 -0.161,0.391 -0.088,0.227 0.064,0.333 0.064,0.333 l -0.52,0.237 -0.056,0.298 -0.219,-0.002 -0.034,0.117 -0.233,-0.048 -0.037,-0.277 c 0,0 -0.181,-0.01 -0.501,0.222 -0.162,0.115 -0.314,0.027 -0.314,0.027 l -0.339,-0.139 -0.096,0.074 -0.18,0.019 c 0,0 0.118,0.232 0.042,0.256 -0.074,0.025 -0.144,-0.051 -0.144,-0.051 l -0.027,-0.112 -0.078,-0.031 -0.34,0.379 c 0,0 -0.25,0.607 -0.338,0.677 l -0.163,-0.046 0.011,0.43 -0.234,-0.054 -0.189,0.242 -0.065,-0.014 -0.078,0.211 0.08,0.009 c 0,0 0.035,0.154 -0.002,0.24 -0.068,0.152 0.056,0.349 0.056,0.349 l -0.127,0.229 -0.32,0.088 -0.037,0.369 0.207,-0.016 0.035,0.415 -0.399,0.069 -0.268,-0.146 c 0,0 0.002,0.183 0,0.262 -10e-4,0.08 0.048,0.221 0.131,0.341 0.083,0.12 0.229,0.065 0.229,0.065 l 0.3,-0.12 0.039,0.288 c -0.134,0.005 -0.23,0.054 -0.281,0.157 l -0.321,0.233 c 0,0 -0.044,0.11 -0.233,0.191 -0.188,0.081 -0.244,0.411 -0.244,0.411 l -0.093,0.005 c -0.137,0.073 -0.269,0.099 -0.402,0.076 0,0 -0.055,0.266 -0.185,0.254 l -0.049,0.122 -0.117,0.235 0.027,0.06 -0.032,0.093 -0.076,-0.004 -0.2,-0.072 -0.231,0.044 -0.115,-0.046 -0.198,-0.135 -0.222,0.196 -0.159,0.158 c 0,0 -0.038,0.002 -0.081,-0.04 -0.042,-0.042 -0.146,0.032 -0.186,0.032 -0.039,0 -0.185,-0.034 -0.185,-0.034 l -0.173,-0.116 -0.086,-0.053 -0.073,-0.129 -0.13,-0.076 -0.031,0.055 -0.188,0.021 c 0,0 -0.032,-0.122 -0.264,-0.189 -0.112,-0.035 -0.163,-0.092 -0.163,-0.092 0,0 0.004,-0.098 -0.012,-0.225 -0.015,-0.129 0.05,-0.196 0.05,-0.196 l 0.118,-0.022 0.042,-0.148 -0.314,-0.31 -0.208,-0.062 -0.183,-0.019 c 0,0 0.052,0.164 0.049,0.242 -0.004,0.076 -0.112,0.127 -0.112,0.127 l -0.026,-0.025 -0.221,0.044 -0.056,-0.103 -0.042,0.015 -0.149,0.286 -0.042,0.146 c 0,0 0.014,0.137 -0.134,0.217 -0.106,0.058 -0.113,-0.062 -0.113,-0.062 l -0.116,-0.059 -0.471,0.032 -0.049,0.142 -0.156,-0.072 h -0.076 c 0,0 -0.388,-0.08 -0.513,-0.088 -0.127,-0.011 -0.117,-0.113 -0.146,-0.198 -0.027,-0.085 0.041,-0.22 0.041,-0.22 l -0.025,-0.107 0.102,-0.349 -0.595,-0.238 -0.137,-0.025 -0.266,0.31 -0.044,-0.077 -0.183,-0.014 c 0,0 -0.127,-0.062 -0.146,-0.064 -0.018,-0.007 -0.2,0.061 -0.2,0.061 l -0.084,-0.032 -0.376,0.327 -0.099,0.033 -0.109,0.139 c 0,0 0.026,0.07 0.033,0.124 0.007,0.054 -0.026,0.108 -0.106,0.159 -0.081,0.054 -0.167,0.217 -0.167,0.217 l -0.221,-0.092 -0.641,0.136 -0.464,0.142 -0.198,0.094 -0.259,0.109 c 0,0 -0.012,0.069 -0.074,0.198 -0.064,0.127 -0.188,0.108 -0.323,0.044 -0.133,-0.064 -0.166,-0.039 -0.295,-0.01 -0.129,0.03 -0.225,-0.078 -0.225,-0.078 l 0.167,-0.244 -0.167,-0.216 -0.139,0.13 -0.055,-0.069 -0.173,0.122 -0.185,0.04 -0.096,-0.21 0.121,-0.047 -0.197,-0.257 -0.367,0.557 c 0,0 0.012,-0.327 -0.357,-0.582 l -0.479,0.336 -0.217,-0.241 0.223,-0.219 0.053,-0.293 0.31,-0.444 0.046,-0.156 0.268,0.016 0.369,-0.168 -0.752,-0.245 -0.298,-0.062 -0.148,-0.203 c 0,0 -0.489,-0.236 -0.694,-0.329 -0.21,-0.095 -0.312,-0.21 -0.312,-0.21 l 0.025,-0.355 0.288,-0.543 c 0,0 0.007,-0.099 -0.005,-0.298 -0.011,-0.198 -0.43,-0.097 -0.43,-0.097 l -0.147,-0.193 -0.266,-0.24 -0.378,0.03 -0.311,-0.19 0.049,-0.431 c 0,0 -0.12,-0.181 -0.323,-0.267 -0.119,-0.053 -0.276,0.008 -0.276,0.008 l -0.194,0.147 -0.155,-0.185 c 0,0 -0.149,-0.086 -0.283,-0.231 -0.134,-0.141 -0.007,-0.217 -0.007,-0.217 v -0.105 c 0,0 -0.142,-0.142 -0.142,-0.349 0,-0.125 0.076,-0.184 0.076,-0.184 0.086,-0.195 0.088,-0.346 0.014,-0.452 l -0.019,-0.224 -0.031,-0.091 c 0,0 0.039,-0.141 0.058,-0.241 0.022,-0.103 -0.199,-0.135 -0.199,-0.135 0,0 -0.15,0.093 -0.369,0.049 l -0.193,-0.147 c 0,0 -0.155,-0.003 -0.183,-0.252 -0.015,-0.155 -0.137,-0.181 -0.262,-0.189 -0.133,-0.012 -0.348,-0.147 -0.348,-0.147 l -0.098,-0.134 -0.012,-0.275 0.04,-0.055 0.002,-0.241 c 0,0 0.215,0.014 0.097,-0.462 -0.032,-0.131 -0.088,-0.151 -0.088,-0.151 l -0.303,-0.088 0.28,-0.24 -0.183,-0.035 c -0.11,0.023 -0.235,0.002 -0.376,-0.066 l -0.037,-0.252 -0.04,-0.129 -0.149,-0.121 c 0,0 -0.201,0.158 -0.335,0.184 -0.134,0.026 -0.152,-0.038 -0.168,-0.157 -0.013,-0.118 -0.194,-0.157 -0.194,-0.157 0,0 -0.155,-0.11 -0.21,-0.268 -0.056,-0.159 -0.171,-0.169 -0.171,-0.169 l -0.299,-0.272 -0.309,0.049 c 0,0 -0.185,0.189 -0.259,0.229 -0.071,0.039 -0.115,-0.095 -0.152,-0.154 -0.041,-0.062 -0.351,-0.02 -0.351,-0.02 l -0.14,0.084 -0.046,0.187 -0.198,0.108 -0.03,0.391 -0.097,0.1 0.296,0.322 -0.172,0.235 -0.385,0.197 -0.204,-0.039 -0.134,0.105 c -0.221,0.064 -0.381,-0.023 -0.487,-0.266 l -0.122,0.159 -0.178,0.123 -0.011,0.201 0.06,0.279 -0.1,0.344 -0.071,0.069 c -0.188,0.078 -0.3,0.212 -0.333,0.401 l -0.058,0.215 0.128,0.325 c 0,0 0.107,0.051 0.146,0.121 0.041,0.071 -0.089,0.159 -0.089,0.159 0,0 -0.146,0.009 -0.122,0.215 0,0 0.028,0.198 -0.067,0.219 0,0 -0.141,0.083 -0.133,0.136 0,0 0.057,0.197 -0.044,0.231 0,0 -0.206,0.035 -0.257,0.176 0,0 0.111,0.271 0.053,0.295 -0.094,0.044 -0.097,-0.049 -0.177,-0.131 -0.083,-0.081 -0.222,0.009 -0.222,0.009 0,0 -0.074,0.23 -0.16,0.23 -0.09,0 -0.095,0.059 -0.076,0.123 0.021,0.066 -0.029,0.078 -0.029,0.078 l 0.058,0.127 c 0.058,-0.017 0.1,0.021 0.127,0.116 l -0.109,0.17 -0.007,0.061 0.206,0.058 0.09,0.175 0.115,-0.039 0.142,0.079 0.379,-0.007 -0.049,0.099 0.041,0.072 -0.183,0.563 -0.198,0.437 0.023,0.266 -0.254,0.112 -0.059,0.176 -0.138,-0.002 0.078,0.139 -0.105,0.085 c -0.082,0.152 -0.183,0.147 -0.396,0.023 l 0.139,0.239 -0.157,-0.097 -0.117,0.046 -0.061,-0.11 -0.187,0.235 -0.215,0.102 0.014,0.191 -0.171,0.225 c 0,0 -0.067,0.014 -0.217,0.037 -0.148,0.027 -0.455,-0.102 -0.455,-0.102 0,0 -0.286,-0.312 -0.562,-0.305 -0.157,0.006 -0.198,0.095 -0.198,0.095 l -0.166,-0.003 c 0,0 -0.179,-0.012 -0.199,0.042 -0.021,0.056 -0.1,0.055 -0.1,0.055 l -0.136,-0.131 -0.157,-0.035 -0.185,-0.092 c -0.051,0.316 -0.032,0.498 0.054,0.549 l -0.416,0.426 0.203,0.263 c -0.161,0.169 -0.242,0.413 -0.244,0.726 l -0.305,-0.021 c -0.144,-0.139 -0.301,-0.173 -0.469,-0.102 l -0.054,-0.062 c 0,0 -0.193,-0.087 -0.212,-0.215 -0.02,-0.127 -0.19,-0.131 -0.19,-0.131 l 0.095,-0.167 c 0.133,0 0.227,-0.029 0.279,-0.088 l -0.209,-0.235 0.08,-0.182 -0.327,-0.142 -0.361,0.01 0.008,-0.115 -0.199,0.021 -0.039,-0.098 c -0.122,-0.041 -0.289,-0.043 -0.505,-0.004 l 0.009,-0.069 -0.148,0.053 -0.145,-0.037 v -0.051 c -0.072,-0.009 -0.14,-0.002 -0.208,0.021 l -0.201,-0.009 -0.074,0.061 0.023,0.122 -0.325,0.279 -0.28,0.137 -0.063,0.134 -0.118,-0.03 -0.056,0.09 -0.452,0.229 -0.042,-0.042 0.256,-0.263 c -0.06,-0.012 -0.068,-0.066 -0.029,-0.159 l -0.137,-0.023 -0.085,-0.166 c 0,0 -0.254,-0.097 -0.266,-0.191 -0.021,-0.171 -0.178,-0.1 -0.178,-0.1 l -0.035,-0.051 -0.17,-0.064 c 0,0 -0.049,0.034 -0.111,0.004 -0.067,-0.029 0.005,-0.143 0.005,-0.143 l -0.337,-0.183 -0.216,0.054 c 0,0 -0.063,0.011 -0.089,-0.049 -0.028,-0.056 -0.14,-0.058 -0.14,-0.058 0,0 -0.022,0.042 -0.071,0.154 -0.049,0.111 -0.207,0.084 -0.207,0.084 l -0.38,-0.15 -0.068,-0.146 -0.28,-0.049 -0.05,-0.131 -0.152,-0.111 -0.109,-0.028 c 0.033,-0.119 -0.016,-0.184 -0.136,-0.188 l -0.127,-0.164 -0.225,-0.115 -0.09,-0.072 -0.097,-0.032 c 0,0 -0.098,0.019 -0.117,-0.037 -0.02,-0.055 -0.174,-0.016 -0.174,-0.016 l -0.154,-0.104 -0.021,-0.084 -0.117,0.003 -0.238,-0.146 -0.2,0.061 c 0,0 -0.257,-0.127 -0.316,-0.021 -0.042,0.076 -0.113,0.062 -0.113,0.062 l -0.229,-0.181 0.377,-0.152 0.48,-0.799 -0.058,-0.143 0.092,-0.072 c 0.046,-0.198 0.002,-0.344 -0.129,-0.437 l -0.023,-0.092 -0.188,-0.255 -0.255,-0.191 -0.156,-0.036 c 0,0 -0.121,-0.231 -0.121,-0.282 0.093,-0.067 0.088,-0.137 -0.014,-0.21 0,0 -0.058,-0.161 -0.122,-0.2 0,0 -0.173,-0.059 -0.104,-0.146 0.032,-0.037 -0.069,-0.171 -0.069,-0.171 l 0.078,-0.449 c 0,0 -0.09,-0.147 -0.046,-0.288 l -0.054,-0.139 -0.175,-0.159 -1.713,0.656 0.102,0.309 -0.564,0.135 -0.112,0.459 -0.116,0.206 -0.152,0.195 -0.198,-0.295 -0.224,-0.217 0.022,0.263 -0.129,0.164 c -0.162,-0.037 -0.319,-0.002 -0.474,0.104 l -0.22,0.161 -0.149,0.127 c 0,0 -0.12,-0.205 -0.104,-0.318 -0.016,-0.059 -0.226,-0.134 -0.226,-0.134 0,0 -0.102,0.044 -0.233,-0.104 -0.11,-0.12 -0.313,-0.102 -0.313,-0.102 l -0.282,-0.106 c 0,0 -0.095,0.026 -0.148,-0.058 -0.057,-0.083 -0.121,-0.073 -0.121,-0.073 l -0.082,0.344 -0.134,0.355 0.386,-0.176 0.051,0.033 -0.125,0.247 -0.156,0.057 0.041,0.13 0.316,0.1 0.047,0.117 -0.28,0.328 0.013,0.155 0.141,0.016 0.006,0.118 -0.152,0.046 -0.029,0.372 0.037,0.337 c -0.059,0.034 -0.083,0.131 -0.067,0.284 l -0.078,0.143 v 0.242 l -0.363,0.098 c 0,0 -0.315,-0.097 -0.405,-0.062 l -0.015,-0.108 -0.224,-0.12 -0.13,-0.43 -0.117,-0.035 -0.259,0.003 -0.533,-0.171 c 0,0 -0.034,0.194 -0.037,0.242 -0.003,0.046 0.083,0.185 0.083,0.185 l -0.217,0.071 0.019,0.072 h 0.087 l -0.034,0.194 -0.264,0.175 c 0.057,0.069 0.059,0.152 0.01,0.242 l -0.118,-0.117 c 0,0 -0.156,-0.04 -0.209,-0.071 -0.054,-0.033 -0.213,0.088 -0.213,0.088 l -0.386,1.258 -0.642,0.051 -0.289,0.395 c 0,0 -0.037,0.296 -0.069,0.409 -0.034,0.113 -0.347,0.034 -0.347,0.034 l 0.013,0.113 0.154,0.211 0.235,0.317 0.002,0.352 -0.071,0.249 c 0.208,0.179 0.259,0.318 0.536,0.116 0.371,-0.269 0.689,-1.191 1.094,-1.275 0.404,-0.085 0.557,0.033 0.642,-0.066 0.084,-0.102 0.084,-0.305 0.319,-0.288 0.237,0.018 0.32,0.119 0.506,-0.05 0.185,-0.17 0.422,-0.254 0.556,-0.17 0.135,0.085 0.91,0.457 0.557,0.457 -0.353,0 -0.759,-0.169 -0.928,0.051 -0.167,0.219 -0.269,0.473 -0.656,0.473 -0.387,0 -0.962,-0.102 -0.979,0.37 -0.017,0.474 0.321,0.963 0.067,1.166 -0.252,0.201 -0.557,0.76 -1.026,0.658 -0.473,-0.102 -1.502,-0.49 -1.669,-0.22 -0.169,0.271 0.303,0.642 -0.017,0.642 -0.322,0 -2.243,-0.371 -2.782,-1.046 -0.538,-0.677 -0.775,-1.115 -0.826,-1.351 -0.051,-0.237 0,-0.559 -0.219,-0.794 -0.22,-0.236 -1.061,-1.099 -1.096,-1.52 -0.032,-0.423 0.067,-0.489 -0.05,-0.827 -0.118,-0.337 -0.033,-0.507 -0.287,-0.76 -0.252,-0.253 -0.371,-0.32 -0.371,-0.558 0,-0.236 0.034,-0.709 -0.319,-0.844 -0.354,-0.134 -1.584,0.675 -1.889,0.979 -0.303,0.305 -0.741,-0.22 -1.938,0.743 -1.197,0.961 -1.433,0.927 -1.096,1.418 0.337,0.489 2.207,2.633 2.528,2.97 0.32,0.339 -0.152,0.591 0.219,0.896 0.37,0.303 0.557,0.203 0.388,0.354 -0.168,0.152 -0.168,0.474 -0.034,0.508 0.136,0.034 1.601,0.472 1.349,0.557 -0.252,0.085 -1.146,0.305 -1.078,0.473 0.03,0.076 0.278,0.218 0.528,0.358 l -0.563,0.074 0.209,1.186 c -0.474,-0.268 -0.895,-0.519 -0.95,-0.604 -0.117,-0.187 -0.016,-0.424 -0.337,-0.559 -0.319,-0.134 -0.388,0.019 -1.263,-0.81 -0.878,-0.827 -1.804,-1.485 -2.125,-1.739 -0.32,-0.252 -0.69,-0.388 -0.725,-0.557 -0.034,-0.168 0.034,-0.642 -0.116,-0.473 -0.152,0.17 -0.034,0.54 -0.422,0.136 -0.39,-0.406 -0.944,-0.658 -0.961,-0.929 -0.018,-0.271 0.252,-0.659 -0.152,-0.608 -0.404,0.051 -0.96,0.388 -1.18,0.507 -0.219,0.118 -0.775,-0.203 -1.18,-0.018 -0.404,0.187 -1.719,0.912 -2.022,0.912 -0.304,0 -0.387,-0.102 -0.658,0.085 -0.269,0.185 -0.421,0.27 -0.555,0.455 -0.136,0.187 0.117,0.777 -0.119,0.523 -0.235,-0.253 -0.455,-0.32 -0.572,-0.235 -0.118,0.084 -2.141,1.282 -2.596,1.097 -0.455,-0.187 -0.709,-0.17 -1.029,-0.17 -0.32,0 -2.124,-0.051 -2.528,-0.319 -0.405,-0.271 -0.269,-0.489 -0.523,-0.76 -0.252,-0.271 -0.371,-0.085 -0.538,-0.271 -0.169,-0.185 -0.068,-0.119 -0.252,-0.27 -0.186,-0.152 -1.215,0.32 -1.45,0.118 -0.237,-0.203 -0.119,-0.626 -0.455,-0.776 -0.337,-0.152 -1.484,-0.44 -1.264,0.017 0.218,0.455 1.264,1.503 1.23,1.84 -0.034,0.337 1.5,1.028 1.298,1.384 -0.203,0.354 -0.741,0.93 -0.69,1.182 0.049,0.254 0.336,0.827 0.184,0.642 -0.15,-0.187 -0.978,-0.692 -0.775,-0.963 0.203,-0.27 0.354,-0.32 0.203,-0.623 -0.152,-0.305 -0.051,-0.845 -0.506,-0.946 -0.456,-0.102 -0.591,0.152 -0.758,0.068 -0.169,-0.085 -0.288,-0.136 -0.489,0.033 -0.203,0.168 -0.944,0.76 -1.264,0.81 -0.321,0.051 -0.826,-0.032 -1.13,0.203 -0.303,0.236 -2.107,1.57 -2.342,1.604 -0.235,0.034 -0.606,-0.051 -0.775,0.068 -0.169,0.118 -0.286,0.286 -0.455,0.186 -0.169,-0.102 -0.286,-0.338 -0.455,-0.271 -0.168,0.067 -0.32,0.354 -0.574,0.22 -0.252,-0.135 -0.269,-0.287 -0.371,-0.152 -0.1,0.136 -0.792,0.76 -1.197,0.979 -0.404,0.22 -1.128,0.542 -1.163,0.692 -0.034,0.152 0.119,0.691 -0.067,0.793 -0.185,0.102 -2.09,1.893 -2.528,2.466 -0.438,0.574 -0.758,0.911 -0.741,1.147 0.017,0.237 0.067,1.097 -0.119,0.828 -0.185,-0.271 -0.337,-0.896 -0.504,-0.709 -0.169,0.186 -0.067,0.878 0.066,1.248 0.136,0.371 0.119,1.722 -0.117,1.992 -0.236,0.27 -0.32,0.067 -0.421,0.288 -0.102,0.218 -0.961,1.113 -1.264,1.534 -0.303,0.424 -0.152,0.457 -0.421,0.491 -0.271,0.034 -0.69,-0.034 -0.927,0.235 -0.237,0.271 -2.241,2.637 -2.518,2.771 -0.279,0.134 -0.987,0.304 -1.165,0.145 -0.176,-0.161 -0.186,-0.921 -0.227,-0.609 -0.042,0.312 -0.093,0.575 -0.22,0.617 -0.125,0.041 -0.176,0.101 -0.244,0.202 -0.067,0.101 -0.802,0.338 -0.902,0.481 -0.102,0.143 -0.345,0.919 -0.563,0.979 -0.22,0.06 -0.542,-0.025 -0.633,0.144 -0.093,0.17 -0.498,0.607 -0.457,0.752 0.044,0.142 0.102,0.328 -0.058,0.489 -0.159,0.16 -0.65,0.152 -0.673,0.22 -0.027,0.067 0.108,0.562 -0.229,0.73 -0.337,0.17 -0.792,0 -0.792,0.221 0,0.218 0.15,0.675 -0.051,0.878 -0.202,0.201 -1.044,0.758 -1.044,1.029 0,0.271 0.202,0.236 0,0.522 -0.203,0.288 -0.506,0.22 -0.338,0.523 0.169,0.305 0.775,0.793 0.995,0.524 0.22,-0.271 0.186,-0.963 0.421,-1.048 0.235,-0.084 0.692,-0.118 0.843,0.067 0.151,0.187 -0.051,0.54 0.185,0.305 0.237,-0.236 0.524,-0.608 0.758,-0.524 0.237,0.085 0.237,0.474 0.709,0.254 0.472,-0.22 0.741,-0.338 0.726,-0.607 -0.019,-0.271 -0.019,-0.438 0.117,-0.506 0.134,-0.067 0.641,-0.237 0.876,-0.067 0.235,0.169 1.349,1.012 1.383,1.197 0.034,0.187 -0.119,0.845 0.1,1.029 0.218,0.187 0.438,-0.557 0.86,-0.624 0.421,-0.068 1.366,-0.168 1.417,-0.354 0.051,-0.186 -0.152,-0.271 -0.288,-0.22 -0.134,0.051 -0.877,-0.22 -0.877,-0.506 0,-0.288 -0.538,-0.591 -0.084,-1.014 0.457,-0.421 0.86,-0.337 0.878,-0.522 0.015,-0.185 -0.187,-0.27 -0.019,-0.473 0.169,-0.203 0.338,-0.929 1.012,-1.097 0.674,-0.169 1.08,-0.169 1.213,-0.372 0.135,-0.203 0.135,-0.523 1.097,-0.506 0.959,0.017 1.078,0.186 1.112,-0.034 0.034,-0.22 -0.135,-0.743 0.354,-0.811 0.489,-0.067 1.569,0.152 1.821,0.017 0.252,-0.135 0.32,-0.203 0.843,-0.203 0.521,0 1.399,0.237 1.635,0.373 0.235,0.135 0.421,0.286 0.741,0.118 0.32,-0.169 0.64,-1.081 0.91,-0.963 0.269,0.118 -0.051,0.506 0.472,0.438 0.523,-0.066 0.557,-0.404 0.809,-0.354 0.252,0.051 0.371,0.15 0.438,0 0.066,-0.152 0.472,-0.642 0.64,-0.692 0.169,-0.051 -0.202,0.963 -0.489,1.062 -0.286,0.102 -0.589,-0.051 -0.708,0.187 -0.118,0.236 0,0.573 -0.269,0.591 -0.271,0.017 -1.838,-0.068 -1.838,0.186 0,0.254 0.506,1.621 0.86,2.212 0.354,0.591 0.084,0.776 0.084,0.928 0,0.152 0.489,0.084 0.151,0.305 -0.337,0.22 -1.078,0.878 -0.959,1.079 0.118,0.203 1.179,1.639 1.819,2.6 0.642,0.963 0.743,1.841 1.063,1.723 0.32,-0.118 0.724,-0.288 0.809,-0.438 0.085,-0.152 0.136,-0.305 0.405,-0.305 0.269,0 1.247,-0.169 1.55,-0.319 0.303,-0.152 0.455,-0.237 0.336,-0.118 -0.117,0.118 -1.719,1.215 -1.887,1.384 -0.169,0.169 -1.197,0.489 -1.248,0.776 -0.051,0.286 0.152,0.354 -0.169,0.659 -0.32,0.303 -1.061,1.13 -1.618,2.227 -0.555,1.099 -0.657,1.302 -0.489,1.604 0.169,0.305 1.232,1.771 1.484,2.48 0.252,0.709 0.085,0.896 0.371,0.963 0.286,0.068 2.359,-0.389 2.797,-0.539 0.438,-0.152 0.758,-0.523 0.995,-0.339 0.235,0.187 0.572,0.827 0.388,0.709 -0.186,-0.118 -0.64,-0.354 -0.876,-0.118 -0.235,0.236 -1.517,1.536 -2.107,1.452 -0.589,-0.085 -0.741,-0.642 -0.792,-0.507 -0.051,0.136 0.22,2.549 0.067,2.719 -0.152,0.169 -0.944,1.299 -0.944,1.721 0,0.423 0.288,0.457 0.084,0.845 -0.202,0.389 -0.404,0.776 -0.303,0.996 0.102,0.219 0.235,0.32 0,0.591 -0.237,0.271 -0.88,1.457 -1.015,1.963 -0.134,0.505 -1.379,3.161 -2.187,4.036 -0.808,0.875 -1.278,1.078 -1.614,1.078 -0.337,0 -2.121,1.949 -2.86,1.85 -0.741,-0.102 -0.548,-0.638 -1.291,0.104 -0.741,0.743 -1.432,1.824 -1.787,1.875 -0.352,0.051 -0.809,0.017 -0.926,0.252 -0.118,0.237 -0.811,1.604 -1.585,1.588 -0.775,-0.018 -1.044,-0.676 -1.279,-0.438 -0.237,0.235 -0.237,0.303 -0.54,0.218 -0.303,-0.083 -0.673,-0.303 -0.993,-0.235 -0.322,0.068 -0.709,0.574 -1.063,0.523 -0.354,-0.051 -0.54,0.489 -0.708,0.254 -0.169,-0.237 -0.692,-0.473 -0.658,-0.321 0.034,0.152 0.235,0.557 0.286,0.793 0.051,0.237 0.406,0.658 0.406,0.879 0,0.218 0.084,0.557 -0.085,0.354 -0.169,-0.203 -0.203,-0.404 -0.59,-0.607 -0.387,-0.203 -0.758,-0.271 -0.792,-0.422 -0.034,-0.152 -0.117,-0.271 -0.252,-0.169 -0.135,0.102 -0.54,0.473 -0.489,0.709 0.051,0.235 0.185,0.235 0,0.489 -0.186,0.254 -1.112,1.655 -1.332,1.723 -0.22,0.066 -0.995,0.066 -1.163,0.235 -0.168,0.169 -0.743,0.626 -0.59,0.776 0.152,0.152 0.472,0.119 0.472,0.288 0,0.169 0.438,0.404 0.269,0.506 -0.167,0.102 -1.836,0.152 -1.904,-0.051 -0.068,-0.203 -0.489,-0.658 -0.725,-0.557 -0.235,0.102 -0.102,0.522 -0.084,0.658 0.018,0.136 -0.303,0.455 -0.472,0.557 -0.169,0.102 -0.826,0.274 -0.894,0.436 -0.068,0.158 -0.125,0.901 -0.269,0.624 -0.144,-0.279 -0.279,-0.423 -0.413,-0.499 -0.135,-0.074 -0.557,-0.06 -0.455,-0.21 0.102,-0.152 0.328,-0.296 0.328,-0.44 0,-0.144 -0.007,-0.548 -0.379,-0.564 -0.371,-0.018 -0.504,0.372 -0.606,0.186 -0.102,-0.186 -0.152,-0.203 -0.396,-0.22 -0.245,-0.017 -0.876,0.009 -0.859,-0.11 0.017,-0.118 0.084,-0.261 -0.068,-0.218 -0.152,0.042 -0.817,0.388 -0.657,0.564 0.159,0.177 0.843,0.431 0.598,0.591 -0.246,0.161 -0.843,0.489 -0.682,0.625 0.159,0.135 0.464,0.345 0.396,0.455 -0.068,0.109 -0.345,0.279 -0.288,0.363 0.059,0.085 0.008,0.38 -0.058,0.438 -0.068,0.06 -0.406,0.119 -0.474,0.161 -0.067,0.042 -0.673,0.421 -0.731,0.296 -0.061,-0.127 -0.338,-0.136 -0.447,-0.06 -0.111,0.075 -0.463,0.667 -0.726,0.625 -0.26,-0.042 -1.061,-0.009 -1.052,0.085 0.008,0.091 -0.093,0.548 -0.229,0.582 -0.136,0.033 -0.877,0.206 -0.961,0.291 -0.083,0.084 -0.673,0.861 -0.959,0.794 -0.286,-0.068 -0.574,-0.271 -0.826,-0.085 -0.252,0.186 -0.86,0.455 -0.574,0.557 0.288,0.102 0.724,0.169 0.607,0.474 -0.119,0.303 -0.675,0.473 -0.607,0.658 0.067,0.187 0.051,0.341 0.345,0.526 0.294,0.187 0.54,0.085 0.69,-0.084 0.152,-0.17 0.084,-0.244 0.347,-0.254 0.261,-0.007 0.481,-0.007 0.54,-0.108 0.058,-0.102 0.1,-0.432 0.185,-0.263 0.085,0.169 -0.076,0.33 0.286,0.305 0.362,-0.025 0.65,0.219 0.885,0.244 0.237,0.025 0.347,-0.295 0.582,-0.11 0.235,0.187 0.396,0.516 0.741,0.524 0.345,0.008 0.54,-0.321 0.801,-0.051 0.26,0.271 0.876,1.122 0.843,1.427 -0.034,0.303 0.008,0.388 0.144,0.582 0.134,0.193 0.506,1.701 -0.067,2.359 -0.573,0.658 -0.659,0.372 -0.775,0.236 -0.118,-0.135 -0.927,-0.051 -1.044,0.068 -0.119,0.116 -0.279,0.636 -0.43,0.729 -0.152,0.093 -0.296,0.025 -0.373,0.194 -0.074,0.168 -0.074,0.767 -0.403,0.783 -0.33,0.018 -1.215,-0.261 -1.156,-0.091 0.059,0.167 0.328,0.573 0.498,0.557 0.167,-0.017 0.506,-0.127 0.716,0.017 0.21,0.144 0.152,0.388 0.288,0.523 0.134,0.135 0.218,0.127 0.218,0.287 0,0.159 0.093,1.055 0.32,1.012 0.227,-0.042 0.801,-0.361 0.65,-0.548 -0.152,-0.187 -0.607,-0.305 -0.59,-0.599 0.017,-0.297 0.051,-0.642 0.134,-0.727 0.084,-0.084 0.144,-0.455 0.288,-0.279 0.144,0.178 0.254,0.658 0.447,0.658 0.193,0 0.336,-0.167 0.565,-0.178 0.227,-0.007 0.515,0.475 0.548,0.136 0.034,-0.337 -0.135,-0.801 0.066,-0.928 0.202,-0.127 0.709,-0.236 0.784,-0.338 0.076,-0.102 0.186,-0.261 0.294,-0.152 0.112,0.109 -0.1,0.414 -0.201,0.499 -0.1,0.085 -0.532,0.159 -0.438,0.32 0.093,0.16 0.355,0.499 0.388,0.666 0.034,0.17 -0.042,0.271 0.118,0.271 0.161,0 0.892,0.16 1.027,0.025 0.135,-0.136 0.01,-0.33 0.288,-0.145 0.278,0.187 0.515,0.404 0.826,0.396 0.311,-0.009 1.524,-0.127 1.854,-0.235 0.328,-0.11 0.867,0.034 1.019,-0.067 0.152,-0.102 0.817,-0.608 0.809,-0.456 -0.008,0.151 -0.025,0.632 -0.11,0.701 -0.083,0.065 -0.455,-0.009 -0.472,0.192 -0.017,0.203 0.498,0.481 0.734,0.54 0.235,0.06 -0.355,0.094 -0.506,0.094 -0.152,0 -0.523,-0.034 -0.599,-0.119 -0.076,-0.083 -0.472,-0.312 -0.413,-0.167 0.06,0.144 -0.059,0.192 -0.161,0.192 -0.102,0 -0.648,0.161 -0.454,0.229 0.193,0.067 0.563,-0.076 0.867,0.118 0.305,0.195 0.633,0.616 0.463,0.625 -0.167,0.009 -0.724,-0.194 -0.815,-0.017 -0.093,0.178 -0.607,-0.195 -0.853,-0.051 -0.244,0.144 -0.403,0.194 -0.487,0.008 -0.084,-0.186 -0.472,-0.43 -0.675,-0.489 -0.201,-0.059 -0.354,-0.017 -0.496,-0.135 -0.144,-0.119 -0.842,-0.364 -0.842,-0.144 0,0.22 0.335,0.321 0.184,0.465 -0.15,0.143 -0.741,0.21 -0.902,0.185 -0.159,-0.023 -0.589,-0.201 -0.64,-0.413 -0.051,-0.212 -0.244,-0.296 -0.322,-0.161 -0.074,0.136 -0.69,0.405 -0.419,0.616 0.269,0.212 1.389,0.313 1.55,0.415 0.159,0.1 0.125,0.692 0.311,0.978 0.187,0.288 0.43,0.491 0.244,0.608 -0.184,0.118 -0.572,0.33 -0.371,0.532 0.203,0.202 0.616,-0.017 0.878,0.202 0.261,0.22 0.278,0.312 0.563,0.305 0.286,-0.009 0.345,-0.178 0.834,0.059 0.489,0.235 0.876,0.295 0.944,0.422 0.068,0.127 0.118,0.305 0.235,0.305 0.118,0 0.438,-0.17 0.557,-0.517 0.119,-0.345 0.388,-0.176 0.538,-0.379 0.152,-0.203 -0.024,-0.624 0.279,-0.692 0.303,-0.067 0.445,-0.135 0.523,-0.203 0.074,-0.067 0.337,-0.709 0.597,-0.624 0.262,0.084 0.784,-0.085 0.86,-0.11 0.076,-0.025 0.716,0.085 0.902,0.22 0.186,0.136 0.951,0.187 1.154,-0.067 0.203,-0.252 -0.203,-0.472 0.186,-0.489 0.386,-0.017 1.012,-0.025 1.146,-0.178 0.134,-0.152 0.506,-0.742 0.53,-0.887 0.027,-0.142 -0.084,-0.227 0.169,-0.464 0.254,-0.234 0.447,-0.312 0.355,-0.488 -0.095,-0.178 -0.481,-0.87 -0.355,-1.006 0.127,-0.135 0.11,-0.907 1.609,-0.924 1.501,-0.017 1.972,0.067 2.208,-0.067 0.237,-0.136 -0.169,-0.219 0.521,-0.201 0.692,0.017 3.574,0.201 3.659,0.017 0.085,-0.187 -0.91,-0.979 -0.843,-1.284 0.068,-0.304 0.254,-0.572 0.102,-0.725 -0.152,-0.153 -0.372,-0.051 -0.457,-0.187 -0.083,-0.135 -0.437,-0.488 -0.168,-0.423 0.27,0.067 1.383,0.237 1.366,0.559 -0.017,0.319 -0.102,0.421 0.136,0.675 0.235,0.253 0.876,0.456 0.976,0.304 0.102,-0.152 0.591,-1.47 0.979,-1.62 0.387,-0.152 1.213,-0.254 1.415,-0.474 0.203,-0.219 0.607,-1.08 0.574,-0.809 -0.034,0.269 -0.152,0.894 -0.438,1.164 -0.286,0.269 -1.078,0.201 -1.23,0.557 -0.152,0.356 -0.826,1.637 -0.489,1.924 0.337,0.288 1.635,0.424 1.686,0.642 0.051,0.22 1.264,0.508 0.961,0.542 -0.303,0.032 -1.213,0.15 -1.383,0.116 -0.167,-0.033 -0.708,-0.54 -1.095,-0.388 -0.388,0.152 -0.235,1.147 0.859,2.026 1.095,0.878 1.904,0.929 1.938,0.76 0.034,-0.17 -0.235,-0.321 0.102,-0.321 0.336,0 1.01,0 1.382,-0.117 0.371,-0.118 1.296,-0.136 1.65,0.286 0.355,0.421 0.389,1.181 0.692,0.929 0.303,-0.254 0.135,-0.271 0.455,-0.287 0.32,-0.018 1.449,-0.388 1.567,-0.119 0.119,0.271 -0.656,0.474 -0.573,0.642 0.084,0.169 0.826,0.237 0.523,0.321 -0.303,0.085 -1.449,-0.084 -1.786,0.304 -0.338,0.389 -0.423,0.811 -0.76,0.76 -0.337,-0.051 -1.18,-0.473 -1.247,-0.27 -0.068,0.201 -0.202,0.371 -0.371,0.219 -0.167,-0.152 -0.283,-0.3 -0.413,-0.258 -0.13,0.043 -0.447,-0.271 -0.511,-0.178 -0.062,0.094 -0.793,0.896 -0.954,0.963 -0.161,0.068 -0.657,-0.017 -0.572,0.178 0.083,0.193 0.596,1.237 0.344,1.658 -0.252,0.422 -0.337,0.54 -0.64,0.473 -0.303,-0.067 -0.758,0.017 -0.421,0.187 0.336,0.169 1.179,-0.136 1.686,0.319 0.506,0.457 1.482,1.048 1.702,0.743 0.218,-0.303 0.117,-0.337 0.538,-0.438 0.421,-0.101 0.928,0.354 1.046,0.303 0.117,-0.049 0.555,-0.116 0.186,-0.438 -0.372,-0.319 -0.675,-0.269 -0.118,-0.624 0.555,-0.354 1.196,-0.726 1.533,-0.438 0.337,0.286 1.18,0.995 1.432,0.76 0.254,-0.236 0.406,-0.726 0.709,-0.54 0.303,0.185 0.421,0.422 0.657,0.235 0.237,-0.186 0.169,-0.271 0.404,-0.152 0.237,0.119 0.69,0.339 0.625,0.085 -0.068,-0.252 -0.54,-0.422 -0.54,-0.845 0,-0.421 1.163,-1.282 1.872,-1.467 0.707,-0.187 0.404,-0.508 0.69,-0.305 0.286,0.203 0.252,0.136 0.589,-0.017 0.338,-0.152 0.91,-0.337 1.249,-0.271 0.336,0.068 0.859,-0.724 0.875,-0.624 0.017,0.102 0.152,0.963 0.034,1.03 -0.117,0.068 -0.371,0.235 -0.134,0.523 0.235,0.287 0.69,1.081 0.911,0.878 0.218,-0.203 0.269,-0.288 0.402,-0.203 0.136,0.085 0.811,0.738 0.642,0.653 -0.167,-0.085 -0.817,-0.277 -0.876,-0.15 -0.058,0.125 0.034,0.051 0.371,0.843 0.338,0.793 0.673,1.338 0.792,1.946 0.118,0.607 0.254,0.912 0.404,1.064 0.152,0.152 0.354,0.303 0.489,0.658 0.135,0.354 0.303,0.859 0.641,0.726 0.337,-0.136 0.303,-0.22 0.504,-0.118 0.203,0.102 -0.034,0.286 0.305,0.102 0.337,-0.187 0.32,-0.355 0.572,-0.237 0.254,0.118 0.523,0.232 0.616,0.24 0.093,0.009 0.438,-0.178 0.338,0.025 -0.102,0.203 -0.43,0.246 -0.229,0.54 0.202,0.296 0.741,0.802 1.307,1.258 0.563,0.457 0.792,1.697 1.18,1.857 0.387,0.159 2.511,0.193 3.176,0.32 0.667,0.127 2.696,0.587 3.32,0.333 0.623,-0.252 0.995,-0.472 1.248,-0.438 0.252,0.034 0.285,0.221 0.589,0.034 0.305,-0.187 0.691,-0.726 0.91,-0.607 0.22,0.117 0.339,0.455 0.557,0.235 0.219,-0.219 0.64,-0.134 0.725,-0.134 0.084,0 0.135,0.421 0.404,0.218 0.269,-0.202 0.522,-0.506 0.522,-0.76 0,-0.252 0.506,-1.483 0.17,-1.467 -0.339,0.017 -1.097,0 -0.811,-0.187 0.287,-0.186 0.387,-0.186 0.406,-0.355 0.015,-0.167 0,-0.234 0.1,-0.354 0.102,-0.118 0.455,0.051 0.338,-0.186 -0.118,-0.237 -0.793,-0.995 -0.388,-0.743 0.403,0.254 0.641,0.169 0.725,0.355 0.083,0.186 0.016,0.421 0.252,0.269 0.235,-0.15 0.438,-0.91 0.995,-1.079 0.556,-0.17 0.606,-0.152 0.86,-0.305 0.252,-0.15 1.33,-1.164 1.751,-1.3 0.422,-0.134 0.81,-0.455 0.91,-0.675 0.102,-0.219 0.119,-0.574 0.32,-0.777 0.203,-0.201 0.102,-0.438 0.034,-0.591 -0.068,-0.15 0.236,-0.388 0.084,-0.607 -0.152,-0.219 -0.235,-0.438 -0.169,-0.607 0.067,-0.169 0.067,-0.607 0.237,-0.675 0.167,-0.068 0.252,-0.102 0.186,0.135 -0.067,0.235 0.219,0.727 0.286,0.861 0.066,0.134 0.102,0.371 -0.051,0.54 -0.152,0.168 0.354,0.811 0.252,0.929 -0.1,0.117 -0.421,0.405 -0.269,0.623 0.15,0.221 1.213,0.119 1.448,0.237 0.237,0.118 0.438,0.49 0.676,0.321 0.234,-0.169 0.387,-0.457 0.673,-0.573 0.288,-0.119 0.928,-0.085 1.147,-0.254 0.219,-0.17 1.803,-1.334 2.561,-1.486 0.76,-0.152 1.315,0.034 1.434,-0.236 0.118,-0.27 0.337,-0.708 0.792,-1.013 0.455,-0.303 0.573,-0.438 0.573,-0.675 0,-0.237 -0.406,-0.743 -0.152,-0.777 0.253,-0.033 0.507,0.254 0.69,0.102 0.133,-0.107 0.357,-0.316 0.494,-0.526 l 0.163,0.19 c 0.025,-0.065 0.009,-0.121 -0.032,-0.185 l -0.31,-1.758 c 0.036,-0.11 0.021,-0.184 -0.04,-0.225 l -0.039,-0.226 c 0.329,-0.081 0.464,-0.257 0.317,-0.371 -0.209,-0.087 -0.398,-0.162 -0.433,-0.281 l -0.001,-0.005 c 0.188,-0.372 0.137,-0.613 -0.129,-0.734 l -0.028,-0.158 c 0.165,0.099 0.239,0.016 0.219,-0.265 -0.049,-0.124 -0.15,-0.253 -0.302,-0.376 l -0.079,-0.425 0.016,-0.154 c 0,0 -0.039,-0.033 -0.081,-0.075 l -0.049,-0.271 c 0.126,-0.085 0.352,-0.176 0.352,-0.176 l 0.061,-0.322 c 0.303,-0.485 0.263,-0.79 -0.113,-0.901 l -0.235,-0.473 c 0.146,-0.167 0.191,-0.333 0.137,-0.497 l 0.068,-0.198 0.12,-0.476 -0.303,-0.382 0.188,-0.341 c 0.185,-0.008 0.301,-0.04 0.365,-0.093 0.03,-0.099 0.009,-0.217 -0.062,-0.364 l 0.005,-0.229 0.327,-0.076 10e-4,-0.069 0.002,-0.07 c -0.137,0.009 -0.187,-0.062 -0.188,-0.174 0.05,-0.142 0.065,-0.354 0.154,-0.343 0.097,0.009 0.235,-0.185 0.235,-0.185 0,0 0.2,0.159 0.27,0.022 0.069,-0.139 0.1,-0.215 0.242,-0.256 0.146,-0.037 0.204,-0.088 0.204,-0.088 0,0 0.143,-0.411 0.265,-0.452 0.264,-0.076 0.396,0.298 0.396,0.298 0.021,0.037 0.235,0.117 0.224,-0.147 -0.01,-0.257 -0.2,-0.324 -0.2,-0.324 0,0 0.232,-0.12 0.374,-0.119 0.143,0 0.307,-0.14 0.432,-0.081 0.124,0.066 0.24,0.094 0.24,0.094 l 0.177,0.102 0.406,0.01 0.02,-0.125 c 0,0 0.214,0.04 0.268,-0.097 0.058,-0.139 0.268,-0.665 0.268,-0.665 l 0.18,-0.31 c 0,0 0.096,-0.088 0.134,0.005 0.028,0.09 0.047,0.169 0.047,0.169 l 0.201,-0.049 0.03,0.134 0.18,-0.044 0.027,-0.173 c 0,0 0.144,-0.088 0.236,-0.035 0.092,0.052 0.152,-0.012 0.173,-0.062 0.019,-0.055 0.256,-0.307 0.256,-0.307 l 0.369,-0.048 0.111,-0.049 0.152,0.046 c 0,0 0.143,-0.132 0.137,-0.182 -0.005,-0.045 -0.188,-0.128 -0.188,-0.128 l 0.144,-0.134 c 0,0 -0.079,-0.162 -0.056,-0.277 0.027,-0.178 -0.118,-0.286 -0.118,-0.286 l -0.027,-0.152 -0.225,-0.071 -0.3,-0.399 v -0.192 c -0.06,-0.101 -0.092,-0.193 -0.086,-0.276 l 0.16,-0.046 c 0,0 -0.086,-0.111 -0.051,-0.169 0.03,-0.06 -0.027,-0.229 -0.027,-0.229 0,0 0.024,-0.213 -0.079,-0.268 -0.098,-0.052 -0.132,-0.178 -0.132,-0.178 -0.083,-0.079 -0.182,-0.079 -0.302,-0.003 l -0.103,-0.086 -0.132,0.12 -0.337,-0.283 c 0,0 0.02,-0.161 0.146,-0.161 0.125,0 0.171,-0.067 0.148,-0.146 -0.023,-0.085 -0.081,-0.18 -0.093,-0.272 -0.011,-0.09 -0.023,-0.203 -0.023,-0.203 0,0 0,-0.194 0.079,-0.22 0.083,-0.022 0.113,-0.297 0.113,-0.297 0,0 0.198,-0.054 0.244,-0.141 0.103,-0.171 0.289,-0.209 0.289,-0.209 -0.085,-0.129 -0.152,-0.221 -0.217,-0.271 l -0.199,0.002 c -0.043,-0.136 -0.099,-0.231 -0.176,-0.296 0,0 -0.068,-0.205 0.063,-0.249 0.136,-0.049 0.185,-0.074 0.229,-0.155 0.048,-0.083 0.161,-0.281 0.161,-0.281 l -0.032,-0.105 c 0.09,-0.075 0.212,-0.106 0.355,-0.095 0.111,0.094 0.078,0.496 0.078,0.496 l 0.206,-0.012 c 0,0 0.268,-0.072 0.397,-0.017 0.129,0.054 0.196,10e-4 0.196,10e-4 0,0 0.09,0.101 0.058,0.152 -0.025,0.055 0.016,0.189 0.016,0.189 l -0.106,0.329 -0.007,0.188 c 0,0 0.197,0.086 0.252,0.083 0.049,-0.005 0.166,0.081 0.166,0.081 l 0.261,-0.003 0.463,-0.101 -0.003,-0.148 c 0,0 0.144,-0.11 0.125,-0.274 -0.019,-0.162 -0.014,-0.247 0.029,-0.312 0.044,-0.064 0.076,-0.092 0.076,-0.092 l 0.15,0.046 0.205,-0.071 0.151,-0.111 0.32,-0.068 0.349,-0.116 0.037,-0.041 0.06,0.144 -0.078,0.188 c 0,0 0.035,0.118 0.117,0.134 0.077,0.015 0.225,0.22 0.225,0.22 0,0 0.092,-0.078 0.217,-0.039 0.123,0.037 0.261,0.067 0.242,0.222 -0.012,0.104 0.047,0.283 0.047,0.283 0,0 0.102,0.211 0.06,0.354 -0.042,0.146 -0.042,0.432 -0.042,0.432 l -0.102,0.265 0.412,-0.046 0.138,0.178 -0.014,0.132 0.122,-0.023 0.123,0.157 c 0.129,-0.002 0.233,-0.227 0.611,-0.146 0.34,0.072 0.462,0.132 0.462,0.132 l 0.11,-0.01 0.209,0.049 0.034,-0.104 0.113,0.042 0.474,-0.9 0.159,-0.092 0.221,-0.335 0.104,0.073 0.106,-0.131 c 0,0 0.29,-0.007 0.397,0.071 0.115,0.074 0.196,0.088 0.196,0.088 0,0 0.18,0.193 0.281,0.134 0.102,-0.064 0.143,-0.199 0.143,-0.199 0,0 -0.09,-0.221 -0.039,-0.234 0.051,-0.01 0.225,0.285 0.225,0.285 0,0 0.259,-0.022 0.283,-0.246 0.023,-0.218 -0.146,-0.368 -0.146,-0.368 l -0.147,-0.141 -0.344,-0.235 -0.085,-0.229 c 0.131,-0.029 0.235,-0.092 0.313,-0.194 0,0 -0.042,-0.138 -0.028,-0.219 0.015,-0.083 -0.055,-0.208 -0.068,-0.345 -0.014,-0.133 -0.03,-0.329 -0.03,-0.329 0,0 0.046,-0.172 0.152,-0.241 0.111,-0.068 0.326,-0.221 0.435,-0.209 0.11,0.013 0.203,0.099 0.203,0.099 l 0.242,0.088 c 0,0 0.157,0.092 0.238,0.092 0.082,-0.002 0.253,-0.071 0.253,-0.071 0.113,0.13 0.225,0.183 0.33,0.16 0.044,0.063 0.081,0.175 0.103,0.332 l -0.169,0.21 -0.391,0.108 c 0,0 -0.183,-0.004 -0.205,0.25 -0.023,0.254 -0.025,0.274 -0.076,0.373 -0.046,0.096 -0.206,0.335 -0.225,0.48 l 0.328,0.22 0.04,0.134 0.124,-0.017 c 0,0 0.071,-0.076 0.051,-0.159 -0.02,-0.083 0.16,-0.207 0.16,-0.207 0,0 0.062,-0.197 0.156,-0.206 0.09,-0.007 0.136,-0.21 0.391,-0.161 0.254,0.046 0.411,0.092 0.411,0.092 l 0.006,0.059 c 0,0 0.304,0.05 0.497,0.029 0.231,-0.023 0.445,-0.198 0.586,-0.147 l 0.01,0.205 0.303,0.113 -0.003,0.183 0.331,-0.005 c 0,0 0.064,-0.081 0.034,-0.173 -0.058,-0.162 0.134,-0.148 0.134,-0.148 0,0 0.171,0 0.15,-0.073 -0.019,-0.072 0.193,-0.169 0.193,-0.169 l -0.062,-0.062 c 0,0 0.188,-0.169 0.284,-0.199 0.097,-0.03 0.493,-0.44 0.493,-0.44 l 0.07,0.171 0.336,-0.455 0.666,-0.023 0.265,-0.047 c 0,0 -0.025,0.113 0.064,0.107 0.089,-0.003 0.098,0.147 0.098,0.147 0.019,0.066 0.149,-0.042 0.256,0.002 0.106,0.04 0.222,0.097 0.222,0.097 l 0.144,-0.279 0.09,0.064 0.308,-0.489 0.43,0.351 c 0.198,0.192 0.464,0.397 0.803,0.617 l 0.159,0.313 0.15,0.021 -0.046,0.149 0.709,0.412 0.193,-0.146 -0.019,-0.58 c 0,0 0.019,-0.122 0.109,-0.217 0.092,-0.098 0.247,-0.185 0.101,-0.247 -0.145,-0.062 -0.145,-0.097 -0.105,-0.185 0.037,-0.084 0.053,-0.186 -0.03,-0.269 -0.086,-0.085 -0.09,-0.2 -0.09,-0.2 0,0 -0.174,0.036 -0.37,-0.114 -0.189,-0.147 -0.291,-0.263 -0.291,-0.263 l -0.198,-0.062 c 0,0 0.076,-0.256 0.034,-0.396 -0.045,-0.141 -0.09,-0.25 -0.09,-0.25 l -0.198,0.039 -0.083,-0.221 0.168,-0.19 0.1,0.019 0.229,-0.041 0.058,0.155 c 0,0 0.107,-0.081 0.145,-0.186 0.04,-0.105 0.128,-0.21 0.128,-0.21 0.12,0.15 0.268,0.259 0.443,0.326 0.17,-0.243 0.298,-0.45 0.383,-0.626 0,0 0.062,0.355 0.157,0.342 0.097,-0.017 0.044,-0.247 0.044,-0.247 l 0.095,-0.146 c 0,0 0.071,-0.377 0.163,-0.472 0.095,-0.097 0.235,-0.229 0.235,-0.229 l 0.127,0.061 c 0.038,-0.127 0.04,-0.225 0.003,-0.306 l 0.533,-0.241 0.13,-0.091 0.056,0.148 0.191,0.198 0.151,0.36 0.16,0.08 c 0.032,0.116 0.157,0.196 0.372,0.245 l 0.251,-0.411 0.051,0.543 -0.002,0.351 -0.074,0.381 c 0.09,0.084 0.261,0.194 0.522,0.328 -0.047,-0.176 0.099,-0.33 0.099,-0.33 l 0.277,0.035 -0.044,0.385 -0.108,0.235 c 0.093,0.157 0.196,0.267 0.312,0.323 l 0.166,-0.053 0.042,0.115 -0.06,0.019 -0.074,0.312 c 0,0 -0.125,0.156 0.017,0.272 0.117,0.095 0.339,0.102 0.339,0.102 l 0.224,0.058 c 0.09,-0.014 0.171,-0.005 0.242,0.021 l 0.056,0.266 0.176,-0.054 c 0,0 0.01,-0.104 0.06,-0.134 0.045,-0.03 0.296,0.007 0.296,0.007 l 0.044,-0.066 0.23,-0.069 0.127,0.051 0.216,-0.136 0.013,0.136 c 0.139,0.029 0.186,0.156 0.146,0.376 l -0.161,0.109 -0.086,-0.044 -0.313,0.329 -0.106,0.262 0.028,0.22 c -0.056,0.089 -0.409,0.313 -0.409,0.313 -0.144,0.296 -0.369,0.318 -0.369,0.318 l -0.053,0.183 0.021,0.188 0.176,0.149 c 0.408,0.198 0.69,0.391 0.843,0.578 l -0.031,0.073 0.329,0.237 0.114,0.279 0.298,0.321 0.412,-0.401 0.193,-0.345 -0.157,-0.105 -0.106,-0.208 c 0.218,0.044 0.404,0.118 0.555,0.219 0,0 0.117,-0.094 0.298,-0.136 0.31,-0.08 0.672,-0.257 0.672,-0.257 l -0.254,-0.505 0.397,-0.23 0.252,0.089 0.274,0.114 0.127,-0.218 0.036,-0.447 0.298,-0.793 0.102,-0.598 c -0.002,-0.136 0.037,-0.3 0.118,-0.496 0.01,-0.181 0.051,-0.328 0.109,-0.437 l 0.092,-0.443 -0.191,-0.358 0.078,-0.044 -0.055,-0.082 0.046,-0.056 0.176,-0.058 c 0.05,-0.025 0.076,-0.064 0.08,-0.123 -0.007,-0.152 -0.035,-0.239 -0.092,-0.258 0.107,-0.089 0.177,-0.189 0.207,-0.292 l 0.064,0.003 0.025,-0.178 -0.064,-0.005 c -0.058,-0.069 -0.06,-0.117 0.008,-0.147 l 0.196,0.049 0.046,-0.352 0.019,-0.044 c 0.106,0.009 0.171,0.062 0.191,0.157 l 0.1,0.078 0.029,-0.053 c 0.152,0.022 0.282,0.007 0.402,-0.044 v 0.061 l 0.2,-0.013 c 0.015,-0.073 -0.046,-0.145 -0.046,-0.145 0.021,-0.147 0.009,-0.275 -0.027,-0.375 l -0.152,-0.242 0.12,-0.115 0.164,0.028 0.461,-0.137 c 0.123,-0.03 0.257,-0.009 0.411,0.074 l 0.127,0.182 0.164,0.076 0.129,0.275 0.377,0.381 0.095,0.166 0.256,-0.117 0.084,-0.181 0.09,0.03 0.383,-0.102 -0.055,-0.189 -0.176,-0.279 -0.142,-0.064 c 0,0 0.005,-0.157 -0.055,-0.259 -0.079,-0.046 -0.492,0.085 -0.603,0.041 -0.039,-0.115 0.083,-0.286 0.083,-0.286 l 0.132,-0.254 0.06,0.033 0.395,-0.292 0.017,-0.076 0.157,-0.099 0.032,0.081 0.222,-0.051 c 0.08,0.057 0.154,0.071 0.212,0.041 l -0.041,-0.313 0.244,-0.16 -0.009,-0.291 -0.064,-0.115 0.173,-0.274 c 0.032,-0.027 0.086,-0.032 0.154,-0.021 l -0.027,-0.178 0.054,-0.272 h 0.009 l -0.021,-0.187 c 0.059,-0.18 0.155,-0.333 0.28,-0.467 l 0.134,0.021 c -0.032,-0.122 0.147,-0.442 0.147,-0.442 l 0.127,0.032 0.213,-0.086 0.601,-0.021 0.011,-0.193 0.211,0.016 c 0.09,-0.066 0.205,-0.078 0.342,-0.032 l 0.267,-0.12 c -0.029,-0.316 -0.105,-0.601 -0.228,-0.85 -0.16,-0.028 -0.312,-0.141 -0.464,-0.344 -0.037,-0.108 0.097,-0.223 0.097,-0.223 l -0.162,-0.05 -0.053,-0.223 -0.141,-0.251 c 0.202,-0.056 0.532,0.154 0.532,0.154 l 0.02,-0.271 0.208,-0.145 0.126,-0.152 c 0.13,-0.084 0.273,-0.098 0.433,-0.039 l 0.136,-0.038 c 0.06,-0.082 0.088,-0.158 0.09,-0.228 l 0.471,-0.469 -0.265,-1.215 -0.269,-0.137 0.375,-0.752 0.101,-0.008 0.243,-0.422 c -0.035,-0.113 -0.64,-0.242 -0.64,-0.242 l -0.45,-0.081 -0.612,-0.312 c 0.111,-0.512 0.472,-0.544 0.472,-0.544 -0.02,-0.044 0.076,-0.109 0.291,-0.196 l 0.185,-0.152 c 0.178,0.006 0.274,-0.033 0.298,-0.111 0.12,-0.086 0.362,-0.039 0.362,-0.039 l 0.396,-0.198 0.171,0.11 0.172,-0.167 0.087,-0.034 0.152,0.007 0.104,-0.076 0.004,-0.217 0.106,-0.044 -0.937,-1.688 0.373,0.017 0.051,0.148 c 0.257,0.051 0.533,-0.13 0.533,-0.13 l 0.062,-0.136 0.358,-0.097 c 0.067,-0.003 0.11,0.027 0.131,0.09 0.125,-0.014 0.231,-0.076 0.324,-0.181 l 0.048,-0.226 c 0.069,-0.106 0.109,-0.204 0.122,-0.287 0.153,-0.23 0.285,-0.328 0.391,-0.302 0.051,-0.132 0.176,-0.21 0.381,-0.233 0.086,-0.081 0.178,-0.12 0.261,-0.123 0.086,-0.03 0.128,-0.105 0.123,-0.227 0.051,-0.105 0.115,-0.172 0.194,-0.198 0.036,-0.076 0.129,-0.112 0.129,-0.112 0.157,0.018 0.302,0.078 0.427,0.191 0.008,0.12 0.059,0.195 0.157,0.217 0.035,0.046 0.054,0.099 0.062,0.159 l 0.2,0.115 c 0,0 0.098,0.035 0.12,0.005 0.021,-0.027 -0.009,-0.095 -0.009,-0.095 0.046,-0.143 0.198,-0.312 0.198,-0.312 l 0.272,-0.062 0.077,-0.156 c 0.057,-0.054 0.087,-0.114 0.099,-0.172 l -0.053,-0.18 c -0.021,-0.054 -0.074,-0.097 -0.167,-0.134 0,0 -0.166,0.124 -0.224,0.012 -0.042,-0.088 0.141,-0.312 0.141,-0.312 0,0 0.268,-0.202 0.28,-0.242 0.018,-0.037 -0.013,-0.104 0.097,-0.152 0.007,-0.004 0.349,-0.208 0.349,-0.208 0,0 0.24,-0.1 0.288,-0.18 0.047,-0.072 0.098,-0.157 0.098,-0.157 0.041,-0.027 0.303,-0.019 0.303,-0.019 l 0.188,-0.09 0.123,0.055 0.24,-0.075 c -0.012,-0.061 0.024,-0.118 0.105,-0.162 0,0 0.032,-0.113 0.152,-0.088 0.12,0.026 0.169,0.044 0.233,0.017 0.061,-0.025 0.171,-0.037 0.23,0.032 0.056,0.066 0.059,0.127 0.059,0.127 l 0.068,0.025 -0.002,0.13 0.046,-0.013 0.008,0.1 0.222,0.017 0.606,0.207 0.077,-0.027 0.062,0.144 h 0.068 l 0.025,-0.108 c 0.056,0.021 0.109,0.064 0.157,0.136 l 0.009,0.054 0.058,-0.056 0.113,-0.235 0.061,-0.056 0.106,-0.18 0.102,0.051 0.036,-0.098 0.07,0.017 0.004,-0.252 c -0.087,-0.062 -0.112,-0.147 -0.073,-0.247 l -0.128,-0.078 0.028,-0.039 c -0.115,-0.059 -0.217,-0.089 -0.312,-0.095 v -0.109 c 0,0 0.102,-0.034 0.09,-0.09 -0.019,-0.056 -0.032,-0.097 -0.032,-0.097 0.046,-0.104 0.233,-0.03 0.233,-0.03 l 0.102,-0.029 c 0,0 0.102,-0.067 0.087,-0.146 -0.018,-0.1 0.047,-0.125 0.047,-0.125 0.076,-0.134 -0.106,-0.13 -0.081,-0.274 0.044,-0.017 0.074,-0.106 0.074,-0.106 -0.051,-0.086 -0.019,-0.28 -0.019,-0.28 l -0.072,-0.101 c 0.021,-0.061 0.072,-0.104 0.159,-0.127 0.026,-0.063 0.072,-0.098 0.14,-0.113 l 0.006,-0.104 0.035,-0.069 c 0,0 -0.021,-0.193 0.071,-0.215 0.12,-0.025 0.135,-0.064 0.135,-0.064 0.064,-0.027 0.068,0.051 0.068,0.051 0.064,-0.017 0.086,0.014 0.072,0.095 l 0.185,0.086 0.129,0.104 0.069,-0.035 0.046,0.086 0.127,-0.049 0.013,0.062 c 0.032,0.017 0.11,0.012 0.23,-0.009 0.071,0.007 0.129,0.042 0.183,0.099 0,0 0.106,0.01 0.131,0.025 0.023,0.015 0.056,0.039 0.056,0.039 l 0.081,-0.024 c 0,0 0.12,0.06 0.134,-0.021 0.017,-0.086 0.118,-0.102 0.118,-0.102 0,0 0.099,0.06 0.164,0.024 0.027,-0.016 0.092,0.007 0.092,0.007 l 0.199,0.121 0.156,0.06 0.171,-0.091 0.229,-0.09 0.078,0.104 c 0.067,0.023 0.13,0.064 0.184,0.131 l 0.151,-0.046 c 0.017,0.086 0.049,0.147 0.091,0.186 0.024,-0.056 0.085,-0.095 0.185,-0.123 0.023,-0.062 0.067,-0.1 0.124,-0.111 0,0 -0.046,-0.096 0.013,-0.119 0.063,-0.028 0.082,0.011 0.082,0.011 l 0.077,-0.044 h 0.082 l -0.007,-0.048 c 0.083,-0.066 0.165,-0.11 0.255,-0.127 l 0.073,-0.062 0.135,-0.005 0.21,-0.03 c 0.021,-0.036 0.039,-0.062 0.062,-0.094 0.037,-0.037 0.079,-0.077 0.146,-0.134 l 0.021,-0.044 -0.012,-0.065 0.169,-0.156 c 0.085,-0.095 0.104,-0.174 0.055,-0.229 l 0.122,-0.043 0.045,-0.113 -0.054,-0.003 -0.071,-0.227 0.258,0.017 0.118,-0.227 0.079,-0.105 0.053,0.032 0.06,-0.09 -0.076,-0.005 0.135,-0.249 0.112,-0.03 0.003,-0.148 0.348,-0.327 0.038,0.012 0.071,-0.052 0.24,-0.073 0.046,-0.123 c 0.104,-0.076 0.238,0.082 0.238,0.082 l 0.105,-0.059 0.064,-0.062 0.008,-0.077 c 0.019,-0.025 0.071,-0.041 0.152,-0.048 -0.021,-0.047 -0.005,-0.074 0.053,-0.09 l 0.104,-0.062 c 0,0 0.071,-0.01 0.082,-0.04 0.013,-0.029 0.084,-0.133 0.084,-0.133 0.051,-0.038 0.122,-0.072 0.215,-0.091 0.069,-0.046 0.117,-0.095 0.143,-0.155 0.028,-0.029 0.065,-0.045 0.108,-0.038 0,0 0.338,0.073 0.414,0.024 0.075,-0.051 0.126,-0.203 0.126,-0.203 0,0 -0.041,-0.053 -0.041,-0.097 0.003,-0.048 0.093,-0.062 0.147,-0.058 0.021,0.002 0.047,0.078 0.044,0.125 -0.011,0.049 -0.037,0.176 -0.037,0.176 0,0 0.015,0.095 0.072,0.117 0.056,0.023 0.212,0.032 0.212,0.032 l 0.035,-0.023 0.115,0.014 0.092,-0.108 -0.009,-0.031 0.027,-0.054 0.005,-0.132 0.054,-0.051 0.126,-0.029 0.153,0.037 0.08,0.041 0.088,-0.023 0.027,-0.069 c -0.031,-0.087 -0.075,-0.134 -0.129,-0.143 l -0.102,-0.083 -0.041,-0.01 -0.003,-0.056 0.125,-0.278 -0.066,-0.266 c 0.038,-0.059 0.102,-0.111 0.198,-0.153 0.009,-0.034 0.037,-0.076 0.094,-0.139 0.025,-0.068 0.028,-0.143 0.012,-0.221 -0.029,-0.033 -0.048,-0.077 -0.05,-0.134 l 0.064,-0.12 0.048,0.055 c 0.047,-0.042 0.061,-0.105 0.047,-0.182 0.007,-0.031 0.044,-0.056 0.11,-0.081 l 0.213,-0.118 0.08,-0.169 0.021,-0.187 c 0.015,-0.019 0.063,-0.037 0.135,-0.053 -0.005,-0.028 0.022,-0.04 0.087,-0.025 l 0.047,-0.04 0.017,0.028 0.205,0.154 0.118,0.01 c 0,0 0.161,0.007 0.254,-0.096 0.014,-0.115 0.085,-0.185 0.221,-0.202 l 0.186,0.007 -0.025,-0.147 0.291,-0.093 c 0.328,-0.051 0.427,0.046 0.427,0.046 l 0.016,-0.271 0.485,0.213 0.462,0.129 c 0.127,0.039 0.164,-0.066 0.164,-0.066 0.271,0.041 0.406,-0.083 0.406,-0.083 l 0.229,-0.188 0.545,-0.224 0.326,-0.108 0.205,0.018 0.342,-0.288 0.164,-0.071 0.064,-0.115 0.019,-0.208 0.271,-0.021 0.359,-0.042 c 0.34,0.156 0.585,0.215 0.741,0.171 l 0.1,0.125 0.196,0.087 0.178,0.273 c 0.134,-0.01 0.402,0.38 0.402,0.38 l 0.217,-0.146 c 0.413,-0.156 0.812,-0.565 1.063,-0.628 0.179,0.003 0.319,-0.06 0.319,-0.06 l 0.415,0.751 0.067,-0.008 0.321,-0.403 1.154,0.413 0.019,-0.104 0.667,-0.673 0.428,-0.256 0.349,0.247 0.146,-0.051 c 0.17,-0.213 0.316,-0.249 0.535,-0.198 l 0.102,-0.044 0.039,-0.196 h 0.153 l 0.523,0.318 0.235,0.166 0.049,0.243 1.521,-0.208 0.836,-0.88 c 0.032,-0.249 -0.06,-0.416 -0.06,-0.416 -0.113,-0.042 -0.115,-0.259 -0.115,-0.259 l 0.006,-0.284 c 0.019,-0.237 -0.071,-0.62 -0.071,-0.62 l 0.148,-0.095 c 0.022,-0.211 0.209,-0.296 0.209,-0.296 l 0.063,-0.12 0.146,-0.076 c 0,0 -0.008,-0.09 0.068,-0.074 0.074,0.014 0.272,0.129 0.272,0.129 l 0.248,-0.013 c 0,0 0.21,0.097 0.249,-0.026 0.073,-0.242 0.309,-0.312 0.309,-0.312 l 0.229,0.081 0.154,-0.067 0.365,-0.376 0.42,-0.09 c 0.074,-0.027 0.154,0.124 0.154,0.124 0,0 0.589,-0.068 0.636,-0.127 0.012,0.093 0.484,0.189 0.484,0.189 l 0.249,-0.178 0.07,-0.203 c 0.133,-0.132 0.232,-0.208 0.309,-0.23 l 0.604,-0.596 c 0.241,-0.032 0.508,-0.233 0.508,-0.233 l 0.133,-0.166 0.597,-0.298 -0.818,-0.538 0.19,-0.399 0.258,-0.179 -0.23,-0.058 0.27,-0.309 0.107,-0.413 0.034,-0.125 0.134,0.092 c -0.352,-0.741 -0.757,-1.694 -0.843,-1.78 -0.136,-0.136 -0.522,-0.018 -0.758,-0.305 -0.237,-0.286 -0.438,-0.725 -1.366,-0.759 -0.927,-0.033 -0.944,-0.203 -1.332,-0.186 -0.387,0.017 -1.363,0.337 -1.635,0.54 -0.269,0.203 -0.252,-0.203 0.051,-0.438 0.305,-0.237 0.54,-0.474 0.54,-0.709 0,-0.237 -0.067,-0.491 0.083,-0.607 0.152,-0.119 0.961,-0.053 1.198,-0.339 0.235,-0.286 0.034,-0.54 0.303,-0.896 0.27,-0.354 1.95,-3.053 3.161,-4.163 1.212,-1.11 1.784,-1.345 1.817,-1.513 0.034,-0.169 0,-0.102 0.808,-0.875 0.808,-0.773 1.076,-1.144 1.413,-1.076 0.335,0.066 0.84,0.235 0.975,-0.067 0.129,-0.314 -0.242,-1.525 -0.04,-1.86 z m -101.8,58.254 c 0.214,0.164 0.346,0.371 0.395,0.62 -0.05,-0.248 -0.395,-0.62 -0.395,-0.62 z"
           id="path93" />
      </g>
    </g>
  </g>
</svg>
