<?xml version="1.0" encoding="UTF-8" standalone="no"?>
<!-- Created with Inkscape (http://www.inkscape.org/) -->

<svg
   xmlns:dc="http://purl.org/dc/elements/1.1/"
   xmlns:cc="http://creativecommons.org/ns#"
   xmlns:rdf="http://www.w3.org/1999/02/22-rdf-syntax-ns#"
   xmlns:svg="http://www.w3.org/2000/svg"
   xmlns="http://www.w3.org/2000/svg"
   xmlns:sodipodi="http://sodipodi.sourceforge.net/DTD/sodipodi-0.dtd"
   xmlns:inkscape="http://www.inkscape.org/namespaces/inkscape"
   width="115.43145"
   height="129.65802"
   id="svg3557"
   version="1.1"
   inkscape:version="0.48.1 r9760"
   sodipodi:docname="New document 6">
  <defs
     id="defs3559" />
  <sodipodi:namedview
     id="base"
     pagecolor="#ffffff"
     bordercolor="#666666"
     borderopacity="1.0"
     inkscape:pageopacity="0.0"
     inkscape:pageshadow="2"
     inkscape:zoom="0.35"
     inkscape:cx="-147.28428"
     inkscape:cy="79.114723"
     inkscape:document-units="px"
     inkscape:current-layer="layer1"
     showgrid="false"
     fit-margin-top="0"
     fit-margin-left="0"
     fit-margin-right="0"
     fit-margin-bottom="0"
     inkscape:window-width="433"
     inkscape:window-height="421"
     inkscape:window-x="50"
     inkscape:window-y="24"
     inkscape:window-maximized="0" />
  <metadata
     id="metadata3562">
    <rdf:RDF>
      <cc:Work
         rdf:about="">
        <dc:format>image/svg+xml</dc:format>
        <dc:type
           rdf:resource="http://purl.org/dc/dcmitype/StillImage" />
        <dc:title></dc:title>
      </cc:Work>
    </rdf:RDF>
  </metadata>
  <g
     inkscape:label="Layer 1"
     inkscape:groupmode="layer"
     id="layer1"
     transform="translate(-522.28428,-481.81889)">
    <g
       transform="translate(287.43273,163.75289)"
       id="Northern_x5F_England">
      <path
         style="fill:#23af52"
         inkscape:connector-curvature="0"
         d="m 283.948,318.284 -0.573,0.479 c 0,0 -0.104,0.005 -0.175,0 -0.284,-0.02 -0.245,0.208 -0.245,0.208 l -0.157,0.073 c 0,0 -0.011,0.147 -0.276,0.178 -0.264,0.03 -0.159,0.474 -0.159,0.474 l 0.066,0.039 -0.044,0.499 0.027,0.587 -0.154,-0.014 c 0,0 -0.256,0.005 -0.378,0.097 -0.123,0.091 -0.045,0.321 -0.017,0.487 0.032,0.168 -0.054,0.154 -0.196,0.134 -0.144,-0.019 -0.155,0.164 -0.155,0.164 0,0 0.072,0.286 -0.06,0.374 -0.134,0.086 -0.264,-0.037 -0.264,-0.037 0,0 -0.2,-0.149 -0.447,-0.032 -0.247,0.12 -0.16,0.328 -0.16,0.328 0,0 0.075,0.295 -0.007,0.448 -0.085,0.152 -0.344,0.058 -0.344,0.058 0,0 -0.307,-0.007 -0.41,0.176 -0.102,0.184 0.097,0.447 0.097,0.447 0,0 0.18,0.129 0.164,0.222 -0.015,0.09 -0.07,0.125 -0.312,0.146 -0.242,0.021 -0.303,0.36 -0.303,0.36 l -0.092,-0.017 c 0,0 -0.062,0.137 -0.099,0.254 -0.035,0.116 -0.127,0.233 -0.264,0.289 -0.139,0.058 -0.148,0.279 -0.148,0.279 0,0 -0.219,0.187 -0.283,0.282 -0.064,0.095 0.029,0.348 0.039,0.464 0.01,0.117 -0.104,0.193 -0.256,0.18 -0.15,-0.016 -0.199,0.095 -0.245,0.229 -0.047,0.136 -0.198,0.217 -0.198,0.217 0,0 -0.229,0.058 -0.225,0.145 0.007,0.086 0.245,0.218 0.377,0.267 0.131,0.051 0.108,0.175 0.019,0.226 -0.088,0.051 -0.317,0.062 -0.441,-0.06 -0.122,-0.123 -0.325,-0.072 -0.585,-0.021 -0.26,0.051 -0.475,0.007 -0.475,0.007 -0.37,-0.256 -0.666,-0.253 -0.89,0.012 l -0.171,-0.023 -0.069,0.037 c -0.036,0.301 -0.131,0.435 -0.286,0.402 l -0.03,0.149 c 0,0 0.197,0.273 0.289,0.312 0.093,0.042 0.201,-0.09 0.201,-0.09 l 0.283,-0.039 -0.011,0.329 -0.211,0.102 0.267,0.497 0.051,-0.053 0.327,0.178 0.23,0.635 -0.129,0.411 0.033,0.39 0.105,0.147 c 0.174,-0.002 0.323,0.132 0.448,0.394 l 0.351,0.258 0.064,0.139 0.134,0.046 0.12,0.273 c 0.176,-0.062 0.241,0.012 0.194,0.224 l 0.142,0.156 0.087,0.199 -0.03,0.106 -0.004,0.69 0.178,0.039 0.064,0.312 -0.061,0.12 -0.021,0.367 c -0.012,0.173 0.071,0.247 0.071,0.247 l 0.192,0.062 0.489,0.905 -0.111,0.355 0.189,0.3 0.282,0.003 0.658,0.298 0.046,0.154 -0.185,0.097 -0.264,0.056 -0.242,0.148 0.074,0.299 -0.128,0.184 -0.039,0.105 c 0.026,0.245 -0.053,0.414 -0.239,0.502 l -0.061,0.122 -0.562,0.288 c -0.057,0.065 -0.131,0.083 -0.224,0.053 l -0.067,0.114 -0.177,-0.114 -0.633,-0.039 -0.051,0.203 c -0.204,-0.136 -0.328,-0.105 -0.363,0.098 -0.134,-0.065 -0.228,-0.017 -0.283,0.141 l -0.28,0.134 -0.032,0.281 -0.449,0.298 -0.035,0.125 -0.655,-0.115 -0.095,0.088 0.066,0.288 -0.344,0.171 0.302,0.428 -0.006,0.404 0.124,0.115 -0.454,0.404 0.251,0.315 -0.139,0.084 c -0.305,0.094 -0.593,0.239 -0.861,0.437 -0.131,0.177 -0.3,0.312 -0.51,0.403 l -0.134,0.028 -0.111,-0.047 c -0.086,-0.443 -0.408,-0.589 -0.967,-0.438 -0.303,-0.141 -0.532,-0.118 -0.688,0.069 l -0.384,0.137 -0.258,-0.153 c -0.338,0.113 -0.57,0.356 -0.693,0.73 l -0.095,0.092 0.007,0.153 -0.346,0.387 -0.189,0.331 -0.159,0.071 -0.157,-0.047 -0.365,0.16 -0.215,0.191 -0.252,-0.093 c -0.036,0.102 -0.02,0.206 0.051,0.314 l -0.193,0.212 -0.078,0.203 -0.217,0.128 0.007,0.201 -0.607,0.351 -0.144,0.154 c -0.225,0.061 -0.372,0.208 -0.441,0.438 l -0.095,0.062 -0.232,0.483 -0.083,0.046 0.021,0.235 -0.46,0.078 0.201,0.169 c 0.171,0.219 0.314,0.346 0.43,0.379 l 0.222,0.064 0.051,0.076 -0.097,0.034 c -0.103,-0.074 -0.261,-0.039 -0.472,0.109 l -0.034,0.38 -0.111,0.375 0.021,0.226 0.093,0.091 -0.492,0.189 h -0.342 l -0.168,-0.072 -0.554,0.947 c 0.044,0.193 0.022,0.32 -0.065,0.38 l -0.08,0.301 -0.054,0.037 -0.111,0.129 -0.302,0.66 -0.245,0.032 -0.341,0.167 c -0.253,-0.007 -0.379,0.08 -0.373,0.259 l -0.126,0.062 -0.227,0.253 -0.51,0.245 -0.151,0.134 c -0.207,0.067 -0.355,0.194 -0.445,0.379 -0.203,0.115 -0.457,0.206 -0.76,0.271 l -0.39,-0.122 -0.238,0.371 c 0.179,0.259 0.183,0.443 0.007,0.552 l -0.291,-0.014 0.106,0.24 c -0.191,-0.023 -0.261,0.048 -0.208,0.213 l -0.341,0.195 -0.213,0.109 -0.231,0.034 -0.009,0.268 -0.168,0.277 c -0.181,-0.025 -0.267,-0.004 -0.259,0.069 l 0.112,0.227 c -0.305,-10e-4 -0.418,0.112 -0.344,0.337 l -0.141,0.283 c -0.175,0.051 -0.332,0.023 -0.474,-0.08 l -0.166,0.32 -0.171,0.079 c -0.459,-0.025 -0.593,0.161 -0.399,0.559 -0.354,0.085 -0.538,0.262 -0.552,0.533 l -0.159,-0.043 -0.229,-0.019 -1.706,-0.28 -0.43,0.015 -0.206,0.145 -0.073,0.241 0.42,0.14 -0.034,0.119 0.154,0.172 0.261,0.171 -0.27,0.289 0.133,0.25 -0.268,0.18 c 0,0 -0.007,0.212 -0.222,0.496 -0.215,0.284 0.028,0.277 0.028,0.277 l 0.081,0.408 -0.262,0.139 -0.027,0.132 -0.115,0.104 -0.03,0.21 -0.568,0.535 -0.132,0.33 c 0,0 0.328,0.534 0.196,0.573 -0.17,0.051 -0.572,-0.254 -0.69,-0.084 -0.119,0.169 -0.254,0.675 -0.455,0.827 -0.203,0.152 -0.456,0 -0.523,0.219 -0.067,0.22 -0.15,0.608 0.067,0.592 0.221,-0.017 0.759,-0.607 1.062,-0.491 0.305,0.119 0.658,0.491 0.877,0.491 0.22,0 -0.32,0.235 -0.691,0.168 -0.37,-0.068 -1.28,0.742 -1.871,0.811 -0.589,0.067 -2.107,-1.317 -2.544,-1.317 -0.438,0 -2.293,0.424 -2.646,0.692 -0.354,0.271 -1.08,1.164 -0.826,1.401 0.253,0.237 0.759,0.455 0.979,0.39 0.219,-0.068 1.18,-0.743 1.448,-0.44 0.271,0.305 0.337,0.658 0.17,0.523 -0.17,-0.136 -0.676,-0.337 -0.743,-0.202 -0.066,0.136 0.169,0.404 -0.016,0.523 -0.186,0.118 -0.506,0.305 -0.691,0.354 -0.185,0.051 -0.422,-0.085 -0.405,0.085 0.018,0.169 0.221,0.988 0.011,0.837 -0.212,-0.152 -0.65,-0.785 -0.919,-0.861 -0.27,-0.076 -0.523,0.11 -0.699,-0.017 -0.178,-0.127 -0.22,-0.22 -0.438,-0.169 -0.22,0.051 -1.374,1.342 -1.443,1.56 -0.065,0.221 -0.065,0.692 -0.134,0.964 -0.067,0.271 -1.095,2.178 -1.095,2.396 0,0.221 0.388,1.74 0.219,2.11 -0.169,0.372 -2.376,2.263 -2.427,2.364 -0.051,0.101 0.068,1.029 -0.169,1.249 -0.235,0.22 -1.18,1.062 -1.213,1.3 -0.034,0.237 0.034,0.675 -0.136,0.743 -0.167,0.067 -0.437,0.084 -0.404,0.305 0.034,0.218 0.268,3.377 -0.103,4.15 -0.369,0.773 -0.706,0.542 -0.706,0.794 0,0.254 0.136,1.099 -0.15,1.3 -0.288,0.203 -1.046,0.152 -0.995,0.457 0.051,0.303 0.574,1.333 0.792,1.469 0.22,0.134 0.254,-0.22 1.097,1.198 0.843,1.418 2.325,2.413 2.376,2.836 0.051,0.422 0.119,0.591 0.606,1.283 0.489,0.692 0.152,0.878 0.827,1.619 0.674,0.743 0.892,0.607 0.909,0.524 0.017,-0.084 -0.32,-0.709 0.169,-0.405 0.489,0.304 0.523,0.878 0.371,0.996 -0.152,0.117 -0.221,0.034 -0.221,0.404 0,0.373 0.036,0.997 -0.083,1.317 -0.118,0.321 -0.354,0.675 -0.203,1.014 0.152,0.336 2.849,4.808 3.151,4.975 0.303,0.17 0.674,0.203 0.909,-0.065 0.235,-0.27 0.406,-0.083 0.677,-0.014 0.269,0.067 0.944,-0.372 0.926,-0.66 -0.016,-0.286 -0.841,-1.198 -0.42,-1.484 0.42,-0.287 0.623,-0.271 0.725,-0.524 0.102,-0.252 0.067,-0.573 -0.388,-0.877 -0.455,-0.304 -1.062,-0.423 -0.523,-0.338 0.54,0.085 0.826,-0.201 1.315,0.338 0.489,0.54 0.185,0.727 0.557,0.962 0.371,0.236 0.589,0.017 0.27,0.49 -0.32,0.473 -0.642,1.232 -0.657,1.823 -0.019,0.59 0.235,1.097 -0.389,1.215 -0.623,0.118 -1.027,-0.051 -0.858,0.152 0.168,0.203 0.69,0.591 0.589,0.944 -0.102,0.355 -0.303,2.127 -0.118,2.313 0.186,0.186 1.45,-0.506 1.552,-0.219 0.1,0.286 -0.152,1.383 0.252,1.281 0.404,-0.1 1.029,-0.557 1.298,-0.809 0.27,-0.254 0.152,-0.591 0.741,-1.166 0.591,-0.574 1.163,-1.806 1.332,-2.075 0.169,-0.271 -0.203,-0.912 -0.085,-1.081 0.119,-0.169 0.27,-0.625 0.455,-0.727 0.185,-0.102 0.54,-0.641 0.422,-0.861 -0.118,-0.218 -0.286,-0.776 -0.034,-0.741 0.253,0.032 0.422,0.607 0.607,0.792 0.185,0.187 0.337,0.271 0.235,0.406 -0.102,0.136 -0.656,0.422 -0.522,0.725 0.136,0.305 1.213,0.728 1.111,0.997 -0.1,0.271 -0.336,0.524 -0.015,0.793 0.319,0.271 1.819,-0.017 1.972,-0.271 0.15,-0.252 0.774,-1.535 1.247,-1.738 0.472,-0.203 1.061,-0.455 1.434,-0.742 0.37,-0.288 0.404,-0.709 0.724,-0.879 0.32,-0.167 0.27,-0.522 0.134,-0.642 -0.134,-0.118 -1.01,-0.607 -0.421,-0.539 0.59,0.067 1.298,0.811 1.196,1.047 -0.1,0.235 -1.078,1.385 -1.533,1.637 -0.455,0.254 -0.826,0.254 -0.792,0.457 0.033,0.201 1.264,1.67 1.264,2.06 0,0.388 -0.084,0.642 0.17,0.707 0.252,0.068 0.571,-0.15 0.656,0.018 0.085,0.169 0.034,0.406 -0.085,0.776 -0.116,0.372 -0.673,0.794 -0.589,0.929 0.085,0.136 0.235,0.254 0.034,0.438 -0.203,0.187 -0.775,0.912 -1.046,0.93 -0.27,0.017 -0.894,-0.068 -0.843,0.118 0.051,0.185 -0.591,1.501 -0.877,1.704 -0.286,0.203 -0.859,0.203 -0.506,0.474 0.355,0.27 0.625,0.354 0.658,0.674 0.034,0.321 -0.269,1.655 0.134,1.418 0.406,-0.235 0.911,-1.603 0.979,-1.418 0.067,0.186 0.404,0.541 0.506,0.372 0.102,-0.169 0.337,-0.896 0.22,-1.198 -0.118,-0.305 -0.624,-0.845 -0.135,-0.76 0.488,0.085 0.809,1.975 0.504,2.38 -0.303,0.405 -0.707,0.793 -0.725,0.608 -0.017,-0.186 -0.218,-0.507 -0.252,-0.338 -0.034,0.169 -0.573,0.996 -0.252,1.198 0.319,0.203 1.87,0.591 1.279,0.591 -0.589,0 -0.841,-0.27 -1.078,0.017 -0.235,0.287 -1.247,1.249 -1.332,1.014 -0.084,-0.237 -0.017,-0.508 -0.387,-0.54 -0.371,-0.034 -2.309,0.877 -2.309,1.131 0,0.254 -0.085,0.658 0.15,0.811 0.237,0.152 0.506,0.152 0.388,0.252 -0.117,0.102 -0.404,0.118 -0.219,0.423 0.185,0.303 0.894,1.3 0.759,1.401 -0.136,0.102 -0.253,0.168 -0.187,0.303 0.067,0.136 0.861,0.44 0.422,0.457 -0.438,0.016 -0.775,0.134 -0.791,-0.169 -0.019,-0.305 0.134,-0.39 -0.019,-0.625 -0.15,-0.236 -0.841,-0.541 -0.892,-0.844 -0.051,-0.305 0.066,-0.354 -0.067,-0.523 -0.136,-0.169 -0.523,-0.067 -0.304,-0.305 0.219,-0.235 0.405,-0.876 0.219,-0.961 -0.185,-0.085 -1.012,0.116 -1.029,0.354 -0.015,0.237 -0.672,7.231 -0.335,7.938 0.335,0.706 2.388,1.716 2.858,1.513 0.473,-0.201 0.64,-0.604 0.841,-0.269 0.203,0.337 1.646,0.188 1.957,0.097 0.312,-0.094 1.836,-0.684 2.09,-0.65 0.252,0.034 0.319,0.049 0.487,-0.059 0.169,-0.11 0.529,0.19 -0.093,0.36 -0.625,0.169 -1.533,0.051 -1.533,0.287 0,0.235 0.959,1.316 0.504,1.147 -0.455,-0.169 -0.993,-0.995 -1.349,-0.896 -0.354,0.102 -0.455,0.523 -0.606,0.44 -0.152,-0.085 -0.253,-0.169 -0.271,-0.035 -0.015,0.135 0.018,0.626 -0.185,0.474 -0.203,-0.152 -1.012,-0.422 -0.995,-0.187 0.018,0.237 0.642,0.828 0.355,0.845 -0.287,0.017 -0.709,-0.085 -0.793,0.067 -0.083,0.152 -3.874,4.805 -4.378,6.049 -0.507,1.245 -0.473,1.58 -0.136,2.053 0.337,0.47 1.076,1.009 1.076,1.243 0,0.235 -0.136,0.708 0.235,1.246 0.37,0.538 0.875,1.11 0.674,1.346 -0.202,0.234 0.171,0.414 0.28,0.532 0.108,0.119 0.598,1.273 0.646,1.694 0.051,0.422 0.889,2.247 1.494,2.684 0.606,0.438 1.951,1.886 2.692,1.985 0.74,0.102 0.907,-0.134 1.38,0.102 0.116,0.06 0.203,0.125 0.271,0.187 l 0.071,-0.249 -0.002,-0.352 -0.235,-0.317 -0.154,-0.211 -0.013,-0.113 c 0,0 0.312,0.079 0.347,-0.034 0.032,-0.113 0.069,-0.409 0.069,-0.409 l 0.289,-0.395 0.642,-0.051 0.386,-1.258 c 0,0 0.159,-0.121 0.213,-0.088 0.053,0.031 0.209,0.071 0.209,0.071 l 0.118,0.117 c 0.049,-0.09 0.047,-0.173 -0.01,-0.242 l 0.264,-0.175 0.034,-0.194 h -0.087 l -0.019,-0.072 0.217,-0.071 c 0,0 -0.086,-0.139 -0.083,-0.185 0.003,-0.048 0.037,-0.242 0.037,-0.242 l 0.533,0.171 0.259,-0.003 0.117,0.035 0.13,0.43 0.224,0.12 0.015,0.108 c 0.09,-0.034 0.405,0.062 0.405,0.062 l 0.363,-0.098 v -0.242 l 0.078,-0.143 c -0.016,-0.153 0.009,-0.25 0.067,-0.284 l -0.037,-0.337 0.029,-0.372 0.152,-0.046 -0.006,-0.118 -0.141,-0.016 -0.013,-0.155 0.28,-0.328 -0.047,-0.117 -0.316,-0.1 -0.041,-0.13 0.156,-0.057 0.125,-0.247 -0.051,-0.033 -0.386,0.176 0.134,-0.355 0.082,-0.344 c 0,0 0.064,-0.01 0.121,0.073 0.054,0.084 0.148,0.058 0.148,0.058 l 0.282,0.106 c 0,0 0.203,-0.019 0.313,0.102 0.132,0.148 0.233,0.104 0.233,0.104 0,0 0.21,0.075 0.226,0.134 -0.016,0.113 0.104,0.318 0.104,0.318 l 0.149,-0.127 0.22,-0.161 c 0.154,-0.106 0.312,-0.142 0.474,-0.104 l 0.129,-0.164 -0.022,-0.263 0.224,0.217 0.198,0.295 0.152,-0.195 0.116,-0.206 0.112,-0.459 0.564,-0.135 -0.102,-0.309 1.713,-0.656 0.175,0.159 0.054,0.139 c -0.044,0.141 0.046,0.288 0.046,0.288 l -0.078,0.449 c 0,0 0.102,0.134 0.069,0.171 -0.069,0.087 0.104,0.146 0.104,0.146 0.064,0.039 0.122,0.2 0.122,0.2 0.102,0.073 0.106,0.143 0.014,0.21 0,0.051 0.121,0.282 0.121,0.282 l 0.156,0.036 0.255,0.191 0.188,0.255 0.023,0.092 c 0.131,0.093 0.175,0.238 0.129,0.437 l -0.092,0.072 0.058,0.143 -0.48,0.799 -0.377,0.152 0.229,0.181 c 0,0 0.071,0.014 0.113,-0.062 0.06,-0.106 0.316,0.021 0.316,0.021 l 0.2,-0.061 0.238,0.146 0.117,-0.003 0.021,0.084 0.154,0.104 c 0,0 0.154,-0.039 0.174,0.016 0.02,0.056 0.117,0.037 0.117,0.037 l 0.097,0.032 0.09,0.072 0.225,0.115 0.127,0.164 c 0.12,0.005 0.169,0.069 0.136,0.188 l 0.109,0.028 0.152,0.111 0.05,0.131 0.28,0.049 0.068,0.146 0.38,0.15 c 0,0 0.158,0.027 0.207,-0.084 0.049,-0.112 0.071,-0.154 0.071,-0.154 0,0 0.111,0.002 0.14,0.058 0.025,0.06 0.089,0.049 0.089,0.049 l 0.216,-0.054 0.337,0.183 c 0,0 -0.072,0.113 -0.005,0.143 0.062,0.03 0.111,-0.004 0.111,-0.004 l 0.17,0.064 0.035,0.051 c 0,0 0.157,-0.071 0.178,0.1 0.012,0.095 0.266,0.191 0.266,0.191 l 0.085,0.166 0.137,0.023 c -0.039,0.093 -0.03,0.147 0.029,0.159 l -0.256,0.263 0.042,0.042 0.452,-0.229 0.056,-0.09 0.118,0.03 0.063,-0.134 0.28,-0.137 0.325,-0.279 -0.023,-0.122 0.074,-0.061 0.201,0.009 c 0.068,-0.022 0.136,-0.029 0.208,-0.021 v 0.051 l 0.145,0.037 0.148,-0.053 -0.009,0.069 c 0.216,-0.039 0.383,-0.037 0.505,0.004 l 0.039,0.098 0.199,-0.021 -0.008,0.115 0.361,-0.01 0.327,0.142 -0.08,0.182 0.209,0.235 c -0.053,0.059 -0.146,0.088 -0.279,0.088 l -0.095,0.167 c 0,0 0.171,0.004 0.19,0.131 0.019,0.128 0.212,0.215 0.212,0.215 l 0.054,0.062 c 0.168,-0.071 0.325,-0.037 0.469,0.102 l 0.305,0.021 c 0.002,-0.312 0.083,-0.557 0.244,-0.726 l -0.203,-0.263 0.416,-0.426 c -0.086,-0.051 -0.104,-0.232 -0.054,-0.549 l 0.185,0.092 0.157,0.035 0.136,0.131 c 0,0 0.079,0.001 0.1,-0.055 0.021,-0.054 0.199,-0.042 0.199,-0.042 l 0.166,0.003 c 0,0 0.041,-0.089 0.198,-0.095 0.275,-0.008 0.562,0.305 0.562,0.305 0,0 0.307,0.129 0.455,0.102 0.149,-0.023 0.217,-0.037 0.217,-0.037 l 0.171,-0.225 -0.014,-0.191 0.215,-0.102 0.187,-0.235 0.061,0.11 0.117,-0.046 0.157,0.097 -0.139,-0.239 c 0.213,0.124 0.313,0.129 0.396,-0.023 l 0.105,-0.085 -0.078,-0.139 0.138,0.002 0.059,-0.176 0.254,-0.112 -0.023,-0.266 0.198,-0.437 0.183,-0.563 -0.041,-0.072 0.049,-0.099 -0.379,0.007 -0.142,-0.079 -0.115,0.039 -0.09,-0.175 -0.206,-0.058 0.007,-0.061 0.109,-0.17 c -0.027,-0.095 -0.069,-0.133 -0.127,-0.116 l -0.058,-0.127 c 0,0 0.05,-0.012 0.029,-0.078 -0.019,-0.064 -0.014,-0.123 0.076,-0.123 0.086,0 0.16,-0.23 0.16,-0.23 0,0 0.139,-0.09 0.222,-0.009 0.08,0.082 0.083,0.175 0.177,0.131 0.059,-0.023 -0.053,-0.295 -0.053,-0.295 0.051,-0.141 0.257,-0.176 0.257,-0.176 0.101,-0.034 0.044,-0.231 0.044,-0.231 -0.008,-0.053 0.133,-0.136 0.133,-0.136 0.096,-0.021 0.067,-0.219 0.067,-0.219 -0.023,-0.206 0.122,-0.215 0.122,-0.215 0,0 0.13,-0.088 0.089,-0.159 -0.038,-0.07 -0.146,-0.121 -0.146,-0.121 l -0.128,-0.325 0.058,-0.215 c 0.033,-0.189 0.146,-0.323 0.333,-0.401 l 0.071,-0.069 0.1,-0.344 -0.06,-0.279 0.011,-0.201 0.178,-0.123 0.122,-0.159 c 0.106,0.242 0.267,0.33 0.487,0.266 l 0.134,-0.105 0.204,0.039 0.385,-0.197 0.172,-0.235 -0.296,-0.322 0.097,-0.1 0.03,-0.391 0.198,-0.108 0.046,-0.187 0.14,-0.084 c 0,0 0.31,-0.043 0.351,0.02 0.037,0.06 0.081,0.193 0.152,0.154 0.074,-0.039 0.259,-0.229 0.259,-0.229 l 0.309,-0.049 0.299,0.272 c 0,0 0.115,0.01 0.171,0.169 0.055,0.157 0.21,0.268 0.21,0.268 0,0 0.182,0.039 0.194,0.157 0.016,0.119 0.034,0.183 0.168,0.157 0.134,-0.026 0.335,-0.184 0.335,-0.184 l 0.149,0.121 0.04,0.129 0.037,0.252 c 0.141,0.068 0.266,0.09 0.376,0.066 l 0.183,0.035 -0.28,0.24 0.303,0.088 c 0,0 0.056,0.021 0.088,0.151 0.118,0.476 -0.097,0.462 -0.097,0.462 l -0.002,0.241 -0.04,0.055 0.012,0.275 0.098,0.134 c 0,0 0.215,0.136 0.348,0.147 0.125,0.009 0.247,0.034 0.262,0.189 0.027,0.249 0.183,0.252 0.183,0.252 l 0.193,0.147 c 0.219,0.044 0.369,-0.049 0.369,-0.049 0,0 0.222,0.032 0.199,0.135 -0.019,0.101 -0.058,0.241 -0.058,0.241 l 0.031,0.091 0.019,0.224 c 0.074,0.106 0.072,0.257 -0.014,0.452 0,0 -0.076,0.059 -0.076,0.184 0,0.207 0.142,0.349 0.142,0.349 v 0.105 c 0,0 -0.127,0.076 0.007,0.217 0.134,0.146 0.283,0.231 0.283,0.231 l 0.155,0.185 0.194,-0.147 c 0,0 0.157,-0.061 0.276,-0.008 0.203,0.086 0.323,0.267 0.323,0.267 l -0.049,0.431 0.311,0.19 0.378,-0.03 0.266,0.24 0.147,0.193 c 0,0 0.419,-0.102 0.43,0.097 0.012,0.199 0.005,0.298 0.005,0.298 l -0.288,0.543 -0.025,0.355 c 0,0 0.102,0.115 0.312,0.21 0.205,0.093 0.694,0.329 0.694,0.329 l 0.148,0.203 0.298,0.062 0.752,0.245 -0.369,0.168 -0.268,-0.016 -0.046,0.156 -0.31,0.444 -0.053,0.293 -0.223,0.219 0.217,0.241 0.479,-0.336 c 0.369,0.255 0.357,0.582 0.357,0.582 l 0.367,-0.557 0.197,0.257 -0.121,0.047 0.096,0.21 0.185,-0.04 0.173,-0.122 0.055,0.069 0.139,-0.13 0.167,0.216 -0.167,0.244 c 0,0 0.096,0.108 0.225,0.078 0.129,-0.029 0.162,-0.055 0.295,0.01 0.135,0.064 0.259,0.083 0.323,-0.044 0.062,-0.129 0.074,-0.198 0.074,-0.198 l 0.259,-0.109 0.198,-0.094 0.464,-0.142 0.641,-0.136 0.221,0.092 c 0,0 0.086,-0.163 0.167,-0.217 0.08,-0.051 0.113,-0.105 0.106,-0.159 -0.007,-0.054 -0.033,-0.124 -0.033,-0.124 l 0.109,-0.139 0.099,-0.033 0.376,-0.327 0.084,0.032 c 0,0 0.183,-0.067 0.2,-0.061 0.019,0.002 0.146,0.064 0.146,0.064 l 0.183,0.014 0.044,0.077 0.266,-0.31 0.137,0.025 0.595,0.238 -0.102,0.349 0.025,0.107 c 0,0 -0.068,0.135 -0.041,0.22 0.028,0.085 0.019,0.188 0.146,0.198 0.125,0.008 0.513,0.088 0.513,0.088 h 0.076 l 0.156,0.072 0.049,-0.142 0.471,-0.032 0.116,0.059 c 0,0 0.007,0.119 0.113,0.062 0.147,-0.08 0.134,-0.217 0.134,-0.217 l 0.042,-0.146 0.149,-0.286 0.042,-0.015 0.056,0.103 0.221,-0.044 0.026,0.025 c 0,0 0.108,-0.051 0.112,-0.127 0.003,-0.078 -0.049,-0.242 -0.049,-0.242 l 0.183,0.019 0.208,0.062 0.314,0.31 -0.042,0.148 -0.118,0.022 c 0,0 -0.064,0.067 -0.05,0.196 0.016,0.127 0.012,0.225 0.012,0.225 0,0 0.051,0.057 0.163,0.092 0.231,0.067 0.264,0.189 0.264,0.189 l 0.188,-0.021 0.031,-0.055 0.13,0.076 0.073,0.129 0.086,0.053 0.173,0.116 c 0,0 0.146,0.034 0.185,0.034 0.04,0 0.144,-0.074 0.186,-0.032 0.043,0.042 0.081,0.04 0.081,0.04 l 0.159,-0.158 0.222,-0.196 0.198,0.135 0.115,0.046 0.231,-0.044 0.2,0.072 0.076,0.004 0.032,-0.093 -0.027,-0.06 0.117,-0.235 0.049,-0.122 c 0.13,0.012 0.185,-0.254 0.185,-0.254 0.134,0.022 0.266,-0.003 0.402,-0.076 l 0.093,-0.005 c 0,0 0.057,-0.33 0.244,-0.411 0.189,-0.081 0.233,-0.191 0.233,-0.191 l 0.321,-0.233 c 0.051,-0.104 0.147,-0.152 0.281,-0.157 l -0.039,-0.288 -0.3,0.12 c 0,0 -0.146,0.055 -0.229,-0.065 -0.083,-0.12 -0.132,-0.261 -0.131,-0.341 0.002,-0.079 0,-0.262 0,-0.262 l 0.268,0.146 0.399,-0.069 -0.035,-0.415 -0.207,0.016 0.037,-0.369 0.32,-0.088 0.127,-0.229 c 0,0 -0.124,-0.196 -0.056,-0.349 0.037,-0.086 0.002,-0.24 0.002,-0.24 l -0.08,-0.009 0.078,-0.211 0.065,0.014 0.189,-0.242 0.234,0.054 -0.011,-0.43 0.163,0.046 c 0.088,-0.069 0.338,-0.677 0.338,-0.677 l 0.34,-0.379 0.078,0.031 0.027,0.112 c 0,0 0.069,0.076 0.144,0.051 0.076,-0.023 -0.042,-0.256 -0.042,-0.256 l 0.18,-0.019 0.096,-0.074 0.339,0.139 c 0,0 0.152,0.088 0.314,-0.027 0.32,-0.231 0.501,-0.222 0.501,-0.222 l 0.037,0.277 0.233,0.048 0.034,-0.117 0.219,0.002 0.056,-0.298 0.52,-0.237 c 0,0 -0.152,-0.106 -0.064,-0.333 0.088,-0.227 0.161,-0.391 0.161,-0.391 l -0.055,-0.074 c 0.233,-0.298 0.284,-0.655 0.284,-0.655 l -0.056,-0.258 0.144,-0.211 0.075,0.007 0.705,-0.492 0.506,-0.886 1.062,1.348 -0.604,0.506 0.156,0.236 c 0.367,-0.077 0.785,-0.1 1.252,-0.069 l 0.049,-0.235 1.226,0.235 0.679,0.152 0.354,0.149 0.291,-0.342 c 0,0 0.083,-0.159 0.055,-0.357 -0.029,-0.198 -0.029,-0.43 0.114,-0.459 0.143,-0.028 0.325,0 0.271,-0.233 -0.055,-0.231 -0.146,-0.271 -0.043,-0.469 0.107,-0.197 0.146,-0.167 0.151,-0.316 0.005,-0.147 0.137,-0.171 0.259,-0.171 0.121,-0.002 0.255,0.034 0.279,-0.095 0.028,-0.164 0.199,-0.377 0.199,-0.377 l 0.106,-0.519 0.476,0.138 0.341,0.061 c 0,0 0.277,0.163 0.35,0.066 0.075,-0.1 0.222,-0.055 0.279,-0.051 0.062,0.005 0.124,0.071 0.124,0.071 l 0.267,0.049 0.032,0.046 0.515,-0.071 0.41,0.023 0.614,0.002 c -0.115,0.264 -0.117,0.511 -0.009,0.739 l -0.102,0.467 -0.097,0.027 0.037,0.117 -0.113,0.03 0.064,0.189 -0.074,0.601 0.178,0.226 c 0.095,0.15 0.088,0.273 -0.018,0.34 l 0.565,0.047 c 0,0 0.448,0.021 0.635,-0.003 0.187,-0.027 0.521,-0.051 0.521,-0.051 l 0.626,-0.127 v -0.049 l 0.432,-0.104 0.36,-0.122 0.339,-0.142 c 0.125,0.014 0.241,-0.018 0.35,-0.092 l 0.501,-0.155 0.383,-0.139 -0.023,-0.039 -0.403,-0.175 c -0.108,-0.225 -0.079,-0.457 0.09,-0.693 l 0.044,-0.239 -0.217,-0.345 c 0,0 0.217,-0.168 0.376,-0.213 0.159,-0.044 0.318,-0.062 0.318,-0.062 0.102,-0.014 0.45,0.092 0.45,0.092 l 0.21,-0.095 0.333,-0.09 0.235,-0.127 0.206,-0.058 0.277,-0.115 c -0.054,-0.09 -0.059,-0.169 -0.019,-0.238 l -0.013,-0.124 -0.102,-0.218 0.074,-0.056 c -0.016,-0.092 -0.08,-0.177 -0.191,-0.256 l -0.185,0.058 -0.053,-0.009 -0.184,-0.354 c 0,0 0.045,-0.173 -0.115,-0.191 -0.158,-0.021 -0.323,-0.033 -0.323,-0.033 l -0.055,0.095 -0.236,0.081 -0.637,0.201 -0.623,0.129 c -0.086,0.014 -0.125,-0.012 -0.118,-0.073 l 0.175,-0.236 0.031,-0.138 0.224,0.027 0.207,-0.035 0.051,-0.158 0.231,-0.019 c 0,0 -0.056,-0.342 0.053,-0.338 0.109,0.003 0.109,-0.083 0.109,-0.083 l 0.237,-0.099 0.078,0.066 c 0,0 0.007,-0.187 0.077,-0.227 0.071,-0.041 0.147,-0.183 0.147,-0.183 l 0.09,-0.202 0.303,-0.218 c 0,0 -0.01,0.077 0.064,0.134 0.074,0.052 0.217,0.386 0.217,0.386 0.146,0.052 0.347,0.091 0.601,0.116 l 0.349,0.075 0.498,0.026 0.253,0.011 0.196,0.125 0.23,0.012 0.102,-0.093 -0.06,-0.097 0.313,0.079 0.08,-0.16 -0.014,-0.078 0.121,-0.194 0.196,-0.455 -0.023,-0.036 0.386,-0.628 -0.023,-0.081 0.245,-0.005 0.019,-0.178 0.048,-0.064 -0.117,-0.255 0.022,-0.114 -0.149,-0.456 0.147,-0.048 -0.032,-0.069 0.132,-0.062 0.075,0.113 0.142,-0.027 0.049,0.134 0.104,-0.065 c 0.022,0.098 0.081,0.186 0.178,0.273 l -0.049,0.053 0.64,0.453 0.067,-0.061 0.171,0.259 0.144,-0.069 0.07,0.074 -0.046,0.2 -0.081,0.098 0.049,0.021 0.064,-0.083 0.146,0.066 0.126,-0.122 0.333,0.572 -0.032,0.134 0.166,0.07 -0.032,0.11 0.046,0.088 0.078,-0.074 0.076,0.049 c 0,0 0.1,-0.098 0.123,-0.084 0.022,0.012 0.13,0.03 0.13,0.03 l 0.102,-0.119 0.205,0.076 0.099,-0.077 0.236,0.395 -0.071,0.128 -0.358,0.568 -0.189,0.336 -0.303,0.534 0.249,0.071 -0.058,0.18 0.074,0.289 0.229,0.485 c 0.033,0.193 0.003,0.342 -0.09,0.445 0.095,0.154 0.108,0.256 0.037,0.307 l -0.108,0.524 0.274,-0.078 0.284,0.189 0.095,-0.061 0.076,0.125 0.007,0.12 0.093,0.044 -0.023,0.125 0.074,0.036 -0.005,0.34 0.469,0.097 0.201,-0.067 0.043,0.146 0.13,-0.034 -0.139,0.208 0.066,0.203 0.044,0.016 0.335,0.804 0.159,-0.036 0.037,0.075 0.106,-0.039 c 0.01,0.169 0.079,0.257 0.212,0.271 l 0.132,-0.085 0.093,0.045 0.022,0.095 0.206,-0.203 0.042,-0.104 0.562,-0.371 h 0.047 l 0.106,-0.146 0.145,-0.078 -0.068,-0.154 -0.448,-0.432 -0.122,-0.086 -0.174,-0.229 0.52,-0.397 -0.132,-0.176 0.054,-0.082 -0.079,-0.12 0.243,0.006 0.252,-0.256 0.076,0.003 0.048,-0.343 c 0,0 0.088,-0.716 0.155,-0.812 -0.058,-0.194 0.064,-0.361 0.281,-0.336 h 0.235 l 0.093,-0.034 0.152,0.189 0.073,0.162 0.229,-0.183 0.187,-0.04 0.041,0.025 c 0,0 0.15,-0.076 0.167,-0.066 0.016,0.007 0.071,0.139 0.071,0.139 l 0.088,-0.032 0.035,-0.07 0.163,0.005 0.55,-0.27 0.005,-0.047 0.137,-0.134 0.099,-0.081 0.225,-0.29 -1.001,-0.866 c -0.034,0.187 -0.237,0.522 -0.237,0.355 0,-0.169 -0.354,-0.339 -0.455,-0.288 -0.1,0.051 -0.388,0 -0.455,-0.118 -0.066,-0.118 -1.584,-1.789 -2.071,-2.11 -0.489,-0.319 -0.727,-0.573 -0.811,-0.522 -0.083,0.051 -0.388,0.271 -0.371,0.067 0.017,-0.204 0.187,-0.474 -0.032,-0.692 -0.22,-0.22 -1.097,-0.912 -1.266,-1.282 -0.168,-0.373 -0.656,-0.861 -0.707,-1.198 -0.051,-0.339 -0.674,-1.285 -0.86,-1.251 -0.185,0.034 -2.814,0.372 -3.15,0.542 -0.337,0.169 -0.473,0.201 -0.843,0.169 -0.371,-0.034 -1.4,-0.136 -1.551,0 -0.152,0.134 -0.843,0.843 -1.247,0.809 -0.404,-0.033 -1.804,-0.557 -2.41,-1.164 -0.607,-0.607 -0.49,-0.557 -0.878,-0.455 -0.388,0.1 -1.988,0.76 -2.039,0.859 -0.049,0.102 0.489,-1.3 1.249,-1.586 0.758,-0.287 1.33,-0.406 1.819,-0.017 0.488,0.388 0.707,0.979 1.314,0.843 0.605,-0.134 1.736,-0.709 2.141,-0.54 0.404,0.17 0.96,0.39 1.247,0.254 0.286,-0.135 0.337,-0.338 0.741,-0.355 0.405,-0.017 0.523,0.085 0.928,-0.084 0.404,-0.168 1.567,-0.911 1.854,-0.962 0.285,-0.051 0.522,-0.033 0.557,-0.135 0.033,-0.102 0.135,-0.203 0.404,0 0.269,0.203 0.37,-0.303 0.894,0.254 0.521,0.557 0.656,0.91 0.894,1.35 0.235,0.438 0.707,0.574 1.836,1.976 1.131,1.401 1.753,1.924 2.09,2.06 0.337,0.135 0.574,0.033 0.944,0.286 0.371,0.254 0.404,-0.168 1.432,-0.523 1.029,-0.354 1.787,-0.675 2.293,-0.438 0.506,0.235 2.325,1.535 2.646,1.925 0.321,0.388 0.236,0.658 0.118,0.844 -0.118,0.185 -1.162,1.419 -0.792,1.147 0.371,-0.269 1.18,-1.249 1.18,-1.503 0,-0.252 -0.32,-2.093 -2.696,-5.418 -2.376,-3.325 -2.46,-3.207 -2.729,-3.444 -0.271,-0.235 -4.349,-6.549 -4.349,-6.888 0,-0.337 -1.955,-6.126 -1.332,-7.376 0.624,-1.249 0.961,-2.278 1.668,-2.566 0.71,-0.285 2.209,-0.169 2.309,-0.488 0.102,-0.322 -0.167,-0.609 -0.758,-0.946 -0.589,-0.337 -2.611,-1.452 -2.999,-1.469 -0.388,-0.018 -1.922,-0.489 -2.208,-1.452 -0.286,-0.961 -0.32,-1.367 -0.17,-1.501 0.152,-0.136 0.618,-0.016 0.425,-0.15 -0.194,-0.136 -0.859,-0.178 -1.095,-0.348 -0.236,-0.167 -0.792,-0.776 -0.995,-0.776 -0.203,0 -0.48,0.102 -0.69,-0.041 -0.211,-0.146 -0.33,-0.229 -0.294,-0.414 0.032,-0.187 0.142,-0.591 -0.11,-0.676 -0.254,-0.084 -0.91,-0.649 -0.817,-0.853 0.092,-0.203 0.235,-0.227 0.168,-0.354 -0.066,-0.127 -0.565,-0.288 -0.581,-0.591 -0.017,-0.305 0.149,-0.559 0.048,-0.609 -0.101,-0.05 -0.355,-0.118 -0.305,-0.474 0.051,-0.354 0.067,-0.811 -0.032,-0.91 -0.102,-0.102 -0.339,-0.119 -0.355,-0.355 -0.017,-0.235 0.051,-0.506 -0.066,-0.625 -0.118,-0.118 -0.287,0 -0.404,-0.337 -0.118,-0.338 -0.186,-0.861 -0.305,-1.198 -0.116,-0.338 -0.589,-1.233 -0.825,-1.25 -0.235,-0.017 -0.657,-0.085 -1.078,-0.607 -0.422,-0.523 -0.54,-0.523 -0.371,-0.811 0.168,-0.286 0.455,-0.354 0.32,-0.642 -0.136,-0.286 -0.944,-0.557 -1.112,-0.979 -0.169,-0.423 -0.084,-0.439 -0.271,-0.624 -0.185,-0.187 -0.926,-0.861 -1.33,-0.811 -0.406,0.051 -0.625,0.169 -0.811,0.017 -0.185,-0.152 -0.487,-0.439 -0.708,-0.557 -0.218,-0.118 -0.084,-0.508 -0.336,-0.726 -0.253,-0.221 -1.163,-1.014 -1.315,-0.862 -0.152,0.152 -0.269,0.659 -0.674,0.405 -0.404,-0.253 -0.404,-0.32 -0.37,-0.506 0.034,-0.187 0.185,-0.254 -0.017,-0.371 -0.203,-0.118 -0.507,-0.321 -0.591,-0.44 -0.085,-0.118 0.135,-0.269 -0.168,-0.269 -0.305,0 -0.995,0.085 -1.181,-0.152 -0.185,-0.237 -0.759,-0.692 -1.045,-0.642 -0.285,0.051 -1.077,0.068 -1.331,-0.067 -0.253,-0.136 -0.994,-0.811 -1.18,-0.811 -0.187,0 -0.708,0.372 -0.877,0.254 -0.169,-0.119 -1.651,-0.559 -1.972,-0.93 -0.319,-0.37 -1.079,-0.995 -1.247,-0.995 -0.169,0 -0.557,0.066 -0.775,-0.017 -0.22,-0.085 -1.059,-0.506 -1.135,-0.692 -0.076,-0.186 -0.235,-0.774 -0.263,-0.506 -0.023,0.27 -0.032,0.574 -0.065,0.727 -0.034,0.152 -0.313,0.726 -0.322,0.878 -0.008,0.152 0.212,0.658 0.009,0.616 -0.201,-0.043 -0.455,0.093 -0.455,0.167 0,0.076 -0.701,1.19 -1.006,1.224 -0.303,0.034 -1.196,-0.135 -0.892,-0.185 0.303,-0.052 0.64,-0.355 0.96,-0.643 0.321,-0.286 1.13,-1.215 0.859,-1.385 -0.269,-0.167 -1.347,0 -1.044,-0.286 0.303,-0.287 0.319,-0.709 0.656,-0.844 0.337,-0.136 0.792,-0.221 0.591,-0.489 -0.203,-0.271 -1.112,-1.217 -1.097,-1.486 0.017,-0.271 -0.136,-0.929 0.034,-0.945 0.169,-0.018 0.809,-0.018 0.455,-0.235 -0.354,-0.22 -1.804,-1.233 -2.158,-1.639 -0.354,-0.404 -0.521,-0.506 -0.521,-0.691 0,-0.187 0.134,-0.254 -0.068,-0.422 -0.203,-0.169 -0.961,-0.776 -1.097,-1.149 -0.133,-0.37 -0.15,-1.856 -0.285,-2.159 -0.136,-0.305 -0.235,-0.439 -0.235,-0.677 0,-0.235 -0.051,-0.472 -0.187,-0.758 -0.134,-0.288 -0.572,-0.591 -0.572,-1.115 0,-0.523 -0.033,-0.979 -0.084,-1.131 -0.051,-0.152 -0.322,-0.607 -0.254,-0.811 0.067,-0.203 0.236,-0.658 0.033,-0.573 -0.201,0.084 -0.472,0.118 -0.421,-0.085 0.051,-0.203 0.271,-0.642 0.254,-0.878 -0.017,-0.235 -0.169,-0.438 -0.067,-0.676 0.1,-0.235 0.605,-0.54 0.455,-0.876 -0.152,-0.339 -1.552,-2.009 -1.787,-2.246 -0.235,-0.237 -0.404,-0.254 -0.557,-0.136 -0.151,0.119 -0.27,0.473 -0.388,0.491 -0.119,0.015 -0.018,-0.237 -0.185,-0.203 -0.169,0.034 -0.658,0.235 -0.371,-0.085 0.286,-0.321 0.826,-0.76 1.011,-0.793 0.187,-0.034 0.573,0.017 0.404,-0.17 -0.167,-0.186 -0.506,-0.186 -0.489,-0.522 0.018,-0.337 0.119,-0.455 -0.1,-0.709 -0.22,-0.254 -0.776,-0.438 -0.776,-0.777 0,-0.337 0.406,-0.607 0.019,-0.944 -0.39,-0.338 -1.552,-1.875 -1.131,-2.076 0.422,-0.203 0.725,0.136 0.91,0.27 0.187,0.135 0.235,0 0,-0.235 -0.236,-0.237 -1.314,-1.385 -1.55,-1.893 -0.236,-0.506 -0.22,-0.557 -0.506,-0.675 -0.286,-0.118 -2.325,-0.404 -1.533,-0.438 0.792,-0.034 1.87,0.22 1.903,0.067 0.034,-0.152 0.085,-0.59 0.219,-0.811 0.136,-0.22 0.44,-0.539 0.203,-0.793 -0.235,-0.253 -0.591,-0.507 -0.642,-0.911 -0.049,-0.406 0.102,-0.844 -0.083,-0.979 -0.186,-0.136 -1.504,-1.609 -0.998,-2.921 0.504,-1.312 0.773,-1.447 0.471,-1.85 -0.304,-0.404 -0.923,-0.784 -1.007,-0.767 -0.083,0.017 -0.926,-0.118 -0.691,-0.388 0.237,-0.271 0.136,-0.39 0.136,-0.575 0,-0.185 -0.961,-1.586 -0.573,-1.671 0.388,-0.084 0.707,-0.387 0.741,-0.573 0.033,-0.187 0,-0.39 0.152,-0.473 0.152,-0.084 0.303,-0.017 0.303,-0.271 0,-0.254 0.017,-0.979 -0.118,-1.097 -0.134,-0.118 -0.354,-0.084 -0.235,-0.321 0.118,-0.237 0.254,-0.305 0.186,-0.438 -0.067,-0.135 -0.287,-0.254 -0.254,-0.372 0.034,-0.117 0.102,-0.102 0.102,-0.607 0,-0.505 0.136,-1.486 0.018,-1.486 -0.119,0 -0.792,-0.252 -0.792,-0.573 0,-0.32 0.084,-0.995 -0.068,-1.164 -0.152,-0.17 -0.906,-0.489 -0.723,-0.803 0.187,-0.312 0.607,-0.489 0.473,-0.734 -0.136,-0.243 -0.792,-0.709 -0.665,-0.817 0.125,-0.109 0.134,-0.178 0.125,-0.312 -0.009,-0.136 -0.034,-0.38 -0.21,-0.398 -0.178,-0.017 -0.236,0.094 -0.328,-0.017 -0.093,-0.108 -0.947,-1.34 -1.166,-1.34 -0.219,0 -0.455,-0.036 -0.522,-0.152 -0.068,-0.119 0.067,-0.424 -0.253,-0.424 -0.319,0 -0.557,-0.102 -0.557,0.068 0,0.169 -0.421,0.641 -0.555,0.658 -0.136,0.017 -1.029,-0.676 -0.76,-0.777 0.271,-0.102 0.642,-0.017 0.642,-0.234 0,-0.221 -0.388,-0.591 -0.489,-0.812 -0.102,-0.22 0,-1.03 -0.102,-0.861 -0.102,0.17 -0.388,1.131 -0.64,1.131 -0.253,0 -1.029,-0.438 -1.417,-1.131 -0.388,-0.691 -1.083,-1.975 -0.848,-2.11 0.237,-0.135 1.399,0.068 0.877,-0.201 -0.523,-0.271 -2.729,-0.945 -3.32,-2.127 -0.589,-1.183 -0.762,-1.325 -0.948,-1.268 -0.185,0.061 -0.495,-0.042 -0.529,-0.167 -0.034,-0.127 -0.279,-0.288 -0.362,-0.262 -0.085,0.025 -0.455,-0.127 -0.093,-0.212 0.362,-0.083 0.64,0.364 0.834,0.076 0.194,-0.286 -0.034,-0.413 -0.388,-0.843 -0.108,-0.133 -0.229,-0.303 -0.349,-0.489 l -0.147,0.218 z"
         id="path96" />
    </g>
  </g>
</svg>
