<?xml version="1.0" encoding="UTF-8" standalone="no"?>
<!-- Created with Inkscape (http://www.inkscape.org/) -->

<svg
   xmlns:dc="http://purl.org/dc/elements/1.1/"
   xmlns:cc="http://creativecommons.org/ns#"
   xmlns:rdf="http://www.w3.org/1999/02/22-rdf-syntax-ns#"
   xmlns:svg="http://www.w3.org/2000/svg"
   xmlns="http://www.w3.org/2000/svg"
   xmlns:sodipodi="http://sodipodi.sourceforge.net/DTD/sodipodi-0.dtd"
   xmlns:inkscape="http://www.inkscape.org/namespaces/inkscape"
   width="159.68919"
   height="222.82269"
   id="svg3499"
   version="1.1"
   inkscape:version="0.48.1 r9760"
   sodipodi:docname="New document 3">
  <defs
     id="defs3501" />
  <sodipodi:namedview
     id="base"
     pagecolor="#ffffff"
     bordercolor="#666666"
     borderopacity="1.0"
     inkscape:pageopacity="0.0"
     inkscape:pageshadow="2"
     inkscape:zoom="1.4"
     inkscape:cx="41.922673"
     inkscape:cy="109.51895"
     inkscape:document-units="px"
     inkscape:current-layer="layer1"
     showgrid="false"
     fit-margin-top="0"
     fit-margin-left="0"
     fit-margin-right="0"
     fit-margin-bottom="0"
     inkscape:window-width="898"
     inkscape:window-height="661"
     inkscape:window-x="50"
     inkscape:window-y="24"
     inkscape:window-maximized="0" />
  <metadata
     id="metadata3504">
    <rdf:RDF>
      <cc:Work
         rdf:about="">
        <dc:format>image/svg+xml</dc:format>
        <dc:type
           rdf:resource="http://purl.org/dc/dcmitype/StillImage" />
        <dc:title></dc:title>
      </cc:Work>
    </rdf:RDF>
  </metadata>
  <g
     inkscape:label="Layer 1"
     inkscape:groupmode="layer"
     id="layer1"
     transform="translate(-394.44112,-489.52227)">
    <g
       transform="translate(262.22403,332.56723)"
       id="Scotland">
      <g
         id="g99">
        <path
           style="fill:#127c32"
           inkscape:connector-curvature="0"
           d="m 180.97,297.165 c -0.042,-0.118 0.32,-0.271 0.606,-0.336 0.288,-0.068 1.838,-1.149 2.613,-1.96 0.775,-0.809 0.741,-2.21 0.834,-2.474 0.093,-0.26 0.244,-0.1 0.767,-0.43 0.523,-0.328 0.48,-1.122 0.64,-1.503 0.163,-0.379 1.442,-1.568 1.668,-1.721 0.229,-0.151 0.574,-0.169 0.87,-0.218 0.294,-0.051 1.372,-1.073 1.802,-1.318 0.43,-0.246 0.186,-0.54 0.203,-0.76 0.015,-0.22 0.438,-0.243 0.631,-0.22 0.193,0.027 0.345,-0.303 0.616,-0.464 0.269,-0.159 0.142,0.482 0.074,0.785 -0.067,0.305 -0.32,0.305 -0.504,0.525 -0.187,0.22 -0.237,0.489 -0.472,0.792 -0.235,0.305 -1.938,0.997 -2.41,1.2 -0.472,0.203 -1.467,1.147 -1.787,1.368 -0.32,0.218 -0.051,0.404 -0.235,1.367 -0.187,0.963 -1.08,0.997 -1.332,1.198 -0.252,0.201 -0.404,1.35 -0.743,1.924 -0.335,0.576 -1.987,1.909 -2.88,2.28 -0.893,0.371 -0.743,0.15 -0.961,-0.035 l 0,0 z"
           id="path101" />
        <path
           style="fill:#127c32"
           inkscape:connector-curvature="0"
           d="m 157.188,273.954 c -0.354,-0.336 -0.692,-0.76 -0.692,-1.014 0,-0.252 0.22,-0.438 0.322,-0.354 0.102,0.084 1.296,1.014 1.046,0.625 -0.254,-0.389 -0.658,-0.911 -0.474,-1.029 0.187,-0.119 0.725,0.017 0.995,-0.187 0.271,-0.203 0.288,-0.625 0.625,-0.625 0.337,0 0.741,-0.237 0.741,0.034 0,0.269 -0.252,0.303 0.218,0.455 0.472,0.152 1.584,0.135 1.417,0.542 -0.167,0.405 -0.404,0.775 -0.1,0.944 0.301,0.169 0.909,0.22 1.027,0.489 0.117,0.271 0.506,1.03 0.809,1.183 0.303,0.151 0.472,0.22 0.472,0.388 0,0.169 0.017,0.557 0.235,0.793 0.218,0.237 0.404,0.591 0.404,0.86 0,0.271 0.322,1.047 0.135,1.064 -0.186,0.017 -0.067,0.169 0.017,0.32 0.084,0.152 0.927,0.102 1.061,0.22 0.135,0.118 0.084,0.423 0.371,0.237 0.288,-0.186 0.758,-0.271 1.13,-0.203 0.369,0.068 0.894,0.102 1.146,0.321 0.252,0.22 0.32,0.589 0.472,0.337 0.152,-0.252 0.724,-0.303 0.826,-0.286 0.102,0.017 0.623,0.86 0.843,1.131 0.218,0.271 1.086,0.599 1.188,0.463 0.102,-0.135 -0.01,-0.296 0.167,-0.203 0.178,0.093 0.438,0.565 0.675,0.845 0.235,0.277 0.708,0.371 0.673,0.59 -0.034,0.22 -0.051,0.642 0.102,0.675 0.152,0.034 0.699,0.042 0.765,0.252 0.067,0.213 0.163,0.643 -0.015,0.592 -0.178,-0.051 -0.532,-0.599 -0.801,-0.44 -0.271,0.161 -0.328,0.281 -0.227,0.516 0.102,0.235 0.959,1.183 0.792,1.401 -0.169,0.219 -0.22,1.198 -0.54,1.048 -0.32,-0.152 -0.942,0.118 -0.942,-0.22 0,-0.338 0.79,-1.113 0.183,-1.316 -0.606,-0.203 -1.65,-0.102 -1.313,0.271 0.336,0.371 0.707,0.69 0.538,0.792 -0.167,0.102 -0.352,-0.118 -0.555,0.169 -0.203,0.287 -0.741,1.164 -1.046,1.384 -0.303,0.22 -0.403,0.372 0.237,0.119 0.64,-0.254 0.521,-0.068 0.86,-0.322 0.337,-0.254 0.454,-0.673 0.724,-0.625 0.271,0.051 0.809,0.388 0.809,0.743 0,0.355 -1.044,0.641 -1.18,0.894 -0.134,0.254 -2.107,1.79 -2.577,2.027 -0.474,0.237 -0.675,0.506 -0.878,0.321 -0.201,-0.186 -1.567,-0.711 -1.23,-0.914 0.339,-0.202 0.86,-0.235 0.928,-0.488 0.067,-0.253 -0.119,-0.271 0.135,-0.389 0.252,-0.118 0.538,0.034 0.504,-0.237 -0.034,-0.271 -0.084,-0.523 -0.388,-0.574 -0.303,-0.049 -1.281,-0.034 -1.449,0.237 -0.167,0.27 -0.641,1.62 -1.078,1.738 -0.44,0.118 -1.012,0.271 -1.13,0.102 -0.119,-0.169 -0.068,-0.559 -0.303,-0.288 -0.235,0.271 -1.484,1.553 -1.955,1.553 -0.472,0 -0.792,-0.506 -0.944,-0.338 -0.152,0.169 0.034,0.474 -0.438,0.355 -0.472,-0.119 -0.775,-0.288 -1.078,0.017 -0.305,0.304 -0.152,0.726 -0.69,0.542 -0.542,-0.187 -0.152,-0.389 -0.843,-0.389 -0.692,0 -1.063,-0.271 -1.232,0.034 -0.168,0.305 -0.269,0.523 -0.456,0.338 -0.184,-0.186 -0.438,-0.338 -0.59,-0.186 -0.151,0.152 -0.362,0.792 -0.555,0.783 -0.195,-0.008 -0.758,-0.076 -0.876,0.009 -0.119,0.084 -0.718,0.321 -0.769,0.169 -0.051,-0.152 0.328,-0.558 0.203,-0.667 -0.125,-0.11 -0.193,-0.042 -0.269,-0.195 -0.076,-0.15 -0.119,-0.313 -0.252,-0.229 -0.136,0.085 -0.187,0.068 -0.187,-0.102 0,-0.169 -0.025,-0.463 0.042,-0.548 0.066,-0.084 0.261,-0.371 0.227,-0.489 -0.034,-0.117 -0.201,-0.042 -0.345,0.102 -0.144,0.144 -0.118,0.262 -0.32,0.059 -0.203,-0.203 -0.396,-0.457 -0.345,-0.599 0.051,-0.144 -0.061,-0.592 -0.061,-0.76 0,-0.169 0.372,-0.516 0.44,-0.54 0.067,-0.027 0.336,0.068 0.447,0.058 0.108,-0.007 0.328,-0.15 0.437,-0.017 0.112,0.136 0.144,0.23 0.33,0.23 0.184,0 0.699,0.015 0.656,0.159 -0.042,0.142 -0.269,0.633 -0.008,0.843 0.261,0.213 0.769,-0.1 1.053,0.084 0.288,0.186 0.701,0.298 0.743,0.152 0.042,-0.142 0.06,-0.589 -0.042,-0.734 -0.102,-0.142 -0.159,-0.159 -0.176,-0.278 -0.017,-0.118 -0.144,-0.557 0,-0.514 0.142,0.041 0.335,0.227 0.43,0.379 0.091,0.152 -0.161,0.389 0.125,0.44 0.288,0.051 0.371,-0.194 0.684,-0.127 0.312,0.066 0.227,0.11 0.43,0.032 0.201,-0.074 0.707,-0.345 1.036,-0.312 0.328,0.034 0.26,0.076 0.48,-0.025 0.22,-0.1 0.125,-0.279 0.354,-0.279 0.229,0 0.741,0.017 0.911,-0.074 0.167,-0.095 0.194,-0.389 0.371,-0.464 0.176,-0.078 1.164,-0.575 1.425,-0.601 0.261,-0.026 0.498,-0.084 0.64,-0.201 0.142,-0.119 0.186,-0.711 0.294,-0.819 0.11,-0.11 0.701,-0.379 0.751,-0.559 0.051,-0.176 -0.169,-0.311 -0.288,-0.294 -0.119,0.017 -0.237,0.152 -0.48,0.144 -0.244,-0.008 -0.716,0.084 -0.817,0.117 -0.1,0.034 -0.563,0.626 -0.725,0.576 -0.161,-0.051 -0.269,-0.246 -0.371,-0.085 -0.102,0.159 0.034,0.557 -0.633,0.709 -0.665,0.152 -1.112,-0.11 -1.635,0.134 -0.521,0.246 -0.9,0.711 -1.212,0.618 -0.313,-0.093 -1.139,-0.186 -0.87,-0.997 0.271,-0.811 0.667,-1.056 1.114,-1.376 0.447,-0.32 0.961,-0.54 1.01,-1.181 0.051,-0.642 0.084,-0.701 0.262,-0.895 0.176,-0.193 0.176,-0.227 0.235,-0.362 0.059,-0.135 -0.117,-0.22 0.161,-0.229 0.277,-0.008 1.753,0.059 1.904,-0.144 0.15,-0.203 0.396,-0.565 0.59,-0.675 0.193,-0.11 0.539,-0.269 0.631,-0.489 0.093,-0.22 0.068,-0.254 0.144,-0.288 0.074,-0.034 0.489,-0.102 0.489,-0.288 0,-0.184 0.06,-0.631 -0.313,-0.817 -0.369,-0.184 -0.572,0.017 -0.699,0.136 -0.127,0.117 -0.119,0.303 -0.278,0.337 -0.161,0.034 -0.59,0.076 -0.667,0.152 -0.076,0.076 0.042,0.193 -0.294,0.193 -0.336,0 -0.658,0 -0.86,0.146 -0.201,0.142 -0.496,0.421 -0.665,0.379 -0.169,-0.042 -0.775,-0.498 -0.843,-0.396 -0.067,0.102 -0.135,0.572 -0.271,0.708 -0.136,0.135 -0.633,-0.017 -0.833,0 -0.203,0.017 -0.684,-0.464 -0.836,-0.362 -0.152,0.102 -0.294,0.447 -0.555,0.322 -0.263,-0.127 -0.786,-0.711 -1.038,-0.633 -0.252,0.075 -0.733,-0.254 -0.775,-0.163 -0.042,0.095 -0.185,0.5 -0.303,0.315 -0.118,-0.186 -0.311,-1.234 -0.178,-1.124 0.136,0.11 0.421,0.152 0.498,0.152 0.077,0 0.212,-0.051 0.396,0.125 0.185,0.18 0.388,0.279 0.498,0.169 0.11,-0.108 0.229,-0.269 0.413,-0.278 0.185,-0.01 0.303,0.009 0.396,-0.076 0.093,-0.084 0.227,-0.279 0.354,-0.211 0.127,0.068 0.809,0.828 1.002,0.98 0.195,0.15 0.406,-0.025 0.524,0.059 0.117,0.084 0.64,0 0.648,-0.112 0.008,-0.108 0.066,-0.218 0.201,-0.362 0.136,-0.142 -0.142,-0.176 -0.176,-0.337 -0.034,-0.161 0.118,-0.119 -0.059,-0.229 -0.178,-0.108 -1.66,-0.861 -1.838,-1.13 -0.176,-0.271 -0.329,-0.565 -0.54,-0.531 -0.21,0.034 -1.675,0.64 -1.794,0.396 -0.118,-0.246 0.068,-0.305 -0.354,-0.481 -0.421,-0.177 -1.012,-0.067 -1.071,-0.296 -0.058,-0.229 -0.119,-0.817 0.084,-0.98 0.203,-0.159 1.002,0.01 1.08,-0.133 0.074,-0.144 0.091,-0.675 0.269,-0.794 0.178,-0.119 0.421,-0.176 0.371,-0.271 -0.051,-0.092 -0.305,-0.43 -0.413,-0.32 -0.108,0.11 -0.43,0.456 -0.572,0.27 -0.146,-0.187 -0.027,-0.515 -0.146,-0.674 -0.117,-0.163 -0.227,-0.355 -0.193,-0.55 0.034,-0.195 -0.006,-0.421 0.085,-0.32 0.093,0.102 0.269,0.345 0.371,0.269 0.102,-0.076 0.15,-0.269 0.336,-0.235 0.187,0.034 0.633,0.277 0.718,0.119 0.083,-0.163 -0.059,-0.508 0.15,-0.548 0.212,-0.044 0.699,0.201 0.828,0.413 0.125,0.21 0.058,0.606 0.278,0.506 0.218,-0.102 0.235,-0.322 0.379,-0.371 0.142,-0.051 0.36,0.045 0.377,0.02 0.02,-0.022 0.08,-0.099 0.047,-0.127 l 0,0 z"
           id="path221" />
        <path
           style="fill:#127c32"
           inkscape:connector-curvature="0"
           d="m 157.508,229.15 c 0,0 -0.119,0.643 -0.119,1.083 0,0.437 0.625,-0.423 1.266,-0.66 0.64,-0.237 0.69,0.017 0.959,0.542 0.269,0.523 -0.455,0.978 -0.591,1.165 -0.134,0.186 0.616,1.533 0.792,1.846 0.178,0.313 0.102,0.288 0.119,0.489 0.017,0.203 0.186,0.11 0.271,0.246 0.083,0.135 -0.692,0.464 -0.92,0.599 -0.227,0.135 -1.188,0.895 -1.061,1.003 0.127,0.112 1.054,-0.43 1.609,-0.69 0.557,-0.262 0.43,-0.152 0.607,-0.044 0.178,0.112 0.817,-0.108 1.281,-0.075 0.463,0.034 0.142,0.489 0.169,0.69 0.024,0.203 0.193,0.152 0.218,0.305 0.025,0.153 -1.257,1.08 -1.518,1.259 -0.261,0.176 0.061,0.058 0.506,0.159 0.447,0.102 0.455,-0.244 0.743,-0.286 0.286,-0.042 0.691,-0.584 0.892,-0.702 0.203,-0.117 0.616,0.761 0.868,0.997 0.254,0.237 0.457,-0.042 0.69,-0.032 0.237,0.007 0.364,0.32 0.582,0.454 0.22,0.135 0.389,-0.058 0.574,-0.125 0.185,-0.067 0.43,0.22 0.607,0.423 0.176,0.202 0.176,0.555 0.202,0.8 0.025,0.246 0.354,0.161 0.631,0.178 0.277,0.017 0.237,-0.262 0.362,-0.413 0.127,-0.152 0.474,0.125 0.625,0.041 0.151,-0.085 0.607,-0.657 1.213,-0.69 0.607,-0.034 0.758,-0.489 0.978,-0.725 0.22,-0.237 1.567,-0.22 1.821,-0.102 0.252,0.119 -0.169,0.303 -0.322,0.625 -0.15,0.32 2.125,-0.186 2.293,0.083 0.167,0.271 -0.117,0.795 -0.235,0.997 -0.118,0.202 0,1.234 -0.186,1.721 -0.186,0.491 -3.127,2.187 -3.43,2.22 -0.303,0.034 -0.743,-0.575 -0.911,-0.643 -0.167,-0.067 0.127,0.389 0.152,0.616 0.025,0.229 0.049,1.344 0,1.479 -0.051,0.134 -0.127,0.15 -0.235,0.176 -0.112,0.025 -0.034,0.152 0.133,0.396 0.167,0.245 -0.336,1.113 -0.498,1.299 -0.161,0.186 -0.522,0.017 -0.758,0.017 -0.236,0 -0.631,1.115 -0.699,1.276 -0.067,0.159 -0.227,0.125 -0.406,0.227 -0.176,0.102 -0.058,0.497 -0.1,0.649 -0.042,0.152 -0.464,0.548 -0.48,0.667 -0.017,0.119 -0.119,0.144 -0.312,0.229 -0.194,0.084 -0.237,0.296 -0.464,0.533 -0.228,0.235 -0.919,0.7 -0.953,0.775 -0.034,0.076 -0.118,0.084 -0.21,-0.008 -0.093,-0.093 -1.12,0.565 -1.45,0.618 -0.328,0.051 -0.008,-0.347 0.042,-0.474 0.05,-0.127 -0.379,-0.844 -0.464,-1.181 -0.084,-0.338 0.65,-1.107 0.911,-1.242 0.261,-0.135 -0.008,-0.068 -0.135,-0.498 -0.125,-0.43 0.169,-1.039 0.194,-1.113 0.025,-0.076 0.396,-0.178 0.515,-0.203 0.117,-0.025 -0.449,-0.607 -0.465,-0.843 -0.015,-0.237 0.607,-0.508 0.701,-0.533 0.093,-0.025 0.067,-0.11 0.135,-0.286 0.067,-0.179 0.514,-0.313 0.657,-0.389 0.144,-0.076 0.649,-0.971 1.13,-1.24 0.479,-0.269 1.127,-0.102 1.29,-0.169 0.159,-0.066 0.959,-1.122 0.968,-1.3 0.009,-0.178 -0.919,0.54 -1.112,0.574 -0.195,0.034 -0.237,-0.084 -0.506,-0.125 -0.271,-0.044 -0.565,0.337 -0.667,0.421 -0.102,0.084 -0.277,-0.051 -0.531,-0.152 -0.252,-0.1 -0.994,0.498 -1.036,0.531 -0.041,0.034 -0.582,0.11 -0.75,-0.015 -0.167,-0.128 -0.05,-0.44 -0.008,-0.734 0.042,-0.296 -0.271,-1.09 -0.354,-1.225 -0.084,-0.136 -0.279,-0.136 -0.464,-0.305 -0.185,-0.167 -0.311,-0.362 -0.379,-0.633 -0.068,-0.27 -0.252,-0.625 -0.347,-0.674 -0.091,-0.051 0.112,0.65 0.112,0.887 0,0.235 0.278,0.42 0.352,0.64 0.078,0.22 -0.134,1.124 -0.185,1.3 -0.049,0.18 -0.428,0.127 -0.607,0.203 -0.176,0.076 -0.074,0.734 -0.117,0.904 -0.042,0.169 -0.286,0.413 -0.43,0.582 -0.144,0.169 -0.118,1.097 -0.37,1.316 -0.254,0.22 -0.295,-0.008 -0.339,-0.169 -0.041,-0.159 -0.335,-0.244 -0.48,-0.379 -0.142,-0.135 0.169,-1.029 0.229,-1.411 0.059,-0.379 -0.178,-0.623 -0.286,-0.741 -0.11,-0.119 0.009,-0.542 0.034,-0.802 0.023,-0.261 -0.246,0.051 -0.373,0.229 -0.125,0.178 -0.538,0.093 -0.657,-0.059 -0.118,-0.152 -0.362,-0.616 -0.699,-0.904 -0.337,-0.288 -0.398,-0.102 -0.218,0.186 0.176,0.288 0.413,0.955 0.318,1.232 -0.091,0.279 -0.352,0.313 -0.623,0.338 -0.269,0.024 -0.186,-0.152 -0.716,-0.253 -0.531,-0.102 -1.635,0.362 -2.032,0.474 -0.395,0.108 -0.943,0.487 -1.263,0.454 -0.321,-0.034 0.589,-0.792 0.951,-1.493 0.362,-0.701 0.178,-0.777 -0.024,-0.938 -0.203,-0.161 -0.362,0.294 -0.59,0.457 -0.229,0.159 -0.801,0.606 -1.29,0.506 -0.489,-0.102 -1.213,-1.765 -1.154,-1.958 0.059,-0.195 0.642,-0.246 0.926,-0.296 0.288,-0.051 0.186,-0.279 0.313,-0.565 0.127,-0.288 0.167,-1.207 0.134,-1.122 -0.034,0.084 -0.134,0.21 -0.301,0.345 -0.169,0.135 -0.313,0.523 -0.423,0.718 -0.108,0.194 -0.186,0.008 -0.43,0.008 -0.244,0 -0.203,0.144 -0.345,0.296 -0.142,0.15 -0.606,-0.187 -0.843,-0.271 -0.237,-0.084 -0.254,-0.294 -0.345,-0.565 -0.093,-0.271 -0.455,-0.65 -0.623,-0.92 -0.169,-0.271 -0.178,-0.802 -0.095,-0.927 0.084,-0.129 0.186,-0.095 -0.25,-0.381 -0.44,-0.286 -0.625,-0.523 -0.633,-0.675 -0.008,-0.152 0.894,-1.09 1.146,-1.24 0.252,-0.152 0.421,0.11 0.8,0.133 0.379,0.027 -0.193,-0.565 -0.125,-0.684 0.067,-0.119 1.061,0.432 1.364,0.65 0.305,0.22 0.244,0.288 0.244,0.524 0,0.237 0.296,0.362 0.701,0.701 0.405,0.339 0.917,0.119 1.222,0.136 0.303,0.017 0.523,-0.136 0.413,-0.237 -0.11,-0.101 -0.288,-0.169 -0.599,-0.152 -0.312,0.017 -0.985,-0.548 -1.154,-0.692 -0.169,-0.144 -0.142,-0.286 -0.084,-0.421 0.059,-0.135 0.068,-0.186 -0.521,-0.565 -0.591,-0.379 -0.953,-0.514 -1.198,-0.751 -0.244,-0.237 0.237,-0.446 0.288,-0.675 0.051,-0.229 -0.338,0.15 -0.591,0.262 -0.252,0.108 -0.387,0.117 -0.614,0.21 -0.227,0.093 -0.254,0.413 -0.423,0.667 -0.167,0.254 -0.471,0.254 -0.379,0.195 0.095,-0.06 0.186,-0.405 0.22,-0.684 0.034,-0.279 0.244,-0.624 0.152,-0.607 -0.093,0.017 -0.144,-0.447 -0.211,-0.379 -0.066,0.066 -0.547,-0.053 -0.523,-0.288 0.027,-0.237 0.372,-0.296 0.523,-0.396 0.152,-0.104 -0.682,-0.254 -0.767,-0.349 -0.084,-0.091 0.091,-0.447 0.161,-0.565 0.066,-0.118 0.025,-0.134 -0.076,-0.244 -0.101,-0.11 -0.034,-0.988 -0.11,-1.215 -0.076,-0.229 -0.413,1.198 -0.513,1.408 -0.102,0.213 -0.423,0.667 -0.515,0.616 -0.095,-0.049 0.135,-0.555 0.051,-0.885 -0.084,-0.33 -0.44,-0.929 -0.616,-1.064 -0.176,-0.134 -0.06,0.762 -0.06,0.971 0,0.212 -0.303,0.423 -0.388,0.491 -0.084,0.067 -0.101,0.041 -0.354,-0.01 -0.252,-0.051 -0.262,0.186 -0.472,0.338 -0.21,0.152 0.102,0.034 0.237,0.135 0.134,0.102 0.193,0.785 0.193,0.944 0,0.161 -0.093,0.347 -0.136,0.457 -0.041,0.108 0.187,1.046 0.085,1.19 -0.102,0.144 -0.278,0.144 -0.515,-0.009 -0.235,-0.152 -1.146,-0.531 -2.005,-1.097 -0.86,-0.565 -0.892,-0.254 -1.256,-0.524 -0.362,-0.269 -0.54,-0.159 -0.692,-0.237 -0.151,-0.075 -0.572,-0.725 -0.657,-0.834 -0.085,-0.109 0.152,-0.381 0.237,-0.516 0.085,-0.134 -0.161,-0.142 -0.169,-0.371 -0.007,-0.229 -0.682,-1.367 -0.75,-1.518 -0.066,-0.152 -0.194,-0.051 -0.269,-0.102 -0.076,-0.051 -0.44,-0.152 -0.447,-0.288 -0.01,-0.135 0.159,-0.338 0.227,-0.406 0.067,-0.067 -0.22,-0.303 -0.337,-0.464 -0.119,-0.159 0.523,-0.514 0.809,-0.455 0.286,0.06 0.489,0.404 0.563,0.607 0.078,0.203 0.91,-0.025 1.113,-0.084 0.203,-0.059 -0.193,-0.042 -0.354,-0.159 -0.161,-0.118 -0.54,-0.567 -0.76,-0.768 -0.217,-0.203 -0.083,-0.98 -0.075,-1.158 0.009,-0.176 -0.186,-0.406 -0.142,-0.607 0.041,-0.202 0.875,-0.834 1.069,-0.777 0.193,0.06 0.125,0.355 0.219,0.559 0.093,0.201 0.279,0.48 0.32,0.582 0.042,0.102 0.11,0.244 0.118,0.388 0.009,0.144 0.515,0.548 0.565,0.684 0.05,0.136 0.125,0.54 0.125,0.667 0,0.127 0.093,0.084 0.288,0.218 0.193,0.135 0.379,0.355 0.422,0.567 0.042,0.211 0.379,0.336 0.472,0.463 0.092,0.127 0.21,0.262 0.244,0.482 0.034,0.22 0.253,-0.338 0.304,-0.482 0.051,-0.144 0.227,-0.117 0.379,-0.067 0.15,0.051 0.108,0.415 0.083,0.583 -0.025,0.168 0.303,0.295 0.438,0.472 0.135,0.178 0.051,-0.253 0.068,-0.421 0.017,-0.169 0.008,-0.102 0.288,-0.146 0.277,-0.041 -0.186,-0.193 -0.305,-0.32 -0.118,-0.127 -0.345,-0.726 -0.498,-0.902 -0.152,-0.179 -0.538,-0.785 -0.555,-0.965 -0.017,-0.176 -0.095,-0.193 -0.22,-0.26 -0.127,-0.068 0.017,-0.22 -0.008,-0.371 -0.025,-0.152 -0.413,-0.743 -0.564,-0.946 -0.152,-0.203 -0.101,-0.338 -0.027,-0.463 0.078,-0.127 -0.084,-0.195 -0.193,-0.313 -0.11,-0.119 -0.093,-0.498 0.068,-0.692 0.159,-0.193 0.237,0.262 0.209,0.389 -0.023,0.125 0.127,0.413 0.237,0.708 0.108,0.296 0.396,0.01 0.589,-0.176 0.194,-0.186 -0.102,-0.203 -0.159,-0.345 -0.059,-0.146 0.152,-0.213 0.362,0.032 0.21,0.246 0.708,0.506 0.979,0.861 0.269,0.355 0.345,-0.607 0.15,-0.894 -0.193,-0.288 -0.506,-0.347 -0.581,-0.381 -0.078,-0.034 -0.051,-0.076 -0.051,-0.218 0,-0.146 -1.306,-1.31 -1.467,-1.503 -0.161,-0.195 -0.388,0.244 -0.489,0.142 -0.101,-0.102 0.22,-0.582 0.312,-0.726 0.095,-0.144 0.034,-0.396 0.044,-0.716 0.007,-0.321 0.185,-0.237 0.286,-0.423 0.1,-0.187 -0.017,-1.063 -0.017,-1.249 0,-0.186 0.008,-0.237 0.161,-0.237 0.151,0 0.386,0.22 0.413,0.372 0.023,0.152 0.227,0.203 0.454,0.345 0.229,0.144 0.482,0.501 0.633,0.687 0.152,0.183 0.237,0.437 0.152,0.927 -0.085,0.489 0.267,0.917 0.305,0.965 0.037,0.047 0.653,0.257 0.761,0.266 0.11,0.009 0.305,0.185 0.376,0.274 0.071,0.089 0.362,-0.002 0.731,0.218 0.372,0.218 1.154,1.508 1.205,1.719 0.051,0.21 -0.102,0.379 -0.27,0.506 -0.167,0.127 0.202,0.051 0.364,-0.102 0.159,-0.152 0.233,-0.11 0.218,-0.245 -0.019,-0.136 0.496,-0.674 0.563,-0.751 0.067,-0.075 0.11,-0.017 0.076,0.161 -0.034,0.178 -0.294,0.692 -0.396,0.828 -0.102,0.136 -0.211,0.457 -0.362,0.641 -0.15,0.187 0.438,0.381 0.498,0.557 0.059,0.178 0.167,1.005 0.294,0.811 0.127,-0.194 -0.134,-0.98 -0.093,-1.292 0.042,-0.311 0.328,-0.861 0.304,-0.995 -0.027,-0.136 0.379,0 0.589,-0.18 0.21,-0.176 0.085,-0.817 0.085,-0.953 0,-0.134 -0.22,-0.235 -0.186,-0.413 0.034,-0.178 0.43,0.11 0.54,0.229 0.11,0.117 0.152,0.521 0.084,0.758 -0.067,0.237 0.21,0.457 0.235,0.793 0.025,0.337 0.261,-0.127 0.642,0.076 0.379,0.203 0.218,0.87 0.211,1.073 -0.01,0.201 0.21,-0.017 0.294,0.017 0.083,0.034 0.125,0.877 0.135,1.004 0.007,0.127 0.748,0.397 1.019,0.497 0.269,0.104 -0.229,-0.26 -0.339,-0.438 -0.108,-0.178 -0.142,-0.457 -0.083,-0.65 0.059,-0.193 -0.152,-0.531 -0.144,-0.684 0.008,-0.153 0.388,0.042 0.606,0.042 0.22,0 -1.263,-1.25 -1.54,-1.494 -0.279,-0.244 -0.667,-1.173 -0.692,-1.351 -0.025,-0.178 -0.017,-0.135 -0.161,-0.254 -0.142,-0.118 -0.091,-0.362 -0.108,-0.59 -0.017,-0.229 -0.498,-0.582 -0.498,-0.767 0,-0.186 0.447,-0.186 0.674,-0.237 0.227,-0.051 0.43,-1.114 0.463,-1.384 0.034,-0.271 -0.724,0.186 -0.843,0.118 -0.118,-0.067 -0.176,-0.397 -0.328,-0.616 -0.152,-0.22 0.135,-0.415 0.159,-0.684 0.027,-0.271 -0.883,-1.486 -0.943,-1.892 -0.059,-0.406 0.303,-0.354 0.413,-0.447 0.11,-0.093 0.195,-0.203 0.178,-0.339 -0.017,-0.135 0.572,-0.108 0.876,-0.237 0.301,-0.125 0.926,-1.086 1.086,-1.35 0.159,-0.261 -0.118,-0.176 -0.254,-0.335 -0.133,-0.162 -0.051,-0.651 -0.051,-0.819 0,-0.169 0.515,0.312 0.65,0.404 0.136,0.093 0.648,-0.355 0.792,-0.432 0.143,-0.074 0.22,0.355 0.193,0.464 -0.023,0.112 -0.034,0.129 -0.193,0.23 -0.159,0.1 0.961,0.555 1.146,0.732 0.186,0.178 0.438,0.296 0.523,0.574 0.084,0.279 0.43,0.068 0.54,0.01 0.11,-0.061 0.329,0.167 0.371,0.345 0.041,0.176 -0.498,0.152 -0.607,0.21 -0.11,0.061 0.034,0.745 0.102,1.141 0.066,0.396 0.692,0.288 0.843,0.209 0.152,-0.074 0.076,-0.235 0.017,-0.371 -0.06,-0.133 0.43,0.313 0.658,0.751 0.227,0.438 0.926,2.178 1.027,2.331 0.1,0.152 0.498,0.108 0.54,0.201 0.041,0.093 -0.269,0.651 -0.404,0.889 -0.134,0.237 0.1,0.304 0.252,0.658 0.152,0.354 -0.303,3.207 -0.32,3.478 -0.017,0.271 0.574,0.559 0.675,0.709 0.1,0.152 -0.321,0.085 -0.237,0.32 0.084,0.237 -0.203,2.523 -0.254,2.775 -0.051,0.254 -0.413,0.465 -0.633,0.592 -0.218,0.125 -0.227,0.136 -0.437,0.119 -0.201,-0.018 -0.076,0.209 -0.404,0.412 l 0,0 z"
           id="path281" />
        <path
           style="fill:#127c32"
           inkscape:connector-curvature="0"
           d="m 132.471,211.577 c 0.1,-0.152 0.167,-0.304 0.034,-0.364 -0.135,-0.059 -0.38,0.042 -0.252,0.211 0.124,0.17 0.218,0.153 0.218,0.153 l 0,0 z"
           id="path353" />
        <path
           style="fill:#127c32"
           inkscape:connector-curvature="0"
           d="m 253.093,360.967 0.568,-0.535 0.03,-0.21 0.115,-0.104 0.027,-0.132 0.262,-0.139 -0.081,-0.408 c 0,0 -0.243,0.007 -0.028,-0.277 0.215,-0.284 0.222,-0.496 0.222,-0.496 l 0.268,-0.18 -0.133,-0.25 0.27,-0.289 -0.261,-0.171 -0.154,-0.172 0.034,-0.119 -0.42,-0.14 0.073,-0.241 0.206,-0.145 0.43,-0.015 1.706,0.28 0.229,0.019 0.159,0.043 c 0.014,-0.271 0.198,-0.448 0.552,-0.533 -0.193,-0.397 -0.06,-0.584 0.399,-0.559 l 0.171,-0.079 0.166,-0.32 c 0.142,0.104 0.299,0.131 0.474,0.08 l 0.141,-0.283 c -0.074,-0.225 0.039,-0.338 0.344,-0.337 l -0.112,-0.227 c -0.008,-0.073 0.078,-0.095 0.259,-0.069 l 0.168,-0.277 0.009,-0.268 0.231,-0.034 0.213,-0.109 0.341,-0.195 c -0.053,-0.165 0.017,-0.236 0.208,-0.213 l -0.106,-0.24 0.291,0.014 c 0.176,-0.108 0.172,-0.293 -0.007,-0.552 l 0.238,-0.371 0.39,0.122 c 0.303,-0.064 0.557,-0.155 0.76,-0.271 0.09,-0.185 0.238,-0.312 0.445,-0.379 l 0.151,-0.134 0.51,-0.245 0.227,-0.253 0.126,-0.062 c -0.006,-0.179 0.12,-0.266 0.373,-0.259 l 0.341,-0.167 0.245,-0.032 0.302,-0.66 0.111,-0.129 0.054,-0.037 0.08,-0.301 c 0.088,-0.06 0.109,-0.187 0.065,-0.38 l 0.554,-0.947 0.168,0.072 h 0.342 l 0.492,-0.189 -0.093,-0.091 -0.021,-0.226 0.111,-0.375 0.034,-0.38 c 0.211,-0.148 0.369,-0.184 0.472,-0.109 l 0.097,-0.034 -0.051,-0.076 -0.222,-0.064 c -0.115,-0.033 -0.259,-0.16 -0.43,-0.379 l -0.201,-0.169 0.46,-0.078 -0.021,-0.235 0.083,-0.046 0.232,-0.483 0.095,-0.062 c 0.069,-0.23 0.217,-0.378 0.441,-0.438 l 0.144,-0.154 0.607,-0.351 -0.007,-0.201 0.217,-0.128 0.078,-0.203 0.193,-0.212 c -0.07,-0.108 -0.087,-0.213 -0.051,-0.314 l 0.252,0.093 0.215,-0.191 0.365,-0.16 0.157,0.047 0.159,-0.071 0.189,-0.331 0.346,-0.387 -0.007,-0.153 0.095,-0.092 c 0.123,-0.374 0.355,-0.617 0.693,-0.73 l 0.258,0.153 0.384,-0.137 c 0.156,-0.188 0.386,-0.21 0.688,-0.069 0.559,-0.15 0.881,-0.005 0.967,0.438 l 0.111,0.047 0.134,-0.028 c 0.21,-0.092 0.379,-0.227 0.51,-0.403 0.269,-0.197 0.557,-0.343 0.861,-0.437 l 0.139,-0.084 -0.251,-0.315 0.454,-0.404 -0.124,-0.115 0.006,-0.404 -0.302,-0.428 0.344,-0.171 -0.066,-0.288 0.095,-0.088 0.655,0.115 0.035,-0.125 0.449,-0.298 0.032,-0.281 0.28,-0.134 c 0.056,-0.157 0.149,-0.206 0.283,-0.141 0.035,-0.203 0.159,-0.233 0.363,-0.098 l 0.051,-0.203 0.633,0.039 0.177,0.114 0.067,-0.114 c 0.093,0.03 0.167,0.013 0.224,-0.053 l 0.562,-0.288 0.061,-0.122 c 0.187,-0.088 0.266,-0.257 0.239,-0.502 l 0.039,-0.105 0.128,-0.184 -0.074,-0.299 0.242,-0.148 0.264,-0.056 0.185,-0.097 -0.046,-0.154 -0.658,-0.298 -0.282,-0.003 -0.189,-0.3 0.111,-0.355 -0.489,-0.905 -0.192,-0.062 c 0,0 -0.083,-0.074 -0.071,-0.247 l 0.021,-0.367 0.061,-0.12 -0.064,-0.312 -0.178,-0.039 0.004,-0.69 0.03,-0.106 -0.087,-0.199 -0.142,-0.156 c 0.047,-0.212 -0.019,-0.286 -0.194,-0.224 l -0.12,-0.273 -0.134,-0.046 -0.064,-0.139 -0.351,-0.258 c -0.125,-0.262 -0.274,-0.396 -0.448,-0.394 l -0.105,-0.147 -0.033,-0.39 0.129,-0.411 -0.23,-0.635 -0.327,-0.178 -0.051,0.053 -0.267,-0.497 0.211,-0.102 0.011,-0.329 -0.283,0.039 c 0,0 -0.108,0.132 -0.201,0.09 -0.092,-0.039 -0.289,-0.312 -0.289,-0.312 l 0.03,-0.149 c 0.155,0.032 0.25,-0.102 0.286,-0.402 l 0.069,-0.037 0.171,0.023 c 0.224,-0.265 0.52,-0.268 0.89,-0.012 0,0 0.215,0.044 0.475,-0.007 0.26,-0.051 0.463,-0.102 0.585,0.021 0.124,0.122 0.354,0.11 0.441,0.06 0.09,-0.051 0.112,-0.175 -0.019,-0.226 -0.132,-0.049 -0.37,-0.181 -0.377,-0.267 -0.004,-0.087 0.225,-0.145 0.225,-0.145 0,0 0.151,-0.081 0.198,-0.217 0.046,-0.135 0.095,-0.245 0.245,-0.229 0.152,0.014 0.266,-0.062 0.256,-0.18 -0.01,-0.116 -0.104,-0.369 -0.039,-0.464 0.064,-0.096 0.283,-0.282 0.283,-0.282 0,0 0.01,-0.222 0.148,-0.279 0.137,-0.056 0.229,-0.173 0.264,-0.289 0.036,-0.117 0.099,-0.254 0.099,-0.254 l 0.092,0.017 c 0,0 0.061,-0.34 0.303,-0.36 0.242,-0.02 0.298,-0.056 0.312,-0.146 0.016,-0.093 -0.164,-0.222 -0.164,-0.222 0,0 -0.198,-0.264 -0.097,-0.447 0.104,-0.183 0.41,-0.176 0.41,-0.176 0,0 0.259,0.095 0.344,-0.058 0.082,-0.153 0.007,-0.448 0.007,-0.448 0,0 -0.087,-0.208 0.16,-0.328 0.247,-0.117 0.447,0.032 0.447,0.032 0,0 0.13,0.123 0.264,0.037 0.132,-0.088 0.06,-0.374 0.06,-0.374 0,0 0.012,-0.183 0.155,-0.164 0.143,0.021 0.229,0.034 0.196,-0.134 -0.028,-0.166 -0.106,-0.396 0.017,-0.487 0.122,-0.092 0.378,-0.097 0.378,-0.097 l 0.154,0.014 -0.027,-0.587 0.044,-0.499 -0.066,-0.039 c 0,0 -0.104,-0.443 0.159,-0.474 0.266,-0.031 0.276,-0.178 0.276,-0.178 l 0.157,-0.073 c 0,0 -0.039,-0.229 0.245,-0.208 0.071,0.005 0.175,0 0.175,0 l 0.573,-0.479 0.15,-0.21 c -0.269,-0.42 -0.536,-0.931 -0.677,-1.327 -0.201,-0.574 -0.185,-0.811 -0.404,-0.979 -0.219,-0.169 -0.438,-0.017 -0.438,-0.507 0,-0.489 -0.034,-1.333 -0.235,-1.537 -0.203,-0.202 -1.264,0.406 -1.501,-0.538 -0.235,-0.946 0.169,-1.418 -0.085,-1.52 -0.252,-0.102 -1.026,0.373 -1.33,-0.067 -0.305,-0.44 -1.344,-1.368 -2.203,-0.777 -0.859,0.59 -0.758,0.388 -1.146,0.201 -0.388,-0.186 -1.804,-0.673 -2.562,-1.198 -0.758,-0.522 -0.774,-0.336 -0.792,-0.557 -0.017,-0.218 0.119,-0.337 -0.051,-0.472 -0.169,-0.135 -1.146,-0.574 -1.331,-0.844 -0.185,-0.269 -0.083,-0.218 -0.371,-0.218 -0.286,0 -0.303,0.084 -0.438,-0.102 -0.134,-0.186 0.018,-0.305 -0.269,-0.338 -0.286,-0.034 -0.438,0.034 -0.607,-0.169 -0.168,-0.202 -0.943,-0.54 -1.197,-0.337 -0.252,0.202 -0.167,0.608 -0.354,0.438 -0.185,-0.169 -0.571,-0.506 -0.724,-0.373 -0.152,0.136 -0.591,0.525 -0.81,0.288 -0.22,-0.237 0.068,-0.489 0.085,-0.725 0.017,-0.237 -0.051,-0.355 0.067,-0.474 0.117,-0.119 0.354,-0.068 0.083,-0.271 -0.269,-0.203 -0.707,-0.574 -0.775,-0.775 -0.067,-0.203 -0.167,-1.064 -1.465,-1.082 -1.298,-0.017 -1.315,0.152 -1.468,0.102 -0.152,-0.049 -0.758,-0.201 -0.944,-0.102 -0.185,0.102 -0.185,0.186 -0.37,0.034 -0.185,-0.151 -1.129,-0.523 -1.482,-0.252 -0.354,0.271 -0.725,1.249 -0.944,1.266 -0.219,0.017 -0.826,0.169 -0.81,0.572 0.018,0.406 0.71,0.508 0.422,0.762 -0.286,0.252 -0.522,0.387 -0.656,0.252 -0.136,-0.134 -0.32,-0.32 -0.473,-0.117 -0.152,0.201 0.201,0.371 0.117,0.64 -0.083,0.271 -0.657,1.115 -0.843,1.285 -0.185,0.167 -0.471,0.184 -0.606,0.184 -0.135,0 -0.809,-0.084 -1.079,0.119 -0.27,0.203 -1.027,1.012 -1.398,1.062 -0.37,0.051 -0.792,-0.051 -1.01,0.017 -0.221,0.068 -0.406,0.288 -1.198,0.119 -0.792,-0.169 -1.482,-0.758 -1.651,-1.165 -0.168,-0.406 -0.977,-0.859 -1.248,-0.792 -0.269,0.066 -0.91,0.303 -0.993,0.252 -0.084,-0.051 -0.438,-0.269 -0.658,-0.202 -0.218,0.066 -0.404,0.269 -0.993,0.269 -0.591,0 -0.473,0.017 -0.591,0.102 -0.118,0.085 -0.489,0.354 -0.54,0.167 -0.051,-0.186 0,-0.286 -0.15,-0.371 -0.152,-0.083 -0.455,-0.135 -0.624,-0.387 -0.168,-0.254 -0.405,-0.897 -0.657,-0.779 -0.254,0.119 -0.624,0.779 -1.18,0.745 -0.557,-0.034 -0.691,-0.389 -0.825,-0.304 -0.136,0.084 -0.203,0.051 -0.557,0.034 -0.354,-0.017 -2.175,-0.169 -2.343,-0.305 -0.169,-0.135 -1.08,-0.47 -1.433,-0.64 -0.353,-0.17 -0.995,-0.423 -1.415,-0.322 -0.423,0.102 -1.603,0.254 -1.889,0.44 -0.286,0.184 -1.044,1.113 -0.894,0.775 0.152,-0.338 0.792,-1.063 0.741,-1.249 -0.051,-0.186 0.321,-0.641 -0.286,-0.508 -0.606,0.136 -0.54,0.457 -0.894,0.034 -0.354,-0.42 -0.521,-0.606 -0.506,-0.809 0.017,-0.203 -0.134,-0.828 -0.354,-1.13 -0.218,-0.305 -1.061,-1.064 -1.281,-1.317 -0.218,-0.254 -0.269,-0.744 -0.521,-0.643 -0.254,0.102 -1.198,0.406 -1.13,0.051 0.068,-0.354 -0.15,-0.876 -0.286,-0.995 -0.135,-0.119 -0.572,-0.288 -0.218,-0.288 0.354,0 0.64,0.203 1.146,0.355 0.504,0.152 0.707,0.068 0.894,0.354 0.184,0.288 0.892,1.249 1.179,1.385 0.286,0.135 0.354,-0.235 0.472,0.067 0.117,0.303 0.741,1.823 1.5,1.772 0.759,-0.051 1.264,-0.591 1.55,-0.438 0.288,0.152 0.354,0.167 0.455,0 0.101,-0.167 0.068,-0.336 0.288,-0.218 0.218,0.117 0.437,0.32 0.555,0.185 0.119,-0.134 0.068,-0.252 0.32,-0.1 0.254,0.151 0.743,0.961 1.08,0.961 0.337,0 0.826,-0.084 0.995,0.068 0.167,0.152 1.279,1.029 1.921,1.012 0.639,-0.017 0.673,0 0.927,0.203 0.252,0.203 0.263,0.413 0.396,0.421 0.135,0.008 0.338,0.042 0.361,-0.167 0.025,-0.211 -0.082,-0.457 -0.303,-0.457 -0.218,0 -0.438,-0.059 -0.227,-0.186 0.21,-0.125 0.244,-0.312 0.631,-0.286 0.388,0.025 0.733,0.178 1.013,-0.025 0.277,-0.203 0.463,-0.379 0.749,-0.463 0.286,-0.085 1.205,-0.887 1.711,-0.929 0.506,-0.042 1.104,-0.119 1.424,-0.303 0.321,-0.187 0.338,-0.18 0.615,-0.119 0.278,0.058 0.886,0.125 1.07,-0.262 0.186,-0.388 0.236,-1.393 0.262,-1.714 0.025,-0.322 0.268,-0.758 0.623,-0.927 0.354,-0.169 0.402,-0.169 0.824,-0.508 0.421,-0.335 0.557,-0.69 0.811,-0.725 0.252,-0.034 0.185,-0.135 0.404,-0.474 0.219,-0.337 0.809,-0.86 1.078,-0.995 0.269,-0.135 0.388,-0.288 0.624,-0.491 0.235,-0.202 1.263,-1.957 2.325,-1.838 1.062,0.117 1.163,0.049 2.091,0.708 0.927,0.66 0.859,0.811 1.584,0.626 0.724,-0.186 1.264,-0.914 2.46,-1.384 1.196,-0.474 1.45,-0.728 1.855,-0.98 0.404,-0.254 1.584,-1.688 1.92,-1.789 0.337,-0.102 0.489,-0.119 0.558,-0.271 0.067,-0.152 0.605,-0.776 0.354,-0.793 -0.251,-0.017 -1.146,-0.371 -1.517,-0.793 -0.37,-0.422 -0.388,-1.029 -0.591,-1.029 -0.203,0 -0.673,0 -0.69,-0.169 -0.017,-0.169 -0.22,-0.44 -0.438,-0.44 -0.22,0 -1.971,-0.051 -2.545,-0.506 -0.573,-0.455 -0.58,-0.472 -0.699,-0.465 -0.116,0.01 -0.285,-0.074 -0.26,-0.167 0.025,-0.093 -0.094,-0.912 -0.203,-0.819 -0.108,0.093 -0.143,0.692 -0.38,0.625 -0.234,-0.068 -1.12,-0.684 -1.255,-0.557 -0.134,0.127 -0.775,0.591 -0.868,0.591 -0.092,0 -0.572,-0.042 -0.38,-0.176 0.195,-0.135 0.565,-0.582 0.752,-0.778 0.185,-0.193 1.111,-0.032 1.651,-0.521 0.54,-0.491 0.85,-2.525 0.765,-3.082 -0.084,-0.557 -0.152,-0.658 -0.455,-0.607 -0.303,0.051 -0.978,0.474 -1.213,0.322 -0.235,-0.152 -0.404,-0.592 -0.69,-0.592 -0.288,0 -1.45,-0.051 -1.652,0.186 -0.203,0.237 -0.321,0.641 -0.522,0.709 -0.203,0.068 -0.758,0.102 -0.809,0.271 -0.051,0.167 -0.136,0.354 -0.322,0.404 -0.185,0.051 -1.262,0.152 -1.448,0.372 -0.187,0.218 -1.365,1.283 -1.736,1.283 -0.37,0 -0.521,-0.135 -0.775,0.034 -0.252,0.169 -1.736,0.944 -2.039,1.333 -0.303,0.387 -1.061,0.506 -1.365,0.455 -0.303,-0.049 -0.371,-0.084 -0.623,0.017 -0.254,0.102 -1.08,0.034 -1.314,0.15 -0.237,0.119 -0.64,0.542 -0.591,0.373 0.051,-0.169 0.084,-0.438 -0.15,-0.506 -0.237,-0.067 -0.355,-0.607 -0.759,-0.76 -0.406,-0.152 -0.845,-0.455 -1.012,-0.387 -0.169,0.066 -0.354,0.117 -0.203,-0.034 0.152,-0.152 0.607,-0.438 1.113,-0.135 0.505,0.303 1.517,1.384 1.836,1.165 0.322,-0.218 0.574,-0.489 0.995,-0.472 0.422,0.017 0.574,-0.068 0.826,-0.152 0.252,-0.085 2.073,-1.757 2.158,-1.975 0.084,-0.218 -0.018,-0.354 0.201,-0.472 0.22,-0.118 0.152,-0.169 0.37,-0.406 0.221,-0.235 0.372,-0.605 0.676,-0.69 0.303,-0.084 0.354,-0.102 0.506,-0.254 0.15,-0.152 0.218,-0.609 0.471,-0.609 0.254,0 0.506,0.034 0.658,-0.085 0.15,-0.117 0.421,-0.555 0.64,-0.336 0.22,0.22 -0.102,0.371 0.54,0.404 0.64,0.034 0.791,0.051 1.349,-0.119 0.555,-0.167 0.69,-0.724 1.686,-0.775 0.993,-0.051 1.347,-0.084 1.617,0.119 0.27,0.203 0.085,0.034 0.438,-0.102 0.353,-0.136 1.734,-0.946 2.022,-0.659 0.286,0.286 0.102,0.27 0.404,0.32 0.302,0.05 0.219,-0.119 0.606,0.102 0.387,0.22 0.573,0.675 0.809,0.389 0.236,-0.288 0.321,-0.591 0.338,-0.912 0.018,-0.32 -0.051,-0.709 0.521,-1.064 0.574,-0.354 2.158,-1.351 2.429,-1.772 0.269,-0.421 0.319,-0.929 0.741,-1.063 0.421,-0.135 0.438,-0.067 0.557,-0.203 0.117,-0.133 0.32,-0.201 0.824,-0.387 0.506,-0.187 0.894,-0.845 1.029,-1.384 0.135,-0.542 0.707,-0.912 0.876,-1.215 0.168,-0.305 0.455,-0.76 0.136,-0.863 -0.321,-0.1 -0.557,-0.185 -0.607,-0.371 -0.051,-0.185 0.017,-1.688 0.388,-1.891 0.37,-0.203 1.062,-0.355 1.399,-1.097 0.337,-0.744 0.37,-0.76 0.1,-0.744 -0.27,0.019 -2.105,0.169 -2.24,-0.051 -0.136,-0.217 -0.86,-0.809 -0.623,-0.843 0.235,-0.034 0.319,0.135 0.521,-0.068 0.203,-0.203 0.354,-0.355 0.573,-0.338 0.219,0.019 0.741,-0.017 0.894,0.44 0.15,0.457 0.27,0.557 0.471,0.474 0.203,-0.084 0.404,-1.047 0.591,-1.401 0.186,-0.355 0.234,-0.846 0.067,-0.878 -0.169,-0.036 -0.506,-0.019 -0.286,-0.22 0.219,-0.201 0.64,-0.32 0.926,-0.675 0.288,-0.355 0.271,-0.542 0.573,-0.607 0.304,-0.068 0.489,-0.034 0.775,-0.201 0.286,-0.169 0.591,-0.779 0.894,-0.863 0.303,-0.084 0.472,0 0.624,-0.22 0.151,-0.218 0.81,-1.569 0.977,-1.586 0.17,-0.017 0.203,0 0.235,-0.15 0.034,-0.152 0.018,-0.762 0.203,-0.795 0.187,-0.034 0.557,-0.068 0.574,-0.152 0.017,-0.083 1.162,-1.467 1.229,-2.024 0.068,-0.559 -0.203,-0.592 0.101,-0.811 0.305,-0.22 0.438,-1.081 0.438,-1.806 0,-0.728 0.102,-1.132 -0.066,-1.401 -0.169,-0.271 -0.438,-0.474 -0.254,-0.677 0.187,-0.201 0.573,-0.438 0.726,-0.707 0.151,-0.271 -0.033,-0.542 0.253,-0.76 0.285,-0.22 0.336,-0.119 0.37,-0.355 0.034,-0.235 -0.085,-0.995 0.237,-1.198 0.318,-0.201 0.252,-0.117 0.352,-0.286 0.102,-0.169 1.046,-1.283 1.062,-1.604 0.018,-0.322 0.085,-0.423 0.221,-0.508 0.134,-0.083 0.286,-0.034 0.286,-0.186 0,-0.151 0.303,-1.165 0.724,-1.855 0.422,-0.694 0.708,-1.166 0.674,-1.351 -0.034,-0.186 -0.286,-0.491 -0.404,-0.423 -0.117,0.068 -0.354,0.271 -0.606,0.372 -0.252,0.102 -1.433,0.388 -0.978,0 0.455,-0.389 1.18,-0.694 1.196,-1.014 0.016,-0.32 -0.219,-0.252 -0.252,-0.489 -0.034,-0.237 0.118,-0.995 0.017,-1.063 -0.102,-0.067 -0.675,-0.203 -0.421,-0.288 0.252,-0.084 0.573,-0.017 0.555,-0.254 -0.016,-0.237 1.104,-3.757 1.709,-4.799 0.606,-1.042 0.841,-1.917 0.875,-2.322 0.034,-0.403 0.034,-0.975 0.303,-0.771 0.27,0.199 0.773,-0.741 1.683,-1.381 0.908,-0.64 2.019,-1.95 2.118,-2.422 0.102,-0.472 0.034,-0.74 0.27,-0.977 0.237,-0.235 0.942,-0.839 0.942,-1.11 0,-0.267 0,-0.267 0.235,-0.538 0.235,-0.267 1.379,-1.784 1.212,-1.983 -0.169,-0.203 -0.741,-0.271 -0.64,-0.504 0.102,-0.237 0.402,-0.54 0.201,-0.674 -0.201,-0.135 -0.402,-0.271 -0.201,-0.437 0.201,-0.169 0.841,0.2 0.707,-0.135 -0.135,-0.337 -0.404,-0.674 -0.741,-0.64 -0.337,0.034 -0.369,-0.068 -0.369,-0.337 0,-0.269 0.134,-1.714 -0.135,-2.153 -0.27,-0.438 -0.74,-1.548 -0.538,-2.053 0.201,-0.504 0.437,-0.64 0.167,-0.907 -0.269,-0.271 -1.413,-0.405 -1.815,-1.246 -0.404,-0.841 -1.379,-3.129 -1.683,-2.894 -0.303,0.237 -0.37,0.572 -0.841,0.403 -0.471,-0.166 -0.942,0 -1.01,-0.301 -0.066,-0.303 0.169,-0.606 -0.101,-0.775 -0.269,-0.167 -0.841,0.203 -1.245,0 -0.404,-0.2 -0.909,-0.2 -1.21,-0.2 -0.303,0 -1.107,-0.015 -1.224,0.069 -0.118,0.084 -0.591,0.777 -0.843,0.946 -0.252,0.168 -0.809,0.792 -1.163,0.623 -0.354,-0.167 -0.539,-0.32 -0.774,-0.286 -0.237,0.034 -0.44,0.051 -0.523,-0.034 -0.084,-0.084 -0.421,-0.252 -0.59,-0.151 -0.168,0.1 -0.304,0.151 -0.405,0.1 -0.102,-0.049 -0.859,-0.929 -1.129,-0.912 -0.269,0.017 -0.675,0.22 -0.675,0.44 0,0.22 0.118,0.472 -0.168,0.574 -0.285,0.102 -0.37,0.523 -0.622,0.269 -0.254,-0.252 -0.187,-0.438 -0.54,-0.286 -0.353,0.152 -0.254,0.421 -0.624,0.455 -0.371,0.034 -1.146,-0.237 -1.4,-0.051 -0.252,0.187 -0.252,0.187 -0.402,0.187 -0.152,0 -1.281,-0.354 -1.467,-0.271 -0.187,0.084 -0.438,0.423 -0.591,0.288 -0.15,-0.135 -0.201,-0.203 -0.286,-0.203 -0.085,0 -0.473,0.034 -0.928,-0.237 -0.455,-0.269 -0.388,-0.606 -0.605,-0.504 -0.22,0.1 -1.736,0.235 -1.972,0.1 -0.237,-0.134 -0.54,-0.438 -0.775,-0.371 -0.236,0.067 -0.691,0.203 -1.028,0.067 -0.337,-0.135 -0.54,-0.541 -0.676,-0.288 -0.134,0.254 -0.521,0.743 -0.656,0.525 -0.136,-0.22 -0.067,-0.423 -0.354,-0.457 -0.287,-0.034 -0.775,-0.169 -0.894,-0.321 -0.117,-0.151 -0.187,-0.27 -0.32,-0.136 -0.135,0.136 -0.673,0.203 -1.079,0.187 -0.403,-0.017 -0.572,-0.792 -0.843,-0.691 -0.27,0.1 -1.011,0.388 -1.364,0.388 -0.353,0 -0.422,-0.152 -0.607,0.102 -0.185,0.252 -0.455,0.658 -1.163,0.895 -0.707,0.235 -0.64,0.252 -0.894,0.504 -0.252,0.254 -0.961,0.694 -1.414,0.559 -0.456,-0.135 -4.618,-1.503 -5.479,-2.009 -0.859,-0.506 -1.871,-1.165 -1.939,-1.316 -0.065,-0.152 -1.18,-0.218 -1.7,-0.051 -0.523,0.167 -2.983,0.641 -3.271,0.878 -0.286,0.235 -0.42,0.269 -0.623,0.269 -0.203,0 -1.18,-0.133 -1.046,0.085 0.135,0.22 0.59,0.895 -0.066,1.435 -0.659,0.54 -1.635,0.895 -2.124,0.861 -0.489,-0.034 -1.601,-0.406 -1.332,-0.102 0.269,0.304 1.248,1.046 0.911,1.537 -0.337,0.489 -0.591,0.152 -0.826,0.084 -0.237,-0.067 -0.792,0.472 -0.843,0.269 -0.051,-0.201 -0.388,-0.404 -0.237,-0.574 0.152,-0.169 0.557,-0.44 0.54,-0.658 -0.017,-0.22 0.235,-0.793 -0.472,-0.641 -0.707,0.152 -1.366,0.102 -1.533,0.457 -0.169,0.352 -0.388,0.589 -0.809,0.809 -0.421,0.22 -1.905,1.316 -2.478,1.773 -0.574,0.454 -2.782,1.677 -4.229,1.272 -1.445,-0.402 -2.665,-1.611 -2.665,-1.425 0,0.185 0.995,0.555 0.59,0.928 -0.404,0.372 -1.821,0.22 -1.922,0.626 -0.1,0.404 0.421,-0.22 0.828,0.455 0.404,0.675 -0.22,1.518 -0.995,1.891 -0.775,0.372 -0.86,0.692 -0.944,1.012 -0.084,0.322 -0.034,0.406 -0.371,0.423 -0.337,0.017 -0.69,-0.288 -0.69,0.017 0,0.305 -0.169,1.063 -0.337,1.3 -0.169,0.237 -0.607,0.775 -0.894,0.641 -0.288,-0.135 -0.809,-0.827 -0.944,-0.76 -0.135,0.068 -0.371,0.22 -0.371,0.322 0,0.102 -0.051,-0.152 -0.523,-0.084 -0.472,0.067 -1.955,0.978 -2.174,0.641 -0.218,-0.338 -0.218,-0.474 -0.572,-0.389 -0.354,0.084 -1.029,0.438 -1.349,0.22 -0.32,-0.22 -0.876,-0.709 -1.046,-0.591 -0.167,0.119 -0.657,0.607 -0.623,0.389 0.034,-0.22 0.894,-1.217 1.45,-1.418 0.555,-0.203 0.69,-0.22 0.993,0 0.303,0.218 0.337,0.489 0.877,0.337 0.54,-0.152 1.804,-0.237 2.107,-0.034 0.303,0.202 0.387,0.489 0.589,0.202 0.203,-0.286 1.753,-1.755 1.315,-1.906 -0.438,-0.152 -1.667,-0.22 -1.667,-0.406 0,-0.186 0.1,-0.692 0.657,-0.472 0.555,0.218 0.961,0.489 1.23,0.185 0.269,-0.303 -0.102,-0.438 0.303,-0.758 0.404,-0.321 0.894,-0.997 1.45,-0.88 0.555,0.12 1.347,0.423 1.213,0.22 -0.135,-0.202 -0.876,-0.69 -0.523,-1.317 0.354,-0.623 2.115,-2.765 2.688,-3.371 0.572,-0.605 0.953,-0.983 0.785,-1.102 -0.169,-0.118 -1.467,-0.388 -2.024,0.051 -0.555,0.438 -1.751,0.929 -2.342,0.98 -0.591,0.051 -0.86,0.017 -0.86,-0.22 0,-0.237 0.119,-0.692 -0.102,-0.658 -0.218,0.034 -1.736,-0.051 -2.073,0.218 -0.337,0.271 -2.359,1.943 -2.645,2.28 -0.288,0.336 -1.821,2.06 -2.192,2.449 -0.371,0.387 -1.196,0.944 -1.23,0.792 -0.034,-0.152 0.843,-0.758 0.843,-1.114 0,-0.356 -0.538,-0.438 -0.187,-0.709 0.355,-0.269 1.736,-1.755 2.141,-2.263 0.404,-0.506 0.152,-0.54 0.54,-0.574 0.388,-0.034 0.674,-0.051 0.792,-0.286 0.119,-0.237 -0.186,-0.828 0.252,-1.064 0.438,-0.235 0.523,0.102 0.927,-0.1 0.404,-0.203 0.607,-0.592 0.961,-0.677 0.354,-0.085 1.146,-0.186 1.399,0.017 0.252,0.203 0.354,0.423 0.538,0.288 0.186,-0.136 2.562,-2.65 2.748,-2.65 0.185,0 0.303,0.186 0.623,0.051 0.32,-0.135 1.146,-0.542 1.349,-0.169 0.203,0.373 -0.288,0.642 -0.371,0.828 -0.084,0.185 0.034,0.946 -0.034,1.063 -0.068,0.118 -0.388,0.286 -0.303,0.371 0.083,0.084 0.371,0.389 0.521,0.186 0.152,-0.203 0.169,-0.203 0.288,-0.203 0.117,0 0.555,0.338 0.843,0.102 0.286,-0.237 1.415,-1.721 1.618,-2.346 0.202,-0.624 0.252,-0.978 0.438,-1.147 0.185,-0.169 1.18,-1.031 2.124,-2.296 0.942,-1.266 1.836,-2.6 1.87,-3.055 0.034,-0.457 0.472,-0.829 0.034,-0.829 -0.438,0 -0.758,0.237 -0.979,0.592 -0.218,0.355 -0.47,1.097 -0.589,1.198 -0.118,0.102 -0.625,0.355 -0.927,0.607 -0.303,0.252 -1.061,0.102 -1.635,0.405 -0.574,0.305 -1.029,0.44 -0.911,0.152 0.119,-0.286 0.708,-0.405 0.708,-0.675 0,-0.269 -0.421,-1.249 -1.01,-1.249 -0.591,0 -2.292,1.874 -2.579,1.823 -0.286,-0.051 -1.719,-1.317 -1.921,-1.3 -0.203,0.017 -1.054,-0.44 -0.961,-0.264 0.093,0.18 0.986,0.517 0.472,0.66 -0.513,0.142 -1.205,-0.034 -1.298,-0.271 -0.093,-0.237 -0.472,-1.029 -0.53,-0.845 -0.06,0.186 -0.246,0.246 -0.254,0.135 -0.008,-0.11 -0.185,-0.59 -0.362,-0.625 -0.176,-0.034 -1.264,-0.161 -1.442,-0.008 -0.176,0.151 -0.387,0.515 -0.58,0.464 -0.195,-0.049 -0.345,-0.127 -0.43,-0.083 -0.084,0.041 -0.229,0.134 -0.354,0.024 -0.127,-0.108 -0.305,-0.312 -0.565,-0.473 -0.26,-0.161 -1.423,-0.844 -1.448,-1.037 -0.025,-0.195 -0.002,-0.508 0.235,-0.531 0.235,-0.027 0.583,0.336 0.684,0.455 0.1,0.117 0.564,0.059 0.782,0.312 0.22,0.254 0.709,0.751 0.777,0.583 0.067,-0.169 -0.06,-0.304 0.159,-0.314 0.22,-0.007 1.021,0.152 1.147,0 0.125,-0.151 0.075,-0.235 0.278,-0.235 0.201,0 0.902,0.076 1.332,0.296 0.43,0.22 0.278,0.413 0.479,0.404 0.203,-0.009 0.523,-0.337 0.658,-0.506 0.135,-0.169 0.202,-0.39 0.269,-0.21 0.068,0.176 0.034,0.716 0.178,0.826 0.142,0.11 0.329,0.531 0.489,0.322 0.159,-0.212 0.97,-0.929 1.474,-0.929 0.506,0 0.758,0 1.095,0.201 0.338,0.203 0.76,0.559 0.641,0.381 -0.118,-0.178 -0.918,-1.298 -0.228,-1.854 0.69,-0.557 0.54,-0.523 0.59,-0.811 0.051,-0.288 -0.22,-1.249 -0.354,-1.232 -0.135,0.017 -0.608,0.338 -0.743,0.136 -0.134,-0.203 -0.051,-0.169 -0.504,-0.322 -0.455,-0.152 -0.885,-0.524 -0.961,-0.922 -0.076,-0.396 -0.362,-0.834 -0.119,-0.743 0.246,0.093 0.887,0.406 0.987,0.565 0.102,0.161 0.178,0.212 0.345,0.146 0.169,-0.067 0.633,-0.482 0.734,-0.162 0.1,0.321 -0.246,0.542 -0.144,0.71 0.102,0.168 0.329,0.252 0.456,0.051 0.127,-0.203 0.354,-0.988 0.354,-1.233 0,-0.246 -0.076,-0.379 0.261,-0.607 0.338,-0.227 1.272,-0.843 1.863,-0.892 0.589,-0.051 0.809,0 0.993,-0.203 0.186,-0.201 0.235,-0.675 0.741,-0.895 0.506,-0.22 0.775,-0.22 0.775,-0.421 0,-0.202 -0.032,-1.149 0.237,-1.501 0.269,-0.355 1.325,-1.584 1.695,-1.584 0.369,0 0.202,0.102 1.615,-1.008 1.413,-1.11 2.119,-1.616 2.32,-1.616 0.203,0 1.044,-1.21 1.65,-1.481 0.604,-0.269 1.815,-1.546 2.152,-1.614 0.337,-0.068 1.085,-1.188 1.27,-1.476 0.186,-0.288 0.269,-0.288 0.269,-0.54 0,-0.254 0.135,-0.557 0.304,-0.76 0.168,-0.203 0.826,-0.828 0.86,-1.012 0.033,-0.187 -0.068,-0.728 0.167,-0.796 0.237,-0.066 0.557,-0.049 0.658,-0.286 0.102,-0.235 0.471,-1.215 1.112,-1.484 0.64,-0.271 2.226,-0.795 2.443,-1.03 0.22,-0.237 0.203,-0.32 0.758,-0.354 0.558,-0.034 0.625,-0.067 0.995,-0.237 0.371,-0.169 1.72,-1.672 1.955,-2.027 0.236,-0.354 0.472,-0.623 0.758,-0.843 0.288,-0.22 0.489,-0.524 0.676,-0.709 0.185,-0.186 0.758,-1.333 0.707,-1.486 -0.051,-0.151 -0.235,-0.085 -0.102,-0.337 0.136,-0.254 0.203,-0.321 0.203,-0.524 0,-0.203 -0.067,-0.438 0.136,-0.725 0.201,-0.288 0.538,-0.71 0.37,-0.863 -0.169,-0.151 -0.826,-0.218 -0.319,-0.386 0.504,-0.169 1.095,-0.373 1.044,-0.626 -0.051,-0.253 -0.371,-0.355 -0.203,-0.557 0.169,-0.201 0.305,-0.337 0.338,-0.591 0.032,-0.254 0.05,-0.743 -0.404,-0.474 -0.455,0.271 -1.686,0.305 -1.889,-0.134 -0.203,-0.439 -0.354,-2.618 -0.051,-2.802 0.305,-0.185 0.523,-0.303 0.894,-0.659 0.371,-0.355 0.438,-0.929 0.489,-1.13 0.051,-0.203 0.337,-0.203 0.422,-0.558 0.084,-0.354 0.017,-0.758 -0.102,-0.911 -0.117,-0.152 -0.32,-0.271 -0.117,-0.373 0.201,-0.101 0.926,-0.319 0.993,-0.573 0.068,-0.252 -0.303,-1.688 -0.051,-1.84 0.254,-0.152 0.438,-0.542 0.271,-0.66 -0.17,-0.117 -2.158,-0.167 -2.597,0.084 -0.438,0.254 -1.146,0.559 -1.349,0.355 -0.203,-0.204 -0.152,-0.743 -0.319,-0.877 -0.17,-0.135 -0.422,-0.542 -0.607,-0.389 -0.185,0.152 -0.59,0.186 -0.826,0.373 -0.235,0.186 -0.605,0.218 -0.64,0.134 -0.034,-0.083 -0.085,-0.286 -0.455,-0.235 -0.371,0.051 -0.843,0.506 -1.046,0.538 -0.201,0.036 -0.354,0.355 -0.572,0.152 -0.22,-0.201 -0.961,-0.117 -1.029,-0.303 -0.067,-0.185 -0.404,-1.436 -0.876,-1.317 -0.471,0.119 -1.381,0.844 -1.062,1.535 0.32,0.694 1.095,0.694 1.112,0.929 0.017,0.237 0.809,0.389 0.774,0.743 -0.033,0.355 -0.707,1.198 -0.859,1.113 -0.15,-0.083 -0.337,-0.235 -0.824,-0.286 -0.49,-0.051 -0.642,0.017 -0.76,-0.219 -0.118,-0.237 0.051,-0.22 -0.455,-0.321 -0.504,-0.102 -1.281,-0.203 -1.567,0.102 -0.286,0.305 -0.456,0.606 -0.691,0.642 -0.237,0.032 -1.247,-0.39 -1.096,-0.591 0.152,-0.203 0.726,-0.76 0.421,-0.794 -0.303,-0.035 -1.347,0.235 -1.72,0.354 -0.371,0.118 -1.01,0.288 -1.296,0.084 -0.288,-0.203 -0.642,-0.474 -0.792,-0.254 -0.152,0.22 0.066,0.778 -0.136,0.745 -0.203,-0.034 -0.286,-0.321 -0.673,-0.051 -0.389,0.269 -1.266,0.69 -1.399,0.911 -0.136,0.22 -0.54,0.658 -0.809,0.859 -0.271,0.203 -0.489,0.07 -0.489,0.203 0,0.136 0.025,0.487 -0.176,0.547 -0.203,0.059 -0.32,-0.658 -0.658,-0.523 -0.337,0.135 -1.466,0.607 -1.751,0.506 -0.288,-0.102 -1.046,-0.313 -1.131,-0.144 -0.084,0.169 -0.184,0.514 -0.227,0.474 -0.042,-0.044 -0.784,-0.912 -1.012,-0.717 -0.227,0.193 -0.15,0.345 -0.286,0.193 -0.136,-0.152 -0.042,-0.345 -0.237,-0.244 -0.193,0.102 -1.169,0.328 -1.347,0 -0.178,-0.329 -0.11,-1.865 -0.405,-1.562 -0.296,0.303 -0.859,1.545 -1.037,1.596 -0.176,0.051 -0.396,0.044 -0.464,0.264 -0.067,0.22 -0.051,0.995 -0.237,0.843 -0.185,-0.151 -0.875,-0.572 -0.994,-0.555 -0.118,0.017 -0.336,-0.305 -0.438,-0.203 -0.102,0.102 -0.303,0.271 -0.388,0.152 -0.084,-0.119 -0.387,-0.491 -0.489,-0.254 -0.102,0.237 -0.136,0.978 -0.303,1.012 -0.169,0.034 -0.254,0.576 -0.557,0.373 -0.303,-0.203 -0.911,-0.794 -0.995,-0.607 -0.083,0.185 0.574,1.283 0.271,1.249 -0.303,-0.034 -0.843,-0.523 -0.911,-0.354 -0.068,0.169 0.455,0.894 0.438,1.08 -0.017,0.187 -0.167,0.489 -0.32,0.44 -0.152,-0.05 -0.506,-0.507 -0.506,-0.66 0,-0.153 -0.271,-0.254 -0.336,-0.119 -0.068,0.135 -0.152,0.406 -0.32,0.203 -0.169,-0.203 -0.339,-0.169 -0.187,-0.338 0.152,-0.167 0.203,-0.119 0.152,-0.437 -0.051,-0.322 -0.455,-0.474 -0.826,-0.457 -0.371,0.017 -0.843,0.305 -1.012,0.203 -0.167,-0.102 -0.859,-0.017 -0.944,0.118 -0.083,0.136 -0.419,1.317 -0.69,1.436 -0.269,0.117 -1.213,0.842 -1.23,1.096 -0.017,0.254 -0.136,0.86 -0.252,0.944 -0.118,0.084 -0.338,0.135 -0.338,0.305 0,0.17 -0.134,0.54 -0.252,0.625 -0.119,0.084 -0.743,1.132 -0.826,0.828 -0.083,-0.305 0.235,-0.305 0.32,-0.861 0.085,-0.557 0,-0.608 0.169,-0.912 0.169,-0.303 0.203,-0.169 0.254,-0.54 0.049,-0.371 -0.389,-0.371 0.066,-0.726 0.455,-0.354 1.281,-1.316 1.163,-1.351 -0.119,-0.034 -0.673,-0.152 -0.623,-0.336 0.051,-0.186 0.169,-0.405 0.169,-0.828 0,-0.423 -0.084,-0.896 -0.254,-0.777 -0.169,0.119 -0.589,0.625 -0.589,0.404 0,-0.218 0,-0.269 -0.152,-0.438 -0.152,-0.167 -0.64,-0.455 -0.91,-0.692 -0.271,-0.237 -0.305,-0.607 -0.623,-0.489 -0.321,0.117 -0.152,0.371 -0.288,0.252 -0.136,-0.119 -0.337,-0.337 -0.555,-0.32 -0.22,0.017 -0.54,0.455 -0.726,0.252 -0.184,-0.201 -0.235,-0.555 -0.623,-0.252 -0.388,0.303 -0.86,1.266 -0.59,1.653 0.271,0.389 0.54,0.524 0.355,0.728 -0.186,0.202 -0.558,1.063 -0.558,1.165 0,0.102 -0.27,0.404 -0.285,0.135 -0.017,-0.271 0,-0.542 -0.135,-0.474 -0.135,0.067 -0.574,-0.017 -0.775,0.372 -0.203,0.388 -0.508,1.114 -0.389,1.384 0.118,0.269 0.22,0.388 0.067,0.421 -0.15,0.034 -1.18,0.456 -1.229,0.574 -0.051,0.119 -0.102,0.423 -0.237,0.457 -0.135,0.034 -0.557,0.066 -0.591,0.32 -0.032,0.252 -0.032,0.726 -0.15,0.76 -0.119,0.034 -1.114,0.322 -0.995,0.068 0.118,-0.254 1.23,-2.363 1.703,-3.04 0.47,-0.675 0.995,-1.435 0.995,-1.621 0,-0.185 -0.186,-0.487 0,-0.487 0.185,0 0.403,0.017 0.386,-0.085 -0.017,-0.102 -0.235,-0.524 -0.606,-0.795 -0.371,-0.27 -0.623,-0.235 -0.86,-0.437 -0.235,-0.203 0.017,-0.406 -0.169,-0.44 -0.185,-0.034 -0.69,0.22 -0.758,0.051 -0.068,-0.169 -0.167,-0.793 -0.167,-1.012 0,-0.22 -0.506,-0.406 -0.574,-0.66 -0.068,-0.252 -0.354,-0.538 -0.371,-0.201 -0.017,0.336 0.59,0.658 0.455,0.929 -0.135,0.269 -1.046,0.202 -1.046,0.471 0,0.271 -0.118,0.829 0.085,0.997 0.203,0.169 0.64,0.286 0.438,0.726 -0.201,0.44 -0.859,1.858 -0.959,1.503 -0.102,-0.355 -0.169,-0.406 -0.372,-0.373 -0.202,0.034 -0.438,0.017 -0.102,-0.269 0.338,-0.288 0.811,-0.692 0.741,-0.997 -0.066,-0.305 -0.623,-0.674 -0.623,-1.097 0,-0.423 0.136,-1.063 -0.152,-1.435 -0.284,-0.373 -1.127,-1.165 -1.601,-1.3 -0.471,-0.135 -0.708,0.051 -0.994,-0.186 -0.286,-0.237 -0.692,-0.373 -0.709,-0.135 -0.015,0.237 -0.034,0.592 -0.335,0.44 -0.305,-0.152 -1.434,-1.063 -1.601,-0.878 -0.169,0.185 -0.203,2.076 -0.592,2.853 -0.386,0.777 -1.044,1.958 -1.33,2.077 -0.288,0.118 -0.523,-0.068 -0.657,0.186 -0.135,0.254 -1.029,0.673 -1.046,0.995 -0.017,0.322 -0.354,1.587 -0.186,1.909 0.169,0.32 1.283,0.405 1.283,0.572 0,0.169 -0.254,0.237 0.151,0.389 0.404,0.152 0.692,0.119 0.894,0.338 0.201,0.218 0.371,0.301 0.658,0.437 0.284,0.136 1.449,0.83 1.262,0.982 -0.186,0.15 -0.169,0.252 -0.118,0.403 0.051,0.152 0.658,0.558 0.254,0.592 -0.405,0.034 -0.589,-0.304 -0.826,-0.609 -0.237,-0.301 -0.826,-0.894 -1.029,-0.826 -0.201,0.067 -0.051,0.355 -0.337,0.22 -0.286,-0.135 -1.027,-0.186 -0.858,0.051 0.167,0.235 0.538,0.421 0.301,0.421 -0.235,0 -1.246,0.034 -0.927,0.286 0.321,0.254 0.692,0.643 1.012,0.626 0.322,-0.017 0.944,0.068 1.182,0.22 0.235,0.15 0.318,0.235 0.133,0.386 -0.184,0.152 -0.909,0 -0.792,0.22 0.119,0.22 1.129,0.525 0.86,0.643 -0.269,0.117 -0.337,0.421 -0.269,0.572 0.068,0.152 0.354,0.559 0.034,0.338 -0.321,-0.22 -0.44,-0.372 -0.59,-0.271 -0.151,0.101 -0.405,0.372 -0.421,0.135 -0.017,-0.237 -0.271,-0.472 -0.472,-0.456 -0.202,0.017 -0.371,0.083 -0.438,-0.067 -0.068,-0.151 -0.237,-0.489 -0.354,-0.371 -0.117,0.118 -0.388,0.254 -0.405,0.017 -0.017,-0.237 -0.237,-0.796 -0.521,-0.878 -0.288,-0.085 -0.254,0.76 -0.152,0.929 0.102,0.167 0.371,0.286 0.135,0.388 -0.237,0.1 -0.709,1.266 -0.658,1.435 0.049,0.167 0.724,0.607 0.421,0.607 -0.303,0 -0.978,-0.118 -0.809,0.152 0.169,0.269 0.758,0.826 0.64,0.928 -0.118,0.102 -0.419,0.626 -0.218,0.524 0.202,-0.102 0.792,-0.305 0.841,-0.119 0.051,0.187 0.067,0.32 -0.032,0.523 -0.102,0.202 0.032,0.523 0.134,0.421 0.102,-0.102 0.144,0.091 0.067,0.261 -0.074,0.167 -0.118,0.413 -0.034,0.548 0.084,0.135 0.22,0.159 0.288,0.43 0.068,0.271 0.42,0.911 0.985,1.165 0.565,0.254 2.048,0.415 2.192,0.305 0.144,-0.11 0.75,0.304 0.978,0.22 0.227,-0.084 0.784,0.058 1.021,-0.068 0.233,-0.126 0.748,-0.034 1.103,0.21 0.354,0.246 0.337,0.271 -0.169,0.288 -0.504,0.017 -2.3,-0.144 -2.115,0.084 0.186,0.227 1.433,1.335 1.147,1.335 -0.288,0 -0.675,0.152 -0.961,-0.083 -0.288,-0.237 -0.758,-0.457 -0.775,-0.711 -0.017,-0.252 0.184,-0.421 -0.136,-0.421 -0.321,0 -0.623,0.371 -0.792,0.269 -0.169,-0.1 -1.097,0.084 -1.147,-0.134 -0.051,-0.22 -0.959,-1.149 -1.144,-1.047 -0.187,0.102 -0.944,0.677 -1.097,0.643 -0.152,-0.034 -0.725,-0.051 -0.725,0.084 0,0.134 0.674,0.927 0.521,1.232 -0.151,0.303 -0.352,-0.946 -0.775,-0.963 -0.419,-0.017 -0.741,0.152 -0.826,0.017 -0.085,-0.135 -0.102,-0.271 -0.235,-0.152 -0.135,0.119 -0.455,0.124 -0.565,0.157 -0.11,0.034 -0.32,-0.135 -0.523,0.093 -0.202,0.229 -0.934,0.489 -1.044,0.719 -0.11,0.227 -0.167,0.521 -0.371,0.555 -0.203,0.034 -0.362,0.22 -0.379,0.027 -0.017,-0.196 -0.152,-0.66 -0.271,-0.778 -0.119,-0.117 -0.564,-0.024 -0.742,-0.193 -0.176,-0.169 -0.303,-0.339 -0.514,-0.447 -0.21,-0.112 -0.337,-0.152 -0.345,-0.288 -0.008,-0.136 0.059,-0.591 -0.152,-0.474 -0.21,0.119 -0.538,0.491 -0.515,0.711 0.027,0.218 0.169,0.277 0.019,0.438 -0.152,0.161 -0.245,0.347 -0.135,0.405 0.11,0.059 0.607,0.186 0.817,0.448 0.21,0.261 0.102,0.413 0.244,0.48 0.144,0.068 0.33,0.017 0.313,0.202 -0.017,0.186 -0.211,0.643 -0.05,0.711 0.161,0.067 0.682,0.067 0.675,0.152 -0.01,0.085 -0.347,0.725 -0.102,0.911 0.244,0.186 0.725,0.059 0.86,0.262 0.135,0.202 -0.095,0.625 0.117,0.658 0.211,0.034 1.357,-0.271 1.357,-0.144 0,0.127 -0.312,0.421 -0.557,0.455 -0.244,0.034 -0.583,-0.068 -0.615,0.152 -0.034,0.22 0.379,0.396 0.591,0.362 0.21,-0.034 0.555,0.034 0.833,-0.134 0.278,-0.169 0.625,0.032 0.531,0.185 -0.093,0.152 -0.582,0.785 -0.775,0.895 -0.193,0.11 -1.306,-0.017 -1.12,0.144 0.184,0.161 0.26,0.423 0.548,0.328 0.284,-0.091 0.614,0.027 0.597,0.262 -0.017,0.235 -0.489,0.482 -0.421,0.684 0.068,0.202 0.43,0.371 0.379,0.482 -0.051,0.108 -0.531,0.438 -0.514,0.599 0.017,0.159 0.244,0.606 0.118,0.64 -0.125,0.034 -0.304,0.078 -0.277,0.196 0.024,0.117 0.437,0.481 0.193,0.396 -0.244,-0.084 -0.447,-0.017 -0.504,0.102 -0.061,0.119 -0.084,0.589 -0.338,0.43 -0.254,-0.161 -0.108,-0.194 -0.354,-0.227 -0.246,-0.034 -0.337,0.159 -0.421,-0.034 -0.084,-0.196 -0.227,-0.576 -0.481,-0.542 -0.252,0.034 -0.286,0.498 -0.218,0.701 0.066,0.203 -0.019,0.944 -0.161,0.768 -0.142,-0.178 -0.142,-0.995 -0.724,-1.689 -0.582,-0.69 -1.349,-1.476 -1.459,-1.384 -0.108,0.095 -0.582,0.701 -0.582,0.963 0,0.262 0.068,0.482 -0.032,0.591 -0.102,0.11 -0.102,0.245 -0.008,0.347 0.091,0.1 0.379,0.591 0.538,0.642 0.163,0.051 0.768,0.193 0.741,0.455 -0.023,0.262 -0.563,0.845 -0.403,0.938 0.159,0.093 0.563,0 0.708,0.144 0.142,0.142 0.328,0.227 0.464,0.169 0.135,-0.061 0.159,-0.448 0.565,-0.111 0.403,0.338 0.563,0.592 0.515,0.793 -0.051,0.203 -0.095,0.601 0.083,0.607 0.178,0.01 0.413,0.068 0.464,0.212 0.051,0.144 0.034,0.279 0.235,0.431 0.203,0.152 0.724,0.589 0.633,0.674 -0.093,0.084 -0.203,0.163 -0.076,0.262 0.127,0.102 1.078,0.167 1.357,0.448 0.279,0.278 0.682,0.572 1.027,0.708 0.345,0.135 1.054,0.229 1.13,0.33 0.074,0.102 0.345,-0.33 0.371,-0.22 0.025,0.11 0.144,0.896 0.025,0.955 -0.119,0.059 -0.785,0.709 -0.961,0.784 -0.178,0.078 -0.404,0.271 -0.294,0.349 0.108,0.074 2.2,1.85 2.503,2.187 0.303,0.338 0.977,0.186 1.095,0.71 0.119,0.521 1.046,2.329 0.877,2.549 -0.169,0.218 0.034,0.843 -0.152,0.506 -0.185,-0.337 -1.449,-3.021 -1.601,-3.073 -0.152,-0.051 -0.589,0.052 -0.741,-0.134 -0.152,-0.186 -2.208,-2.296 -2.698,-2.465 -0.487,-0.169 -1.044,0.641 -1.785,0.387 -0.743,-0.252 -1.652,-0.64 -1.719,-0.927 -0.068,-0.288 0.051,-0.524 -0.134,-0.524 -0.186,0 -0.381,0.396 -0.389,0.497 -0.009,0.102 -0.11,0.017 -0.227,-0.095 -0.118,-0.108 -0.918,-0.218 -0.836,0 0.085,0.22 0.583,0.644 0.608,0.786 0.025,0.144 0.783,0.321 0.961,0.288 0.178,-0.034 0.648,0.227 0.792,0.413 0.144,0.186 0.371,1.269 0.557,1.404 0.187,0.135 1.838,0.32 1.972,0.625 0.134,0.303 0.051,0.607 0.185,0.743 0.135,0.136 0.809,0.642 0.524,0.642 -0.288,0 -3.104,-1.014 -3.254,-1.283 -0.151,-0.271 -0.405,-0.946 -0.675,-1.217 -0.268,-0.269 -0.841,-0.286 -1.042,-0.523 -0.203,-0.235 -0.845,-0.743 -1.08,-0.675 -0.237,0.068 -0.489,1.08 -0.438,1.165 0.051,0.084 0.235,0.406 0.051,0.44 -0.186,0.034 -0.068,0.607 -0.237,0.641 -0.168,0.034 0.051,0.963 -0.252,0.963 -0.305,0 -1.838,-0.71 -2.124,-0.726 -0.286,-0.019 -0.438,-0.019 -0.608,-0.271 -0.167,-0.252 -0.47,-1.67 -0.47,-1.975 0,-0.304 0.118,-0.438 -0.084,-0.59 -0.203,-0.152 -0.489,0.726 -0.589,0.371 -0.102,-0.355 -0.624,-1.046 -1.029,-0.978 -0.404,0.067 -1.08,1.721 -1.029,1.89 0.051,0.169 0.591,0.472 0.203,0.506 -0.389,0.034 -0.455,0.119 -0.322,0.406 0.136,0.286 0.102,1.063 0.288,1.063 0.186,0 1.146,0.304 1.533,0.76 0.387,0.455 0.288,1.772 0.169,1.907 -0.118,0.135 -0.406,0.304 -0.203,0.44 0.203,0.135 0.54,0.64 0.288,0.724 -0.253,0.084 -0.69,-0.387 -0.893,-0.286 -0.203,0.101 -0.152,0.793 0.017,0.929 0.167,0.136 0.589,0.388 0.371,0.606 -0.218,0.22 -1.603,-1.165 -1.904,-1.67 -0.305,-0.506 -0.557,-0.489 -0.372,-0.793 0.186,-0.305 0.237,-0.237 0.22,-0.54 -0.017,-0.303 -1.147,-1.181 -1.012,-1.587 0.135,-0.404 0.557,-0.929 0.389,-1.046 -0.169,-0.118 -1.13,0.354 -1.45,0.167 -0.32,-0.184 -0.438,-0.387 -0.828,-0.201 -0.386,0.185 -0.268,0.388 -0.725,0.354 -0.453,-0.034 -1.146,-0.067 -1.012,0.288 0.135,0.355 0.423,0.542 0.288,0.86 -0.135,0.322 -0.169,0.423 0.017,0.829 0.186,0.405 0.303,1.721 0.237,2.125 -0.068,0.406 -0.305,1.165 -0.186,1.317 0.118,0.152 0.404,0.338 0.203,0.389 -0.203,0.051 -0.559,0.523 -0.271,0.675 0.288,0.15 0.944,0.15 1.097,0.388 0.15,0.237 0.369,0.457 0.623,0.491 0.254,0.034 1.398,-0.305 1.669,0.135 0.271,0.437 0.203,0.731 0.311,0.807 0.108,0.076 0.599,0.54 0.538,0.834 -0.057,0.298 0.044,0.938 -0.411,0.609 -0.455,-0.33 -2.039,-1.045 -2.285,-0.971 -0.244,0.076 -0.387,0.66 -0.54,0.694 -0.151,0.032 -0.515,0.066 -0.437,0.227 0.074,0.161 0.286,0.43 0.235,0.515 -0.051,0.085 -0.75,1.185 -0.851,1.909 -0.102,0.728 0.119,0.896 0.355,0.66 0.235,-0.237 0.318,-0.372 0.606,-0.169 0.288,0.203 1.432,1.822 1.499,2.06 0.068,0.235 -0.201,0.709 0.102,0.997 0.305,0.286 1.248,0.386 1.298,0.724 0.05,0.338 -0.279,0.352 -0.303,0.481 -0.027,0.125 0.943,0.8 1.078,0.751 0.134,-0.051 0.767,-0.431 0.909,-0.423 0.146,0.008 0.195,0.161 0.464,0.076 0.271,-0.084 0.616,-0.195 0.785,-0.102 0.169,0.093 0.286,0.269 0.775,0.269 0.489,0 1.567,0.281 1.381,0.789 -0.183,0.506 -0.47,0.725 -0.64,0.607 -0.169,-0.118 -0.521,-0.22 -0.656,-0.169 -0.136,0.051 -0.523,0.489 -0.625,0.337 -0.1,-0.152 -0.657,-0.555 -0.841,-0.337 -0.186,0.218 -0.203,0.777 -0.491,0.59 -0.284,-0.186 -0.233,-0.59 -0.454,-0.59 -0.22,0 -0.491,0.201 -0.372,0.404 0.118,0.203 0.491,1.249 0.135,0.912 -0.354,-0.337 -1.044,-1.081 -1.213,-1.115 -0.167,-0.032 -0.235,0.169 -0.421,-0.032 -0.186,-0.203 -0.421,-0.658 -0.724,-0.776 -0.305,-0.119 -0.489,0.118 -0.557,-0.085 -0.066,-0.203 -0.032,-0.491 -0.303,-0.641 -0.271,-0.151 -0.305,0.1 -0.555,-0.135 -0.254,-0.235 -0.743,-0.574 -0.927,-0.862 -0.186,-0.288 -0.102,-0.707 -0.322,-0.607 -0.22,0.102 -0.859,0.305 -0.758,0.642 0.102,0.338 0.338,0.895 0.186,0.812 -0.152,-0.084 -0.472,-0.508 -0.591,-0.22 -0.117,0.286 0.017,1.789 -0.201,2.143 -0.22,0.355 -0.288,3.191 -0.084,3.765 0.201,0.574 0.387,0.811 0.673,0.777 0.288,-0.034 0.911,-0.085 0.826,0.237 -0.084,0.32 -0.826,0.775 -0.623,1.147 0.203,0.371 0.504,1.113 0.673,1.469 0.169,0.354 -0.421,1.317 0.203,2.041 0.623,0.728 1.213,0.643 1.989,0.068 0.775,-0.572 1.366,-1.368 1.853,-1.604 0.489,-0.235 1.062,-0.775 1.482,-1.08 0.423,-0.305 0.575,-0.911 0.592,-0.625 0.017,0.288 -0.305,0.438 -0.068,0.726 0.235,0.288 0.64,0.575 0.403,0.828 -0.235,0.252 -1.719,0.404 -1.567,0.624 0.152,0.22 1.533,0.523 1.804,0.743 0.271,0.218 0.894,0.235 1.213,-0.102 0.319,-0.337 1.853,-2.212 2.191,-2.583 0.337,-0.371 0.979,-0.929 1.095,-0.574 0.119,0.355 -0.523,0.927 -0.523,1.13 0,0.203 0.135,0.322 -0.152,0.625 -0.284,0.305 -1.887,1.958 -2.308,2.026 -0.42,0.067 -0.86,-0.119 -1.129,0.135 -0.269,0.254 -1.163,0.692 -1.383,0.692 -0.218,0 -0.538,0.371 -0.961,0.269 -0.42,-0.1 -0.858,-0.371 -0.824,-0.167 0.032,0.201 0.841,0.489 0.557,0.506 -0.288,0.017 -0.894,0.169 -1.198,0.557 -0.303,0.389 -0.504,0.574 -0.521,0.845 -0.017,0.271 -0.254,1.485 0.218,1.35 0.472,-0.135 0.54,-0.474 0.926,-0.372 0.389,0.102 0.305,0.338 0.59,0.102 0.286,-0.235 0.523,-0.438 0.709,-0.32 0.187,0.117 0.454,0.387 0.555,0.574 0.102,0.186 0.574,-0.489 0.758,-0.237 0.186,0.254 0.338,0.525 0.709,0.203 0.371,-0.321 0.607,-0.152 0.909,-0.254 0.305,-0.101 0.506,0.169 0.625,0.271 0.117,0.102 1.248,1.655 1.989,2.076 0.741,0.422 1.973,0.456 1.821,0.489 -0.152,0.033 -1.012,1.367 -1.181,1.114 -0.167,-0.252 -1.701,-1.654 -2.021,-2.16 -0.321,-0.508 -0.624,-1.012 -0.91,-0.997 -0.288,0.019 -1.383,0.675 -2.073,0.777 -0.692,0.102 -1.349,0.372 -1.501,0.575 -0.152,0.201 -0.352,0.978 -0.167,1.08 0.185,0.102 0.673,0.186 0.69,0.421 0.017,0.235 -0.303,0.726 -0.303,0.861 0,0.136 -1.483,1.131 -1.517,1.418 -0.034,0.287 0,0.455 -0.186,0.523 -0.186,0.067 -0.034,0.084 0.068,0.186 0.102,0.1 0.352,0.946 0.876,1.029 0.521,0.084 1.938,-0.051 2.274,0.271 0.337,0.32 0.355,0.523 0.589,0.641 0.237,0.119 0.524,0.051 0.592,0.237 0.066,0.185 -0.406,0.388 0.167,0.708 0.574,0.322 1.213,0.66 1.467,0.575 0.252,-0.084 2.088,-0.861 2.562,-0.71 0.471,0.152 1.313,0.626 0.826,0.524 -0.491,-0.102 -1.215,0.102 -2.109,0.237 -0.894,0.136 -1.668,0.286 -1.753,0.506 -0.085,0.218 -0.068,0.929 -0.218,0.692 -0.151,-0.237 -1.062,-0.76 -1.383,-1.13 -0.32,-0.372 -0.876,-1.082 -1.129,-1.115 -0.252,-0.034 -0.623,0.151 -0.926,-0.034 -0.304,-0.185 -0.203,-0.202 -0.507,-0.202 -0.303,0 -0.369,0.337 -0.708,0.303 -0.337,-0.034 -1.364,-0.051 -1.465,0.102 -0.102,0.15 -0.051,0.675 -0.22,0.895 -0.169,0.218 -1.889,1.484 -1.972,1.855 -0.083,0.372 0.085,0.964 0.187,1.117 0.1,0.151 0.066,0.894 0.133,0.708 0.068,-0.186 0.169,-0.557 0.39,-0.726 0.218,-0.167 0.318,-0.421 0.335,-0.201 0.017,0.22 0.084,0.724 0.271,0.91 0.187,0.186 0.294,0.24 0.316,0.294 0.022,0.054 0.181,-0.105 0.244,-0.194 0.063,-0.088 0.32,-0.43 0.67,-0.333 0.35,0.098 1.272,0.469 1.104,0.689 -0.167,0.218 -0.557,0.194 -0.43,0.43 0.127,0.236 0.43,1.132 0.692,1.249 0.261,0.118 1.398,0.82 1.719,0.685 0.32,-0.135 0.521,-0.421 0.943,-0.455 0.422,-0.034 0.54,-0.169 0.859,-0.288 0.32,-0.117 0.86,-0.557 0.961,-0.286 0.1,0.269 0,0.152 0.269,0.303 0.271,0.152 0.809,0.371 0.338,0.371 -0.474,0 -1.652,0.152 -2.412,0.39 -0.758,0.237 -1.179,0.675 -1.702,0.557 -0.523,-0.117 -1.769,-0.642 -2.005,-0.946 -0.237,-0.303 -0.303,-1.164 -0.944,-1.401 -0.64,-0.235 -2.681,-0.068 -2.88,0.288 -0.203,0.355 -0.743,1.975 -0.625,2.178 0.117,0.202 0.235,-0.218 0.54,0.051 0.303,0.269 0.758,0.1 1.078,0.218 0.32,0.119 1.095,-0.15 2.022,0.305 0.927,0.457 2.241,0.709 2.545,0.457 0.303,-0.254 0.218,-0.44 0.826,-0.237 0.606,0.203 0.809,0.305 1.012,0.135 0.202,-0.169 0.235,-0.288 0.488,-0.186 0.253,0.102 0.271,0.288 0.758,0.119 0.489,-0.169 1.451,-0.76 1.181,-0.491 -0.271,0.271 -1.332,1.266 -2.443,1.266 -1.114,0 -1.669,0.017 -1.77,0.119 -0.102,0.102 -1.533,0.237 -2.681,0.135 -1.146,-0.102 -2.258,-0.322 -2.342,-0.421 -0.084,-0.102 -0.69,-1.166 -1.029,-1.082 -0.337,0.084 -0.741,0.254 -0.555,0.423 0.186,0.169 0.388,0.288 0.303,0.338 -0.084,0.049 -0.371,0.15 -0.371,0.303 0,0.153 0.136,0.286 0.017,0.371 -0.119,0.085 -0.355,0.305 -0.305,0.508 0.05,0.203 0.809,0.337 0.457,0.354 -0.355,0.017 -0.591,0.202 -0.692,0.32 -0.1,0.119 0.928,0.54 0.817,0.836 -0.11,0.294 -0.684,0.43 -0.817,0.329 -0.135,-0.102 -0.447,-0.373 -0.522,-0.305 -0.076,0.067 -0.354,0.415 -0.481,0.415 -0.125,0 -0.437,0.354 -0.354,0.464 0.084,0.11 0.834,0.625 1.01,0.482 0.178,-0.144 0.095,-0.304 0.379,-0.304 0.288,0 0.626,0 0.828,-0.085 0.202,-0.084 0.178,-0.209 0.597,-0.176 0.423,0.034 0.498,-0.027 0.826,-0.196 0.328,-0.167 0.44,-0.176 0.961,-0.176 0.523,0 1.762,0.237 1.662,0.457 -0.102,0.22 -0.876,0.119 -1.165,0.355 -0.286,0.235 -1.298,1.097 -0.826,1.097 0.472,0 1.449,0.472 1.703,0.118 0.254,-0.355 0.69,-1.469 1.08,-1.283 0.386,0.187 0.504,0.523 0.286,0.675 -0.219,0.151 -0.625,0.167 -0.659,0.438 -0.034,0.271 0.187,0.861 -0.487,1.046 -0.675,0.186 -1.264,-0.303 -1.635,-0.068 -0.372,0.237 -0.389,0.406 -0.809,0.44 -0.423,0.034 -0.709,0.119 -0.692,0.373 0.017,0.252 -0.034,0.47 -0.506,0.1 -0.471,-0.371 -0.775,-0.404 -0.843,-0.134 -0.068,0.269 -0.454,0.64 0.051,0.961 0.506,0.321 2.427,1.3 2.85,1.367 0.42,0.068 0.858,0.152 0.708,0.271 -0.152,0.119 -1.08,0.15 -1.266,0.034 -0.185,-0.118 -1.011,-0.169 -1.044,0.151 -0.034,0.321 -0.269,0.963 -0.388,0.827 -0.118,-0.135 -0.589,-0.775 -0.487,-0.186 0.1,0.592 0.589,1.452 0.252,1.537 -0.337,0.084 -0.961,0.237 -0.961,-0.084 0,-0.32 -0.337,-0.894 -0.472,-0.809 -0.135,0.085 -0.487,0.758 -0.606,0.438 -0.118,-0.32 -1.13,-1.537 -1.467,-1.772 -0.336,-0.237 -0.489,0.674 -1.01,0.674 -0.524,0 -2.293,0.507 -3.034,0.321 -0.743,-0.186 -1.719,-0.084 -1.955,0.068 -0.237,0.152 -0.355,0.523 -0.489,0.472 -0.135,-0.051 -0.726,-0.083 -0.726,0.102 0,0.186 0.474,0.421 0.203,0.522 -0.271,0.102 -1.264,0.929 -1.131,1.52 0.136,0.59 1.435,1.941 2.276,1.604 0.843,-0.338 0.811,-0.643 1.146,-0.524 0.338,0.119 0.508,0.22 0.642,0.119 0.134,-0.101 0.792,-0.355 1.044,-0.102 0.254,0.254 0.472,0.793 0.792,0.777 0.322,-0.017 1.467,-0.202 1.484,-0.083 0.017,0.117 0.017,0.555 0.235,0.336 0.22,-0.22 0.927,-0.979 1.181,-0.692 0.252,0.288 -0.068,0.641 0.403,0.641 0.474,0 1.249,0.034 1.501,-0.186 0.252,-0.218 0.269,-0.286 0.438,-0.118 0.169,0.169 0.185,0.371 0.539,0.304 0.355,-0.067 1.854,-1.486 1.872,-1.721 0.017,-0.237 -0.437,-0.66 0.017,-0.508 0.456,0.152 1.23,-0.034 1.601,0.22 0.371,0.253 1.097,1.045 1.434,1.164 0.336,0.119 0.438,-0.034 0.54,0.135 0.102,0.169 0,0.186 0.471,0.135 0.472,-0.051 0.673,-0.288 1.198,-0.253 0.521,0.034 0.758,-0.338 1.078,-0.119 0.32,0.22 1.349,0.44 1.163,0.542 -0.186,0.1 -2.124,0.1 -2.173,0.202 -0.051,0.102 -0.474,0.269 -1.316,0.269 -0.842,0 -0.775,-0.185 -1.229,-0.235 -0.457,-0.051 -0.491,0.051 -0.692,-0.252 -0.201,-0.304 -0.607,-0.878 -0.977,-0.861 -0.372,0.016 -2.443,1.891 -2.748,1.975 -0.303,0.084 -0.911,0.119 -1.029,0.322 -0.117,0.201 -0.301,1.045 0.304,1.045 0.606,0 1.095,0.489 1.078,0.809 -0.015,0.321 -0.134,0.508 -0.269,0.288 -0.135,-0.22 -0.657,-0.641 -1.147,-0.758 -0.487,-0.118 -0.47,-0.017 -0.657,-0.304 -0.186,-0.288 -0.47,-0.709 -0.673,-0.692 -0.203,0.017 -0.557,0.405 -0.642,0.252 -0.083,-0.152 -0.472,-0.185 -0.841,-0.185 -0.372,0 -0.254,0.15 -0.709,0.15 -0.455,0 -0.523,0.017 -0.607,0.187 -0.083,0.169 -0.068,1.282 0.034,1.401 0.102,0.119 0.389,-0.051 0.523,0.305 0.135,0.355 1.18,2.227 1.753,2.769 0.574,0.54 1.062,0.523 1.4,0.775 0.336,0.254 1.095,0 1.347,0.288 0.254,0.288 1.534,0.709 1.652,0.542 0.119,-0.169 0.186,-1.048 0.724,-1.301 0.542,-0.252 0.826,-0.438 0.675,-0.168 -0.152,0.269 -0.54,0.438 -0.54,0.741 0,0.305 -0.051,0.322 -0.269,0.576 -0.218,0.252 -0.068,0.69 0.017,0.894 0.083,0.203 0.371,-0.388 0.557,-0.237 0.184,0.152 0.083,0.321 0.555,0.491 0.472,0.169 1.029,-0.152 1.046,0.186 0.017,0.337 -0.017,0.673 0.371,0.59 0.388,-0.084 2.293,-1.115 2.528,-1.452 0.235,-0.337 0.1,-0.254 0.54,-0.557 0.437,-0.305 0.707,-0.677 0.775,-0.929 0.068,-0.252 -0.22,-0.489 0.135,-0.625 0.352,-0.135 0.725,-0.457 0.826,-0.692 0.1,-0.235 -0.036,-0.371 0.233,-0.574 0.271,-0.203 0.591,-0.743 0.423,-0.946 -0.169,-0.201 -0.355,-0.034 -0.506,-0.201 -0.15,-0.169 -0.876,-0.102 -0.54,-0.305 0.338,-0.203 0.54,-0.373 1.062,-0.102 0.521,0.271 0.724,0.22 1.01,0.034 0.286,-0.186 1.23,-1.824 1.417,-1.706 0.186,0.118 0.068,0.457 0.506,0.118 0.438,-0.337 1.517,-1.486 1.483,-1.721 -0.034,-0.235 -0.017,-0.336 0.167,-0.489 0.186,-0.152 0.76,-0.745 1.096,-0.997 0.337,-0.252 0.472,-0.489 0.572,-0.438 0.102,0.051 0.406,0.22 0.524,0.102 0.117,-0.119 0.301,-0.491 0.538,-0.525 0.237,-0.034 0.405,-0.067 0.32,-0.286 -0.083,-0.22 -0.219,-0.152 -0.083,-0.489 0.133,-0.338 0.605,-0.914 0.605,-1.2 0,-0.286 -0.271,-0.269 -0.118,-0.506 0.152,-0.237 0.474,-0.372 0.557,-0.288 0.084,0.085 0.557,-0.337 0.642,-0.489 0.083,-0.151 1.533,-1.67 1.802,-2.009 0.269,-0.339 0.404,-0.811 0.303,-0.944 -0.102,-0.135 -0.657,-0.017 -0.843,-0.186 -0.185,-0.169 -0.555,-0.593 -0.944,-0.559 -0.386,0.034 -1.802,0.372 -2.224,0.237 -0.422,-0.135 -0.792,-0.169 -1.432,-0.271 -0.642,-0.102 -0.675,-0.1 -0.86,-0.371 -0.186,-0.269 -0.607,-0.286 -0.338,-0.336 0.271,-0.051 0.69,-0.187 1.063,-0.034 0.371,0.152 0.605,0.136 1.146,0.136 0.541,0 2.495,-0.068 2.848,0.102 0.355,0.167 0.86,0.64 1.13,0.623 0.268,-0.017 0.335,-0.119 0.555,-0.017 0.22,0.102 0.506,0.355 0.64,0.187 0.135,-0.169 1.012,-0.709 1.012,-0.944 0,-0.237 0.034,-0.457 0.118,-0.576 0.085,-0.117 0.456,-0.354 0.354,-0.102 -0.102,0.254 -0.218,0.643 -0.218,0.846 0,0.202 -0.877,0.725 -0.877,0.961 0,0.236 0.034,0.321 -0.22,0.491 -0.254,0.167 -1.584,1.854 -1.838,2.261 -0.252,0.405 -2.461,3.258 -2.528,3.662 -0.066,0.406 -0.066,0.457 -0.134,0.677 -0.068,0.218 -0.1,0.354 0.1,0.438 0.203,0.085 1.384,-0.017 1.668,0.1 0.288,0.118 0.826,0.626 1.3,0.457 0.47,-0.169 0.555,-0.608 1.213,-0.659 0.656,-0.051 1.684,-0.017 2.073,-0.286 0.388,-0.271 0.32,-0.338 0.894,-0.373 0.572,-0.034 0.521,0.152 0.994,0.152 0.473,0 -0.185,0.237 -0.506,0.237 -0.318,0 -0.538,-0.084 -0.826,0.185 -0.286,0.271 -0.961,0.54 -1.279,0.557 -0.322,0.017 -0.338,-0.32 -0.525,-0.152 -0.184,0.169 -0.909,0.271 -0.892,0.44 0.017,0.169 0.404,0.288 -0.034,0.422 -0.438,0.135 -0.792,0.438 -1.383,0.237 -0.589,-0.203 -1.095,-0.489 -1.279,-0.489 -0.186,0 -0.894,-0.068 -1.333,0.455 -0.437,0.523 -0.386,0.811 -0.538,0.675 -0.152,-0.135 -0.254,-0.237 -0.69,0.017 -0.44,0.254 -1.55,0.59 -1.182,0.828 0.373,0.235 0.758,0.675 0.642,0.827 -0.119,0.152 -1.904,1.486 -1.955,1.637 -0.051,0.152 -0.271,1.3 -0.44,1.503 -0.167,0.201 -0.15,0.387 0.102,0.54 0.254,0.152 0.809,0.491 0.489,0.423 -0.32,-0.068 -0.943,0.303 -0.994,0.185 -0.051,-0.117 -0.406,-0.354 -0.406,-0.151 0,0.202 0.288,1.198 0.338,1.367 0.051,0.167 0.337,0.657 0.894,0.371 0.555,-0.286 1.095,-1.283 1.466,-1.283 0.371,0 0.826,0.32 1.08,0.1 0.252,-0.218 1.027,-0.741 1.061,-0.521 0.034,0.218 -0.22,0.775 -0.642,0.809 -0.419,0.034 -0.775,0.051 -0.893,0.186 -0.117,0.136 -1.195,1.181 -1.415,1.249 -0.22,0.068 -0.741,0.591 -1.13,0.506 -0.386,-0.083 -0.841,-0.506 -1.11,-0.506 -0.271,0 -1.333,1.266 -1.299,1.503 0.034,0.237 1.096,-0.979 1.08,-0.692 -0.017,0.286 0.286,0.743 0.438,0.878 0.151,0.135 -0.201,1.469 0.252,1.553 0.455,0.083 0.657,0.185 0.894,-0.135 0.237,-0.321 0.034,-0.643 0.54,-0.66 0.506,-0.017 0.741,0.66 1.315,0.558 0.572,-0.102 0.928,-0.253 1.432,0.051 0.506,0.303 0.961,0.911 1.298,0.758 0.336,-0.15 1.651,-1.973 1.753,-2.515 0.1,-0.54 -0.051,-0.373 0.337,-0.506 0.388,-0.136 0.523,-0.27 0.758,-0.506 0.237,-0.237 1.113,-1.992 1.298,-2.296 0.185,-0.303 0.068,-0.455 0.675,-0.642 0.606,-0.186 0.657,-0.084 0.386,0.152 -0.269,0.237 -0.792,0.642 -0.942,1.012 -0.152,0.373 -0.523,1.537 -0.76,1.824 -0.235,0.286 -0.538,0.438 -0.605,0.657 -0.068,0.22 -0.102,0.423 -0.271,0.524 -0.167,0.102 -0.318,0.169 -0.318,0.305 0,0.136 -0.017,0.657 -0.187,0.69 -0.169,0.034 -0.438,0.017 -0.472,0.187 -0.034,0.169 -0.775,1.435 -0.976,1.485 -0.203,0.051 -0.557,-0.135 -0.675,-0.084 -0.119,0.051 -0.675,0.474 -0.927,0.237 -0.252,-0.237 -0.523,-0.827 -0.657,-0.726 -0.134,0.1 -0.235,0.404 -0.337,0.303 -0.102,-0.101 -0.305,-0.286 -0.657,-0.271 -0.355,0.019 -0.76,0.508 -0.927,0.305 -0.169,-0.203 -0.54,-0.489 -0.692,-0.455 -0.151,0.034 -0.438,0.252 -0.875,0.185 -0.44,-0.066 -0.709,-0.049 -1.182,0.152 -0.472,0.203 -0.387,0.102 -0.623,0.034 -0.237,-0.068 -0.658,-0.034 -0.658,0.102 0,0.136 0.152,0.254 -0.032,0.389 -0.186,0.135 -0.607,0.489 -0.575,0.741 0.034,0.254 0.575,0.694 0.406,0.812 -0.169,0.117 -1.215,0.438 -1.416,0.944 -0.202,0.507 -0.523,2.025 -0.337,2.144 0.186,0.118 1.146,-0.523 1.18,-0.354 0.034,0.167 0.117,0.387 0.438,0.117 0.32,-0.269 0.674,-0.659 0.876,-0.354 0.203,0.305 -0.623,0.709 -0.758,0.843 -0.135,0.136 -0.557,-0.084 -0.674,0.034 -0.118,0.118 -0.507,0.677 -0.624,0.609 -0.119,-0.067 -0.792,-0.524 -1.044,-0.288 -0.254,0.237 -0.844,0.743 -0.844,1.13 0,0.389 -0.405,1.672 -0.218,1.841 0.186,0.169 0.321,0.051 0.237,0.303 -0.085,0.254 -0.491,1.638 -0.389,1.789 0.102,0.152 0.758,-0.674 0.961,-0.572 0.203,0.102 0.758,0.168 0.961,-0.034 0.201,-0.203 0.942,-0.844 1.061,-0.575 0.119,0.271 0,0.558 0.102,0.626 0.1,0.068 0.607,0.521 0.371,0.555 -0.237,0.034 -0.69,-0.235 -0.86,-0.085 -0.169,0.152 -0.254,0.406 -0.455,0.423 -0.202,0.017 -0.286,-0.152 -0.489,0.051 -0.201,0.203 -1.364,0.068 -1.163,0.305 0.203,0.235 1.095,0.961 0.961,1.147 -0.135,0.186 -2.056,3.241 -1.77,3.442 0.286,0.203 2.157,-2.295 2.596,-2.143 0.439,0.152 0.591,0.169 0.438,0.506 -0.152,0.336 -0.388,0.404 -0.388,0.675 0,0.271 -0.455,1.096 -0.876,1.57 -0.421,0.472 -0.32,0.861 -0.455,1.266 -0.136,0.406 0.118,0.288 0.32,0.423 0.201,0.133 0.201,0.303 0.371,0.504 0.169,0.203 0.404,0.253 0.203,0.474 -0.203,0.22 0.32,0.372 0.202,0.726 -0.117,0.354 -0.051,0.641 -0.32,0.421 -0.271,-0.22 -1.029,-1.232 -1.466,-0.979 -0.44,0.254 -1.956,2.836 -1.719,3.326 0.235,0.489 1.078,0.235 1.095,0.015 0.017,-0.217 -0.034,-0.471 0.252,-0.589 0.288,-0.119 1.719,-0.811 1.45,-0.457 -0.269,0.355 -0.69,0.457 -0.59,0.66 0.102,0.201 0.051,1.367 -0.119,1.433 -0.167,0.07 -0.708,0.136 -0.809,0.237 -0.102,0.1 -2.729,4.676 -2.745,5.266 -0.019,0.591 -0.068,1.014 0.167,0.811 0.235,-0.203 2.308,-2.498 2.899,-2.582 0.589,-0.085 0.506,0.118 0.203,0.641 -0.305,0.523 -0.911,0.642 -1.198,1.215 -0.286,0.573 0.034,0.793 -0.286,1.233 -0.32,0.437 -1.668,3.764 -1.179,4.371 0.487,0.608 0.741,0.845 0.944,0.777 0.202,-0.068 1.093,-0.625 0.944,-0.288 -0.152,0.337 -0.878,0.574 -0.542,0.625 0.339,0.051 0.843,0.186 0.69,0.288 -0.149,0.102 -0.756,0.607 -0.487,0.557 0.271,-0.051 2.512,-1.604 3.219,-2.347 0.708,-0.741 2.002,-2.868 1.902,-2.362 -0.102,0.506 -0.86,2.802 -2.092,3.613 -1.23,0.809 -2.056,1.486 -2.122,1.67 -0.068,0.186 -0.135,0.355 -0.373,0.523 -0.235,0.169 -0.736,1.819 -1.106,2.224 -0.369,0.403 -1.377,0.841 -1.31,1.145 0.066,0.301 0.2,1.58 -0.169,3.194 -0.371,1.616 -0.269,1.75 -0.708,2.121 -0.437,0.368 -0.672,0.538 -0.604,0.739 0.066,0.201 0.807,1.447 0.638,1.917 -0.167,0.471 -0.102,5.248 -0.437,5.519 -0.337,0.268 -0.875,0.268 -1.11,0.639 -0.237,0.37 -1.346,1.245 -1.346,1.682 0,0.438 0.066,2.962 -0.102,3.5 -0.168,0.538 -0.269,0.538 0,0.875 0.269,0.335 1.346,1.21 2.557,0.571 1.212,-0.64 1.951,-0.506 2.489,-0.673 0.538,-0.168 2.523,-0.977 3.095,-2.187 0.572,-1.212 0.572,-1.616 0.303,-2.121 -0.269,-0.504 -0.787,-1.114 -0.753,-1.368 0.032,-0.253 0.268,-0.608 0.083,-0.473 -0.185,0.135 -0.709,0.54 -0.926,0.455 -0.22,-0.084 -1.316,-0.675 -0.859,-0.709 0.454,-0.034 1.044,-0.201 1.398,-0.642 0.354,-0.438 0.034,-1.181 0.32,-1.52 0.286,-0.337 0.709,-0.438 0.876,-0.859 0.167,-0.423 0.017,-0.506 0.084,-0.743 0.066,-0.236 0.354,-1.452 0.455,-1.587 0.102,-0.136 0.405,-0.303 0.405,-0.574 0,-0.271 -0.337,-2.127 -0.017,-2.245 0.32,-0.119 0.404,-0.018 0.591,0.287 0.185,0.303 0.284,0.422 0.284,-0.033 0,-0.456 -0.521,-0.997 -0.589,-1.554 -0.068,-0.557 -0.156,-1.147 -0.189,-1.401 -0.034,-0.252 0,-0.658 0.102,-0.811 0.102,-0.15 0.22,-0.337 0.336,-0.607 0.119,-0.27 0.167,-1.131 0.252,-1.334 0.084,-0.201 0.254,-0.303 0.254,-0.591 0,-0.285 -0.303,-0.607 0.084,-0.978 0.388,-0.372 0.911,-1.132 1.213,-1.503 0.303,-0.372 0.235,-0.929 0.591,-0.828 0.352,0.102 0.453,0.034 0.741,-0.152 0.286,-0.184 0.371,-0.421 0.605,-0.421 0.237,0 0.54,0.152 0.657,-0.084 0.119,-0.237 0.22,-2.346 -0.335,-2.955 -0.557,-0.607 -1.161,-1.351 -1.379,-1.637 -0.218,-0.286 -0.083,-0.59 -0.269,-0.574 -0.186,0.017 -0.876,-0.084 -0.775,-0.186 0.1,-0.102 0.487,-0.254 0.369,-0.491 -0.117,-0.235 -0.555,-0.741 -0.572,-1.198 -0.017,-0.455 -0.102,-2.583 -0.303,-2.836 -0.203,-0.252 -0.792,-0.978 -0.574,-1.384 0.22,-0.403 0.253,-0.876 0.203,-1.096 -0.051,-0.22 -0.22,-0.69 -0.084,-0.979 0.135,-0.288 -0.186,-0.997 0.237,-1.115 0.42,-0.117 0.555,0.675 0.471,0.98 -0.084,0.305 0.792,0.961 1.097,0.743 0.303,-0.22 0.354,-0.338 0.403,-0.522 0.051,-0.187 0.051,-0.711 0.288,-0.779 0.237,-0.066 0.657,-0.066 0.724,-0.252 0.068,-0.185 -0.149,-2.215 0.423,-2.248 0.572,-0.034 0.437,0.706 0.64,0.371 0.201,-0.338 0.267,-1.48 0.805,-1.716 0.54,-0.237 0.694,0.081 0.728,-0.306 0.034,-0.388 0.336,-1.149 0.792,-1.537 0.455,-0.388 1.196,-1.604 1.55,-1.401 0.355,0.201 0.708,0.286 1.383,-0.455 0.675,-0.743 0.911,-1.333 0.792,-1.554 -0.117,-0.22 -0.218,-0.203 -0.049,-0.373 0.167,-0.167 0.183,-0.235 0.218,-0.354 0.032,-0.118 0.117,-0.489 0.303,-0.641 0.186,-0.152 0.506,-0.271 0.538,-0.423 0.034,-0.15 0.373,-1.046 0.692,-0.927 0.319,0.119 0.489,0.455 0.658,0.389 0.167,-0.068 0.606,-0.406 0.843,-0.389 0.235,0.017 0.25,0 0.47,-0.169 0.22,-0.169 2.243,-1.789 2.158,-1.52 0,0 -1.751,2.163 -2.242,2.263 -0.487,0.102 -1.33,0.404 -2.173,1.57 -0.843,1.165 -0.574,1.366 -0.625,1.586 -0.051,0.22 0.269,0.288 -0.438,0.827 -0.707,0.54 -1.397,1.031 -1.668,1.115 -0.269,0.085 -1.635,0.354 -1.77,0.758 -0.134,0.406 0.102,0.728 -0.017,1.014 -0.117,0.286 -1.3,1.399 -1.603,1.838 -0.303,0.439 -0.404,0.943 -0.74,1.312 -0.338,0.371 -0.067,0.843 -0.775,1.682 -0.708,0.841 -0.975,1.178 -0.975,1.481 0,0.303 0.267,0.491 0.115,0.795 -0.152,0.303 -0.135,0.32 0.017,0.573 0.152,0.252 0.421,0.39 0.288,0.657 -0.135,0.271 -0.692,2.281 -0.607,2.434 0.083,0.151 0.185,0.185 0.167,0.354 -0.017,0.167 -0.167,0.489 0,0.726 0.169,0.235 1.283,0.625 1.232,0.877 -0.051,0.253 -0.457,0.761 -0.237,0.861 0.22,0.102 0.758,-0.068 0.843,0 0.084,0.067 0.119,0.54 0.286,0.472 0.169,-0.068 0.252,-0.413 0.54,-0.244 0.288,0.169 0.152,0.573 0.329,0.607 0.178,0.034 0.379,-0.085 0.582,0.059 0.203,0.142 -0.11,0.633 0.396,0.751 0.504,0.117 0.504,-0.381 0.21,-0.508 -0.294,-0.125 -0.108,-0.396 -0.135,-0.599 -0.024,-0.203 -0.345,-0.887 -0.479,-1.266 -0.136,-0.379 -0.784,-1.721 -0.396,-2.042 0.387,-0.32 1.128,-0.811 1.128,-1.147 0,-0.336 -0.152,-1.452 -0.017,-1.84 0.135,-0.389 0.404,-1.064 0.305,-1.166 -0.102,-0.1 -0.051,-0.421 0.066,-0.252 0.118,0.169 0.59,0.64 0.472,0.876 -0.119,0.237 -0.538,0.861 -0.102,1.469 0.44,0.609 2.041,2.515 2.41,2.515 0.373,0 0.86,0.102 0.86,-0.119 0,-0.218 -0.454,-2.362 -0.792,-2.819 -0.335,-0.454 -0.809,-0.758 -0.826,-1.097 -0.017,-0.336 0.034,-0.404 -0.102,-0.64 -0.133,-0.237 -0.419,-0.524 -0.201,-0.863 0.218,-0.337 0.455,-1.368 0.455,-1.097 0,0.271 0.169,2.381 0.521,2.769 0.355,0.389 1.13,1.351 1.351,1.959 0.218,0.606 0.386,2.143 0.386,2.617 0,0.472 -0.085,0.758 0.051,0.792 0.135,0.034 0.54,0 0.675,0.152 0.133,0.152 1.128,0.423 1.332,0.05 0.202,-0.372 -0.067,-0.658 0.32,-1.062 0.388,-0.406 0.557,-0.677 0.557,-0.897 0,-0.217 -0.152,-0.538 0,-0.826 0.15,-0.288 0.201,-0.86 0.419,-1.165 0.22,-0.305 0.944,-1.249 0.775,-1.435 -0.167,-0.186 -0.419,-0.508 -0.758,-0.625 -0.335,-0.118 -0.329,-0.11 -0.487,-0.254 -0.161,-0.144 -0.69,-0.497 -0.565,-0.59 0.125,-0.093 0.237,-0.144 0.277,-0.237 0.044,-0.092 0.051,-0.312 0.195,-0.203 0.144,0.111 1.088,0.931 1.366,0.92 0.277,-0.008 0.555,-0.193 0.421,-0.565 -0.135,-0.373 -0.449,-1.046 -0.337,-1.224 0.108,-0.178 0.102,-0.246 0.091,-0.303 -0.008,-0.061 -0.227,-0.406 -0.227,-0.634 0,-0.228 0.067,-0.665 -0.051,-0.794 -0.119,-0.125 -0.135,-0.176 0.058,-0.337 0.196,-0.161 0.448,-0.338 0.626,-0.607 0.176,-0.271 0.606,-1.249 0.403,-1.435 -0.203,-0.186 -1.567,-0.894 -1.296,-1.553 0.268,-0.659 0.487,-0.743 0.454,-0.979 -0.034,-0.237 -0.42,-1.13 -0.337,-1.384 0.085,-0.253 0.608,-0.793 0.557,-0.491 -0.051,0.305 -0.237,0.576 0.102,0.98 0.336,0.404 0.572,0.743 0.419,1.2 -0.15,0.454 -0.758,0.674 -0.32,1.165 0.438,0.489 0.472,0.455 0.809,0.269 0.336,-0.185 0.894,-0.912 0.91,-1.165 0.017,-0.254 -0.134,-0.641 0.167,-0.912 0.305,-0.271 0.642,-1.012 0.911,-1.435 0.271,-0.421 0.305,-0.792 0.743,-1.147 0.438,-0.355 0.791,-1.316 0.858,-0.91 0.067,0.403 0.118,0.724 -0.1,0.944 -0.218,0.22 -1.702,2.345 -1.836,2.701 -0.135,0.355 -0.525,1.52 -0.743,1.757 -0.218,0.235 0.102,0.32 -0.421,0.91 -0.521,0.591 -1.097,1.992 -0.978,2.329 0.119,0.338 0.44,0.457 0.474,0.846 0.034,0.388 -0.203,1.333 -0.034,1.368 0.167,0.034 0.386,0.184 0.437,0.404 0.051,0.218 -0.421,0.811 0.271,1.062 0.69,0.254 1.87,-0.034 2.054,-0.252 0.187,-0.22 -0.233,-0.66 -0.487,-0.66 -0.254,0 -0.237,-0.387 -0.572,-0.859 -0.338,-0.474 -1.13,-2.195 -1.08,-2.633 0.051,-0.44 0.32,-1.097 0.404,-0.844 0.084,0.252 0.54,0.709 0.557,0.946 0.017,0.235 0.269,1.435 0.538,1.789 0.271,0.354 0.389,0.574 0.557,0.692 0.168,0.118 0.252,0.034 0.473,0.355 0.218,0.32 0.809,0.067 1.146,0.419 0.337,0.355 0.959,0.965 1.01,1.234 0.051,0.269 0.338,0.455 0.372,0.726 0.034,0.271 0.136,0.085 0.86,0.489 0.724,0.404 1.618,0.845 1.955,0.878 0.337,0.033 -0.185,-0.406 0.404,-0.102 0.589,0.305 1.349,0.524 1.974,0.692 0.623,0.169 1.01,0.017 1.262,0.235 0.254,0.22 1.315,0.931 1.635,1.217 0.322,0.286 0.186,0.371 0.034,0.269 -0.152,-0.102 -0.387,0.186 -0.859,-0.201 -0.471,-0.388 -0.927,-1.014 -1.263,-1.031 -0.338,-0.017 -2.613,-0.017 -2.951,-0.135 -0.337,-0.119 -0.792,-0.218 -1.279,-0.337 -0.491,-0.119 -0.675,0.102 -1.215,-0.017 -0.538,-0.117 -1.904,-0.963 -2.156,-0.929 -0.254,0.034 -0.508,0.084 -0.86,-0.286 -0.355,-0.371 -0.406,-0.438 -0.708,-0.438 -0.304,0 -0.491,0.555 -0.59,0.354 -0.102,-0.202 -0.371,-0.337 -0.523,-0.337 -0.152,0 -0.792,0.623 -1.213,0.826 -0.421,0.203 -0.625,0.254 -0.625,0.44 0,0.184 0.457,0.421 0.203,0.809 -0.254,0.389 -0.286,0.508 -0.203,0.626 0.084,0.119 0.254,0.303 -0.068,0.54 -0.318,0.235 -0.64,0.692 -0.623,0.828 0.017,0.136 0.254,0.286 0.321,0.69 0.068,0.406 -0.034,3.09 0.068,3.259 0.1,0.167 0.538,0.658 0.538,0.775 0,0.118 0.504,0.626 0.504,1.064 0,0.438 -0.239,2.212 -0.609,2.464 -0.372,0.254 -0.978,0.439 -0.978,0.794 0,0.355 -0.118,0.996 0.152,1.197 0.269,0.203 0.809,0.373 1.161,0.896 0.355,0.523 1.585,1.588 1.333,1.757 -0.254,0.168 -0.877,-0.321 -0.557,0.083 0.32,0.406 0.438,0.524 0.69,0.508 0.254,-0.018 0.32,-0.17 0.405,0 0.084,0.167 -0.034,0.455 0.389,0.286 0.419,-0.17 0.64,-0.221 0.942,-0.018 0.303,0.203 0.151,0.475 0.388,0.455 0.237,-0.015 1.482,0.828 1.99,1.537 0.504,0.709 0.795,2.397 0.408,2.466 -0.388,0.067 -0.675,-0.321 -0.658,-0.085 0.017,0.237 0.574,0.235 0.758,0.388 0.186,0.152 0.288,0.607 0.423,0.794 0.134,0.186 0.487,0.102 0.623,0.455 0.135,0.355 0.034,2.279 -0.119,2.601 -0.151,0.32 -0.623,-0.169 -0.454,0.117 0.167,0.288 0.201,1.149 -0.237,1.335 -0.438,0.185 -2.714,0.758 -3.066,1.569 -0.355,0.811 -0.254,2.48 -0.456,2.734 -0.203,0.254 -1.298,0.658 -1.298,0.845 0,0.186 -0.288,0.658 -0.54,0.844 -0.252,0.187 -0.625,0.27 -0.472,0.456 0.152,0.186 0.375,2.091 0.208,2.462 -0.167,0.369 -0.606,1.11 -0.606,1.547 0,0.438 0.202,0.572 -0.066,0.977 -0.271,0.402 -1.953,1.716 -2.086,2.22 -0.134,0.505 0.167,0.64 -0.202,0.943 -0.371,0.301 -1.748,1.287 -1.748,1.524 0,0.236 0.017,1.958 -0.574,2.87 -0.589,0.91 -1.196,1.67 -1.196,1.924 0,0.252 -0.438,1.351 -0.066,1.772 0.369,0.423 1.853,3.646 1.887,4.406 0.032,0.76 -0.235,1.418 -0.927,1.198 -0.69,-0.22 -1.213,-0.963 -1.197,-1.587 0.017,-0.625 -0.354,-1.267 -0.084,-1.267 0.271,0 0.388,0.102 0.305,-0.185 -0.084,-0.287 -0.322,-0.575 -0.338,-0.878 -0.017,-0.305 -0.068,-0.321 -0.218,-0.642 -0.152,-0.321 -0.185,-1.115 -0.726,-1.115 -0.538,0 -0.741,0.559 -1.127,0.574 -0.39,0.017 -0.794,-0.051 -0.911,0.236 -0.119,0.288 -0.607,3.865 -0.406,4.592 0.203,0.726 1.13,1.924 1.114,2.313 -0.017,0.387 -0.169,0.387 0.017,0.624 0.187,0.237 2.071,2.229 2.274,2.348 0.203,0.116 0.608,0.285 0.708,0.59 0.102,0.304 0.102,0.473 0.237,0.608 0.136,0.135 0.657,0.404 0.961,0.691 0.303,0.286 0.437,0.658 0.345,0.803 -0.093,0.144 -0.22,0.262 -0.142,0.338 0.074,0.076 0.589,0.337 0.479,0.523 -0.11,0.186 -0.447,0.455 -0.246,0.607 0.203,0.152 1.518,0.379 1.249,0.506 -0.271,0.127 -0.464,0.423 -0.379,0.517 0.085,0.091 0.792,0.633 0.581,0.802 -0.211,0.167 -0.942,0.716 -0.868,0.944 0.076,0.229 0.532,0.379 0.413,0.446 -0.119,0.068 -0.125,0.237 -0.041,0.339 0.083,0.102 1.178,1.24 1.489,1.249 0.313,0.009 0.531,0.025 0.734,0.136 0.203,0.109 0.388,0.446 0.717,0.354 0.329,-0.092 0.471,-0.244 0.083,-0.303 -0.387,-0.06 -0.783,-0.718 -0.809,-1.107 -0.025,-0.388 1.088,-0.995 0.732,-1.147 -0.354,-0.152 -1.374,-0.92 -1.34,-1.072 0.034,-0.152 0.203,-0.473 0.068,-0.692 -0.135,-0.219 -0.337,-0.252 -0.354,-0.523 -0.017,-0.271 -0.034,-0.406 -0.151,-0.709 -0.118,-0.305 -0.894,-1.199 -0.775,-1.469 0.117,-0.271 0.218,-0.388 0.117,-0.709 -0.1,-0.321 -0.708,-1.062 -0.591,-1.266 0.119,-0.203 1.41,-1.639 2.082,-2.143 0.674,-0.506 1.273,-0.272 1.205,-0.559 -0.066,-0.288 -0.335,-0.675 -0.017,-0.591 0.322,0.085 0.54,0.168 0.758,0.119 0.22,-0.051 0.559,-0.102 0.66,0.218 0.1,0.321 0.301,0.997 0.758,1.401 0.454,0.406 1.718,-0.034 2.19,0.506 0.472,0.542 1.029,1.403 1.922,1.942 0.894,0.54 1.449,0.574 1.652,0.962 0.201,0.388 0.42,1.554 0.69,1.706 0.269,0.15 1.012,-0.018 1.012,0.218 0,0.237 -0.254,0.423 0.034,0.559 0.284,0.134 1.516,1.113 2.088,1.351 0.574,0.235 0.741,0.201 1.215,0.522 0.471,0.32 1.144,0.489 1.482,0.185 0.337,-0.303 1.095,-1.384 0.928,-1.568 -0.169,-0.187 -0.809,-0.845 -0.659,-1.385 0.152,-0.54 0.489,-0.844 0.405,-1.097 -0.085,-0.254 -0.574,-0.338 -0.456,-0.609 0.119,-0.269 0.303,-0.252 0.203,-0.421 -0.102,-0.169 -0.387,-0.337 -0.152,-0.624 0.237,-0.288 0.405,-0.373 0.421,-0.187 0.017,0.187 0.254,0.372 0.254,0.22 0,-0.152 0.151,-0.811 -0.237,-1.132 -0.388,-0.32 -1.703,-0.623 -1.753,-0.928 -0.05,-0.305 -0.051,-1.316 -0.235,-1.52 -0.187,-0.201 -0.506,-0.252 -0.252,-0.811 0.252,-0.557 0.826,-0.794 0.826,-1.046 0,-0.254 0.167,-1.064 -0.102,-1.282 -0.271,-0.221 -0.54,-0.475 -0.339,-0.406 0.203,0.067 0.506,0.152 0.675,0.624 0.169,0.474 0.269,1.958 0.388,2.06 0.119,0.102 0.084,-0.017 0.421,0.339 0.337,0.354 2.107,1.52 2.376,1.502 0.269,-0.017 0.438,0.185 0.658,0.185 0.218,0 0.438,-0.59 0.674,-0.758 0.235,-0.169 0.169,-0.118 0.303,-0.339 0.135,-0.22 0.068,-0.372 0.54,-0.421 0.472,-0.051 0.623,-0.288 0.54,-0.017 -0.084,0.269 -0.254,0.641 -0.455,0.792 -0.203,0.152 -0.421,0.321 -0.152,0.575 0.269,0.252 0.22,0.522 0.169,0.692 -0.051,0.167 -0.22,0.336 -0.303,0.285 -0.084,-0.051 -0.625,-0.203 -0.152,0.187 0.472,0.388 0.775,0.489 1.095,0.522 0.32,0.034 0.455,-0.051 0.455,0.17 0,0.218 -0.354,0.472 0.084,0.692 0.438,0.218 0.455,0.236 0.623,0.438 0.169,0.203 0.574,0.355 0.743,0.221 0.167,-0.136 0.202,-0.337 0.354,-0.221 0.15,0.119 0.472,1.064 0.792,0.912 0.32,-0.152 -0.017,-2.245 0.051,-2.531 0.067,-0.288 0.809,-1.064 0.927,-1.232 0.117,-0.169 0.235,-0.019 0.235,0.219 0,0.238 0.219,0.455 0.303,0.675 0.084,0.221 0.102,0.558 -0.066,0.794 -0.169,0.237 -0.979,1.249 -0.389,1.57 0.59,0.32 0.574,0.085 0.827,-0.067 0.252,-0.152 0.167,0.319 0.504,0.168 0.337,-0.151 0.708,0.169 0.911,0.253 0.203,0.085 0.978,-0.624 1.179,-0.811 0.203,-0.185 1.146,-0.354 1.349,-0.557 0.201,-0.203 0.741,-0.203 0.843,-0.404 0.102,-0.203 0.167,-0.508 0.438,-0.592 0.269,-0.083 0.775,-0.016 0.775,-0.235 0,-0.221 -1.046,-1.031 -0.877,-1.316 0.169,-0.288 0.203,-0.355 0.237,-0.558 0.032,-0.203 0.1,-0.624 0.286,-0.641 0.185,-0.018 0.185,0.067 0.218,-0.136 0.034,-0.203 0.254,-1.706 0.322,-1.452 0.066,0.254 0.117,0.794 0.388,1.164 0.269,0.373 0.707,1.249 1.01,1.2 0.303,-0.051 1.061,-0.711 1.247,-1.014 0.186,-0.305 0.388,-0.591 0.625,-0.591 0.235,0 0.504,-0.254 0.64,-0.033 0.135,0.22 0.218,0.269 0.642,0.287 0.421,0.016 1.163,-0.085 1.448,0.032 0.286,0.118 0.826,0.491 0.843,0.203 0.017,-0.288 0.32,-0.607 0.405,-0.692 0.084,-0.084 0.59,-0.709 0.59,-0.979 0,-0.27 -0.034,-0.707 -0.305,-0.809 -0.269,-0.102 -0.623,-0.743 -0.523,-0.963 0.102,-0.221 0.591,-0.894 0.423,-1.097 -0.169,-0.203 -0.404,-0.558 -0.186,-0.946 0.22,-0.388 0.387,-0.794 0.303,-1.08 -0.083,-0.287 -0.455,-0.742 -0.32,-0.691 0.135,0.051 0.607,0.472 0.625,0.91 0.015,0.439 0.117,0.912 0.538,1.199 0.421,0.286 2.056,0.625 2.562,0.119 0.506,-0.508 0.657,-0.593 0.557,-0.777 -0.102,-0.186 -0.22,-0.406 -0.102,-0.474 0.118,-0.067 1.079,0.93 1.349,0.979 0.269,0.051 1.769,0.119 1.988,-0.033 0.219,-0.152 0.707,-0.152 0.979,0.033 0.269,0.187 0.673,0.591 0.977,0.422 0.305,-0.169 0.118,-0.185 0.472,-0.169 0.354,0.019 0.473,0.019 0.809,-0.101 0.337,-0.118 0.034,-0.338 0.979,-0.186 0.942,0.152 1.281,0.607 1.533,0.675 0.254,0.068 0.859,-0.827 1.23,-0.844 0.37,-0.018 0.421,0.202 0.573,0.067 0.151,-0.136 1.011,-0.727 1.214,-0.591 0.044,0.03 0.093,0.078 0.141,0.136"
           id="path477" />
      </g>
    </g>
  </g>
</svg>
