<?xml version="1.0" encoding="UTF-8" standalone="no"?>
<!-- Created with Inkscape (http://www.inkscape.org/) -->

<svg
   xmlns:dc="http://purl.org/dc/elements/1.1/"
   xmlns:cc="http://creativecommons.org/ns#"
   xmlns:rdf="http://www.w3.org/1999/02/22-rdf-syntax-ns#"
   xmlns:svg="http://www.w3.org/2000/svg"
   xmlns="http://www.w3.org/2000/svg"
   xmlns:sodipodi="http://sodipodi.sourceforge.net/DTD/sodipodi-0.dtd"
   xmlns:inkscape="http://www.inkscape.org/namespaces/inkscape"
   width="227.21359"
   height="146.69365"
   id="svg3685"
   version="1.1"
   inkscape:version="0.48.1 r9760"
   sodipodi:docname="New document 12">
  <defs
     id="defs3687" />
  <sodipodi:namedview
     id="base"
     pagecolor="#ffffff"
     bordercolor="#666666"
     borderopacity="1.0"
     inkscape:pageopacity="0.0"
     inkscape:pageshadow="2"
     inkscape:zoom="0.35"
     inkscape:cx="-5.6789099"
     inkscape:cy="159.06111"
     inkscape:document-units="px"
     inkscape:current-layer="layer1"
     showgrid="false"
     fit-margin-top="0"
     fit-margin-left="0"
     fit-margin-right="0"
     fit-margin-bottom="0"
     inkscape:window-width="433"
     inkscape:window-height="421"
     inkscape:window-x="50"
     inkscape:window-y="24"
     inkscape:window-maximized="0" />
  <metadata
     id="metadata3690">
    <rdf:RDF>
      <cc:Work
         rdf:about="">
        <dc:format>image/svg+xml</dc:format>
        <dc:type
           rdf:resource="http://purl.org/dc/dcmitype/StillImage" />
        <dc:title></dc:title>
      </cc:Work>
    </rdf:RDF>
  </metadata>
  <g
     inkscape:label="Layer 1"
     inkscape:groupmode="layer"
     id="layer1"
     transform="translate(-380.67891,-544.72964)">
    <g
       transform="translate(208.63713,79.968123)"
       id="Southern_x5F_england">
      <g
         id="g30">
        <path
           style="fill:#78ef9f"
           inkscape:connector-curvature="0"
           d="M 332.671,482.9"
           id="path32" />
        <path
           style="fill:#78ef9f"
           inkscape:connector-curvature="0"
           d="m 265.543,520.755 c 0.056,-0.141 0.067,-0.372 0.16,-0.36 0.097,0.009 0.235,-0.185 0.235,-0.185 0,0 0.2,0.159 0.27,0.022 0.069,-0.139 0.1,-0.215 0.242,-0.256 0.146,-0.037 0.204,-0.088 0.204,-0.088 0,0 0.143,-0.411 0.265,-0.452 0.264,-0.076 0.396,0.298 0.396,0.298 0.021,0.037 0.235,0.117 0.224,-0.147 -0.01,-0.257 -0.2,-0.324 -0.2,-0.324 0,0 0.232,-0.12 0.374,-0.119 0.143,0 0.307,-0.14 0.432,-0.081 0.124,0.066 0.24,0.094 0.24,0.094 l 0.177,0.102 0.406,0.01 0.02,-0.125 c 0,0 0.214,0.04 0.268,-0.097 0.058,-0.139 0.268,-0.665 0.268,-0.665 l 0.18,-0.31 c 0,0 0.096,-0.088 0.134,0.005 0.028,0.09 0.047,0.169 0.047,0.169 l 0.201,-0.049 0.03,0.134 0.18,-0.044 0.027,-0.173 c 0,0 0.144,-0.088 0.236,-0.035 0.092,0.052 0.152,-0.012 0.173,-0.062 0.019,-0.055 0.256,-0.307 0.256,-0.307 l 0.369,-0.048 0.111,-0.049 0.152,0.046 c 0,0 0.143,-0.132 0.137,-0.182 -0.005,-0.045 -0.188,-0.128 -0.188,-0.128 l 0.144,-0.134 c 0,0 -0.079,-0.162 -0.056,-0.277 0.027,-0.178 -0.118,-0.286 -0.118,-0.286 l -0.027,-0.152 -0.225,-0.071 -0.3,-0.399 v -0.192 c -0.06,-0.101 -0.092,-0.193 -0.086,-0.276 l 0.16,-0.046 c 0,0 -0.086,-0.111 -0.051,-0.169 0.03,-0.06 -0.027,-0.229 -0.027,-0.229 0,0 0.024,-0.213 -0.079,-0.268 -0.098,-0.052 -0.132,-0.178 -0.132,-0.178 -0.083,-0.079 -0.182,-0.079 -0.302,-0.003 l -0.103,-0.086 -0.132,0.12 -0.337,-0.283 c 0,0 0.02,-0.161 0.146,-0.161 0.125,0 0.171,-0.067 0.148,-0.146 -0.023,-0.085 -0.081,-0.18 -0.093,-0.272 -0.011,-0.09 -0.023,-0.203 -0.023,-0.203 0,0 0,-0.194 0.079,-0.22 0.083,-0.022 0.113,-0.297 0.113,-0.297 0,0 0.198,-0.054 0.244,-0.141 0.103,-0.171 0.289,-0.209 0.289,-0.209 -0.085,-0.129 -0.152,-0.221 -0.217,-0.271 l -0.199,0.002 c -0.043,-0.136 -0.099,-0.231 -0.176,-0.296 0,0 -0.068,-0.205 0.063,-0.249 0.136,-0.049 0.185,-0.074 0.229,-0.155 0.048,-0.083 0.161,-0.281 0.161,-0.281 l -0.032,-0.105 c 0.09,-0.075 0.212,-0.106 0.355,-0.095 0.111,0.094 0.078,0.496 0.078,0.496 l 0.206,-0.012 c 0,0 0.268,-0.072 0.397,-0.017 0.129,0.054 0.196,10e-4 0.196,10e-4 0,0 0.09,0.101 0.058,0.152 -0.025,0.055 0.016,0.189 0.016,0.189 l -0.106,0.329 -0.007,0.188 c 0,0 0.197,0.086 0.252,0.083 0.049,-0.005 0.166,0.081 0.166,0.081 l 0.261,-0.003 0.463,-0.101 -0.003,-0.148 c 0,0 0.144,-0.11 0.125,-0.274 -0.019,-0.162 -0.014,-0.247 0.029,-0.312 0.044,-0.064 0.076,-0.092 0.076,-0.092 l 0.15,0.046 0.205,-0.071 0.151,-0.111 0.32,-0.068 0.349,-0.116 0.037,-0.041 0.06,0.144 -0.078,0.188 c 0,0 0.035,0.118 0.117,0.134 0.077,0.015 0.225,0.22 0.225,0.22 0,0 0.092,-0.078 0.217,-0.039 0.123,0.037 0.261,0.067 0.242,0.222 -0.012,0.104 0.047,0.283 0.047,0.283 0,0 0.102,0.211 0.06,0.354 -0.042,0.146 -0.042,0.432 -0.042,0.432 l -0.102,0.265 0.412,-0.046 0.138,0.178 -0.014,0.132 0.122,-0.023 0.123,0.157 c 0.129,-0.002 0.233,-0.227 0.611,-0.146 0.34,0.072 0.462,0.132 0.462,0.132 l 0.11,-0.01 0.209,0.049 0.034,-0.104 0.113,0.042 0.474,-0.9 0.159,-0.092 0.221,-0.335 0.104,0.073 0.106,-0.131 c 0,0 0.29,-0.007 0.397,0.071 0.115,0.074 0.196,0.088 0.196,0.088 0,0 0.18,0.193 0.281,0.134 0.102,-0.064 0.143,-0.199 0.143,-0.199 0,0 -0.09,-0.221 -0.039,-0.234 0.051,-0.01 0.225,0.285 0.225,0.285 0,0 0.259,-0.022 0.283,-0.246 0.023,-0.218 -0.146,-0.368 -0.146,-0.368 l -0.147,-0.141 -0.344,-0.235 -0.085,-0.229 c 0.131,-0.029 0.235,-0.092 0.313,-0.194 0,0 -0.042,-0.138 -0.028,-0.219 0.015,-0.083 -0.055,-0.208 -0.068,-0.345 -0.014,-0.133 -0.03,-0.329 -0.03,-0.329 0,0 0.046,-0.172 0.152,-0.241 0.111,-0.068 0.326,-0.221 0.435,-0.209 0.11,0.013 0.203,0.099 0.203,0.099 l 0.242,0.088 c 0,0 0.157,0.092 0.238,0.092 0.082,-0.002 0.253,-0.071 0.253,-0.071 0.113,0.13 0.225,0.183 0.33,0.16 0.044,0.063 0.081,0.175 0.103,0.332 l -0.169,0.21 -0.391,0.108 c 0,0 -0.183,-0.004 -0.205,0.25 -0.023,0.254 -0.025,0.274 -0.076,0.373 -0.046,0.096 -0.206,0.335 -0.225,0.48 l 0.328,0.22 0.04,0.134 0.124,-0.017 c 0,0 0.071,-0.076 0.051,-0.159 -0.02,-0.083 0.16,-0.207 0.16,-0.207 0,0 0.062,-0.197 0.156,-0.206 0.09,-0.007 0.136,-0.21 0.391,-0.161 0.254,0.046 0.411,0.092 0.411,0.092 l 0.006,0.059 c 0,0 0.304,0.05 0.497,0.029 0.231,-0.023 0.445,-0.198 0.586,-0.147 l 0.01,0.205 0.303,0.113 -0.003,0.183 0.331,-0.005 c 0,0 0.064,-0.081 0.034,-0.173 -0.058,-0.162 0.134,-0.148 0.134,-0.148 0,0 0.171,0 0.15,-0.073 -0.019,-0.072 0.193,-0.169 0.193,-0.169 l -0.062,-0.062 c 0,0 0.188,-0.169 0.284,-0.199 0.097,-0.03 0.493,-0.44 0.493,-0.44 l 0.07,0.171 0.336,-0.455 0.666,-0.023 0.265,-0.047 c 0,0 -0.025,0.113 0.064,0.107 0.089,-0.003 0.098,0.147 0.098,0.147 0.019,0.066 0.149,-0.042 0.256,0.002 0.106,0.04 0.222,0.097 0.222,0.097 l 0.144,-0.279 0.09,0.064 0.308,-0.489 0.43,0.351 c 0.198,0.192 0.464,0.397 0.803,0.617 l 0.159,0.313 0.15,0.021 -0.046,0.149 0.709,0.412 0.193,-0.146 -0.019,-0.58 c 0,0 0.019,-0.122 0.109,-0.217 0.092,-0.098 0.247,-0.185 0.101,-0.247 -0.145,-0.062 -0.145,-0.097 -0.105,-0.185 0.037,-0.084 0.053,-0.186 -0.03,-0.269 -0.086,-0.085 -0.09,-0.2 -0.09,-0.2 0,0 -0.174,0.036 -0.37,-0.114 -0.189,-0.147 -0.291,-0.263 -0.291,-0.263 l -0.198,-0.062 c 0,0 0.076,-0.256 0.034,-0.396 -0.045,-0.141 -0.09,-0.25 -0.09,-0.25 l -0.198,0.039 -0.083,-0.221 0.168,-0.19 0.1,0.019 0.229,-0.041 0.058,0.155 c 0,0 0.107,-0.081 0.145,-0.186 0.04,-0.105 0.128,-0.21 0.128,-0.21 0.12,0.15 0.268,0.259 0.443,0.326 0.17,-0.243 0.298,-0.45 0.383,-0.626 0,0 0.062,0.355 0.157,0.342 0.097,-0.017 0.044,-0.247 0.044,-0.247 l 0.095,-0.146 c 0,0 0.071,-0.377 0.163,-0.472 0.095,-0.097 0.235,-0.229 0.235,-0.229 l 0.127,0.061 c 0.038,-0.127 0.04,-0.225 0.003,-0.306 l 0.533,-0.241 0.13,-0.091 0.056,0.148 0.191,0.198 0.151,0.36 0.16,0.08 c 0.032,0.116 0.157,0.196 0.372,0.245 l 0.251,-0.411 0.051,0.543 -0.002,0.351 -0.074,0.381 c 0.09,0.084 0.261,0.194 0.522,0.328 -0.047,-0.176 0.099,-0.33 0.099,-0.33 l 0.277,0.035 -0.044,0.385 -0.108,0.235 c 0.093,0.157 0.196,0.267 0.312,0.323 l 0.166,-0.053 0.042,0.115 -0.06,0.019 -0.074,0.312 c 0,0 -0.125,0.156 0.017,0.272 0.117,0.095 0.339,0.102 0.339,0.102 l 0.224,0.058 c 0.09,-0.014 0.171,-0.005 0.242,0.021 l 0.056,0.266 0.176,-0.054 c 0,0 0.01,-0.104 0.06,-0.134 0.045,-0.03 0.296,0.007 0.296,0.007 l 0.044,-0.066 0.23,-0.069 0.127,0.051 0.216,-0.136 0.013,0.136 c 0.139,0.029 0.186,0.156 0.146,0.376 l -0.161,0.109 -0.086,-0.044 -0.313,0.329 -0.106,0.262 0.028,0.22 c -0.056,0.089 -0.409,0.313 -0.409,0.313 -0.144,0.296 -0.369,0.318 -0.369,0.318 l -0.053,0.183 0.021,0.188 0.176,0.149 c 0.408,0.198 0.69,0.391 0.843,0.578 l -0.031,0.073 0.329,0.237 0.114,0.279 0.298,0.321 0.412,-0.401 0.193,-0.345 -0.157,-0.105 -0.106,-0.208 c 0.218,0.044 0.404,0.118 0.555,0.219 0,0 0.117,-0.094 0.298,-0.136 0.31,-0.08 0.672,-0.257 0.672,-0.257 l -0.254,-0.505 0.397,-0.23 0.252,0.089 0.274,0.114 0.127,-0.218 0.036,-0.447 0.298,-0.793 0.102,-0.598 c -0.002,-0.136 0.037,-0.3 0.118,-0.496 0.01,-0.181 0.051,-0.328 0.109,-0.437 l 0.092,-0.443 -0.191,-0.358 0.078,-0.044 -0.055,-0.082 0.046,-0.056 0.176,-0.058 c 0.05,-0.025 0.076,-0.064 0.08,-0.123 -0.007,-0.152 -0.035,-0.239 -0.092,-0.258 0.107,-0.089 0.177,-0.189 0.207,-0.292 l 0.064,0.003 0.025,-0.178 -0.064,-0.005 c -0.058,-0.069 -0.06,-0.117 0.008,-0.147 l 0.196,0.049 0.046,-0.352 0.019,-0.044 c 0.106,0.009 0.171,0.062 0.191,0.157 l 0.1,0.078 0.029,-0.053 c 0.152,0.022 0.282,0.007 0.402,-0.044 v 0.061 l 0.2,-0.013 c 0.015,-0.073 -0.046,-0.145 -0.046,-0.145 0.021,-0.147 0.009,-0.275 -0.027,-0.375 l -0.152,-0.242 0.12,-0.115 0.164,0.028 0.461,-0.137 c 0.123,-0.03 0.257,-0.009 0.411,0.074 l 0.127,0.182 0.164,0.076 0.129,0.275 0.377,0.381 0.095,0.166 0.256,-0.117 0.084,-0.181 0.09,0.03 0.383,-0.102 -0.055,-0.189 -0.176,-0.279 -0.142,-0.064 c 0,0 0.005,-0.157 -0.055,-0.259 -0.079,-0.046 -0.492,0.085 -0.603,0.041 -0.039,-0.115 0.083,-0.286 0.083,-0.286 l 0.132,-0.254 0.06,0.033 0.395,-0.292 0.017,-0.076 0.157,-0.099 0.032,0.081 0.222,-0.051 c 0.08,0.057 0.154,0.071 0.212,0.041 l -0.041,-0.313 0.244,-0.16 -0.009,-0.291 -0.064,-0.115 0.173,-0.274 c 0.032,-0.027 0.086,-0.032 0.154,-0.021 l -0.027,-0.178 0.054,-0.272 h 0.009 l -0.021,-0.187 c 0.059,-0.18 0.155,-0.333 0.28,-0.467 l 0.134,0.021 c -0.032,-0.122 0.147,-0.442 0.147,-0.442 l 0.127,0.032 0.213,-0.086 0.601,-0.021 0.011,-0.193 0.211,0.016 c 0.09,-0.066 0.205,-0.078 0.342,-0.032 l 0.267,-0.12 c -0.029,-0.316 -0.105,-0.601 -0.228,-0.85 -0.16,-0.028 -0.312,-0.141 -0.464,-0.344 -0.037,-0.108 0.097,-0.223 0.097,-0.223 l -0.162,-0.05 -0.053,-0.223 -0.141,-0.251 c 0.202,-0.056 0.532,0.154 0.532,0.154 l 0.02,-0.271 0.208,-0.145 0.126,-0.152 c 0.13,-0.084 0.273,-0.098 0.433,-0.039 l 0.136,-0.038 c 0.06,-0.082 0.088,-0.158 0.09,-0.228 l 0.471,-0.469 -0.265,-1.215 -0.269,-0.137 0.375,-0.752 0.101,-0.008 0.243,-0.422 c -0.035,-0.113 -0.64,-0.242 -0.64,-0.242 l -0.45,-0.081 -0.612,-0.312 c 0.111,-0.512 0.472,-0.544 0.472,-0.544 -0.02,-0.044 0.076,-0.109 0.291,-0.196 l 0.185,-0.152 c 0.178,0.006 0.274,-0.033 0.298,-0.111 0.12,-0.086 0.362,-0.039 0.362,-0.039 l 0.396,-0.198 0.171,0.11 0.172,-0.167 0.087,-0.034 0.152,0.007 0.104,-0.076 0.004,-0.217 0.106,-0.044 -0.937,-1.688 0.373,0.017 0.051,0.148 c 0.257,0.051 0.533,-0.13 0.533,-0.13 l 0.062,-0.136 0.358,-0.097 c 0.067,-0.003 0.11,0.027 0.131,0.09 0.125,-0.014 0.231,-0.076 0.324,-0.181 l 0.048,-0.226 c 0.069,-0.106 0.109,-0.204 0.122,-0.287 0.153,-0.23 0.285,-0.328 0.391,-0.302 0.051,-0.132 0.176,-0.21 0.381,-0.233 0.086,-0.081 0.178,-0.12 0.261,-0.123 0.086,-0.03 0.128,-0.105 0.123,-0.227 0.051,-0.105 0.115,-0.172 0.194,-0.198 0.036,-0.076 0.129,-0.112 0.129,-0.112 0.157,0.018 0.302,0.078 0.427,0.191 0.008,0.12 0.059,0.195 0.157,0.217 0.035,0.046 0.054,0.099 0.062,0.159 l 0.2,0.115 c 0,0 0.098,0.035 0.12,0.005 0.021,-0.027 -0.009,-0.095 -0.009,-0.095 0.046,-0.143 0.198,-0.312 0.198,-0.312 l 0.272,-0.062 0.077,-0.156 c 0.057,-0.054 0.087,-0.114 0.099,-0.172 l -0.053,-0.18 c -0.021,-0.054 -0.074,-0.097 -0.167,-0.134 0,0 -0.166,0.124 -0.224,0.012 -0.042,-0.088 0.141,-0.312 0.141,-0.312 0,0 0.268,-0.202 0.28,-0.242 0.018,-0.037 -0.013,-0.104 0.097,-0.152 0.007,-0.004 0.349,-0.208 0.349,-0.208 0,0 0.24,-0.1 0.288,-0.18 0.047,-0.072 0.098,-0.157 0.098,-0.157 0.041,-0.027 0.303,-0.019 0.303,-0.019 l 0.188,-0.09 0.123,0.055 0.24,-0.075 c -0.012,-0.061 0.024,-0.118 0.105,-0.162 0,0 0.032,-0.113 0.152,-0.088 0.12,0.026 0.169,0.044 0.233,0.017 0.061,-0.025 0.171,-0.037 0.23,0.032 0.056,0.066 0.059,0.127 0.059,0.127 l 0.068,0.025 -0.002,0.13 0.046,-0.013 0.008,0.1 0.222,0.017 0.606,0.207 0.077,-0.027 0.062,0.144 h 0.068 l 0.025,-0.108 c 0.056,0.021 0.109,0.064 0.157,0.136 l 0.009,0.054 0.058,-0.056 0.113,-0.235 0.061,-0.056 0.106,-0.18 0.102,0.051 0.036,-0.098 0.07,0.017 0.004,-0.252 c -0.087,-0.062 -0.112,-0.147 -0.073,-0.247 l -0.128,-0.078 0.028,-0.039 c -0.115,-0.059 -0.217,-0.089 -0.312,-0.095 v -0.109 c 0,0 0.102,-0.034 0.09,-0.09 -0.019,-0.056 -0.032,-0.097 -0.032,-0.097 0.046,-0.104 0.233,-0.03 0.233,-0.03 l 0.102,-0.029 c 0,0 0.102,-0.067 0.087,-0.146 -0.018,-0.1 0.047,-0.125 0.047,-0.125 0.076,-0.134 -0.106,-0.13 -0.081,-0.274 0.044,-0.017 0.074,-0.106 0.074,-0.106 -0.051,-0.086 -0.019,-0.28 -0.019,-0.28 l -0.072,-0.101 c 0.021,-0.061 0.072,-0.104 0.159,-0.127 0.026,-0.063 0.072,-0.098 0.14,-0.113 l 0.006,-0.104 0.035,-0.069 c 0,0 -0.021,-0.193 0.071,-0.215 0.12,-0.025 0.135,-0.064 0.135,-0.064 0.064,-0.027 0.068,0.051 0.068,0.051 0.064,-0.017 0.086,0.014 0.072,0.095 l 0.185,0.086 0.129,0.104 0.069,-0.035 0.046,0.086 0.127,-0.049 0.013,0.062 c 0.032,0.017 0.11,0.012 0.23,-0.009 0.071,0.007 0.129,0.042 0.183,0.099 0,0 0.106,0.01 0.131,0.025 0.023,0.015 0.056,0.039 0.056,0.039 l 0.081,-0.024 c 0,0 0.12,0.06 0.134,-0.021 0.017,-0.086 0.118,-0.102 0.118,-0.102 0,0 0.099,0.06 0.164,0.024 0.027,-0.016 0.092,0.007 0.092,0.007 l 0.199,0.121 0.156,0.06 0.171,-0.091 0.229,-0.09 0.078,0.104 c 0.067,0.023 0.13,0.064 0.184,0.131 l 0.151,-0.046 c 0.017,0.086 0.049,0.147 0.091,0.186 0.024,-0.056 0.085,-0.095 0.185,-0.123 0.023,-0.062 0.067,-0.1 0.124,-0.111 0,0 -0.046,-0.096 0.013,-0.119 0.063,-0.028 0.082,0.011 0.082,0.011 l 0.077,-0.044 h 0.082 l -0.007,-0.048 c 0.083,-0.066 0.165,-0.11 0.255,-0.127 l 0.073,-0.062 0.135,-0.005 0.21,-0.03 c 0.021,-0.036 0.039,-0.062 0.062,-0.094 0.037,-0.037 0.079,-0.077 0.146,-0.134 l 0.021,-0.044 -0.012,-0.065 0.169,-0.156 c 0.085,-0.095 0.104,-0.174 0.055,-0.229 l 0.122,-0.043 0.045,-0.113 -0.054,-0.003 -0.071,-0.227 0.258,0.017 0.118,-0.227 0.079,-0.105 0.053,0.032 0.06,-0.09 -0.076,-0.005 0.135,-0.249 0.112,-0.03 0.003,-0.148 0.348,-0.327 0.038,0.012 0.071,-0.052 0.24,-0.073 0.046,-0.123 c 0.104,-0.076 0.238,0.082 0.238,0.082 l 0.105,-0.059 0.064,-0.062 0.008,-0.077 c 0.019,-0.025 0.071,-0.041 0.152,-0.048 -0.021,-0.047 -0.005,-0.074 0.053,-0.09 l 0.104,-0.062 c 0,0 0.071,-0.01 0.082,-0.04 0.013,-0.029 0.084,-0.133 0.084,-0.133 0.051,-0.038 0.122,-0.072 0.215,-0.091 0.069,-0.046 0.117,-0.095 0.143,-0.155 0.028,-0.029 0.065,-0.045 0.108,-0.038 0,0 0.338,0.073 0.414,0.024 0.075,-0.051 0.126,-0.203 0.126,-0.203 0,0 -0.041,-0.053 -0.041,-0.097 0.003,-0.048 0.093,-0.062 0.147,-0.058 0.021,0.002 0.047,0.078 0.044,0.125 -0.011,0.049 -0.037,0.176 -0.037,0.176 0,0 0.015,0.095 0.072,0.117 0.056,0.023 0.212,0.032 0.212,0.032 l 0.035,-0.023 0.115,0.014 0.092,-0.108 -0.009,-0.031 0.027,-0.054 0.005,-0.132 0.054,-0.051 0.126,-0.029 0.153,0.037 0.08,0.041 0.088,-0.023 0.027,-0.069 c -0.031,-0.087 -0.075,-0.134 -0.129,-0.143 l -0.102,-0.083 -0.041,-0.01 -0.003,-0.056 0.125,-0.278 -0.066,-0.266 c 0.038,-0.059 0.102,-0.111 0.198,-0.153 0.009,-0.034 0.037,-0.076 0.094,-0.139 0.025,-0.068 0.028,-0.143 0.012,-0.221 -0.029,-0.033 -0.048,-0.077 -0.05,-0.134 l 0.064,-0.12 0.048,0.055 c 0.047,-0.042 0.061,-0.105 0.047,-0.182 0.007,-0.031 0.044,-0.056 0.11,-0.081 l 0.213,-0.118 0.08,-0.169 0.021,-0.187 c 0.015,-0.019 0.063,-0.037 0.135,-0.053 -0.005,-0.028 0.022,-0.04 0.087,-0.025 l 0.047,-0.04 0.017,0.028 0.205,0.154 0.118,0.01 c 0,0 0.161,0.007 0.254,-0.096 0.014,-0.115 0.085,-0.185 0.221,-0.202 l 0.186,0.007 -0.025,-0.147 0.291,-0.093 c 0.328,-0.051 0.427,0.046 0.427,0.046 l 0.016,-0.271 0.485,0.213 0.462,0.129 c 0.127,0.039 0.164,-0.066 0.164,-0.066 0.271,0.041 0.406,-0.083 0.406,-0.083 l 0.229,-0.188 0.545,-0.224 0.326,-0.108 0.205,0.018 0.342,-0.288 0.164,-0.071 0.064,-0.115 0.019,-0.208 0.271,-0.021 0.359,-0.042 c 0.34,0.156 0.585,0.215 0.741,0.171 l 0.1,0.125 0.196,0.087 0.178,0.273 c 0.134,-0.01 0.402,0.38 0.402,0.38 l 0.217,-0.146 c 0.413,-0.156 0.812,-0.565 1.063,-0.628 0.179,0.003 0.319,-0.06 0.319,-0.06 l 0.415,0.751 0.067,-0.008 0.321,-0.403 1.154,0.413 0.019,-0.104 0.667,-0.673 0.428,-0.256 0.349,0.247 0.146,-0.051 c 0.17,-0.213 0.316,-0.249 0.535,-0.198 l 0.102,-0.044 0.039,-0.196 h 0.153 l 0.523,0.318 0.235,0.166 0.049,0.243 1.521,-0.208 0.836,-0.88 c 0.032,-0.249 -0.06,-0.416 -0.06,-0.416 -0.113,-0.042 -0.115,-0.259 -0.115,-0.259 l 0.006,-0.284 c 0.019,-0.237 -0.071,-0.62 -0.071,-0.62 l 0.148,-0.095 c 0.022,-0.211 0.209,-0.296 0.209,-0.296 l 0.063,-0.12 0.146,-0.076 c 0,0 -0.008,-0.09 0.068,-0.074 0.074,0.014 0.272,0.129 0.272,0.129 l 0.248,-0.013 c 0,0 0.21,0.097 0.249,-0.026 0.073,-0.242 0.309,-0.312 0.309,-0.312 l 0.229,0.081 0.154,-0.067 0.365,-0.376 0.42,-0.09 c 0.074,-0.027 0.154,0.124 0.154,0.124 0,0 0.589,-0.068 0.636,-0.127 0.012,0.093 0.484,0.189 0.484,0.189 l 0.249,-0.178 0.07,-0.203 c 0.133,-0.132 0.232,-0.208 0.309,-0.23 l 0.604,-0.596 c 0.241,-0.032 0.508,-0.233 0.508,-0.233 l 0.133,-0.166 0.597,-0.298 -0.818,-0.538 0.19,-0.399 0.258,-0.179 -0.23,-0.058 0.27,-0.309 0.107,-0.413 0.034,-0.125 -0.023,-0.243 c 0.254,0.55 0.508,1.072 0.63,1.188 0.269,0.254 0.218,0.136 0.455,0.203 0.235,0.067 0.656,0.404 0.892,0.489 0.237,0.084 0.39,-0.102 0.607,-0.203 0.219,-0.102 0.961,-0.235 1.467,-0.017 0.505,0.22 1.28,1.52 1.364,1.638 0.085,0.118 0.288,0.22 0.203,-0.085 -0.084,-0.303 -0.067,-1.721 0.118,-2.042 0.185,-0.32 1.313,-1.198 1.667,-1.436 0.355,-0.235 0.069,-0.642 0.119,-0.944 0.051,-0.305 0.624,-1.064 0.961,-1.723 0.337,-0.659 0.303,-1.806 0.472,-2.245 0.168,-0.438 1.703,-1.315 1.888,-1.351 0.186,-0.034 0.337,0.051 0.522,0.135 0.187,0.085 0.658,-0.1 0.826,-0.218 0.169,-0.118 0.337,0.167 0.472,0.252 0.136,0.085 0.607,-0.085 0.741,-0.185 0.136,-0.102 0.187,-0.22 0.506,-0.236 0.32,-0.018 0.572,0.472 0.708,0.607 0.135,0.135 0.388,-0.187 0.809,-0.018 0.422,0.17 1.821,-0.169 2.073,-0.287 0.252,-0.119 0.961,0.135 1.131,0.22 0.167,0.085 0.555,-0.371 0.758,-0.438 0.201,-0.067 0.388,0.371 0.388,0.523 0,0.152 0.354,-0.32 0.472,-0.557 0.117,-0.237 1.095,0.472 1.33,0.726 0.237,0.252 0.271,-0.017 0.406,-0.237 0.134,-0.22 0.149,0.23 1.664,0.23 1.515,0 0.942,-0.335 1.211,-0.437 0.27,-0.1 2.893,0.841 3.733,1.11 0.841,0.269 3.803,0.571 5.315,0.908 1.515,0.337 4.14,3.027 4.71,3.667 0.573,0.641 6.561,5.384 6.83,5.956 0.27,0.57 0.909,2.455 1.245,4.237 0.336,1.783 0.168,3.836 0.134,4.576 -0.033,0.741 1.076,3.767 0.875,4.138 -0.201,0.37 -0.875,1.178 -1.144,1.614 -0.27,0.438 -0.201,2.188 -0.235,2.928 -0.034,0.739 -0.437,1.515 -0.739,1.917 -0.304,0.404 -0.438,0.942 -0.438,1.212 0,0.269 -0.975,1.212 -1.38,1.917 -0.402,0.706 -0.368,3.902 -0.368,4.44 0,0.539 -0.303,1.077 -0.64,1.481 -0.337,0.404 -0.203,1.884 -0.505,2.32 -0.303,0.438 0,0.707 -0.067,1.245 -0.067,0.538 -1.011,0.909 -2.39,1.413 -1.379,0.504 -1.936,1.902 -2.188,2.156 -0.252,0.254 -0.203,0.522 -0.22,0.811 -0.015,0.287 -0.572,0.658 -0.877,0.792 -0.303,0.135 -0.167,-0.201 -0.269,-0.523 -0.102,-0.319 -0.741,-0.404 -0.928,-0.455 -0.185,-0.051 0.102,0.187 0.221,0.337 0.118,0.152 0.673,0.524 0.741,0.811 0.067,0.288 -0.657,1.048 -1.112,1.367 -0.455,0.322 -0.743,0.845 -0.91,1.166 -0.17,0.32 0.017,-0.287 -0.422,-0.963 -0.438,-0.675 -0.404,-0.388 -0.624,-0.421 -0.219,-0.034 -0.437,-1.452 -0.708,-1.842 -0.269,-0.388 -0.707,0.034 -0.961,-0.337 -0.252,-0.372 -0.605,-0.22 -0.656,-0.405 -0.051,-0.185 -0.32,-0.068 -0.623,-0.202 -0.305,-0.135 -0.642,-0.372 -0.811,-0.59 -0.168,-0.221 -0.269,0.303 -0.15,0.675 0.118,0.371 0.825,0.741 0.993,0.776 0.169,0.032 0.288,0.202 0.388,0.304 0.102,0.102 0.506,0.186 0.607,0.152 0.102,-0.034 0.37,0.234 0.506,0.354 0.134,0.118 0.337,0.186 0.674,0.338 0.338,0.152 0.017,0.27 0.033,0.523 0.018,0.254 0.32,0.489 0.152,0.642 -0.169,0.152 -0.354,-0.271 -0.656,-0.507 -0.305,-0.236 -0.726,0.473 -0.896,0.422 -0.167,-0.049 -0.218,-0.067 -0.538,-0.034 -0.319,0.034 -0.894,-0.337 -0.91,-0.472 -0.017,-0.136 -0.944,0.388 -1.365,0.573 -0.422,0.187 -0.994,-0.067 -1.163,-0.135 -0.168,-0.068 -0.235,0.033 -0.455,0.22 -0.219,0.186 -0.32,-0.034 -0.54,-0.152 -0.218,-0.118 -1.044,-0.169 -1.263,-0.118 -0.22,0.051 -0.084,0.135 0.151,0.118 0.236,-0.017 0.843,0.321 0.978,0.423 0.134,0.102 0.388,0.201 0.404,0.102 0.018,-0.102 0.538,0.034 1.432,0.286 0.894,0.254 1.23,-0.169 1.383,-0.337 0.152,-0.169 0.286,0.117 0.422,0.286 0.135,0.169 1.686,0.085 2.141,-0.136 0.455,-0.218 0.438,0.018 0.54,0.221 0.1,0.203 0.37,-0.034 0.758,-0.068 0.388,-0.033 -0.254,0.475 -0.792,1.014 -0.54,0.54 -0.607,1.334 -0.607,1.468 0,0.135 -0.995,0.118 -1.332,0.236 -0.337,0.119 0.658,0.879 0.843,0.896 0.187,0.017 0.305,-0.152 0.32,-0.321 0.019,-0.168 0.455,-0.286 0.691,-0.303 0.235,-0.018 -0.152,0.336 -0.319,0.539 -0.17,0.203 0.421,0.119 0.521,0.102 0.101,-0.017 0.472,-0.321 0.624,-0.389 0.15,-0.067 -0.187,0.726 -0.371,1.249 -0.186,0.524 -2.242,2.415 -2.562,2.466 -0.32,0.051 -1.146,0.675 -1.417,0.827 -0.269,0.152 -2.596,0.658 -2.947,0.472 -0.355,-0.186 0.049,-0.319 0.167,-0.59 0.118,-0.271 -0.051,-0.339 -0.303,-0.591 -0.252,-0.254 0.235,-0.136 0.32,-0.321 0.084,-0.187 -0.86,-0.119 -1.214,-0.068 -0.354,0.051 -0.32,-0.793 -0.54,-1.062 -0.218,-0.271 -0.017,-0.305 0.17,-0.388 0.184,-0.084 -0.187,-0.152 -0.405,-0.49 -0.22,-0.337 -0.825,-0.371 -0.825,-0.371 0,0 0.37,0.303 0.37,0.607 0,0.304 -0.438,0.523 -0.692,0.676 -0.252,0.152 0.254,0.271 0.473,0.489 0.22,0.22 -0.792,0.287 -1.196,0.304 -0.404,0.018 -0.134,0.27 -0.27,0.54 -0.135,0.27 -0.185,0.17 -0.404,0.17 -0.219,0 -0.54,0.691 -0.709,0.961 -0.168,0.271 -0.117,0.355 -0.369,0.305 -0.254,-0.051 0.083,0.303 0.235,0.455 0.152,0.152 -0.034,0.54 -0.69,0.845 -0.658,0.303 -1.771,0.033 -2.208,-0.085 -0.438,-0.118 -0.625,0.404 -0.979,0.557 -0.354,0.153 -0.758,-0.017 -1.027,-0.186 -0.271,-0.17 -0.136,0.304 -0.067,0.423 0.067,0.118 -0.203,0.118 -0.371,0.254 -0.169,0.134 1.265,0.758 1.635,0.809 0.371,0.051 -0.017,0.305 0.034,0.726 0.051,0.424 0.235,0.034 0.252,-0.135 0.017,-0.168 0.607,-0.792 0.91,-1.147 0.304,-0.355 1.332,-0.237 1.821,0.017 0.487,0.254 1.08,-1.166 2.224,-1.503 1.145,-0.335 0.773,2.255 0.808,2.727 0.033,0.471 -0.136,0.471 -0.202,0.941 -0.067,0.47 -0.453,2.123 -0.823,2.291 -0.371,0.169 -1.451,0.102 -1.618,0.203 -0.169,0.102 0.134,0.726 0.134,1.014 0,0.286 0.254,-0.187 0.303,-0.44 0.051,-0.252 0.658,-0.152 0.91,-0.152 0.254,0 0.979,-0.184 1.332,-0.252 0.354,-0.067 0.034,0.438 -0.472,1.131 -0.505,0.692 -2.022,1.688 -2.595,1.991 -0.573,0.305 -1.821,1.401 -1.956,1.604 -0.136,0.203 -0.388,-0.135 -0.606,-0.271 -0.22,-0.136 -0.573,-0.083 -1.079,-0.083 -0.505,0 -1.23,-0.423 -1.87,-0.457 -0.642,-0.033 -0.674,-0.118 -1.097,0.017 -0.42,0.136 -0.841,0 -1.65,-0.033 -0.809,-0.034 1.364,0.573 1.432,0.794 0.068,0.22 -0.724,0.271 -1.465,0.488 -0.743,0.221 -0.438,-0.067 -1.097,-0.169 -0.657,-0.1 -0.201,0.372 -0.422,0.508 -0.218,0.136 -1.482,-0.017 -2.325,0.187 -0.843,0.201 -0.455,1.568 -0.573,1.771 -0.118,0.203 -0.96,0.675 -1.062,0.861 -0.102,0.185 1.955,-0.575 2.158,-0.76 0.201,-0.187 0.201,-0.76 0.252,-1.014 0.051,-0.252 1.938,-0.017 2.056,-0.067 0.119,-0.051 0.253,0.102 0.337,0.253 0.085,0.152 0.489,0.018 0.607,-0.118 0.117,-0.135 1.096,0.118 1.482,0.321 0.388,0.202 0.203,0.034 0.422,-0.051 0.22,-0.084 0.707,0.102 0.877,0.253 0.169,0.152 1.146,0.017 1.584,0.524 0.438,0.506 -0.219,0.995 -0.558,1.012 -0.336,0.018 -0.218,-0.033 -0.15,-0.286 0.068,-0.254 -1.095,0.371 -1.566,0.286 -0.473,-0.084 -1.114,0.912 -1.602,0.879 -0.489,-0.034 -0.876,0.539 -1.266,0.522 l 0,0 c 0,0 -0.323,-0.181 -0.51,-0.206 -0.186,-0.025 -0.059,0.142 -0.118,0.328 -0.06,0.186 -0.261,0.321 -0.328,0.439 -0.067,0.117 0.328,0.329 0.388,0.278 0.059,-0.051 0.485,-0.232 0.52,-0.317 0.033,-0.084 2.09,1.064 2.528,1.2 0.437,0.134 0.455,-0.626 0.622,-0.726 0.17,-0.102 0.119,0.337 0.286,0.59 0.17,0.253 0.506,0.235 0.642,0.051 0.134,-0.186 0.235,-0.051 0.455,0 0.219,0.051 0.404,-0.271 0.741,-0.438 0.337,-0.17 -0.37,-0.997 -0.286,-1.268 0.083,-0.27 0.337,0.539 0.606,0.895 0.271,0.354 0.557,0.591 0.692,0.896 0.133,0.303 0.116,0.388 0.184,0.741 0.068,0.355 0.894,0.169 1.214,0.203 0.319,0.034 0.271,0.406 0.303,0.591 0.034,0.187 0.254,-0.252 0.39,-0.473 0.134,-0.22 0.857,0.085 1.264,0 0.404,-0.084 0.875,0.473 0.993,0.642 0.119,0.169 0.305,0 0.489,-0.102 0.184,-0.102 0.455,-0.218 1.955,-0.287 1.501,-0.066 1.046,-0.454 1.298,-0.69 0.254,-0.237 0.194,-0.202 1.339,-0.304 1.144,-0.1 3.769,-0.301 5.519,-0.47 1.748,-0.168 4.367,-0.696 5.143,-0.679 0.775,0.017 0.725,0.421 0.877,0.641 0.152,0.221 0.102,0.271 -0.034,0.507 -0.134,0.236 0.319,0.624 0.118,1.046 -0.201,0.423 -1.298,1.047 -1.651,1.047 -0.353,0 -0.32,-0.287 -0.591,-0.287 -0.269,0 -0.623,0.776 -0.826,1.115 -0.201,0.336 0.574,0 0.71,0 0.133,0 0.15,0.102 0.15,0.76 0,0.658 0.472,1.097 0.809,2.025 0.339,0.928 -0.067,3.916 -0.303,4.422 -0.236,0.506 -0.826,1.03 -1.078,1.08 -0.254,0.051 -0.489,0.439 -0.961,0.541 -0.473,0.102 -0.17,0.17 -0.388,0.371 -0.22,0.203 -2.107,0.726 -2.478,0.878 -0.371,0.152 -0.845,0.697 -1.247,1.066 -0.404,0.37 -1.246,0.169 -3.129,0.674 -1.884,0.504 -2.39,1.277 -3.398,2.926 -1.008,1.649 0.269,3.902 0.235,4.171 -0.032,0.27 -1.076,0.235 -2.221,0.068 -1.144,-0.168 -3.296,-0.975 -4.069,-1.043 -0.773,-0.067 0.033,0.27 -0.034,0.437 -0.067,0.17 -0.337,0.304 -1.277,0.808 -0.943,0.506 -0.842,1.144 -1.381,1.682 -0.539,0.539 -0.842,0.304 -1.145,0.405 -0.301,0.102 -0.538,0.201 -1.312,0.605 -0.773,0.402 -6.627,1.379 -7.4,1.716 -0.775,0.337 -0.707,1.379 -0.841,1.683 -0.136,0.303 -0.64,0.235 -0.977,0.571 -0.337,0.336 -0.773,1.447 -1.648,1.715 -0.875,0.269 -2.053,-0.706 -2.523,-1.043 -0.47,-0.336 -0.47,0 -1.076,0 -0.605,0 -1.313,-0.975 -1.614,-1.21 -0.305,-0.236 -0.741,-0.102 -1.347,-0.102 -0.604,0 -1.581,-0.538 -2.691,-1.008 -1.11,-0.473 -5.923,-1.004 -6.63,-1.207 -0.708,-0.203 -1.652,0.675 -2.899,1.113 -1.247,0.44 -4.029,0.254 -4.5,0.085 -0.472,-0.169 -0.709,-0.085 -0.675,0.034 0.034,0.118 -0.27,0.202 -1.397,0.506 -1.131,0.305 -3.996,0.861 -4.417,1.148 -0.422,0.286 -0.557,0.371 -0.759,0.168 -0.201,-0.201 -0.589,0.136 -0.825,0.288 -0.235,0.151 0.118,0.22 0.506,0.522 0.388,0.305 -0.254,1.099 -0.523,1.401 -0.269,0.305 -0.69,-0.404 -1.584,-1.367 -0.894,-0.962 -2.039,-0.979 -2.208,-1.317 -0.168,-0.336 0.573,-0.91 0.843,-1.316 0.269,-0.404 0.995,0.423 1.467,0.152 0.473,-0.271 0.708,-1.3 0.826,-1.873 0.117,-0.574 -0.826,1.181 -1.012,1.469 -0.185,0.286 -0.708,0.016 -0.557,-0.321 0.152,-0.337 0.202,-0.845 -0.134,-1.08 -0.337,-0.236 -0.54,0.91 -0.69,0.961 -0.152,0.051 0.167,-0.269 -0.305,-0.658 -0.473,-0.387 -1.381,-0.573 -1.803,-0.607 -0.421,-0.033 -0.607,0.152 -0.944,0.237 -0.337,0.085 -0.388,-0.102 -0.825,-0.085 -0.438,0.018 -0.32,0.27 -0.354,0.557 -0.033,0.288 -0.271,0.034 -0.557,0.051 -0.286,0.018 -0.033,1.147 -0.084,1.554 -0.051,0.404 -0.623,0.506 -1.078,0.843 -0.455,0.339 -0.727,-0.303 -0.894,-0.758 -0.17,-0.457 0.354,-0.609 0.707,-0.743 0.354,-0.136 -0.1,-0.339 -0.067,-0.675 0.033,-0.339 0.338,-0.559 -0.066,-0.559 -0.406,0 -0.203,-0.337 -0.455,-0.473 -0.254,-0.135 -0.709,0.339 -0.894,0.187 -0.187,-0.152 -0.928,-0.067 -1.332,-0.305 -0.404,-0.235 -0.118,0.271 -0.169,0.39 -0.051,0.116 0.472,0.354 0.827,0.354 0.354,0 0.741,1.351 0.875,1.654 0.136,0.304 -0.977,1.013 -1.213,0.794 -0.235,-0.22 -0.943,-0.372 -1.18,-0.845 -0.235,-0.472 -0.506,-0.438 -1.078,-0.742 -0.573,-0.305 -0.319,-0.136 -0.438,-0.339 -0.118,-0.201 -1.079,-0.557 -1.416,-0.675 -0.337,-0.119 -0.252,-0.337 -0.102,-0.642 0.152,-0.303 0.22,-0.438 0.203,-0.776 -0.018,-0.337 0.084,-0.558 0.388,-0.979 0.303,-0.422 -0.54,0.237 -0.741,0.522 -0.203,0.288 -0.018,0.271 0.017,0.558 0.034,0.287 -0.085,0.439 -0.321,0.59 -0.235,0.152 -1.18,-1.113 -1.415,-1.351 -0.235,-0.234 -0.305,-0.184 -0.591,-0.184 -0.286,0 -0.926,-0.692 -1.584,-0.963 -0.656,-0.271 0.928,0.929 1.163,1.536 0.236,0.607 1.433,1.385 1.719,1.537 0.286,0.15 0.221,0.252 0.271,0.59 0.049,0.337 0.589,0.422 0.707,0.692 0.116,0.27 -0.118,0.27 -0.422,0.455 -0.303,0.187 -0.421,0.574 -0.522,0.727 -0.101,0.153 -0.64,0 -0.995,0 -0.354,0 -0.337,0.118 -0.656,0.169 -0.32,0.051 -0.27,-0.929 -0.572,-1.266 -0.305,-0.339 -0.067,0.809 -0.067,1.249 0,0.438 0.319,0.37 0.37,0.624 0.051,0.252 -0.438,0.067 -1.247,0.303 -0.809,0.237 -2.057,0.508 -2.393,0.44 -0.339,-0.068 0.033,0.455 0,0.658 -0.036,0.203 -0.676,0.928 -1.097,1.147 -0.422,0.22 0.321,0.472 0.051,0.591 -0.271,0.118 -0.422,-0.456 -0.741,-0.625 -0.32,-0.167 -2.883,-0.675 -3.523,-0.675 -0.64,0 -0.894,0.338 -1.146,0.457 -0.253,0.116 -0.591,-0.254 -0.962,-0.373 -0.37,-0.118 0.136,0.523 0.203,0.607 0.067,0.085 -0.506,0.034 -1.466,-0.102 -0.961,-0.133 -2.242,0.44 -2.596,0.676 -0.355,0.237 -0.843,0.355 -0.995,0.22 -0.15,-0.135 -0.017,-0.186 -0.337,-0.305 -0.321,-0.116 -0.118,-0.1 -0.169,-0.388 -0.051,-0.285 -0.504,-0.152 -0.741,-0.033 -0.235,0.118 -0.319,0.152 -0.303,-0.17 0.017,-0.319 -0.489,-0.658 -0.792,-0.658 -0.305,0 -0.187,0.355 0,0.625 0.185,0.271 0.167,0.372 -0.354,0.287 -0.523,-0.084 -0.254,-0.405 -0.557,-0.607 -0.304,-0.203 -0.944,1.013 -1.281,1.334 -0.337,0.319 -0.187,0.472 0.118,0.709 0.303,0.235 0.977,-0.305 1.265,-0.339 0.285,-0.033 -0.271,0.39 -0.625,0.574 -0.354,0.186 -0.269,0.508 -0.54,0.726 -0.269,0.221 1.552,-0.421 1.821,-0.438 0.269,-0.017 0.354,0.203 0.472,0.438 0.119,0.237 0.219,-0.1 0.405,-0.083 0.184,0.018 0.201,0.032 0.37,0.235 0.168,0.203 0.506,-0.472 0.758,-0.573 0.254,-0.102 -0.234,0.726 -0.169,1.266 0.069,0.54 0.743,0.421 0.995,0.421 0.252,0 -0.775,0.644 -0.995,0.98 -0.218,0.338 0.152,0.776 0.169,1.081 0.018,0.303 -1.28,0.15 -1.802,0.27 -0.523,0.118 -0.676,0.539 -1.097,0.658 -0.422,0.118 -0.455,-0.438 -0.538,-0.658 -0.085,-0.221 -0.777,-0.388 -1.247,-0.388 -0.473,0 -0.506,-0.152 -0.894,-0.54 -0.39,-0.39 -1.889,-0.542 -2.141,-0.575 -0.254,-0.032 -0.286,0.033 -0.456,0.203 -0.169,0.169 -1.601,0.033 -2.259,-0.203 -0.656,-0.235 -0.656,0.051 -1.18,-0.354 -0.522,-0.404 -0.774,-0.152 -1.853,-0.305 -1.08,-0.15 -1.508,0.462 -1.837,0.857 -0.328,0.396 0.034,0.523 0.018,0.692 -0.018,0.169 -0.557,0.549 -0.574,0.785 -0.017,0.235 0.237,0.473 0.388,0.6 0.152,0.127 0.235,0.054 0.674,0.189 0.438,0.135 0.455,0.726 0.438,0.944 -0.018,0.22 -0.152,0.457 -0.405,0.626 -0.253,0.167 -0.421,0.876 -0.726,1.028 -0.303,0.152 0.203,-1.282 0.22,-1.451 0.018,-0.17 -0.102,-0.658 -0.319,-1.046 -0.22,-0.39 -2.644,-2.473 -4.493,-4.087 -1.85,-1.616 -5.047,-2.733 -5.419,-3.004 -0.369,-0.27 -0.354,0.135 -0.942,0 -0.591,-0.136 -2.141,-0.676 -2.562,-0.727 -0.421,-0.051 -0.758,0.322 -1.012,0.523 -0.252,0.203 -1.988,0.845 -2.274,0.963 -0.286,0.118 -0.809,0.051 -1.466,-0.203 -0.658,-0.252 -0.978,0.76 -1.097,0.946 -0.118,0.186 -0.573,0.033 -1.635,-0.018 -1.061,-0.051 -2.797,0.506 -3.572,0.777 -0.776,0.269 -0.658,1.147 -0.825,1.401 -0.17,0.252 -0.17,0.285 -0.456,0.065 -0.287,-0.218 -0.271,0.321 -0.641,0.457 -0.371,0.136 -0.725,0.692 -0.994,0.878 -0.271,0.185 -1.13,0.151 -1.399,-0.051 -0.269,-0.203 -0.236,-0.457 -0.152,-0.979 0.085,-0.522 -0.453,-0.37 -0.538,-0.794 -0.084,-0.421 -0.033,-0.557 -0.438,-1.097 -0.405,-0.539 -0.76,-1.047 -1.029,-1.231 -0.27,-0.187 0,0.252 0.152,0.642 0.152,0.387 0.167,0.641 0.167,0.944 0,0.303 0.387,0.236 0.489,0.742 0.102,0.506 0,0.93 0.136,1.217 0.135,0.286 0.15,1.334 0.067,1.519 -0.084,0.186 -0.135,0.186 -0.371,0.457 -0.237,0.269 -0.22,0.218 -0.321,0.607 -0.1,0.388 -0.421,0.876 -0.725,1.079 -0.303,0.203 -1.163,0.119 -1.635,-0.051 -0.472,-0.169 -1.163,0.506 -1.448,0.642 -0.288,0.136 0.371,0.034 0.792,-0.017 0.421,-0.051 1.836,-0.119 2.022,0.033 0.185,0.152 -0.371,2.022 -0.371,2.344 0,0.32 0.548,0.786 0.8,1.114 0.254,0.328 -0.404,0.211 -0.648,0.22 -0.245,0.009 -0.388,0 -0.709,-0.203 -0.32,-0.203 -0.841,1.08 -0.867,1.57 -0.025,0.489 0.303,1.164 0.43,1.401 0.125,0.235 1.415,0.058 1.491,0.1 0.076,0.043 -0.051,0.178 -0.176,0.322 -0.127,0.144 0.015,0.43 0.015,0.573 0,0.143 -0.413,0.212 -0.572,0.381 -0.161,0.167 0.085,0.607 0.093,0.809 0.008,0.203 -0.161,0.423 -0.472,0.584 -0.313,0.161 -0.826,-0.229 -0.902,-0.321 -0.076,-0.092 -0.025,-1.182 -0.025,-1.342 0,-0.161 -0.572,-0.337 -0.582,-0.447 -0.009,-0.109 0.438,-0.236 0.447,-0.423 0.008,-0.185 -0.985,-0.244 -1.112,-0.235 -0.127,0.009 -0.06,-0.194 -0.025,-0.347 0.034,-0.152 -0.169,-0.043 -0.346,0.025 -0.177,0.067 -0.161,0.008 -0.271,-0.169 -0.108,-0.177 -0.167,0.033 -0.396,-0.018 -0.227,-0.049 -0.909,-0.548 -1.188,-0.658 -0.277,-0.11 0.733,0.921 0.834,1.132 0.102,0.212 -0.244,0.058 -0.379,0.127 -0.134,0.066 -0.345,0.261 -0.523,0.388 -0.176,0.127 0.902,-0.152 1.375,-0.152 0.472,0 0.641,0.364 0.675,0.6 0.032,0.236 0.117,-0.076 0.219,-0.219 0.101,-0.144 0.531,0.6 0.616,0.769 0.083,0.167 -0.161,0.312 -0.271,0.438 -0.11,0.127 0.294,0.102 0.355,0.16 0.058,0.06 0.176,0.286 0.21,0.507 0.034,0.22 0.269,0.277 0.32,0.48 0.051,0.203 -0.269,0.262 -0.758,0.439 -0.489,0.176 -0.918,0.692 -1.154,0.877 -0.237,0.186 -0.43,1.09 -0.523,1.308 -0.093,0.221 -0.271,0.921 -0.43,1.394 -0.161,0.474 0.362,1.141 0.472,1.375 0.11,0.237 -0.809,-0.109 -1.137,-0.042 -0.33,0.067 -0.607,0.591 -0.902,0.785 -0.296,0.194 -0.531,-0.261 -0.717,-0.489 -0.185,-0.229 -0.716,-0.144 -0.9,-0.279 -0.186,-0.133 0.008,-0.354 0.277,-0.564 0.269,-0.212 0.665,-0.145 0.809,-0.295 0.144,-0.152 -0.269,-0.236 -0.43,-0.347 -0.161,-0.11 0.26,-0.303 0.506,-0.557 0.244,-0.254 -0.531,-0.203 -0.75,-0.221 -0.22,-0.017 0.058,-0.548 -0.05,-0.811 -0.11,-0.26 -0.229,-0.033 -0.354,0.068 -0.127,0.102 -0.127,-0.228 -0.506,-0.489 -0.379,-0.263 0.058,0.599 0.076,0.827 0.017,0.229 -0.119,0.312 -0.296,0.244 -0.176,-0.066 0.06,0.381 -0.067,0.524 -0.125,0.144 0.338,0.692 0.472,0.843 0.135,0.152 0.051,0.288 -0.167,0.474 -0.22,0.185 0.049,0.438 0.017,0.709 -0.034,0.27 -0.296,0.161 -0.48,-0.051 -0.186,-0.211 -0.582,-0.203 -0.758,-0.397 -0.178,-0.192 -1.003,-0.421 -1.23,-0.667 -0.229,-0.243 0.379,-0.624 0.252,-0.961 -0.127,-0.339 -0.548,-0.516 -0.682,-0.743 -0.135,-0.229 0.379,-0.152 0.598,-0.565 0.22,-0.414 -0.21,-0.423 -0.405,-0.271 -0.193,0.152 -0.294,0.076 -0.555,0.127 -0.263,0.051 -0.136,-0.067 -0.449,-0.33 -0.312,-0.261 -0.799,-0.167 -1.053,-0.362 -0.252,-0.194 0.303,-0.92 0.312,-1.181 0.008,-0.263 -0.606,0.667 -0.69,0.775 -0.084,0.109 -0.178,0.169 -0.404,0.069 -0.229,-0.102 -0.421,-0.062 -0.834,0.082 -0.413,0.145 -1.525,0.449 -1.972,0.221 -0.447,-0.228 0.125,-0.212 0.202,-0.464 0.076,-0.254 -0.606,0.025 -0.911,-0.229 -0.303,-0.254 -0.563,0.102 -0.876,-0.042 -0.312,-0.145 -0.252,-0.438 -0.235,-0.734 0.017,-0.295 -0.159,-0.27 -0.159,-0.422 0,-0.152 0.32,-0.338 0.504,-0.414 0.186,-0.075 0.051,-0.565 -0.034,-0.777 -0.083,-0.21 -0.733,-0.04 -0.97,0.011 -0.235,0.049 -0.462,-0.085 -0.682,-0.187 -0.218,-0.102 -0.159,0.009 -0.413,0.009 -0.252,0 -0.093,-1.057 -0.009,-1.184 0.085,-0.127 -0.185,-0.227 -0.312,-0.573 -0.126,-0.346 -0.186,0.155 -0.186,0.325 0,0.169 -0.235,0.051 -0.421,-0.051 -0.186,-0.102 -0.69,0.354 -1.078,0.455 -0.388,0.102 0.167,0.271 0.354,0.271 0.185,0 0.538,0.254 0.657,0.455 0.118,0.203 -0.557,0.22 -1.044,0.491 -0.489,0.269 0.185,0.404 0.438,0.404 0.252,0 0.1,0.102 0.1,0.269 0,0.17 0.136,0.44 0.675,0.406 0.54,-0.033 0.388,-0.22 0.623,-0.406 0.237,-0.184 0.336,0.355 0.169,0.406 -0.169,0.051 -0.54,0.286 -0.758,0.422 -0.22,0.135 0.034,0.271 0.118,0.474 0.083,0.201 -0.305,0.388 -0.709,0.506 -0.404,0.118 -0.051,-0.136 -0.017,-0.372 0.034,-0.235 0.051,-0.337 -0.303,-0.591 -0.354,-0.252 -1.887,-1.249 -2.511,-1.351 -0.623,-0.102 -1.618,-0.118 -2.713,-0.051 -1.097,0.068 -1.366,0.424 -1.533,0.575 -0.169,0.151 -0.22,0.489 -0.44,0.489 -0.22,0 -0.371,0.303 -0.674,0.252 -0.303,-0.049 -0.404,0.051 -0.54,0.203 -0.134,0.152 -0.623,0.221 -0.892,0.288 -0.271,0.067 -0.927,-0.355 -1.113,-0.423 -0.186,-0.068 -0.456,0.169 -0.572,0.321 -0.118,0.15 -0.625,0.051 -0.91,-0.067 -0.288,-0.119 0.201,-0.119 0.386,-0.203 0.186,-0.085 -0.268,-0.119 -0.589,-0.119 -0.32,0 -0.708,0.475 -0.927,0.608 -0.219,0.135 -0.337,0.507 -0.64,0.271 -0.304,-0.237 -0.034,-0.963 -0.186,-1.215 -0.152,-0.254 -0.386,-0.051 -0.589,0.152 -0.203,0.201 -0.457,0.084 -0.86,0.218 -0.404,0.136 -0.961,0.44 -1.163,0.727 -0.203,0.287 0.219,0.641 0.32,0.793 0.101,0.152 0.118,0.187 -0.39,0.423 -0.504,0.235 -0.402,1.013 -0.538,1.484 -0.135,0.475 0.288,0.355 0.523,0.406 0.235,0.049 0.151,0.201 -0.286,0.388 -0.44,0.187 -0.101,0.506 -0.338,0.642 -0.235,0.135 -0.034,0.254 -0.15,0.423 -0.119,0.168 -0.254,-0.118 -0.337,-0.237 -0.084,-0.118 -0.203,-0.169 -0.557,-0.169 -0.354,0 -0.252,-0.252 -0.625,-0.252 -0.369,0 -1.095,0.758 -1.18,0.894 -0.083,0.135 -0.269,0.152 -0.523,0.186 -0.252,0.034 -0.167,0.473 -0.269,0.608 -0.102,0.135 -0.336,-0.17 -0.709,-0.254 -0.369,-0.083 -0.824,0.474 -1.076,0.929 -0.254,0.455 -0.271,1.249 -0.406,1.469 -0.135,0.221 -0.286,0.203 -0.201,-0.118 0.083,-0.321 0.117,-0.489 0.117,-0.794 0,-0.303 -0.369,0.457 -0.487,0.591 -0.119,0.136 -0.254,0.288 -0.322,-0.016 -0.068,-0.305 0.288,-1.064 0.373,-1.384 0.084,-0.321 -0.22,0.134 -0.557,0.252 -0.336,0.118 0.151,-0.743 0.252,-1.182 0.102,-0.439 0.271,-0.253 0.506,-0.439 0.235,-0.185 -0.066,-0.219 -0.269,-0.32 -0.203,-0.101 -0.068,-0.135 -0.034,-0.539 0.034,-0.406 -0.489,-0.085 -0.708,-0.051 -0.22,0.033 0,0.387 -0.152,0.573 -0.152,0.186 -0.271,-0.017 -0.523,-0.017 -0.252,0 0.252,0.455 0.252,0.641 0,0.187 0.034,0.068 0.203,0.322 0.169,0.252 -0.438,0.37 -0.523,0.455 -0.083,0.085 -0.066,0.286 -0.066,0.421 0,0.136 -0.22,0.271 -0.423,0.473 -0.202,0.203 0.457,0.592 0.44,0.795 -0.017,0.202 -0.406,-0.118 -0.675,-0.236 -0.269,-0.119 -0.455,-0.034 -0.911,0 -0.455,0.033 1.23,0.776 1.366,0.894 0.136,0.118 -0.118,0.152 -0.271,0.236 -0.151,0.085 -0.386,0.777 -0.589,0.98 -0.203,0.201 -0.187,0.235 -0.085,0.455 0.102,0.22 0.203,0.489 0.034,0.438 -0.169,-0.051 -0.758,0.051 -1.012,0.067 -0.252,0.017 0.068,-0.235 0.017,-0.506 -0.051,-0.271 -0.218,-0.187 -0.42,-0.136 -0.203,0.051 -0.034,0.658 -0.338,0.828 -0.303,0.169 -0.1,-0.102 -0.084,-0.288 0.017,-0.185 0.017,-0.472 0.017,-0.642 0,-0.169 -0.504,0.861 -0.69,1.048 -0.186,0.185 -0.47,0 -0.572,-0.067 -0.102,-0.068 -0.305,0.118 -0.438,0.285 -0.135,0.17 0.015,0.288 0.235,0.373 0.22,0.084 0.288,0.22 0.354,0.338 0.068,0.117 0.608,-0.406 0.86,-0.508 0.252,-0.102 1.298,-0.118 1.637,0 0.335,0.119 -0.187,0.17 -0.39,0.339 -0.203,0.169 1.147,0.085 1.248,0.136 0.102,0.049 0,0.252 0,0.472 0,0.219 0.472,0.185 0.59,0.235 0.119,0.051 -0.017,0.44 -0.118,0.675 -0.102,0.237 -0.102,0.355 -0.187,0.576 -0.084,0.218 -0.369,0.319 -0.656,0.539 -0.286,0.219 -0.068,0.558 -0.136,0.727 -0.067,0.169 -0.504,0.051 -0.843,0.017 -0.336,-0.034 -0.925,0.034 -1.347,0.303 -0.423,0.271 -0.438,1.251 -0.457,1.47 -0.015,0.22 -0.202,0.287 -0.521,0.455 -0.32,0.169 -0.118,-0.27 -0.135,-0.404 -0.017,-0.136 -0.47,-0.27 -0.741,-0.388 -0.271,-0.119 -0.286,-0.187 -0.303,-0.424 -0.019,-0.234 -0.591,-0.506 -0.675,-0.76 -0.084,-0.252 0.017,-0.286 0.237,-0.286 0.22,0 0.337,-0.151 0.152,-0.271 -0.186,-0.118 -0.237,-0.506 -0.237,-0.658 0,-0.152 -0.203,-0.354 -0.454,-0.557 -0.254,-0.203 0.049,-0.354 -0.169,-0.692 -0.22,-0.338 -1.399,-1.316 -1.787,-1.706 -0.389,-0.387 -0.404,0.085 -0.809,0.068 -0.406,-0.018 -0.455,-0.371 -0.64,-0.591 -0.187,-0.22 -0.726,0.051 -1.131,-0.051 -0.404,-0.1 -1.096,-0.557 -1.313,-0.743 -0.22,-0.185 -0.237,-0.102 -0.491,-0.303 -0.252,-0.203 -1.195,-0.067 -1.432,0.051 -0.237,0.118 -0.102,0.286 -0.152,0.506 -0.05,0.22 -0.337,0.152 -0.454,0.32 -0.119,0.169 0.318,0.439 0.454,0.709 0.135,0.271 0.034,0.439 -0.135,0.711 -0.167,0.269 -0.202,0.825 -0.572,0.876 -0.37,0.051 -0.22,0.136 -0.489,0.288 -0.269,0.152 -1.129,0.15 -1.518,0.15 -0.386,0 -0.352,0.339 -0.572,0.339 -0.22,0 -0.758,0.22 -0.876,0.305 -0.119,0.083 -0.252,-0.271 -0.521,-0.591 -0.271,-0.321 -0.708,-0.39 -0.743,-0.677 -0.032,-0.286 0.574,-0.775 0.811,-0.894 0.235,-0.119 -0.186,-0.475 -0.389,-1.115 -0.203,-0.642 0.034,-1.603 0.591,-2.295 0.557,-0.692 1.247,-0.607 1.567,-0.607 0.32,0 0.574,-0.658 0.775,-0.861 0.203,-0.203 0.286,-0.119 0.557,-0.187 0.269,-0.067 0.792,-0.642 1.213,-0.928 0.421,-0.287 1.196,-0.354 1.568,-0.354 0.369,0 0.335,0.151 0.386,0.354 0.051,0.202 0.724,0.574 1.062,0.894 0.337,0.322 0.252,0.558 0.286,0.777 0.034,0.219 0.235,-0.422 0.252,-0.574 0.017,-0.152 0.86,0.507 0.775,0.152 -0.085,-0.355 -0.69,-0.287 -0.843,-0.49 -0.151,-0.201 0.524,-0.759 0.91,-1.164 0.389,-0.405 0.169,-0.523 0.152,-0.625 -0.017,-0.102 0.186,-0.237 0.305,-0.321 0.117,-0.083 0.335,0.033 0.538,0.118 0.203,0.085 1.533,-0.591 1.838,-0.859 0.303,-0.271 2.082,-1.515 2.232,-1.65 0.152,-0.135 0.051,-0.978 0.093,-1.181 0.042,-0.203 0.548,-0.229 0.927,-0.187 0.379,0.042 0.388,-0.726 0.498,-0.944 0.108,-0.22 0.843,-0.355 1.061,-0.432 0.218,-0.077 -0.008,-0.337 0.066,-0.616 0.078,-0.279 -0.168,-1.005 -0.234,-1.189 -0.067,-0.186 0.21,-0.169 0.352,-0.211 0.144,-0.043 -0.034,-0.203 -0.058,-0.354 -0.027,-0.152 0.142,-0.127 0.312,-0.135 0.169,-0.009 0.498,-0.043 0.69,-0.161 0.195,-0.118 0.413,-0.009 0.531,0.136 0.119,0.142 0.237,0.067 0.329,-0.152 0.093,-0.221 -0.337,-0.187 -0.481,-0.355 -0.142,-0.168 0.102,-0.337 0.136,-0.531 0.034,-0.193 0.142,0.16 0.379,-0.025 0.237,-0.185 0.572,-0.523 0.75,-0.523 0.178,0 0.136,-0.102 0.127,-0.294 -0.008,-0.195 0.136,-0.17 0.312,-0.406 0.178,-0.235 0.076,-0.642 0,-0.811 -0.074,-0.168 0.178,-0.159 0.288,-0.244 0.108,-0.084 0.051,-0.135 -0.11,-0.287 -0.161,-0.152 0.025,-0.367 0.042,-0.57 0.017,-0.203 -0.034,-0.288 -0.136,-0.456 -0.102,-0.169 0.54,-0.304 0.606,-0.389 0.068,-0.085 -0.083,-0.337 -0.185,-0.523 -0.1,-0.186 -0.017,-0.202 0.151,-0.472 0.169,-0.271 -0.217,-0.506 -0.352,-0.845 -0.135,-0.338 0.724,0.221 1.027,0.288 0.303,0.065 0.658,-0.929 0.976,-1.03 0.322,-0.102 0.322,0.084 0.373,0.253 0.051,0.168 0.303,0.185 0.421,0.337 0.117,0.152 -0.034,0.951 -0.025,1.062 0.008,0.108 -0.237,0.091 -0.32,0.142 -0.084,0.051 0.066,0.178 0.11,0.127 0.041,-0.051 0.235,0.043 0.43,0.034 0.193,-0.009 0.335,-0.345 0.471,-0.464 0.135,-0.118 0.345,0.198 0.582,0.416 0.235,0.221 0.169,-0.05 0.22,-0.169 0.049,-0.116 0.809,-0.134 1.042,-0.083 0.237,0.05 0.658,0.692 0.876,0.894 0.22,0.203 -0.538,-1.097 -0.673,-1.249 -0.134,-0.152 -0.471,-0.186 -0.623,-0.084 -0.152,0.102 -0.69,-0.119 -0.826,-0.034 -0.136,0.085 -0.237,-0.252 -0.455,-0.438 -0.218,-0.186 -0.286,-1.115 -0.235,-1.231 0.049,-0.119 -0.254,-0.54 -0.22,-0.692 0.034,-0.152 0.354,0 0.354,0.085 0,0.083 0.252,0.102 0.843,0.134 0.59,0.033 0.792,-0.674 1.01,-0.81 0.22,-0.135 0.305,0.051 0.44,0.168 0.135,0.118 1.027,-0.051 1.398,-0.253 0.372,-0.202 0.792,-1.13 0.724,-1.4 -0.068,-0.271 0.119,-0.54 0.22,-0.727 0.101,-0.186 0.017,-0.963 0.067,-1.13 0.051,-0.17 0.725,-0.254 1.129,-0.609 0.404,-0.354 1.87,-1.603 2.039,-1.84 0.169,-0.235 0.068,-0.354 0.119,-0.692 0.051,-0.336 0.843,-0.979 1.179,-1.231 0.337,-0.254 1.349,-0.879 1.652,-1.147 0.303,-0.271 0.202,-3.26 0.269,-3.85 0.068,-0.591 -0.504,-1.84 -0.419,-2.346 0.083,-0.508 0.521,-0.743 0.792,-1.655 0.269,-0.912 0.269,-2.278 0.286,-2.718 0.016,-0.438 0,-0.794 0.371,-0.861 0.371,-0.068 1.517,-0.1 1.872,0.102 0.352,0.203 0.504,0.084 0.959,0.287 0.455,0.202 0.658,0.456 1.08,0.845 0.421,0.388 0.792,0.337 1.718,0.286 0.927,-0.051 0.902,-0.618 1.675,-1.391 0.773,-0.773 1.384,-1.17 1.494,-1.23 0.11,-0.058 0.093,-0.473 0.186,-0.64 0.092,-0.17 0.202,0.093 0.261,0.167 0.059,0.076 0.108,0.24 0.413,0.09 0.303,-0.152 0.134,0.201 0.084,0.286 -0.051,0.085 -0.152,0.372 -0.152,0.642 0,0.271 0.218,0.287 0.252,0.067 0.034,-0.22 0.22,-0.421 0.438,-0.76 0.22,-0.337 -0.034,-0.168 0.169,-0.776 0.201,-0.608 1.281,-0.574 1.55,-0.574 0.269,0 0.237,-0.118 0.336,-0.303 0.102,-0.187 0.186,0.083 0.608,0.218 0.421,0.136 0.623,0.136 0.859,0.136 0.235,0 0.404,0.692 0.606,0.878 0.203,0.187 -0.017,-0.573 -0.269,-0.878 -0.254,-0.303 0.084,-0.201 0.218,-0.321 0.135,-0.117 -0.455,0.019 -1.01,-0.168 -0.557,-0.186 -0.741,-0.421 -1.097,-0.557 -0.354,-0.136 -0.437,0.067 -0.741,0.185 -0.303,0.118 -0.354,0.203 -0.86,0.169 -0.504,-0.033 -1.01,0.912 -1.315,0.709 -0.303,-0.203 -0.504,-1.839 -0.521,-2.076 -0.017,-0.235 -0.135,-0.136 -0.322,-0.185 -0.184,-0.051 0.051,-0.236 -0.049,-0.457 -0.102,-0.22 -0.523,-0.455 -0.625,-0.641 -0.102,-0.187 1.181,-0.249 1.366,-0.385 0.186,-0.135 0.269,-0.852 0.194,-1.088 -0.076,-0.237 -0.304,-0.498 -0.387,-0.574 -0.084,-0.076 -0.068,-0.186 0.15,-0.186 0.22,0 0.261,-0.263 0.303,-0.406 0.042,-0.143 0.641,-0.117 1.021,-0.15 0.379,-0.034 0.809,-0.166 1.061,-0.316 0.252,-0.152 1.804,-0.393 2.007,-0.393 0.202,0 0.631,0.345 0.733,0.506 0.102,0.16 0.447,-0.339 0.658,-0.464 0.21,-0.127 0.909,-0.102 1.601,-0.093 0.69,0.008 1.381,-0.633 1.694,-0.642 0.312,-0.009 0.419,0.067 0.809,0.201 0.387,0.136 1.036,-0.446 1.33,-0.455 0.294,-0.009 0.237,0.144 0.701,0.169 0.463,0.025 0.883,-0.57 1.086,-0.688 0.201,-0.117 0.32,0.152 0.489,0.321 0.167,0.169 -0.069,0.051 0.555,0.051 0.624,0 2.967,0.625 3.49,0.743 0.521,0.116 0.235,0 0.673,0.237 0.438,0.234 0.775,-0.525 0.995,-0.711 0.218,-0.185 0.724,-0.051 1.668,0.017 0.943,0.067 1.735,0.743 1.989,1.251 0.252,0.506 0.489,-0.085 0.59,-0.085 0.1,0 0.521,0.692 0.96,1.029 0.438,0.338 2.782,0.186 3.252,0.287 0.473,0.102 0.473,-0.203 0.843,0.152 0.372,0.354 0.489,-0.541 0.86,-0.439 0.37,0.102 1.264,-0.456 1.382,-0.574 0.119,-0.118 0.168,-0.136 0.69,0 0.523,0.136 0.507,-0.085 0.692,-0.254 0.185,-0.167 1.196,-0.252 1.466,-0.286 0.269,-0.033 0.692,0.185 1.028,0.422 0.337,0.236 0.826,-0.337 0.994,-0.404 0.169,-0.068 0.22,0.218 0.203,0.438 -0.018,0.221 -0.17,0.203 -0.438,0.406 -0.27,0.202 -0.102,0.523 -0.203,0.86 -0.102,0.338 0.271,-0.083 0.305,-0.304 0.032,-0.22 0.37,-0.033 0.589,-0.253 0.22,-0.221 0.506,-1.401 0.54,-1.637 0.033,-0.237 0.488,0.065 0.825,0.065 0.337,0 -0.254,-0.506 -0.354,-0.709 -0.102,-0.201 -0.557,-1.282 -0.775,-1.568 -0.22,-0.288 0.405,-1.474 0.438,-1.76 0.034,-0.288 -0.252,-0.93 -0.529,-1.166 -0.279,-0.235 0.741,0.035 0.926,0.16 0.186,0.127 0.067,0.777 0.051,1.006 -0.018,0.227 0.271,0.421 0.515,0.413 0.243,-0.009 -0.034,-0.202 -0.152,-0.279 -0.117,-0.075 -0.068,-0.69 -0.117,-0.81 -0.051,-0.118 0.025,-0.497 0.083,-0.649 0.06,-0.152 -0.305,-1.119 -0.39,-1.271 -0.083,-0.152 0.894,-0.472 0.894,-0.912 0,-0.438 -0.303,-0.641 -0.521,-0.656 -0.221,-0.019 1.01,-0.457 1.196,-0.559 0.185,-0.102 0.69,0.39 1.027,0.136 0.338,-0.254 0.726,-1.147 1.062,-1.604 0.337,-0.455 2.117,-2.512 2.208,-2.62 0.094,-0.109 0.246,-0.017 0.515,-0.017 0.27,0 0.203,-0.338 0.642,-0.499 0.437,-0.159 0.379,0.127 0.775,0.236 0.396,0.11 0.43,-0.285 0.546,-0.396 0.119,-0.11 0.237,0 0.405,0.11 0.169,0.108 0.506,0.311 0.387,0.176 -0.116,-0.136 -0.342,-0.528 -0.308,-0.931 0.034,-0.404 0.538,-1.312 0.942,-1.716 0.403,-0.403 0.066,-1.11 0.27,-1.515 0.201,-0.403 0.975,-0.773 1.042,-1.009 0.068,-0.235 0.437,-0.437 0.74,-0.739 0.303,-0.304 0.741,-1.077 0.874,-1.38 0.136,-0.303 0.838,-1.383 1.344,-1.771 0.507,-0.388 0.657,-0.404 1.112,-0.727 0.455,-0.319 1.012,-1.737 1.23,-2.06 0.22,-0.319 0.388,-0.118 0.825,-0.084 0.438,0.033 0.136,-0.235 0.979,-0.676 0.843,-0.438 0.54,-0.76 0.421,-1.113 -0.118,-0.354 -0.675,-0.388 -1.179,-0.624 -0.507,-0.237 -0.373,-0.811 -0.152,-1.08 0.218,-0.271 0.927,0.658 1.314,0.792 0.388,0.136 0.826,-0.152 1.011,-0.319 0.186,-0.17 0,-0.777 -0.117,-1.08 -0.118,-0.305 0.15,-0.946 0,-0.66 -0.152,0.288 -0.372,0.946 -0.421,1.166 -0.051,0.219 0.134,0.438 -0.254,0.422 -0.388,-0.018 -1.078,-0.845 -1.466,-1.097 -0.388,-0.254 -0.894,0.978 -1.046,1.653 -0.15,0.675 1.23,0.557 1.332,0.776 0.102,0.219 -0.168,0.404 -0.523,0.625 -0.354,0.22 -1.719,1.316 -1.938,1.435 -0.22,0.118 -0.303,0.54 -0.319,0.811 -0.018,0.271 -0.119,0.203 -0.455,0.32 -0.337,0.118 -2.764,2.009 -3.137,2.194 -0.37,0.187 -0.082,0.473 -0.133,0.743 -0.016,0.079 -0.058,0.164 -0.114,0.25 0,0 0.143,0.002 -0.021,-0.184 -0.162,-0.187 -0.141,-0.33 -0.141,-0.33 0,0 0.125,-0.424 -0.003,-0.489 -0.212,-0.113 -0.182,0.053 -0.295,0.021 -0.155,-0.042 -0.098,-0.174 -0.098,-0.174 l 0.367,-0.538 c 0.084,-0.187 0.058,-0.295 -0.076,-0.325 -0.044,0.323 -0.395,0.378 -0.528,0.187 l 0.048,-0.27 c 0.051,-0.086 0.197,-0.113 0.444,-0.086 0.367,-0.074 0.517,-0.266 0.362,-0.386 -0.211,-0.088 -0.402,-0.163 -0.435,-0.284 0.213,-0.418 0.139,-0.681 -0.222,-0.782 l -0.17,-0.15 0.092,-0.068 c 0.27,0.247 0.388,0.195 0.362,-0.158 -0.049,-0.124 -0.15,-0.253 -0.302,-0.376 l -0.079,-0.425 0.016,-0.154 c 0,0 -0.216,-0.178 -0.212,-0.262 0.007,-0.09 0.434,-0.261 0.434,-0.261 l 0.061,-0.322 c 0.303,-0.485 0.263,-0.79 -0.113,-0.901 l -0.235,-0.473 c 0.146,-0.167 0.191,-0.333 0.137,-0.497 l 0.068,-0.198 0.12,-0.476 -0.303,-0.382 0.188,-0.341 c 0.185,-0.008 0.301,-0.04 0.365,-0.093 0.03,-0.099 0.009,-0.217 -0.062,-0.364 l 0.005,-0.229 0.327,-0.076 10e-4,-0.069 0.002,-0.07 c -0.175,0.013 -0.195,-0.155 -0.195,-0.155 z"
           id="path34" />
      </g>
    </g>
  </g>
</svg>
